<?xml version="1.0" encoding="UTF-8" standalone="no"?>
<!-- Created with Inkscape (http://www.inkscape.org/) -->

<svg
   width="93.538872mm"
   height="98.867294mm"
   viewBox="0 0 93.538872 98.867294"
   version="1.1"
   id="svg1"
   inkscape:version="1.3.1 (91b66b0783, 2023-11-16)"
   sodipodi:docname="Test-Micro-Board-1.svg"
   inkscape:export-filename="MicroBoard1\Track3.svg"
   inkscape:export-xdpi="96"
   inkscape:export-ydpi="96"
   xmlns:inkscape="http://www.inkscape.org/namespaces/inkscape"
   xmlns:sodipodi="http://sodipodi.sourceforge.net/DTD/sodipodi-0.dtd"
   xmlns="http://www.w3.org/2000/svg"
   xmlns:svg="http://www.w3.org/2000/svg">
  <sodipodi:namedview
     id="namedview1"
     pagecolor="#ffffff"
     bordercolor="#000000"
     borderopacity="0.25"
     inkscape:showpageshadow="2"
     inkscape:pageopacity="0.0"
     inkscape:pagecheckerboard="0"
     inkscape:deskcolor="#d1d1d1"
     inkscape:document-units="mm"
     inkscape:zoom="3.0680976"
     inkscape:cx="206.96865"
     inkscape:cy="60.297952"
     inkscape:window-width="1280"
     inkscape:window-height="830"
     inkscape:window-x="-8"
     inkscape:window-y="293"
     inkscape:window-maximized="1"
     inkscape:current-layer="g8" />
  <defs
     id="defs1" />
  <g
     inkscape:groupmode="layer"
     id="g5"
     inkscape:label="Track3 copy"
     style="display:inline"
     transform="translate(-3.4424262,-1.2796182)">
    <path
       style="fill:none;stroke:#000000;stroke-width:0.3"
       d="M 92.963385,2.2421603 Z"
       id="path109" />
    <path
       style="fill:none;stroke:#000000;stroke-width:0.3"
       d="M 90.864639,2.9674268 90.74917,2.4809427"
       id="path108" />
    <path
       style="fill:none;stroke:#000000;stroke-width:0.3"
       d="m 85.899748,2.9123954 0.07803,-0.493874"
       id="path107" />
    <path
       style="fill:none;stroke:#000000;stroke-width:0.3"
       d="m 80.968433,2.08806 0.06804,-0.4953487"
       id="path106" />
    <path
       style="fill:none;stroke:#000000;stroke-width:0.3"
       d="m 75.982688,1.782068 -0.0084,-0.4999299"
       id="path105" />
    <path
       style="fill:none;stroke:#000000;stroke-width:0.3"
       d="M 71.113155,2.6404219 70.828781,2.2291661"
       id="path104" />
    <path
       style="fill:none;stroke:#000000;stroke-width:0.3"
       d="m 68.125693,6.3131312 -0.108661,-0.48805"
       id="path103" />
    <path
       style="fill:none;stroke:#000000;stroke-width:0.3"
       d="M 63.681024,4.6844041 64.0009,4.3001132"
       id="path102" />
    <path
       style="fill:none;stroke:#000000;stroke-width:0.3"
       d="M 58.967411,3.3137817 58.997751,2.814703"
       id="path101" />
    <path
       style="fill:none;stroke:#000000;stroke-width:0.3"
       d="M 53.968898,3.270783 53.95762,2.7709102"
       id="path100" />
    <path
       style="fill:none;stroke:#000000;stroke-width:0.3"
       d="M 48.979994,3.5704783 48.913206,3.0749589"
       id="path99" />
    <path
       style="fill:none;stroke:#000000;stroke-width:0.3"
       d="M 53.126724,7.8108311 52.746257,8.1352459"
       id="path98" />
    <path
       style="fill:none;stroke:#000000;stroke-width:0.3"
       d="m 49.508351,9.9292323 0.0085,-0.4999274"
       id="path97" />
    <path
       style="fill:none;stroke:#000000;stroke-width:0.3"
       d="M 44.83366,8.2288559 45.037414,7.772255"
       id="path96" />
    <path
       style="fill:none;stroke:#000000;stroke-width:0.3"
       d="M 40.168236,6.4409895 40.310718,5.9617203"
       id="path95" />
    <path
       style="fill:none;stroke:#000000;stroke-width:0.3"
       d="m 35.262829,5.5190423 0.04468,-0.4979995"
       id="path94" />
    <path
       style="fill:none;stroke:#000000;stroke-width:0.3"
       d="M 30.268268,5.4698361 30.232948,4.9710852"
       id="path93" />
    <path
       style="fill:none;stroke:#000000;stroke-width:0.3"
       d="M 25.388675,5.5971064 25.178738,5.1433154"
       id="path92" />
    <path
       style="fill:none;stroke:#000000;stroke-width:0.3"
       d="m 26.343733,10.057773 -0.268752,0.421631"
       id="path91" />
    <path
       style="fill:none;stroke:#000000;stroke-width:0.3"
       d="m 30.930502,11.995774 -0.126055,0.483849"
       id="path90" />
    <path
       style="fill:none;stroke:#000000;stroke-width:0.3"
       d="m 35.818342,13.046397 -0.102875,0.489302"
       id="path89" />
    <path
       style="fill:none;stroke:#000000;stroke-width:0.3"
       d="m 40.6906,14.168058 -0.121299,0.485064"
       id="path88" />
    <path
       style="fill:none;stroke:#000000;stroke-width:0.3"
       d="m 45.511182,15.493333 -0.146829,0.477955"
       id="path87" />
    <path
       style="fill:none;stroke:#000000;stroke-width:0.3"
       d="m 50.132955,17.360125 -0.28991,0.407372"
       id="path86" />
    <path
       style="fill:none;stroke:#000000;stroke-width:0.3"
       d="M 47.088083,20.323875 47.099253,19.824"
       id="path85" />
    <path
       style="fill:none;stroke:#000000;stroke-width:0.3"
       d="m 41.990389,18.516814 0.0669,-0.495503"
       id="path84" />
    <path
       style="fill:none;stroke:#000000;stroke-width:0.3"
       d="m 37.043543,17.790005 0.07464,-0.494397"
       id="path83" />
    <path
       style="fill:none;stroke:#000000;stroke-width:0.3"
       d="m 32.092625,17.092195 0.0608,-0.49629"
       id="path82" />
    <path
       style="fill:none;stroke:#000000;stroke-width:0.3"
       d="m 27.108862,16.738651 -0.0071,-0.499949"
       id="path81" />
    <path
       style="fill:none;stroke:#000000;stroke-width:0.3"
       d="M 22.100691,16.354628 21.777404,15.973202"
       id="path80" />
    <path
       style="fill:none;stroke:#000000;stroke-width:0.3"
       d="m 24.064306,21.361257 -0.162567,0.472834"
       id="path79" />
    <path
       style="fill:none;stroke:#000000;stroke-width:0.3"
       d="m 28.939325,22.445586 -0.07917,0.493692"
       id="path78" />
    <path
       style="fill:none;stroke:#000000;stroke-width:0.3"
       d="m 33.886737,23.168469 -0.07013,0.495057"
       id="path77" />
    <path
       style="fill:none;stroke:#000000;stroke-width:0.3"
       d="m 38.829134,23.923908 -0.08532,0.492666"
       id="path76" />
    <path
       style="fill:none;stroke:#000000;stroke-width:0.3"
       d="M 43.693791,25.057219 43.530084,25.52966"
       id="path75" />
    <path
       style="fill:none;stroke:#000000;stroke-width:0.3"
       d="M 47.199462,28.579004 47.07385,28.095039"
       id="path74" />
    <path
       style="fill:none;stroke:#000000;stroke-width:0.3"
       d="m 40.904524,27.529074 0.08638,-0.492481"
       id="path73" />
    <path
       style="fill:none;stroke:#000000;stroke-width:0.3"
       d="m 35.963844,26.766237 0.05763,-0.496668"
       id="path72" />
    <path
       style="fill:none;stroke:#000000;stroke-width:0.3"
       d="m 30.975503,26.462054 0.005,-0.499975"
       id="path71" />
    <path
       style="fill:none;stroke:#000000;stroke-width:0.3"
       d="m 25.981847,26.662343 -0.04876,-0.497617"
       id="path70" />
    <path
       style="fill:none;stroke:#000000;stroke-width:0.3"
       d="M 21.285817,28.033061 20.849498,27.788879"
       id="path69" />
    <path
       style="fill:none;stroke:#000000;stroke-width:0.3"
       d="m 25.017835,30.742525 -0.15474,0.475453"
       id="path68" />
    <path
       style="fill:none;stroke:#000000;stroke-width:0.3"
       d="m 30.038654,30.264097 -0.182795,0.465388"
       id="path67" />
    <path
       style="fill:none;stroke:#000000;stroke-width:0.3"
       d="M 29.162683,35.513359 29.012535,35.036436"
       id="path66" />
    <path
       style="fill:none;stroke:#000000;stroke-width:0.3"
       d="m 23.551824,35.971114 -0.06667,-0.495536"
       id="path65" />
    <path
       style="fill:none;stroke:#000000;stroke-width:0.3"
       d="M 18.813778,35.275161 19.20736,34.966789"
       id="path64" />
    <path
       style="fill:none;stroke:#000000;stroke-width:0.3"
       d="m 16.438197,30.884197 0.417468,-0.275173"
       id="path63" />
    <path
       style="fill:none;stroke:#000000;stroke-width:0.3"
       d="m 12.989617,27.326811 0.238532,-0.439434"
       id="path62" />
    <path
       style="fill:none;stroke:#000000;stroke-width:0.3"
       d="M 8.6261854,28.545762 8.2458678,28.221172"
       id="path61" />
    <path
       style="fill:none;stroke:#000000;stroke-width:0.3"
       d="M 6.213406,32.896215 5.7426683,32.727675"
       id="path60" />
    <path
       style="fill:none;stroke:#000000;stroke-width:0.3"
       d="M 5.9284156,37.753136 5.4869179,37.987827"
       id="path59" />
    <path
       style="fill:none;stroke:#000000;stroke-width:0.3"
       d="m 10.103027,40.288297 -0.1644253,0.47219"
       id="path58" />
    <path
       style="fill:none;stroke:#000000;stroke-width:0.3"
       d="m 14.668359,42.283615 -0.296976,0.40225"
       id="path57" />
    <path
       style="fill:none;stroke:#000000;stroke-width:0.3"
       d="m 15.161979,46.665808 -0.39704,-0.303907"
       id="path56" />
    <path
       style="fill:none;stroke:#000000;stroke-width:0.3"
       d="M 10.948773,49.230579 10.77462,48.761888"
       id="path55" />
    <path
       style="fill:none;stroke:#000000;stroke-width:0.3"
       d="m 8.6032518,52.861207 -0.08174,0.493275"
       id="path54" />
    <path
       style="fill:none;stroke:#000000;stroke-width:0.3"
       d="m 16.334469,51.763747 -0.09873,0.490155"
       id="path53" />
    <path
       style="fill:none;stroke:#000000;stroke-width:0.3"
       d="m 21.191799,52.943242 -0.141357,0.479602"
       id="path52" />
    <path
       style="fill:none;stroke:#000000;stroke-width:0.3"
       d="M 24.330524,55.345039 24.087428,54.908113"
       id="path51" />
    <path
       style="fill:none;stroke:#000000;stroke-width:0.3"
       d="M 19.525131,56.678341 19.425089,56.188452"
       id="path50" />
    <path
       style="fill:none;stroke:#000000;stroke-width:0.3"
       d="M 14.62143,57.654853 14.520705,57.165104"
       id="path49" />
    <path
       style="fill:none;stroke:#000000;stroke-width:0.3"
       d="M 9.7610485,58.821151 9.6155298,58.342795"
       id="path48" />
    <path
       style="fill:none;stroke:#000000;stroke-width:0.3"
       d="M 6.017975,61.924761 5.8572153,62.398212"
       id="path47" />
    <path
       style="fill:none;stroke:#000000;stroke-width:0.3"
       d="m 12.506315,61.490093 0.06524,0.495725"
       id="path46" />
    <path
       style="fill:none;stroke:#000000;stroke-width:0.3"
       d="m 17.458246,60.798752 0.06435,0.495842"
       id="path45" />
    <path
       style="fill:none;stroke:#000000;stroke-width:0.3"
       d="m 22.43336,60.310598 0.03041,0.499074"
       id="path44" />
    <path
       style="fill:none;stroke:#000000;stroke-width:0.3"
       d="m 27.430352,60.264922 -0.02833,0.499197"
       id="path43" />
    <path
       style="fill:none;stroke:#000000;stroke-width:0.3"
       d="m 32.303817,61.245772 -0.215514,0.451169"
       id="path42" />
    <path
       style="fill:none;stroke:#000000;stroke-width:0.3"
       d="M 33.619219,65.014008 33.381768,64.573989"
       id="path41" />
    <path
       style="fill:none;stroke:#000000;stroke-width:0.3"
       d="m 28.674379,65.146728 0.04261,-0.498181"
       id="path40" />
    <path
       style="fill:none;stroke:#000000;stroke-width:0.3"
       d="m 23.681827,64.922288 -0.0086,-0.499927"
       id="path39" />
    <path
       style="fill:none;stroke:#000000;stroke-width:0.3"
       d="m 18.710724,65.409446 -0.08479,-0.492758"
       id="path38" />
    <path
       style="fill:none;stroke:#000000;stroke-width:0.3"
       d="M 13.84386,66.543623 13.702855,66.063918"
       id="path37" />
    <path
       style="fill:none;stroke:#000000;stroke-width:0.3"
       d="M 9.1544589,68.26596 8.9446452,67.812111"
       id="path36" />
    <path
       style="fill:none;stroke:#000000;stroke-width:0.3"
       d="M 4.1134677,71.161869 3.6859495,70.902585"
       id="path35" />
    <path
       style="fill:none;stroke:#000000;stroke-width:0.3"
       d="m 7.8041685,74.031475 -0.006,0.499964"
       id="path34" />
    <path
       style="fill:none;stroke:#000000;stroke-width:0.3"
       d="m 12.775611,73.542776 0.07262,0.494699"
       id="path33" />
    <path
       style="fill:none;stroke:#000000;stroke-width:0.3"
       d="m 17.718322,72.788103 0.07435,0.494441"
       id="path32" />
    <path
       style="fill:none;stroke:#000000;stroke-width:0.3"
       d="m 22.672538,72.114762 0.05752,0.49668"
       id="path31" />
    <path
       style="fill:none;stroke:#000000;stroke-width:0.3"
       d="m 27.655378,71.719442 0.01452,0.499789"
       id="path30" />
    <path
       style="fill:none;stroke:#000000;stroke-width:0.3"
       d="m 32.602985,72.220324 -0.171358,0.469719"
       id="path29" />
    <path
       style="fill:none;stroke:#000000;stroke-width:0.3"
       d="M 34.456287,76.120211 34.01954,75.876795"
       id="path28" />
    <path
       style="fill:none;stroke:#000000;stroke-width:0.3"
       d="m 30.041837,77.94508 -0.02815,-0.499207"
       id="path27" />
    <path
       style="fill:none;stroke:#000000;stroke-width:0.3"
       d="m 25.043243,78.050183 -0.01075,-0.499885"
       id="path26" />
    <path
       style="fill:none;stroke:#000000;stroke-width:0.3"
       d="M 20.04866,78.271566 20.01304,77.772837"
       id="path25" />
    <path
       style="fill:none;stroke:#000000;stroke-width:0.3"
       d="m 15.082334,78.834509 -0.08341,-0.492993"
       id="path24" />
    <path
       style="fill:none;stroke:#000000;stroke-width:0.3"
       d="m 10.317603,80.272682 -0.243698,-0.43659"
       id="path23" />
    <path
       style="fill:none;stroke:#000000;stroke-width:0.3"
       d="m 8.6876874,84.235463 -0.345157,0.361755"
       id="path22" />
    <path
       style="fill:none;stroke:#000000;stroke-width:0.3"
       d="m 13.514961,85.001345 0.02857,0.499183"
       id="path21" />
    <path
       style="fill:none;stroke:#000000;stroke-width:0.3"
       d="m 18.499778,84.613792 0.03237,0.498951"
       id="path20" />
    <path
       style="fill:none;stroke:#000000;stroke-width:0.3"
       d="m 23.495993,84.56228 -0.03222,0.49896"
       id="path19" />
    <path
       style="fill:none;stroke:#000000;stroke-width:0.3"
       d="m 28.411142,85.421469 -0.140684,0.4798"
       id="path18" />
    <path
       style="fill:none;stroke:#000000;stroke-width:0.3"
       d="M 32.699778,87.772863 32.220526,87.9154"
       id="path17" />
    <path
       style="fill:none;stroke:#000000;stroke-width:0.3"
       d="m 28.387592,89.577887 -0.07225,-0.494753"
       id="path16" />
    <path
       style="fill:none;stroke:#000000;stroke-width:0.3"
       d="m 23.416598,90.108662 -0.04126,-0.498295"
       id="path15" />
    <path
       style="fill:none;stroke:#000000;stroke-width:0.3"
       d="m 18.42932,90.464043 -0.0312,-0.499026"
       id="path14" />
    <path
       style="fill:none;stroke:#000000;stroke-width:0.3"
       d="m 13.437498,90.749645 -0.02646,-0.4993"
       id="path13" />
    <path
       style="fill:none;stroke:#000000;stroke-width:0.3"
       d="M 8.4438426,91.001374 8.4196526,90.50196"
       id="path12" />
    <path
       style="fill:none;stroke:#000000;stroke-width:0.3"
       d="M 3.4494774,91.238675 Z"
       id="path11" />
  </g>
</svg>
