<?xml version="1.0" encoding="UTF-8" standalone="no"?>
<!-- Created with Inkscape (http://www.inkscape.org/) -->

<svg
   width="264.05502mm"
   height="166.19318mm"
   viewBox="0 0 264.05502 166.19318"
   version="1.1"
   id="svg1"
   inkscape:version="1.3.1 (91b66b0783, 2023-11-16)"
   sodipodi:docname="SVG TEST.svg"
   inkscape:export-filename="TestSVG\Skunk.svg"
   inkscape:export-xdpi="96"
   inkscape:export-ydpi="96"
   xmlns:inkscape="http://www.inkscape.org/namespaces/inkscape"
   xmlns:sodipodi="http://sodipodi.sourceforge.net/DTD/sodipodi-0.dtd"
   xmlns="http://www.w3.org/2000/svg"
   xmlns:svg="http://www.w3.org/2000/svg">
  <sodipodi:namedview
     id="namedview1"
     pagecolor="#ffffff"
     bordercolor="#000000"
     borderopacity="0.25"
     inkscape:showpageshadow="2"
     inkscape:pageopacity="0.0"
     inkscape:pagecheckerboard="0"
     inkscape:deskcolor="#d1d1d1"
     inkscape:document-units="mm"
     inkscape:zoom="1.5340488"
     inkscape:cx="779.96214"
     inkscape:cy="208.27238"
     inkscape:window-width="1920"
     inkscape:window-height="1057"
     inkscape:window-x="1912"
     inkscape:window-y="-8"
     inkscape:window-maximized="1"
     inkscape:current-layer="layer1"
     showgrid="false" />
  <defs
     id="defs1" />
  <g
     inkscape:groupmode="layer"
     id="g550"
     inkscape:label="Track1_BASE copy"
     style="display:inline"
     transform="translate(-8.3707866,-3.9432402)">
    <path
       style="fill:none;stroke:#000000;stroke-width:1.565"
       d="M 272.16304,18.972155 Z"
       id="path747" />
    <path
       style="fill:none;stroke:#000000;stroke-width:1.565"
       d="m 271.81217,19.249797 -0.62052,-0.784184"
       id="path746" />
    <path
       style="fill:none;stroke:#000000;stroke-width:1.565"
       d="m 267.89125,22.352438 -0.62052,-0.784184"
       id="path745" />
    <path
       style="fill:none;stroke:#000000;stroke-width:1.565"
       d="m 263.97033,25.45508 -0.62052,-0.784184"
       id="path744" />
    <path
       style="fill:none;stroke:#000000;stroke-width:1.565"
       d="m 260.04941,28.557722 -0.62052,-0.784184"
       id="path743" />
    <path
       style="fill:none;stroke:#000000;stroke-width:1.565"
       d="m 256.12849,31.660363 -0.62053,-0.784184"
       id="path742" />
    <path
       style="fill:none;stroke:#000000;stroke-width:1.565"
       d="m 252.20757,34.763005 -0.62053,-0.784184"
       id="path741" />
    <path
       style="fill:none;stroke:#000000;stroke-width:1.565"
       d="m 248.28665,37.865647 -0.62053,-0.784185"
       id="path740" />
    <path
       style="fill:none;stroke:#000000;stroke-width:1.565"
       d="M 244.36573,40.968288 243.7452,40.184104"
       id="path739" />
    <path
       style="fill:none;stroke:#000000;stroke-width:1.565"
       d="m 240.44481,44.07093 -0.62053,-0.784184"
       id="path738" />
    <path
       style="fill:none;stroke:#000000;stroke-width:1.565"
       d="m 236.52389,47.173571 -0.62053,-0.784184"
       id="path737" />
    <path
       style="fill:none;stroke:#000000;stroke-width:1.565"
       d="m 232.60297,50.276213 -0.62053,-0.784184"
       id="path736" />
    <path
       style="fill:none;stroke:#000000;stroke-width:1.565"
       d="M 228.68205,53.378855 228.06152,52.59467"
       id="path735" />
    <path
       style="fill:none;stroke:#000000;stroke-width:1.565"
       d="M 224.76113,56.481496 224.1406,55.697312"
       id="path734" />
    <path
       style="fill:none;stroke:#000000;stroke-width:1.565"
       d="m 220.84021,59.584138 -0.62053,-0.784184"
       id="path733" />
    <path
       style="fill:none;stroke:#000000;stroke-width:1.565"
       d="m 216.91929,62.686779 -0.62053,-0.784184"
       id="path732" />
    <path
       style="fill:none;stroke:#000000;stroke-width:1.565"
       d="m 212.99837,65.789421 -0.62053,-0.784184"
       id="path731" />
    <path
       style="fill:none;stroke:#000000;stroke-width:1.565"
       d="m 209.07745,68.892063 -0.62053,-0.784184"
       id="path730" />
    <path
       style="fill:none;stroke:#000000;stroke-width:1.565"
       d="M 205.15653,71.994704 204.536,71.21052"
       id="path729" />
    <path
       style="fill:none;stroke:#000000;stroke-width:1.565"
       d="m 201.23561,75.097346 -0.62053,-0.784184"
       id="path728" />
    <path
       style="fill:none;stroke:#000000;stroke-width:1.565"
       d="m 197.31469,78.199987 -0.62053,-0.784184"
       id="path727" />
    <path
       style="fill:none;stroke:#000000;stroke-width:1.565"
       d="m 193.39377,81.302629 -0.62053,-0.784184"
       id="path726" />
    <path
       style="fill:none;stroke:#000000;stroke-width:1.565"
       d="m 195.80281,84.819711 -0.71748,0.696581"
       id="path725" />
    <path
       style="fill:none;stroke:#000000;stroke-width:1.565"
       d="m 199.28571,88.407102 -0.71748,0.696581"
       id="path724" />
    <path
       style="fill:none;stroke:#000000;stroke-width:1.565"
       d="m 202.76861,91.994494 -0.71747,0.696581"
       id="path723" />
    <path
       style="fill:none;stroke:#000000;stroke-width:1.565"
       d="m 206.25152,95.581885 -0.71748,0.696581"
       id="path722" />
    <path
       style="fill:none;stroke:#000000;stroke-width:1.565"
       d="m 209.73442,99.169277 -0.71748,0.696581"
       id="path721" />
    <path
       style="fill:none;stroke:#000000;stroke-width:1.565"
       d="m 213.21733,102.75667 -0.71748,0.69658"
       id="path720" />
    <path
       style="fill:none;stroke:#000000;stroke-width:1.565"
       d="m 216.70023,106.34406 -0.71748,0.69658"
       id="path719" />
    <path
       style="fill:none;stroke:#000000;stroke-width:1.565"
       d="m 220.18314,109.93145 -0.71748,0.69658"
       id="path718" />
    <path
       style="fill:none;stroke:#000000;stroke-width:1.565"
       d="m 223.66604,113.51884 -0.71748,0.69658"
       id="path717" />
    <path
       style="fill:none;stroke:#000000;stroke-width:1.565"
       d="m 227.14894,117.10623 -0.71747,0.69658"
       id="path716" />
    <path
       style="fill:none;stroke:#000000;stroke-width:1.565"
       d="m 230.63185,120.69363 -0.71748,0.69658"
       id="path715" />
    <path
       style="fill:none;stroke:#000000;stroke-width:1.565"
       d="m 234.11475,124.28102 -0.71748,0.69658"
       id="path714" />
    <path
       style="fill:none;stroke:#000000;stroke-width:1.565"
       d="m 237.59766,127.86841 -0.71748,0.69658"
       id="path713" />
    <path
       style="fill:none;stroke:#000000;stroke-width:1.565"
       d="m 241.08056,131.4558 -0.71748,0.69658"
       id="path712" />
    <path
       style="fill:none;stroke:#000000;stroke-width:1.565"
       d="m 244.56347,135.04319 -0.71748,0.69658"
       id="path711" />
    <path
       style="fill:none;stroke:#000000;stroke-width:1.565"
       d="m 248.04637,138.63058 -0.71748,0.69658"
       id="path710" />
    <path
       style="fill:none;stroke:#000000;stroke-width:1.565"
       d="m 251.52927,142.21797 -0.71747,0.69659"
       id="path709" />
    <path
       style="fill:none;stroke:#000000;stroke-width:1.565"
       d="m 255.01218,145.80537 -0.71748,0.69658"
       id="path708" />
    <path
       style="fill:none;stroke:#000000;stroke-width:1.565"
       d="m 258.49508,149.39276 -0.71748,0.69658"
       id="path707" />
    <path
       style="fill:none;stroke:#000000;stroke-width:1.565"
       d="m 261.58015,152.81605 -0.0178,-0.99984"
       id="path706" />
    <path
       style="fill:none;stroke:#000000;stroke-width:1.565"
       d="m 256.58096,152.90492 -0.0178,-0.99984"
       id="path705" />
    <path
       style="fill:none;stroke:#000000;stroke-width:1.565"
       d="m 251.58177,152.9938 -0.0178,-0.99984"
       id="path704" />
    <path
       style="fill:none;stroke:#000000;stroke-width:1.565"
       d="m 246.58258,153.08267 -0.0178,-0.99984"
       id="path703" />
    <path
       style="fill:none;stroke:#000000;stroke-width:1.565"
       d="m 241.58339,153.17155 -0.0178,-0.99984"
       id="path702" />
    <path
       style="fill:none;stroke:#000000;stroke-width:1.565"
       d="m 236.5842,153.26042 -0.0178,-0.99984"
       id="path701" />
    <path
       style="fill:none;stroke:#000000;stroke-width:1.565"
       d="m 231.58501,153.3493 -0.0178,-0.99984"
       id="path700" />
    <path
       style="fill:none;stroke:#000000;stroke-width:1.565"
       d="m 226.58582,153.43817 -0.0178,-0.99984"
       id="path699" />
    <path
       style="fill:none;stroke:#000000;stroke-width:1.565"
       d="m 221.58663,153.52705 -0.0178,-0.99985"
       id="path698" />
    <path
       style="fill:none;stroke:#000000;stroke-width:1.565"
       d="m 216.58744,153.61592 -0.0178,-0.99984"
       id="path697" />
    <path
       style="fill:none;stroke:#000000;stroke-width:1.565"
       d="m 211.58825,153.7048 -0.0178,-0.99985"
       id="path696" />
    <path
       style="fill:none;stroke:#000000;stroke-width:1.565"
       d="m 206.58906,153.79367 -0.0178,-0.99984"
       id="path695" />
    <path
       style="fill:none;stroke:#000000;stroke-width:1.565"
       d="m 201.58987,153.88255 -0.0178,-0.99985"
       id="path694" />
    <path
       style="fill:none;stroke:#000000;stroke-width:1.565"
       d="m 196.59068,153.97142 -0.0178,-0.99984"
       id="path693" />
    <path
       style="fill:none;stroke:#000000;stroke-width:1.565"
       d="m 191.59149,154.0603 -0.0178,-0.99985"
       id="path692" />
    <path
       style="fill:none;stroke:#000000;stroke-width:1.565"
       d="m 186.5923,154.14917 -0.0178,-0.99984"
       id="path691" />
    <path
       style="fill:none;stroke:#000000;stroke-width:1.565"
       d="m 181.59311,154.23805 -0.0178,-0.99985"
       id="path690" />
    <path
       style="fill:none;stroke:#000000;stroke-width:1.565"
       d="m 176.59392,154.32692 -0.0178,-0.99984"
       id="path689" />
    <path
       style="fill:none;stroke:#000000;stroke-width:1.565"
       d="m 171.59473,154.41579 -0.0178,-0.99984"
       id="path688" />
    <path
       style="fill:none;stroke:#000000;stroke-width:1.565"
       d="m 166.59554,154.50467 -0.0178,-0.99984"
       id="path687" />
    <path
       style="fill:none;stroke:#000000;stroke-width:1.565"
       d="m 161.59635,154.59354 -0.0178,-0.99984"
       id="path686" />
    <path
       style="fill:none;stroke:#000000;stroke-width:1.565"
       d="m 156.59716,154.68242 -0.0178,-0.99984"
       id="path685" />
    <path
       style="fill:none;stroke:#000000;stroke-width:1.565"
       d="m 151.59797,154.77129 -0.0178,-0.99984"
       id="path684" />
    <path
       style="fill:none;stroke:#000000;stroke-width:1.565"
       d="m 146.59878,154.86017 -0.0178,-0.99984"
       id="path683" />
    <path
       style="fill:none;stroke:#000000;stroke-width:1.565"
       d="m 141.59959,154.94904 -0.0178,-0.99984"
       id="path682" />
    <path
       style="fill:none;stroke:#000000;stroke-width:1.565"
       d="m 136.6004,155.03792 -0.0178,-0.99984"
       id="path681" />
    <path
       style="fill:none;stroke:#000000;stroke-width:1.565"
       d="m 131.60121,155.12679 -0.0178,-0.99984"
       id="path680" />
    <path
       style="fill:none;stroke:#000000;stroke-width:1.565"
       d="m 126.60202,155.21567 -0.0178,-0.99984"
       id="path679" />
    <path
       style="fill:none;stroke:#000000;stroke-width:1.565"
       d="m 121.60283,155.30454 -0.0178,-0.99984"
       id="path678" />
    <path
       style="fill:none;stroke:#000000;stroke-width:1.565"
       d="m 116.60364,155.39342 -0.0178,-0.99984"
       id="path677" />
    <path
       style="fill:none;stroke:#000000;stroke-width:1.565"
       d="m 111.60445,155.48229 -0.0178,-0.99984"
       id="path676" />
    <path
       style="fill:none;stroke:#000000;stroke-width:1.565"
       d="m 106.60526,155.57117 -0.0178,-0.99984"
       id="path675" />
    <path
       style="fill:none;stroke:#000000;stroke-width:1.565"
       d="m 101.60607,155.66004 -0.0178,-0.99984"
       id="path674" />
    <path
       style="fill:none;stroke:#000000;stroke-width:1.565"
       d="m 96.606859,155.74892 -0.01778,-0.99985"
       id="path673" />
    <path
       style="fill:none;stroke:#000000;stroke-width:1.565"
       d="m 91.607654,155.83779 -0.01778,-0.99984"
       id="path672" />
    <path
       style="fill:none;stroke:#000000;stroke-width:1.565"
       d="m 86.608449,155.92667 -0.01778,-0.99985"
       id="path671" />
    <path
       style="fill:none;stroke:#000000;stroke-width:1.565"
       d="m 81.609244,156.01554 -0.01778,-0.99984"
       id="path670" />
    <path
       style="fill:none;stroke:#000000;stroke-width:1.565"
       d="m 76.610039,156.10442 -0.01778,-0.99985"
       id="path669" />
    <path
       style="fill:none;stroke:#000000;stroke-width:1.565"
       d="m 71.610834,156.19329 -0.01778,-0.99984"
       id="path668" />
    <path
       style="fill:none;stroke:#000000;stroke-width:1.565"
       d="m 66.611629,156.28217 -0.01778,-0.99985"
       id="path667" />
    <path
       style="fill:none;stroke:#000000;stroke-width:1.565"
       d="m 61.612424,156.37104 -0.01778,-0.99984"
       id="path666" />
    <path
       style="fill:none;stroke:#000000;stroke-width:1.565"
       d="m 56.613219,156.45991 -0.01778,-0.99984"
       id="path665" />
    <path
       style="fill:none;stroke:#000000;stroke-width:1.565"
       d="m 51.614014,156.54879 -0.01778,-0.99984"
       id="path664" />
    <path
       style="fill:none;stroke:#000000;stroke-width:1.565"
       d="m 46.614809,156.63766 -0.01778,-0.99984"
       id="path663" />
    <path
       style="fill:none;stroke:#000000;stroke-width:1.565"
       d="m 41.615604,156.72654 -0.01778,-0.99984"
       id="path662" />
    <path
       style="fill:none;stroke:#000000;stroke-width:1.565"
       d="m 36.616399,156.81541 -0.01778,-0.99984"
       id="path661" />
    <path
       style="fill:none;stroke:#000000;stroke-width:1.565"
       d="m 31.617193,156.90429 -0.01778,-0.99984"
       id="path660" />
    <path
       style="fill:none;stroke:#000000;stroke-width:1.565"
       d="m 31.219773,157.67517 -0.307002,0.95171"
       id="path659" />
    <path
       style="fill:none;stroke:#000000;stroke-width:1.565"
       d="m 35.978316,159.21018 -0.307002,0.95171"
       id="path658" />
    <path
       style="fill:none;stroke:#000000;stroke-width:1.565"
       d="m 40.73686,160.7452 -0.307003,0.9517"
       id="path657" />
    <path
       style="fill:none;stroke:#000000;stroke-width:1.565"
       d="M 45.495403,162.28021 45.1884,163.23192"
       id="path656" />
    <path
       style="fill:none;stroke:#000000;stroke-width:1.565"
       d="m 50.253946,163.81522 -0.307003,0.95171"
       id="path655" />
    <path
       style="fill:none;stroke:#000000;stroke-width:1.565"
       d="m 55.012489,165.35024 -0.307003,0.9517"
       id="path654" />
    <path
       style="fill:none;stroke:#000000;stroke-width:1.565"
       d="m 59.771032,166.88525 -0.307003,0.95171"
       id="path653" />
    <path
       style="fill:none;stroke:#000000;stroke-width:1.565"
       d="m 57.442656,167.81775 -0.136781,-0.9906"
       id="path652" />
    <path
       style="fill:none;stroke:#000000;stroke-width:1.565"
       d="m 52.485546,168.47101 -0.124444,-0.99223"
       id="path651" />
    <path
       style="fill:none;stroke:#000000;stroke-width:1.565"
       d="m 47.520279,169.05897 -0.110205,-0.99391"
       id="path650" />
    <path
       style="fill:none;stroke:#000000;stroke-width:1.565"
       d="m 42.546044,169.56514 -0.09114,-0.99584"
       id="path649" />
    <path
       style="fill:none;stroke:#000000;stroke-width:1.565"
       d="m 37.561318,169.95333 -0.06155,-0.9981"
       id="path648" />
    <path
       style="fill:none;stroke:#000000;stroke-width:1.565"
       d="m 32.565291,170.13454 -0.0024,-1"
       id="path647" />
    <path
       style="fill:none;stroke:#000000;stroke-width:1.565"
       d="M 27.595819,169.71428 Z"
       id="path646" />
  </g>
</svg>
