<?xml version="1.0" encoding="UTF-8" standalone="no"?>
<!-- Created with Inkscape (http://www.inkscape.org/) -->

<svg
   width="272.54453mm"
   height="172.6918mm"
   viewBox="0 0 272.54453 172.6918"
   version="1.1"
   id="svg1"
   inkscape:version="1.3.1 (91b66b0783, 2023-11-16)"
   sodipodi:docname="Track1.svg"
   xml:space="preserve"
   inkscape:export-filename="MegTestTrial\Skunk.svg"
   inkscape:export-xdpi="96"
   inkscape:export-ydpi="96"
   xmlns:inkscape="http://www.inkscape.org/namespaces/inkscape"
   xmlns:sodipodi="http://sodipodi.sourceforge.net/DTD/sodipodi-0.dtd"
   xmlns="http://www.w3.org/2000/svg"
   xmlns:svg="http://www.w3.org/2000/svg"><sodipodi:namedview
     id="namedview1"
     pagecolor="#ffffff"
     bordercolor="#000000"
     borderopacity="0.25"
     inkscape:showpageshadow="2"
     inkscape:pageopacity="0.0"
     inkscape:pagecheckerboard="0"
     inkscape:deskcolor="#d1d1d1"
     inkscape:document-units="mm"
     inkscape:zoom="0.54236816"
     inkscape:cx="606.59903"
     inkscape:cy="375.20639"
     inkscape:window-width="1920"
     inkscape:window-height="1057"
     inkscape:window-x="1912"
     inkscape:window-y="-8"
     inkscape:window-maximized="1"
     inkscape:current-layer="g1011" /><defs
     id="defs1" /><g
     inkscape:groupmode="layer"
     id="g1011"
     inkscape:label="Track1_TRACE copy"
     transform="translate(-5.5191636,-3.4147482)"><path
       style="fill:none;stroke:#000000;stroke-width:0.3"
       d="M 276.99281,4.8294013 Z"
       id="path1253" /><path
       style="fill:none;stroke:#000000;stroke-width:0.3"
       d="M 274.77157,6.4087215 274.48212,6.0010204"
       id="path1252" /><path
       style="fill:none;stroke:#000000;stroke-width:0.3"
       d="M 270.68596,9.2910379 270.39935,8.8813421"
       id="path1251" /><path
       style="fill:none;stroke:#000000;stroke-width:0.3"
       d="m 266.57342,12.134742 -0.2819,-0.412957"
       id="path1250" /><path
       style="fill:none;stroke:#000000;stroke-width:0.3"
       d="M 262.42522,14.926175 262.1489,14.509468"
       id="path1249" /><path
       style="fill:none;stroke:#000000;stroke-width:0.3"
       d="m 258.23951,17.661031 -0.27068,-0.420394"
       id="path1248" /><path
       style="fill:none;stroke:#000000;stroke-width:0.3"
       d="m 254.02018,20.343765 -0.26666,-0.422953"
       id="path1247" /><path
       style="fill:none;stroke:#000000;stroke-width:0.3"
       d="m 249.79253,23.013402 -0.26809,-0.42205"
       id="path1246" /><path
       style="fill:none;stroke:#000000;stroke-width:0.3"
       d="m 245.58907,25.720886 -0.27414,-0.418148"
       id="path1245" /><path
       style="fill:none;stroke:#000000;stroke-width:0.3"
       d="m 241.44037,28.511384 -0.28478,-0.41098"
       id="path1244" /><path
       style="fill:none;stroke:#000000;stroke-width:0.3"
       d="m 237.38438,31.43469 -0.30095,-0.399285"
       id="path1243" /><path
       style="fill:none;stroke:#000000;stroke-width:0.3"
       d="m 233.4794,34.556116 -0.32491,-0.380043"
       id="path1242" /><path
       style="fill:none;stroke:#000000;stroke-width:0.3"
       d="m 229.83156,37.972708 -0.36055,-0.346416"
       id="path1241" /><path
       style="fill:none;stroke:#000000;stroke-width:0.3"
       d="M 226.59534,41.779904 226.19472,41.48073"
       id="path1240" /><path
       style="fill:none;stroke:#000000;stroke-width:0.3"
       d="m 223.87118,45.968484 -0.43572,-0.245239"
       id="path1239" /><path
       style="fill:none;stroke:#000000;stroke-width:0.3"
       d="m 221.67928,50.459474 -0.46052,-0.194729"
       id="path1238" /><path
       style="fill:none;stroke:#000000;stroke-width:0.3"
       d="m 219.92726,55.141144 -0.47411,-0.158817"
       id="path1237" /><path
       style="fill:none;stroke:#000000;stroke-width:0.3"
       d="m 218.43755,59.913781 -0.47972,-0.140925"
       id="path1236" /><path
       style="fill:none;stroke:#000000;stroke-width:0.3"
       d="m 217.11234,64.734684 -0.48448,-0.123615"
       id="path1235" /><path
       style="fill:none;stroke:#000000;stroke-width:0.3"
       d="M 215.97542,69.603337 215.4862,69.500079"
       id="path1234" /><path
       style="fill:none;stroke:#000000;stroke-width:0.3"
       d="m 215.05743,74.517867 -0.49358,-0.07983"
       id="path1233" /><path
       style="fill:none;stroke:#000000;stroke-width:0.3"
       d="m 214.38913,79.4724 -0.49715,-0.05333"
       id="path1232" /><path
       style="fill:none;stroke:#000000;stroke-width:0.3"
       d="m 213.97474,84.454852 -0.49884,-0.03407"
       id="path1231" /><path
       style="fill:none;stroke:#000000;stroke-width:0.3"
       d="m 213.60296,89.440887 -0.49793,-0.0455"
       id="path1230" /><path
       style="fill:none;stroke:#000000;stroke-width:0.3"
       d="m 212.96081,94.397918 -0.49219,-0.08807"
       id="path1229" /><path
       style="fill:none;stroke:#000000;stroke-width:0.3"
       d="m 211.74601,99.243473 -0.47406,-0.158959"
       id="path1228" /><path
       style="fill:none;stroke:#000000;stroke-width:0.3"
       d="m 209.7285,103.81014 -0.43565,-0.24538"
       id="path1227" /><path
       style="fill:none;stroke:#000000;stroke-width:0.3"
       d="m 206.89779,107.92474 -0.38934,-0.31372"
       id="path1226" /><path
       style="fill:none;stroke:#000000;stroke-width:0.3"
       d="m 203.56272,111.64741 -0.35767,-0.3494"
       id="path1225" /><path
       style="fill:none;stroke:#000000;stroke-width:0.3"
       d="m 199.96905,115.12306 -0.33954,-0.36703"
       id="path1224" /><path
       style="fill:none;stroke:#000000;stroke-width:0.3"
       d="m 196.26095,118.47707 -0.33317,-0.37283"
       id="path1223" /><path
       style="fill:none;stroke:#000000;stroke-width:0.3"
       d="m 192.54809,121.82584 -0.33872,-0.36779"
       id="path1222" /><path
       style="fill:none;stroke:#000000;stroke-width:0.3"
       d="m 188.95416,125.301 -0.35923,-0.34778"
       id="path1221" /><path
       style="fill:none;stroke:#000000;stroke-width:0.3"
       d="m 185.64474,129.04648 -0.39095,-0.3117"
       id="path1220" /><path
       style="fill:none;stroke:#000000;stroke-width:0.3"
       d="m 182.79115,133.14722 -0.43084,-0.25373"
       id="path1219" /><path
       style="fill:none;stroke:#000000;stroke-width:0.3"
       d="m 180.74448,137.69559 -0.47959,-0.14139"
       id="path1218" /><path
       style="fill:none;stroke:#000000;stroke-width:0.3"
       d="m 180.43969,142.63141 -0.4873,0.11199"
       id="path1217" /><path
       style="fill:none;stroke:#000000;stroke-width:0.3"
       d="m 182.98935,146.84208 -0.33528,0.37093"
       id="path1216" /><path
       style="fill:none;stroke:#000000;stroke-width:0.3"
       d="m 187.3819,149.11094 -0.10302,0.48928"
       id="path1215" /><path
       style="fill:none;stroke:#000000;stroke-width:0.3"
       d="m 192.14734,148.23462 0.29619,0.40282"
       id="path1214" /><path
       style="fill:none;stroke:#000000;stroke-width:0.3"
       d="m 194.93228,144.16525 0.46833,0.17512"
       id="path1213" /><path
       style="fill:none;stroke:#000000;stroke-width:0.3"
       d="m 196.05982,139.3052 0.49595,0.0635"
       id="path1212" /><path
       style="fill:none;stroke:#000000;stroke-width:0.3"
       d="m 196.37195,134.31768 0.49999,0.004"
       id="path1211" /><path
       style="fill:none;stroke:#000000;stroke-width:0.3"
       d="m 196.1828,129.3229 0.49832,-0.0409"
       id="path1210" /><path
       style="fill:none;stroke:#000000;stroke-width:0.3"
       d="m 195.54499,124.36564 0.49214,-0.0883"
       id="path1209" /><path
       style="fill:none;stroke:#000000;stroke-width:0.3"
       d="m 192.17251,115.03309 0.40947,-0.28694"
       id="path1207" /><path
       style="fill:none;stroke:#000000;stroke-width:0.3"
       d="m 188.6042,111.57296 0.27776,-0.41575"
       id="path1206" /><path
       style="fill:none;stroke:#000000;stroke-width:0.3"
       d="m 184.17017,109.27646 0.2026,-0.45711"
       id="path1205" /><path
       style="fill:none;stroke:#000000;stroke-width:0.3"
       d="m 179.35283,107.94786 0.12922,-0.48302"
       id="path1204" /><path
       style="fill:none;stroke:#000000;stroke-width:0.3"
       d="m 174.5227,106.65564 0.12922,-0.48302"
       id="path1203" /><path
       style="fill:none;stroke:#000000;stroke-width:0.3"
       d="m 170.66544,103.80767 0.37771,-0.32761"
       id="path1202" /><path
       style="fill:none;stroke:#000000;stroke-width:0.3"
       d="m 167.3893,100.03051 0.37772,-0.327612"
       id="path1201" /><path
       style="fill:none;stroke:#000000;stroke-width:0.3"
       d="m 164.61526,95.886482 0.42693,-0.260252"
       id="path1200" /><path
       style="fill:none;stroke:#000000;stroke-width:0.3"
       d="m 160.325,94.160355 -0.48995,0.09973"
       id="path1198" /><path
       style="fill:none;stroke:#000000;stroke-width:0.3"
       d="m 161.94037,98.879394 -0.45105,0.215771"
       id="path1197" /><path
       style="fill:none;stroke:#000000;stroke-width:0.3"
       d="m 164.58598,103.10946 -0.39101,0.31163"
       id="path1196" /><path
       style="fill:none;stroke:#000000;stroke-width:0.3"
       d="m 168.09269,106.66087 -0.31768,0.38612"
       id="path1195" /><path
       style="fill:none;stroke:#000000;stroke-width:0.3"
       d="m 172.25692,109.41137 -0.22889,0.44453"
       id="path1194" /><path
       style="fill:none;stroke:#000000;stroke-width:0.3"
       d="m 176.9308,111.15226 -0.11452,0.48671"
       id="path1193" /><path
       style="fill:none;stroke:#000000;stroke-width:0.3"
       d="m 181.8928,111.62404 0.0206,0.49958"
       id="path1192" /><path
       style="fill:none;stroke:#000000;stroke-width:0.3"
       d="m 191.28047,108.57586 0.28423,0.41136"
       id="path1190" /><path
       style="fill:none;stroke:#000000;stroke-width:0.3"
       d="m 194.85126,105.11002 0.40444,0.29398"
       id="path1189" /><path
       style="fill:none;stroke:#000000;stroke-width:0.3"
       d="m 197.05337,100.64614 0.47723,0.14916"
       id="path1188" /><path
       style="fill:none;stroke:#000000;stroke-width:0.3"
       d="m 197.94058,95.737385 0.49894,0.03244"
       id="path1187" /><path
       style="fill:none;stroke:#000000;stroke-width:0.3"
       d="m 197.75199,90.749532 0.49519,-0.0692"
       id="path1186" /><path
       style="fill:none;stroke:#000000;stroke-width:0.3"
       d="m 196.54803,85.906517 0.469,-0.173314"
       id="path1185" /><path
       style="fill:none;stroke:#000000;stroke-width:0.3"
       d="m 194.22983,81.493937 0.40475,-0.293558"
       id="path1184" /><path
       style="fill:none;stroke:#000000;stroke-width:0.3"
       d="m 190.72397,77.95605 0.29821,-0.401331"
       id="path1183" /><path
       style="fill:none;stroke:#000000;stroke-width:0.3"
       d="m 186.33075,75.607217 0.16762,-0.471067"
       id="path1182" /><path
       style="fill:none;stroke:#000000;stroke-width:0.3"
       d="m 181.43536,74.710198 0.004,-0.499982"
       id="path1181" /><path
       style="fill:none;stroke:#000000;stroke-width:0.3"
       d="M 176.58598,75.731678 176.3685,75.281451"
       id="path1180" /><path
       style="fill:none;stroke:#000000;stroke-width:0.3"
       d="M 172.66179,78.782207 172.29478,78.44264"
       id="path1179" /><path
       style="fill:none;stroke:#000000;stroke-width:0.3"
       d="m 169.57801,82.713256 -0.40912,-0.287445"
       id="path1178" /><path
       style="fill:none;stroke:#000000;stroke-width:0.3"
       d="m 166.76328,86.84564 -0.41382,-0.280632"
       id="path1177" /><path
       style="fill:none;stroke:#000000;stroke-width:0.3"
       d="M 163.89397,90.94004 163.4907,90.644442"
       id="path1176" /><path
       style="fill:none;stroke:#000000;stroke-width:0.3"
       d="m 157.52301,98.639243 -0.36249,-0.344389"
       id="path1174" /><path
       style="fill:none;stroke:#000000;stroke-width:0.3"
       d="m 153.9204,102.10367 -0.32798,-0.37741"
       id="path1173" /><path
       style="fill:none;stroke:#000000;stroke-width:0.3"
       d="m 149.94603,105.131 -0.27283,-0.419"
       id="path1172" /><path
       style="fill:none;stroke:#000000;stroke-width:0.3"
       d="m 145.51567,107.42819 -0.17761,-0.46739"
       id="path1171" /><path
       style="fill:none;stroke:#000000;stroke-width:0.3"
       d="m 140.64696,108.46778 -0.0231,-0.49947"
       id="path1170" /><path
       style="fill:none;stroke:#000000;stroke-width:0.3"
       d="m 135.69803,107.91136 0.12987,-0.48284"
       id="path1169" /><path
       style="fill:none;stroke:#000000;stroke-width:0.3"
       d="m 127.13781,102.95071 0.34884,-0.3582"
       id="path1167" /><path
       style="fill:none;stroke:#000000;stroke-width:0.3"
       d="m 124.01901,99.059212 0.42658,-0.260816"
       id="path1166" /><path
       style="fill:none;stroke:#000000;stroke-width:0.3"
       d="m 122.02296,94.492051 0.48097,-0.136629"
       id="path1165" /><path
       style="fill:none;stroke:#000000;stroke-width:0.3"
       d="m 121.25329,89.563493 0.49962,-0.01973"
       id="path1164" /><path
       style="fill:none;stroke:#000000;stroke-width:0.3"
       d="m 121.58891,84.584087 0.49258,0.08577"
       id="path1163" /><path
       style="fill:none;stroke:#000000;stroke-width:0.3"
       d="m 122.97818,79.792042 0.46054,0.19467"
       id="path1162" /><path
       style="fill:none;stroke:#000000;stroke-width:0.3"
       d="m 125.60742,75.568954 0.36548,0.341208"
       id="path1161" /><path
       style="fill:none;stroke:#000000;stroke-width:0.3"
       d="m 129.80912,72.982261 0.12929,0.482995"
       id="path1160" /><path
       style="fill:none;stroke:#000000;stroke-width:0.3"
       d="m 134.7482,73.074686 -0.13549,0.481291"
       id="path1159" /><path
       style="fill:none;stroke:#000000;stroke-width:0.3"
       d="m 139.14258,75.387551 -0.31564,0.387782"
       id="path1158" /><path
       style="fill:none;stroke:#000000;stroke-width:0.3"
       d="m 142.30379,79.218872 -0.44113,0.235386"
       id="path1157" /><path
       style="fill:none;stroke:#000000;stroke-width:0.3"
       d="m 143.74008,83.975404 -0.49734,0.05148"
       id="path1156" /><path
       style="fill:none;stroke:#000000;stroke-width:0.3"
       d="m 143.42695,88.944652 -0.48881,-0.1052"
       id="path1155" /><path
       style="fill:none;stroke:#000000;stroke-width:0.3"
       d="m 141.83793,93.675685 -0.45576,-0.205644"
       id="path1154" /><path
       style="fill:none;stroke:#000000;stroke-width:0.3"
       d="m 139.4015,98.035204 -0.41495,-0.278963"
       id="path1153" /><path
       style="fill:none;stroke:#000000;stroke-width:0.3"
       d="m 136.29393,101.94547 -0.36531,-0.34139"
       id="path1152" /><path
       style="fill:none;stroke:#000000;stroke-width:0.3"
       d="m 132.59159,105.297 -0.30232,-0.39825"
       id="path1151" /><path
       style="fill:none;stroke:#000000;stroke-width:0.3"
       d="m 128.35418,107.93778 -0.22511,-0.44646"
       id="path1150" /><path
       style="fill:none;stroke:#000000;stroke-width:0.3"
       d="m 123.72484,109.8126 -0.15015,-0.47693"
       id="path1149" /><path
       style="fill:none;stroke:#000000;stroke-width:0.3"
       d="m 118.85627,110.92686 -0.0707,-0.49498"
       id="path1148" /><path
       style="fill:none;stroke:#000000;stroke-width:0.3"
       d="m 113.87023,111.13359 0.0382,-0.49854"
       id="path1147" /><path
       style="fill:none;stroke:#000000;stroke-width:0.3"
       d="m 109.11595,109.76097 0.27655,-0.41656"
       id="path1146" /><path
       style="fill:none;stroke:#000000;stroke-width:0.3"
       d="m 106.67469,105.57785 0.49479,-0.072"
       id="path1145" /><path
       style="fill:none;stroke:#000000;stroke-width:0.3"
       d="m 106.85262,100.59889 0.49422,0.0758"
       id="path1144" /><path
       style="fill:none;stroke:#000000;stroke-width:0.3"
       d="m 107.8141,95.692958 0.48894,0.104562"
       id="path1143" /><path
       style="fill:none;stroke:#000000;stroke-width:0.3"
       d="m 108.8481,90.801062 0.48986,0.100218"
       id="path1142" /><path
       style="fill:none;stroke:#000000;stroke-width:0.3"
       d="m 109.78184,85.889224 0.49272,0.08505"
       id="path1141" /><path
       style="fill:none;stroke:#000000;stroke-width:0.3"
       d="m 110.52899,80.945749 0.4959,0.06386"
       id="path1140" /><path
       style="fill:none;stroke:#000000;stroke-width:0.3"
       d="m 111.04394,75.972939 0.49862,0.03706"
       id="path1139" /><path
       style="fill:none;stroke:#000000;stroke-width:0.3"
       d="m 111.23341,70.977707 0.5,-4.94e-4"
       id="path1138" /><path
       style="fill:none;stroke:#000000;stroke-width:0.3"
       d="m 111.01583,65.98399 0.4981,-0.04356"
       id="path1137" /><path
       style="fill:none;stroke:#000000;stroke-width:0.3"
       d="m 110.35787,61.029163 0.4922,-0.08798"
       id="path1136" /><path
       style="fill:none;stroke:#000000;stroke-width:0.3"
       d="m 109.26201,56.152374 0.48264,-0.130626"
       id="path1135" /><path
       style="fill:none;stroke:#000000;stroke-width:0.3"
       d="m 107.77348,51.38026 0.47173,-0.165748"
       id="path1134" /><path
       style="fill:none;stroke:#000000;stroke-width:0.3"
       d="m 105.96406,46.720062 0.46012,-0.195668"
       id="path1133" /><path
       style="fill:none;stroke:#000000;stroke-width:0.3"
       d="M 103.86334,42.183705 104.31005,41.9591"
       id="path1132" /><path
       style="fill:none;stroke:#000000;stroke-width:0.3"
       d="m 101.46318,37.798678 0.42936,-0.256221"
       id="path1131" /><path
       style="fill:none;stroke:#000000;stroke-width:0.3"
       d="M 98.713231,33.625036 99.116415,33.32933"
       id="path1130" /><path
       style="fill:none;stroke:#000000;stroke-width:0.3"
       d="m 95.492564,29.806327 0.356025,-0.351064"
       id="path1129" /><path
       style="fill:none;stroke:#000000;stroke-width:0.3"
       d="m 91.672352,26.592665 0.281582,-0.413173"
       id="path1128" /><path
       style="fill:none;stroke:#000000;stroke-width:0.3"
       d="m 87.243607,24.3007 0.168899,-0.470609"
       id="path1127" /><path
       style="fill:none;stroke:#000000;stroke-width:0.3"
       d="m 82.346184,23.463764 -0.02912,-0.499152"
       id="path1126" /><path
       style="fill:none;stroke:#000000;stroke-width:0.3"
       d="M 78.136866,25.838556 77.750542,25.521138"
       id="path1125" /><path
       style="fill:none;stroke:#000000;stroke-width:0.3"
       d="M 75.31105,29.960115 74.889295,29.691558"
       id="path1124" /><path
       style="fill:none;stroke:#000000;stroke-width:0.3"
       d="M 72.684554,34.214502 72.255256,33.958176"
       id="path1123" /><path
       style="fill:none;stroke:#000000;stroke-width:0.3"
       d="M 70.196352,38.551101 69.757993,38.310598"
       id="path1122" /><path
       style="fill:none;stroke:#000000;stroke-width:0.3"
       d="M 67.897657,42.990753 67.447485,42.773164"
       id="path1121" /><path
       style="fill:none;stroke:#000000;stroke-width:0.3"
       d="m 64.452918,52.352631 -0.4895,-0.101929"
       id="path1119" /><path
       style="fill:none;stroke:#000000;stroke-width:0.3"
       d="m 64.023941,57.320882 -0.499477,0.02286"
       id="path1118" /><path
       style="fill:none;stroke:#000000;stroke-width:0.3"
       d="m 64.948832,62.218128 -0.474187,0.158577"
       id="path1117" /><path
       style="fill:none;stroke:#000000;stroke-width:0.3"
       d="m 67.025553,66.758373 -0.436505,0.243851"
       id="path1116" /><path
       style="fill:none;stroke:#000000;stroke-width:0.3"
       d="m 72.391649,75.194042 -0.420902,0.269891"
       id="path1114" /><path
       style="fill:none;stroke:#000000;stroke-width:0.3"
       d="m 74.825864,79.554698 -0.46136,0.192735"
       id="path1113" /><path
       style="fill:none;stroke:#000000;stroke-width:0.3"
       d="M 74.973318,84.351938 74.580913,84.04207"
       id="path1112" /><path
       style="fill:none;stroke:#000000;stroke-width:0.3"
       d="m 71.557188,82.155698 0.466774,-0.179227"
       id="path1111" /><path
       style="fill:none;stroke:#000000;stroke-width:0.3"
       d="m 70.276351,77.328345 0.490447,-0.09727"
       id="path1110" /><path
       style="fill:none;stroke:#000000;stroke-width:0.3"
       d="m 69.441401,72.399033 0.49456,-0.07356"
       id="path1109" /><path
       style="fill:none;stroke:#000000;stroke-width:0.3"
       d="m 68.758989,67.445893 0.49584,-0.06437"
       id="path1108" /><path
       style="fill:none;stroke:#000000;stroke-width:0.3"
       d="m 68.132695,62.485276 0.496158,-0.06186"
       id="path1107" /><path
       style="fill:none;stroke:#000000;stroke-width:0.3"
       d="m 67.504443,57.52491 0.495818,-0.06453"
       id="path1106" /><path
       style="fill:none;stroke:#000000;stroke-width:0.3"
       d="m 66.828318,52.570874 0.494879,-0.07137"
       id="path1105" /><path
       style="fill:none;stroke:#000000;stroke-width:0.3"
       d="M 66.062852,47.629928 66.556,47.547428"
       id="path1104" /><path
       style="fill:none;stroke:#000000;stroke-width:0.3"
       d="m 65.160666,42.712232 0.490103,-0.09899"
       id="path1103" /><path
       style="fill:none;stroke:#000000;stroke-width:0.3"
       d="m 64.057074,37.836075 0.484543,-0.123363"
       id="path1102" /><path
       style="fill:none;stroke:#000000;stroke-width:0.3"
       d="m 62.656305,33.037447 0.474352,-0.158082"
       id="path1101" /><path
       style="fill:none;stroke:#000000;stroke-width:0.3"
       d="m 60.865194,28.371268 0.457118,-0.202591"
       id="path1100" /><path
       style="fill:none;stroke:#000000;stroke-width:0.3"
       d="m 58.511282,23.966634 0.41617,-0.277133"
       id="path1099" /><path
       style="fill:none;stroke:#000000;stroke-width:0.3"
       d="m 54.841235,20.764481 0.06008,-0.496377"
       id="path1098" /><path
       style="fill:none;stroke:#000000;stroke-width:0.3"
       d="M 51.214224,23.826889 50.786075,23.568648"
       id="path1097" /><path
       style="fill:none;stroke:#000000;stroke-width:0.3"
       d="M 48.755737,28.180376 48.326826,27.923402"
       id="path1096" /><path
       style="fill:none;stroke:#000000;stroke-width:0.3"
       d="M 45.556777,31.97816 45.260303,31.575539"
       id="path1095" /><path
       style="fill:none;stroke:#000000;stroke-width:0.3"
       d="m 40.875218,33.431667 0.0204,-0.499583"
       id="path1094" /><path
       style="fill:none;stroke:#000000;stroke-width:0.3"
       d="M 36.159861,31.924177 36.41312,31.493063"
       id="path1093" /><path
       style="fill:none;stroke:#000000;stroke-width:0.3"
       d="m 32.335157,28.7348 0.373121,-0.332836"
       id="path1092" /><path
       style="fill:none;stroke:#000000;stroke-width:0.3"
       d="m 29.509488,24.624936 0.442757,-0.232305"
       id="path1091" /><path
       style="fill:none;stroke:#000000;stroke-width:0.3"
       d="m 27.670281,19.98461 0.480176,-0.139395"
       id="path1090" /><path
       style="fill:none;stroke:#000000;stroke-width:0.3"
       d="m 26.674532,15.090452 0.496571,-0.05846"
       id="path1089" /><path
       style="fill:none;stroke:#000000;stroke-width:0.3"
       d="m 26.664253,10.105487 0.493537,0.08013"
       id="path1088" /><path
       style="fill:none;stroke:#000000;stroke-width:0.3"
       d="m 29.786032,7.015268 -0.08146,0.4933191"
       id="path1087" /><path
       style="fill:none;stroke:#000000;stroke-width:0.3"
       d="M 33.94576,9.6492556 33.585674,9.9961531"
       id="path1086" /><path
       style="fill:none;stroke:#000000;stroke-width:0.3"
       d="m 36.852869,13.698349 -0.440193,0.23713"
       id="path1085" /><path
       style="fill:none;stroke:#000000;stroke-width:0.3"
       d="M 38.783236,18.303354 38.307623,18.4576"
       id="path1084" /><path
       style="fill:none;stroke:#000000;stroke-width:0.3"
       d="m 40.029391,23.142749 -0.490166,0.09868"
       id="path1083" /><path
       style="fill:none;stroke:#000000;stroke-width:0.3"
       d="m 40.815101,28.079382 -0.496295,0.06076"
       id="path1082" /><path
       style="fill:none;stroke:#000000;stroke-width:0.3"
       d="m 41.497354,38.051943 -0.499887,0.01061"
       id="path1080" /><path
       style="fill:none;stroke:#000000;stroke-width:0.3"
       d="m 41.498073,43.051581 -0.499894,-0.01032"
       id="path1079" /><path
       style="fill:none;stroke:#000000;stroke-width:0.3"
       d="m 41.291898,48.046977 -0.49904,-0.03097"
       id="path1078" /><path
       style="fill:none;stroke:#000000;stroke-width:0.3"
       d="m 40.876135,53.029278 -0.497247,-0.0524"
       id="path1077" /><path
       style="fill:none;stroke:#000000;stroke-width:0.3"
       d="m 40.238171,57.987958 -0.494257,-0.07557"
       id="path1076" /><path
       style="fill:none;stroke:#000000;stroke-width:0.3"
       d="M 39.359148,62.909556 38.869253,62.809538"
       id="path1075" /><path
       style="fill:none;stroke:#000000;stroke-width:0.3"
       d="M 38.244563,67.783286 37.759828,67.660682"
       id="path1074" /><path
       style="fill:none;stroke:#000000;stroke-width:0.3"
       d="M 36.911899,72.602007 36.433006,72.458266"
       id="path1073" /><path
       style="fill:none;stroke:#000000;stroke-width:0.3"
       d="M 35.372367,77.358702 34.900062,77.194607"
       id="path1072" /><path
       style="fill:none;stroke:#000000;stroke-width:0.3"
       d="M 33.629949,82.044868 33.165223,81.860395"
       id="path1071" /><path
       style="fill:none;stroke:#000000;stroke-width:0.3"
       d="M 31.678984,86.648043 31.223418,86.441986"
       id="path1070" /><path
       style="fill:none;stroke:#000000;stroke-width:0.3"
       d="M 29.497791,91.146489 29.054324,90.915542"
       id="path1069" /><path
       style="fill:none;stroke:#000000;stroke-width:0.3"
       d="M 27.047716,95.504024 26.620335,95.244516"
       id="path1068" /><path
       style="fill:none;stroke:#000000;stroke-width:0.3"
       d="m 24.304328,99.682912 -0.408075,-0.28892"
       id="path1067" /><path
       style="fill:none;stroke:#000000;stroke-width:0.3"
       d="m 21.288204,103.6698 -0.390337,-0.31247"
       id="path1066" /><path
       style="fill:none;stroke:#000000;stroke-width:0.3"
       d="m 18.118148,107.53634 -0.388283,-0.31502"
       id="path1065" /><path
       style="fill:none;stroke:#000000;stroke-width:0.3"
       d="m 15.403644,111.71145 -0.467519,-0.17728"
       id="path1064" /><path
       style="fill:none;stroke:#000000;stroke-width:0.3"
       d="m 16.455396,116.26244 -0.346965,0.36002"
       id="path1063" /><path
       style="fill:none;stroke:#000000;stroke-width:0.3"
       d="m 20.702523,118.8591 -0.208409,0.45449"
       id="path1062" /><path
       style="fill:none;stroke:#000000;stroke-width:0.3"
       d="m 25.335326,120.73674 -0.173469,0.46894"
       id="path1061" /><path
       style="fill:none;stroke:#000000;stroke-width:0.3"
       d="m 30.045673,122.41363 -0.165635,0.47177"
       id="path1060" /><path
       style="fill:none;stroke:#000000;stroke-width:0.3"
       d="M 34.722761,124.17779 34.51813,124.634"
       id="path1059" /><path
       style="fill:none;stroke:#000000;stroke-width:0.3"
       d="m 31.941852,127.40223 -0.107687,-0.48827"
       id="path1058" /><path
       style="fill:none;stroke:#000000;stroke-width:0.3"
       d="m 29.192261,129.19281 -0.142479,0.47927"
       id="path1057" /><path
       style="fill:none;stroke:#000000;stroke-width:0.3"
       d="m 37.804583,128.24641 -0.105928,0.48865"
       id="path1056" /><path
       style="fill:none;stroke:#000000;stroke-width:0.3"
       d="m 42.301171,129.18463 -0.112417,0.4872"
       id="path1055" /><path
       style="fill:none;stroke:#000000;stroke-width:0.3"
       d="m 46.517098,132.25963 -0.424614,-0.26401"
       id="path1054" /><path
       style="fill:none;stroke:#000000;stroke-width:0.3"
       d="m 41.692221,133.32653 -0.05195,-0.49729"
       id="path1053" /><path
       style="fill:none;stroke:#000000;stroke-width:0.3"
       d="m 36.710864,133.7564 -0.03911,-0.49847"
       id="path1052" /><path
       style="fill:none;stroke:#000000;stroke-width:0.3"
       d="m 31.727329,134.16178 -0.04372,-0.49808"
       id="path1051" /><path
       style="fill:none;stroke:#000000;stroke-width:0.3"
       d="m 26.753064,134.66624 -0.05935,-0.49646"
       id="path1050" /><path
       style="fill:none;stroke:#000000;stroke-width:0.3"
       d="m 21.810711,135.41574 -0.09631,-0.49064"
       id="path1049" /><path
       style="fill:none;stroke:#000000;stroke-width:0.3"
       d="m 17.043743,136.87392 -0.226651,-0.44568"
       id="path1048" /><path
       style="fill:none;stroke:#000000;stroke-width:0.3"
       d="m 16.509889,140.46687 -0.248723,0.43374"
       id="path1047" /><path
       style="fill:none;stroke:#000000;stroke-width:0.3"
       d="m 21.265744,141.93844 -0.08845,0.49211"
       id="path1046" /><path
       style="fill:none;stroke:#000000;stroke-width:0.3"
       d="m 26.223709,142.57364 -0.04542,0.49793"
       id="path1045" /><path
       style="fill:none;stroke:#000000;stroke-width:0.3"
       d="m 31.211567,142.91691 -0.02512,0.49937"
       id="path1044" /><path
       style="fill:none;stroke:#000000;stroke-width:0.3"
       d="m 36.208062,143.10045 -0.01238,0.49985"
       id="path1043" /><path
       style="fill:none;stroke:#000000;stroke-width:0.3"
       d="m 41.207406,143.17591 -0.0031,0.49999"
       id="path1042" /><path
       style="fill:none;stroke:#000000;stroke-width:0.3"
       d="m 46.207387,143.16874 0.0043,0.49998"
       id="path1041" /><path
       style="fill:none;stroke:#000000;stroke-width:0.3"
       d="m 51.206774,143.0924 0.01083,0.49988"
       id="path1040" /><path
       style="fill:none;stroke:#000000;stroke-width:0.3"
       d="m 56.204807,142.95316 0.01695,0.49971"
       id="path1039" /><path
       style="fill:none;stroke:#000000;stroke-width:0.3"
       d="m 61.20122,142.76404 0.02003,0.4996"
       id="path1038" /><path
       style="fill:none;stroke:#000000;stroke-width:0.3"
       d="m 66.197546,142.57261 0.01704,0.49971"
       id="path1037" /><path
       style="fill:none;stroke:#000000;stroke-width:0.3"
       d="m 71.196027,142.45431 0.0046,0.49998"
       id="path1036" /><path
       style="fill:none;stroke:#000000;stroke-width:0.3"
       d="m 76.194641,142.53617 -0.0249,0.49938"
       id="path1035" /><path
       style="fill:none;stroke:#000000;stroke-width:0.3"
       d="m 81.16204,143.0727 -0.0917,0.49152"
       id="path1034" /><path
       style="fill:none;stroke:#000000;stroke-width:0.3"
       d="m 85.8768,144.66793 -0.244948,0.43589"
       id="path1033" /><path
       style="fill:none;stroke:#000000;stroke-width:0.3"
       d="m 89.355987,148.15184 -0.450502,0.2169"
       id="path1032" /><path
       style="fill:none;stroke:#000000;stroke-width:0.3"
       d="m 89.180856,152.93115 -0.424064,-0.2649"
       id="path1031" /><path
       style="fill:none;stroke:#000000;stroke-width:0.3"
       d="m 85.198021,155.80095 -0.17456,-0.46854"
       id="path1030" /><path
       style="fill:none;stroke:#000000;stroke-width:0.3"
       d="m 80.353425,157.00832 -0.08324,-0.49303"
       id="path1029" /><path
       style="fill:none;stroke:#000000;stroke-width:0.3"
       d="M 75.39521,157.64589 75.346,157.14831"
       id="path1028" /><path
       style="fill:none;stroke:#000000;stroke-width:0.3"
       d="m 70.412187,158.05539 -0.03471,-0.4988"
       id="path1027" /><path
       style="fill:none;stroke:#000000;stroke-width:0.3"
       d="m 65.422012,158.36819 -0.02885,-0.49916"
       id="path1026" /><path
       style="fill:none;stroke:#000000;stroke-width:0.3"
       d="m 60.429801,158.6471 -0.02749,-0.49924"
       id="path1025" /><path
       style="fill:none;stroke:#000000;stroke-width:0.3"
       d="m 55.437463,158.92376 -0.02784,-0.49923"
       id="path1024" /><path
       style="fill:none;stroke:#000000;stroke-width:0.3"
       d="m 50.445296,159.20352 -0.0281,-0.49921"
       id="path1023" /><path
       style="fill:none;stroke:#000000;stroke-width:0.3"
       d="m 45.453254,159.48558 -0.0283,-0.4992"
       id="path1022" /><path
       style="fill:none;stroke:#000000;stroke-width:0.3"
       d="m 40.461321,159.7694 -0.02846,-0.49919"
       id="path1021" /><path
       style="fill:none;stroke:#000000;stroke-width:0.3"
       d="m 35.469465,160.05458 -0.02858,-0.49918"
       id="path1020" /><path
       style="fill:none;stroke:#000000;stroke-width:0.3"
       d="m 30.477667,160.34081 -0.02867,-0.49918"
       id="path1019" /><path
       style="fill:none;stroke:#000000;stroke-width:0.3"
       d="m 25.485915,160.62786 -0.02874,-0.49918"
       id="path1018" /><path
       style="fill:none;stroke:#000000;stroke-width:0.3"
       d="m 20.494196,160.91551 -0.02879,-0.49917"
       id="path1017" /><path
       style="fill:none;stroke:#000000;stroke-width:0.3"
       d="m 15.502507,161.2036 -0.02883,-0.49917"
       id="path1016" /><path
       style="fill:none;stroke:#000000;stroke-width:0.3"
       d="m 10.510833,161.49198 -0.02885,-0.49917"
       id="path1015" /><path
       style="fill:none;stroke:#000000;stroke-width:0.3"
       d="M 5.5191638,161.78049 Z"
       id="path1014" /></g></svg>
