<?xml version="1.0" encoding="UTF-8" standalone="no"?>
<!-- Created with Inkscape (http://www.inkscape.org/) -->

<svg
   width="272.54453mm"
   height="172.6918mm"
   viewBox="0 0 272.54453 172.6918"
   version="1.1"
   id="svg1"
   inkscape:version="1.3.1 (91b66b0783, 2023-11-16)"
   sodipodi:docname="Meg-BDay-MASTER.svg"
   xml:space="preserve"
   inkscape:export-filename="MegTestTrial\Track2.svg"
   inkscape:export-xdpi="96"
   inkscape:export-ydpi="96"
   xmlns:inkscape="http://www.inkscape.org/namespaces/inkscape"
   xmlns:sodipodi="http://sodipodi.sourceforge.net/DTD/sodipodi-0.dtd"
   xmlns="http://www.w3.org/2000/svg"
   xmlns:svg="http://www.w3.org/2000/svg"><sodipodi:namedview
     id="namedview1"
     pagecolor="#ffffff"
     bordercolor="#000000"
     borderopacity="0.25"
     inkscape:showpageshadow="2"
     inkscape:pageopacity="0.0"
     inkscape:pagecheckerboard="0"
     inkscape:deskcolor="#d1d1d1"
     inkscape:document-units="mm"
     inkscape:zoom="0.54236816"
     inkscape:cx="804.80388"
     inkscape:cy="585.39572"
     inkscape:window-width="1920"
     inkscape:window-height="1057"
     inkscape:window-x="1912"
     inkscape:window-y="-8"
     inkscape:window-maximized="1"
     inkscape:current-layer="g1008" /><defs
     id="defs1" /><g
     inkscape:groupmode="layer"
     id="g1008"
     inkscape:label="Track3_BASE copy"
     transform="translate(-5.5191636,-3.4147482)"><path
       style="fill:none;stroke:#000000;stroke-width:0.3"
       d="M 278.06367,10.731785 Z"
       id="path1663" /><path
       style="fill:none;stroke:#000000;stroke-width:0.3"
       d="m 275.41628,14.056136 -0.3839,-0.320347"
       id="path1662" /><path
       style="fill:none;stroke:#000000;stroke-width:0.3"
       d="m 272.00893,17.710936 -0.34138,-0.365321"
       id="path1661" /><path
       style="fill:none;stroke:#000000;stroke-width:0.3"
       d="M 268.11215,20.838345 267.81366,20.43722"
       id="path1660" /><path
       style="fill:none;stroke:#000000;stroke-width:0.3"
       d="m 264.50412,24.257295 -0.42717,-0.259854"
       id="path1659" /><path
       style="fill:none;stroke:#000000;stroke-width:0.3"
       d="m 264.7042,29.010277 -0.4529,0.21185"
       id="path1658" /><path
       style="fill:none;stroke:#000000;stroke-width:0.3"
       d="m 266.79796,33.540491 -0.48569,0.118773"
       id="path1657" /><path
       style="fill:none;stroke:#000000;stroke-width:0.3"
       d="m 263.84987,36.707597 -0.11916,-0.485594"
       id="path1656" /><path
       style="fill:none;stroke:#000000;stroke-width:0.3"
       d="m 258.92248,37.545568 -0.0711,-0.494915"
       id="path1655" /><path
       style="fill:none;stroke:#000000;stroke-width:0.3"
       d="m 253.99153,38.368411 -0.10234,-0.489415"
       id="path1654" /><path
       style="fill:none;stroke:#000000;stroke-width:0.3"
       d="m 249.20085,39.777162 -0.18441,-0.46475"
       id="path1653" /><path
       style="fill:none;stroke:#000000;stroke-width:0.3"
       d="M 244.76051,42.058121 244.48839,41.63866"
       id="path1652" /><path
       style="fill:none;stroke:#000000;stroke-width:0.3"
       d="m 240.94923,45.270456 -0.37672,-0.328762"
       id="path1651" /><path
       style="fill:none;stroke:#000000;stroke-width:0.3"
       d="m 239.3636,49.760615 -0.46386,0.186647"
       id="path1650" /><path
       style="fill:none;stroke:#000000;stroke-width:0.3"
       d="m 243.43011,52.384774 -0.13344,0.481864"
       id="path1649" /><path
       style="fill:none;stroke:#000000;stroke-width:0.3"
       d="m 248.3509,53.240488 -0.0541,0.497068"
       id="path1648" /><path
       style="fill:none;stroke:#000000;stroke-width:0.3"
       d="m 253.33163,53.677268 -0.0389,0.498488"
       id="path1647" /><path
       style="fill:none;stroke:#000000;stroke-width:0.3"
       d="m 258.31388,54.096754 -0.0484,0.497647"
       id="path1646" /><path
       style="fill:none;stroke:#000000;stroke-width:0.3"
       d="m 263.27334,54.724749 -0.0824,0.493168"
       id="path1645" /><path
       style="fill:none;stroke:#000000;stroke-width:0.3"
       d="m 268.12132,55.919471 -0.17226,0.469387"
       id="path1644" /><path
       style="fill:none;stroke:#000000;stroke-width:0.3"
       d="m 272.15008,58.741886 -0.41077,0.285078"
       id="path1643" /><path
       style="fill:none;stroke:#000000;stroke-width:0.3"
       d="m 273.03179,63.518442 -0.48811,-0.108391"
       id="path1642" /><path
       style="fill:none;stroke:#000000;stroke-width:0.3"
       d="m 270.16795,67.397631 -0.18999,-0.462495"
       id="path1641" /><path
       style="fill:none;stroke:#000000;stroke-width:0.3"
       d="m 265.2876,66.979978 0.15472,-0.475459"
       id="path1640" /><path
       style="fill:none;stroke:#000000;stroke-width:0.3"
       d="m 260.56518,65.337606 0.1574,-0.47458"
       id="path1639" /><path
       style="fill:none;stroke:#000000;stroke-width:0.3"
       d="m 255.75207,63.99167 0.1082,-0.488151"
       id="path1638" /><path
       style="fill:none;stroke:#000000;stroke-width:0.3"
       d="m 250.82192,63.173061 0.0558,-0.496873"
       id="path1637" /><path
       style="fill:none;stroke:#000000;stroke-width:0.3"
       d="m 245.83209,62.894827 -0.002,-0.499994"
       id="path1636" /><path
       style="fill:none;stroke:#000000;stroke-width:0.3"
       d="m 240.85354,63.294445 -0.0831,-0.493048"
       id="path1635" /><path
       style="fill:none;stroke:#000000;stroke-width:0.3"
       d="m 236.07774,64.721594 -0.21366,-0.452052"
       id="path1634" /><path
       style="fill:none;stroke:#000000;stroke-width:0.3"
       d="m 232.17844,67.775453 -0.39367,-0.308267"
       id="path1633" /><path
       style="fill:none;stroke:#000000;stroke-width:0.3"
       d="m 229.95098,72.2208 -0.47775,-0.147498"
       id="path1632" /><path
       style="fill:none;stroke:#000000;stroke-width:0.3"
       d="m 228.99574,77.120904 -0.49715,-0.05337"
       id="path1631" /><path
       style="fill:none;stroke:#000000;stroke-width:0.3"
       d="m 228.7363,82.112109 -0.49998,-0.0039"
       id="path1630" /><path
       style="fill:none;stroke:#000000;stroke-width:0.3"
       d="m 228.83364,87.110678 -0.49959,0.02006"
       id="path1629" /><path
       style="fill:none;stroke:#000000;stroke-width:0.3"
       d="m 229.09523,92.103711 -0.49896,0.03225"
       id="path1628" /><path
       style="fill:none;stroke:#000000;stroke-width:0.3"
       d="m 229.48565,97.08828 -0.49785,0.0463"
       id="path1627" /><path
       style="fill:none;stroke:#000000;stroke-width:0.3"
       d="m 230.03343,102.05787 -0.49588,0.0641"
       id="path1626" /><path
       style="fill:none;stroke:#000000;stroke-width:0.3"
       d="m 230.78821,107.00012 -0.49213,0.0883"
       id="path1625" /><path
       style="fill:none;stroke:#000000;stroke-width:0.3"
       d="m 231.84234,111.88651 -0.48399,0.12553"
       id="path1624" /><path
       style="fill:none;stroke:#000000;stroke-width:0.3"
       d="m 233.38325,116.63941 -0.46328,0.18808"
       id="path1623" /><path
       style="fill:none;stroke:#000000;stroke-width:0.3"
       d="m 235.94377,120.88673 -0.31929,0.38478"
       id="path1622" /><path
       style="fill:none;stroke:#000000;stroke-width:0.3"
       d="m 238.69756,118.06736 0.49051,0.0969"
       id="path1621" /><path
       style="fill:none;stroke:#000000;stroke-width:0.3"
       d="m 239.41846,113.12058 0.49617,0.0618"
       id="path1620" /><path
       style="fill:none;stroke:#000000;stroke-width:0.3"
       d="m 240.0597,108.16195 0.49512,0.0697"
       id="path1619" /><path
       style="fill:none;stroke:#000000;stroke-width:0.3"
       d="m 240.86046,103.22695 0.49138,0.0924"
       id="path1618" /><path
       style="fill:none;stroke:#000000;stroke-width:0.3"
       d="m 241.94598,98.347261 0.4837,0.126605"
       id="path1617" /><path
       style="fill:none;stroke:#000000;stroke-width:0.3"
       d="m 243.42796,93.573795 0.47014,0.1702"
       id="path1616" /><path
       style="fill:none;stroke:#000000;stroke-width:0.3"
       d="m 245.34482,88.957776 0.45223,0.213285"
       id="path1615" /><path
       style="fill:none;stroke:#000000;stroke-width:0.3"
       d="m 247.70725,84.55379 0.42674,0.260562"
       id="path1614" /><path
       style="fill:none;stroke:#000000;stroke-width:0.3"
       d="m 250.60392,80.484248 0.38198,0.322624"
       id="path1613" /><path
       style="fill:none;stroke:#000000;stroke-width:0.3"
       d="m 254.28672,77.130761 0.26612,0.423296"
       id="path1612" /><path
       style="fill:none;stroke:#000000;stroke-width:0.3"
       d="M 259.04583,76.180019 258.9238,76.6649"
       id="path1611" /><path
       style="fill:none;stroke:#000000;stroke-width:0.3"
       d="m 263.16535,78.885501 -0.37219,0.333876"
       id="path1610" /><path
       style="fill:none;stroke:#000000;stroke-width:0.3"
       d="m 265.65163,83.178218 -0.48124,0.135666"
       id="path1609" /><path
       style="fill:none;stroke:#000000;stroke-width:0.3"
       d="m 262.892,85.935295 -0.01,-0.499902"
       id="path1608" /><path
       style="fill:none;stroke:#000000;stroke-width:0.3"
       d="M 257.91976,86.344383 257.8067,85.857335"
       id="path1607" /><path
       style="fill:none;stroke:#000000;stroke-width:0.3"
       d="m 253.48442,88.547963 -0.31847,-0.385462"
       id="path1606" /><path
       style="fill:none;stroke:#000000;stroke-width:0.3"
       d="m 250.18797,92.283838 -0.41702,-0.275855"
       id="path1605" /><path
       style="fill:none;stroke:#000000;stroke-width:0.3"
       d="m 248.04461,96.781057 -0.47986,-0.140476"
       id="path1604" /><path
       style="fill:none;stroke:#000000;stroke-width:0.3"
       d="m 248.04703,101.67954 -0.45494,0.20744"
       id="path1603" /><path
       style="fill:none;stroke:#000000;stroke-width:0.3"
       d="m 252.06552,104.32497 -0.10803,0.48819"
       id="path1602" /><path
       style="fill:none;stroke:#000000;stroke-width:0.3"
       d="m 257.03709,104.76795 -0.002,0.5"
       id="path1601" /><path
       style="fill:none;stroke:#000000;stroke-width:0.3"
       d="m 262.03307,104.58779 0.0293,0.49914"
       id="path1600" /><path
       style="fill:none;stroke:#000000;stroke-width:0.3"
       d="m 267.02257,104.52251 -0.1109,0.48754"
       id="path1599" /><path
       style="fill:none;stroke:#000000;stroke-width:0.3"
       d="m 264.74178,107.9258 -0.30893,-0.39314"
       id="path1598" /><path
       style="fill:none;stroke:#000000;stroke-width:0.3"
       d="m 260.80246,111.00497 -0.31212,-0.39061"
       id="path1597" /><path
       style="fill:none;stroke:#000000;stroke-width:0.3"
       d="m 256.97387,114.21995 -0.33201,-0.37386"
       id="path1596" /><path
       style="fill:none;stroke:#000000;stroke-width:0.3"
       d="m 253.32994,117.64272 -0.35259,-0.35451"
       id="path1595" /><path
       style="fill:none;stroke:#000000;stroke-width:0.3"
       d="m 249.90716,121.28603 -0.37758,-0.32777"
       id="path1594" /><path
       style="fill:none;stroke:#000000;stroke-width:0.3"
       d="M 246.87631,125.25696 246.45354,124.99"
       id="path1593" /><path
       style="fill:none;stroke:#000000;stroke-width:0.3"
       d="m 245.83668,129.8641 -0.38183,0.32281"
       id="path1592" /><path
       style="fill:none;stroke:#000000;stroke-width:0.3"
       d="m 250.59662,130.93714 -0.002,0.49999"
       id="path1591" /><path
       style="fill:none;stroke:#000000;stroke-width:0.3"
       d="m 255.59496,130.81694 0.0122,0.49985"
       id="path1590" /><path
       style="fill:none;stroke:#000000;stroke-width:0.3"
       d="m 260.59025,130.93431 -0.051,0.49739"
       id="path1589" /><path
       style="fill:none;stroke:#000000;stroke-width:0.3"
       d="m 265.31252,132.41066 -0.28021,0.41411"
       id="path1588" /><path
       style="fill:none;stroke:#000000;stroke-width:0.3"
       d="m 268.04759,136.44906 -0.48876,0.10543"
       id="path1587" /><path
       style="fill:none;stroke:#000000;stroke-width:0.3"
       d="m 267.27498,141.27156 -0.42841,-0.2578"
       id="path1586" /><path
       style="fill:none;stroke:#000000;stroke-width:0.3"
       d="m 263.32064,144.13162 -0.14853,-0.47743"
       id="path1585" /><path
       style="fill:none;stroke:#000000;stroke-width:0.3"
       d="m 258.40688,145.01566 -0.0556,-0.4969"
       id="path1584" /><path
       style="fill:none;stroke:#000000;stroke-width:0.3"
       d="m 253.43911,145.58048 -0.069,-0.49522"
       id="path1583" /><path
       style="fill:none;stroke:#000000;stroke-width:0.3"
       d="m 248.54959,146.60112 -0.14486,-0.47856"
       id="path1582" /><path
       style="fill:none;stroke:#000000;stroke-width:0.3"
       d="m 243.96527,148.57192 -0.24522,-0.43574"
       id="path1581" /><path
       style="fill:none;stroke:#000000;stroke-width:0.3"
       d="m 239.8947,151.45908 -0.33275,-0.37319"
       id="path1580" /><path
       style="fill:none;stroke:#000000;stroke-width:0.3"
       d="m 236.77759,155.32793 -0.45278,-0.2121"
       id="path1579" /><path
       style="fill:none;stroke:#000000;stroke-width:0.3"
       d="m 238.10526,159.4921 -0.22306,0.44748"
       id="path1578" /><path
       style="fill:none;stroke:#000000;stroke-width:0.3"
       d="m 242.95548,160.58669 -0.0398,0.49842"
       id="path1577" /><path
       style="fill:none;stroke:#000000;stroke-width:0.3"
       d="m 247.95201,160.63245 0.0238,0.49943"
       id="path1576" /><path
       style="fill:none;stroke:#000000;stroke-width:0.3"
       d="m 252.93014,160.18096 0.0648,0.49579"
       id="path1575" /><path
       style="fill:none;stroke:#000000;stroke-width:0.3"
       d="m 257.86994,159.40979 0.0845,0.49282"
       id="path1574" /><path
       style="fill:none;stroke:#000000;stroke-width:0.3"
       d="m 262.80518,158.60929 0.0676,0.49541"
       id="path1573" /><path
       style="fill:none;stroke:#000000;stroke-width:0.3"
       d="m 267.78812,158.36148 -0.0496,0.49753"
       id="path1572" /><path
       style="fill:none;stroke:#000000;stroke-width:0.3"
       d="m 271.82874,160.85862 -0.45504,0.20724"
       id="path1571" /><path
       style="fill:none;stroke:#000000;stroke-width:0.3"
       d="m 271.48808,165.67146 -0.43814,-0.2409"
       id="path1570" /><path
       style="fill:none;stroke:#000000;stroke-width:0.3"
       d="m 267.77018,168.86912 -0.19178,-0.46176"
       id="path1569" /><path
       style="fill:none;stroke:#000000;stroke-width:0.3"
       d="m 262.91358,169.9915 -0.0583,-0.49659"
       id="path1568" /><path
       style="fill:none;stroke:#000000;stroke-width:0.3"
       d="m 257.92631,170.32887 -0.0175,-0.49969"
       id="path1567" /><path
       style="fill:none;stroke:#000000;stroke-width:0.3"
       d="m 252.92803,170.4599 -0.0131,-0.49983"
       id="path1566" /><path
       style="fill:none;stroke:#000000;stroke-width:0.3"
       d="m 247.93285,170.67206 -0.0333,-0.49889"
       id="path1565" /><path
       style="fill:none;stroke:#000000;stroke-width:0.3"
       d="m 242.95941,171.17768 -0.0661,-0.49562"
       id="path1564" /><path
       style="fill:none;stroke:#000000;stroke-width:0.3"
       d="m 238.0191,171.94618 -0.085,-0.49272"
       id="path1563" /><path
       style="fill:none;stroke:#000000;stroke-width:0.3"
       d="m 233.09626,172.82109 -0.0867,-0.49243"
       id="path1562" /><path
       style="fill:none;stroke:#000000;stroke-width:0.3"
       d="m 228.15791,173.60102 -0.0644,-0.49584"
       id="path1561" /><path
       style="fill:none;stroke:#000000;stroke-width:0.3"
       d="m 223.17509,173.97978 -0.003,-0.49999"
       id="path1560" /><path
       style="fill:none;stroke:#000000;stroke-width:0.3"
       d="m 218.21783,173.44729 0.12704,-0.48359"
       id="path1559" /><path
       style="fill:none;stroke:#000000;stroke-width:0.3"
       d="m 213.967,170.97058 0.38338,-0.32097"
       id="path1558" /><path
       style="fill:none;stroke:#000000;stroke-width:0.3"
       d="m 212.3684,166.33081 0.49954,-0.0215"
       id="path1557" /><path
       style="fill:none;stroke:#000000;stroke-width:0.3"
       d="m 212.83701,161.3639 0.49089,0.095"
       id="path1556" /><path
       style="fill:none;stroke:#000000;stroke-width:0.3"
       d="m 214.0512,156.51555 0.47942,0.14199"
       id="path1555" /><path
       style="fill:none;stroke:#000000;stroke-width:0.3"
       d="m 215.60125,151.76241 0.47181,0.16552"
       id="path1554" /><path
       style="fill:none;stroke:#000000;stroke-width:0.3"
       d="m 217.3246,147.06894 0.46735,0.17773"
       id="path1553" /><path
       style="fill:none;stroke:#000000;stroke-width:0.3"
       d="m 219.13162,142.40692 0.46554,0.18241"
       id="path1552" /><path
       style="fill:none;stroke:#000000;stroke-width:0.3"
       d="m 220.94237,137.74634 0.46718,0.17815"
       id="path1551" /><path
       style="fill:none;stroke:#000000;stroke-width:0.3"
       d="m 222.66161,133.05142 0.47236,0.16395"
       id="path1550" /><path
       style="fill:none;stroke:#000000;stroke-width:0.3"
       d="m 224.18308,128.28917 0.48052,0.13823"
       id="path1549" /><path
       style="fill:none;stroke:#000000;stroke-width:0.3"
       d="m 225.37908,123.4358 0.49024,0.0983"
       id="path1548" /><path
       style="fill:none;stroke:#000000;stroke-width:0.3"
       d="m 226.09189,118.48972 0.4983,0.0411"
       id="path1547" /><path
       style="fill:none;stroke:#000000;stroke-width:0.3"
       d="m 226.15166,113.49432 0.49914,-0.0293"
       id="path1546" /><path
       style="fill:none;stroke:#000000;stroke-width:0.3"
       d="m 225.50579,108.54058 0.48963,-0.10128"
       id="path1545" /><path
       style="fill:none;stroke:#000000;stroke-width:0.3"
       d="m 224.04958,103.76608 0.45915,-0.19794"
       id="path1544" /><path
       style="fill:none;stroke:#000000;stroke-width:0.3"
       d="m 221.14557,99.78215 0.26297,-0.425257"
       id="path1543" /><path
       style="fill:none;stroke:#000000;stroke-width:0.3"
       d="m 216.7787,101.03944 -0.36863,-0.33781"
       id="path1542" /><path
       style="fill:none;stroke:#000000;stroke-width:0.3"
       d="m 214.03908,105.20523 -0.44489,-0.2282"
       id="path1541" /><path
       style="fill:none;stroke:#000000;stroke-width:0.3"
       d="m 212.04192,109.78606 -0.46827,-0.17529"
       id="path1540" /><path
       style="fill:none;stroke:#000000;stroke-width:0.3"
       d="m 210.48871,114.53725 -0.48104,-0.13638"
       id="path1539" /><path
       style="fill:none;stroke:#000000;stroke-width:0.3"
       d="m 209.3089,119.39481 -0.49001,-0.0994"
       id="path1538" /><path
       style="fill:none;stroke:#000000;stroke-width:0.3"
       d="m 208.47553,124.32404 -0.49517,-0.0693"
       id="path1537" /><path
       style="fill:none;stroke:#000000;stroke-width:0.3"
       d="m 207.87656,129.28784 -0.4972,-0.0529"
       id="path1536" /><path
       style="fill:none;stroke:#000000;stroke-width:0.3"
       d="m 207.36968,134.26203 -0.4974,-0.0509"
       id="path1535" /><path
       style="fill:none;stroke:#000000;stroke-width:0.3"
       d="m 206.81106,139.23062 -0.49602,-0.063"
       id="path1534" /><path
       style="fill:none;stroke:#000000;stroke-width:0.3"
       d="m 206.06953,144.17482 -0.49235,-0.0871"
       id="path1533" /><path
       style="fill:none;stroke:#000000;stroke-width:0.3"
       d="m 205.04143,149.06706 -0.48568,-0.11878"
       id="path1532" /><path
       style="fill:none;stroke:#000000;stroke-width:0.3"
       d="m 203.6979,153.88227 -0.47695,-0.15009"
       id="path1531" /><path
       style="fill:none;stroke:#000000;stroke-width:0.3"
       d="m 202.02599,158.59322 -0.46427,-0.18562"
       id="path1530" /><path
       style="fill:none;stroke:#000000;stroke-width:0.3"
       d="m 199.93841,163.13379 -0.44087,-0.23588"
       id="path1529" /><path
       style="fill:none;stroke:#000000;stroke-width:0.3"
       d="m 197.15484,167.27297 -0.37062,-0.33562"
       id="path1528" /><path
       style="fill:none;stroke:#000000;stroke-width:0.3"
       d="m 192.8208,169.32536 0.0546,-0.49701"
       id="path1527" /><path
       style="fill:none;stroke:#000000;stroke-width:0.3"
       d="m 188.32118,167.25432 0.27598,-0.41693"
       id="path1526" /><path
       style="fill:none;stroke:#000000;stroke-width:0.3"
       d="m 183.88547,165.05735 0.0376,-0.49858"
       id="path1525" /><path
       style="fill:none;stroke:#000000;stroke-width:0.3"
       d="m 179.68602,167.46443 -0.36027,-0.34671"
       id="path1524" /><path
       style="fill:none;stroke:#000000;stroke-width:0.3"
       d="m 176.14933,170.98975 -0.29952,-0.40036"
       id="path1523" /><path
       style="fill:none;stroke:#000000;stroke-width:0.3"
       d="m 171.46868,171.44517 0.22118,-0.44842"
       id="path1522" /><path
       style="fill:none;stroke:#000000;stroke-width:0.3"
       d="m 167.99721,167.95839 0.4457,-0.22662"
       id="path1521" /><path
       style="fill:none;stroke:#000000;stroke-width:0.3"
       d="m 168.27348,163.27114 0.40118,0.29841"
       id="path1520" /><path
       style="fill:none;stroke:#000000;stroke-width:0.3"
       d="m 171.71781,159.65186 0.37249,0.33354"
       id="path1519" /><path
       style="fill:none;stroke:#000000;stroke-width:0.3"
       d="m 174.1088,155.32551 0.48762,0.11056"
       id="path1518" /><path
       style="fill:none;stroke:#000000;stroke-width:0.3"
       d="m 174.15908,150.35582 0.49308,-0.0829"
       id="path1517" /><path
       style="fill:none;stroke:#000000;stroke-width:0.3"
       d="m 172.3484,145.75102 0.38244,-0.32209"
       id="path1516" /><path
       style="fill:none;stroke:#000000;stroke-width:0.3"
       d="m 168.36146,146.70325 -0.39987,-0.30017"
       id="path1515" /><path
       style="fill:none;stroke:#000000;stroke-width:0.3"
       d="m 165.69924,150.93275 -0.42988,-0.25534"
       id="path1514" /><path
       style="fill:none;stroke:#000000;stroke-width:0.3"
       d="m 162.84962,155.02705 -0.35216,-0.35494"
       id="path1513" /><path
       style="fill:none;stroke:#000000;stroke-width:0.3"
       d="m 158.89,153.96507 0.41263,-0.28237"
       id="path1512" /><path
       style="fill:none;stroke:#000000;stroke-width:0.3"
       d="m 156.35237,149.65858 0.42017,-0.27104"
       id="path1511" /><path
       style="fill:none;stroke:#000000;stroke-width:0.3"
       d="m 153.4235,150.77652 -0.47669,-0.15088"
       id="path1510" /><path
       style="fill:none;stroke:#000000;stroke-width:0.3"
       d="m 152.18766,155.62012 -0.48724,-0.11224"
       id="path1509" /><path
       style="fill:none;stroke:#000000;stroke-width:0.3"
       d="m 151.02578,160.48307 -0.4839,-0.12586"
       id="path1508" /><path
       style="fill:none;stroke:#000000;stroke-width:0.3"
       d="m 149.50555,165.24212 -0.4612,-0.19312"
       id="path1507" /><path
       style="fill:none;stroke:#000000;stroke-width:0.3"
       d="m 146.69895,169.30467 -0.27822,-0.41545"
       id="path1506" /><path
       style="fill:none;stroke:#000000;stroke-width:0.3"
       d="m 143.13025,167.18218 0.47467,-0.15713"
       id="path1505" /><path
       style="fill:none;stroke:#000000;stroke-width:0.3"
       d="m 142.29866,162.26214 0.49803,-0.0443"
       id="path1504" /><path
       style="fill:none;stroke:#000000;stroke-width:0.3"
       d="m 141.97116,157.27314 0.49926,-0.0272"
       id="path1503" /><path
       style="fill:none;stroke:#000000;stroke-width:0.3"
       d="m 141.67311,152.28214 0.49872,-0.0358"
       id="path1502" /><path
       style="fill:none;stroke:#000000;stroke-width:0.3"
       d="m 141.18548,147.30675 0.49563,-0.066"
       id="path1501" /><path
       style="fill:none;stroke:#000000;stroke-width:0.3"
       d="m 140.23318,142.40225 0.48188,-0.1334"
       id="path1500" /><path
       style="fill:none;stroke:#000000;stroke-width:0.3"
       d="m 138.39304,137.76471 0.43917,-0.239"
       id="path1499" /><path
       style="fill:none;stroke:#000000;stroke-width:0.3"
       d="m 135.26998,133.90953 0.293,-0.40515"
       id="path1498" /><path
       style="fill:none;stroke:#000000;stroke-width:0.3"
       d="m 131.45439,135.07429 -0.4802,-0.1393"
       id="path1497" /><path
       style="fill:none;stroke:#000000;stroke-width:0.3"
       d="m 130.98532,140.03765 -0.5,-2.6e-4"
       id="path1496" /><path
       style="fill:none;stroke:#000000;stroke-width:0.3"
       d="m 131.13331,145.03503 -0.49945,0.0235"
       id="path1495" /><path
       style="fill:none;stroke:#000000;stroke-width:0.3"
       d="m 131.37589,150.02918 -0.49951,0.022"
       id="path1494" /><path
       style="fill:none;stroke:#000000;stroke-width:0.3"
       d="m 131.521,155.02687 -0.49997,0.005"
       id="path1493" /><path
       style="fill:none;stroke:#000000;stroke-width:0.3"
       d="m 131.44786,160.02573 -0.49953,-0.0215"
       id="path1492" /><path
       style="fill:none;stroke:#000000;stroke-width:0.3"
       d="m 131.03593,165.00714 -0.49576,-0.065"
       id="path1491" /><path
       style="fill:none;stroke:#000000;stroke-width:0.3"
       d="m 130.00331,169.8924 -0.4756,-0.15427"
       id="path1490" /><path
       style="fill:none;stroke:#000000;stroke-width:0.3"
       d="m 127.44384,174.10737 -0.31569,-0.38774"
       id="path1489" /><path
       style="fill:none;stroke:#000000;stroke-width:0.3"
       d="m 122.77163,174.68425 0.23144,-0.44321"
       id="path1488" /><path
       style="fill:none;stroke:#000000;stroke-width:0.3"
       d="m 119.88381,170.7648 0.47756,-0.14813"
       id="path1487" /><path
       style="fill:none;stroke:#000000;stroke-width:0.3"
       d="m 119.0141,165.8491 0.49741,-0.0509"
       id="path1486" /><path
       style="fill:none;stroke:#000000;stroke-width:0.3"
       d="m 118.60025,160.86635 0.49845,-0.0394"
       id="path1485" /><path
       style="fill:none;stroke:#000000;stroke-width:0.3"
       d="m 118.11898,155.88993 0.49627,-0.0609"
       id="path1484" /><path
       style="fill:none;stroke:#000000;stroke-width:0.3"
       d="m 117.31465,150.95651 0.4897,-0.101"
       id="path1483" /><path
       style="fill:none;stroke:#000000;stroke-width:0.3"
       d="m 116.11659,146.10341 0.48054,-0.13813"
       id="path1482" /><path
       style="fill:none;stroke:#000000;stroke-width:0.3"
       d="m 114.54363,141.3588 0.46724,-0.178"
       id="path1481" /><path
       style="fill:none;stroke:#000000;stroke-width:0.3"
       d="m 112.47639,136.8109 0.43607,-0.24463"
       id="path1480" /><path
       style="fill:none;stroke:#000000;stroke-width:0.3"
       d="M 108.92903,133.74074 108.79,133.26046"
       id="path1479" /><path
       style="fill:none;stroke:#000000;stroke-width:0.3"
       d="m 106.77707,138.01583 -0.49494,-0.071"
       id="path1478" /><path
       style="fill:none;stroke:#000000;stroke-width:0.3"
       d="m 106.65071,143.00601 -0.49935,0.0256"
       id="path1477" /><path
       style="fill:none;stroke:#000000;stroke-width:0.3"
       d="m 106.92948,147.99812 -0.49971,0.0172"
       id="path1476" /><path
       style="fill:none;stroke:#000000;stroke-width:0.3"
       d="m 106.74982,152.98894 -0.49554,-0.0666"
       id="path1475" /><path
       style="fill:none;stroke:#000000;stroke-width:0.3"
       d="m 105.30027,157.74607 -0.44076,-0.23608"
       id="path1474" /><path
       style="fill:none;stroke:#000000;stroke-width:0.3"
       d="m 102.10495,161.55172 -0.32069,-0.38361"
       id="path1473" /><path
       style="fill:none;stroke:#000000;stroke-width:0.3"
       d="m 97.923611,164.27575 -0.231093,-0.44339"
       id="path1472" /><path
       style="fill:none;stroke:#000000;stroke-width:0.3"
       d="m 93.350363,166.28956 -0.176138,-0.46795"
       id="path1471" /><path
       style="fill:none;stroke:#000000;stroke-width:0.3"
       d="M 88.606718,167.86657 88.46489,167.38711"
       id="path1470" /><path
       style="fill:none;stroke:#000000;stroke-width:0.3"
       d="M 83.778972,169.16598 83.65937,168.6805"
       id="path1469" /><path
       style="fill:none;stroke:#000000;stroke-width:0.3"
       d="m 78.90469,170.27915 -0.103669,-0.48914"
       id="path1468" /><path
       style="fill:none;stroke:#000000;stroke-width:0.3"
       d="m 73.999869,171.24939 -0.09077,-0.49169"
       id="path1467" /><path
       style="fill:none;stroke:#000000;stroke-width:0.3"
       d="m 69.073012,172.10093 -0.07979,-0.4936"
       id="path1466" /><path
       style="fill:none;stroke:#000000;stroke-width:0.3"
       d="m 64.129392,172.84922 -0.07003,-0.49507"
       id="path1465" /><path
       style="fill:none;stroke:#000000;stroke-width:0.3"
       d="m 59.172531,173.50417 -0.06105,-0.49626"
       id="path1464" /><path
       style="fill:none;stroke:#000000;stroke-width:0.3"
       d="M 54.20491,174.07171 54.1524,173.57447"
       id="path1463" /><path
       style="fill:none;stroke:#000000;stroke-width:0.3"
       d="m 49.228357,174.55486 -0.04411,-0.49805"
       id="path1462" /><path
       style="fill:none;stroke:#000000;stroke-width:0.3"
       d="m 44.244378,174.95408 -0.03581,-0.49872"
       id="path1461" /><path
       style="fill:none;stroke:#000000;stroke-width:0.3"
       d="m 39.254665,175.27395 -0.02832,-0.4992"
       id="path1460" /><path
       style="fill:none;stroke:#000000;stroke-width:0.3"
       d="m 34.260945,175.52381 -0.02182,-0.49952"
       id="path1459" /><path
       style="fill:none;stroke:#000000;stroke-width:0.3"
       d="m 29.264583,175.71398 -0.01639,-0.49974"
       id="path1458" /><path
       style="fill:none;stroke:#000000;stroke-width:0.3"
       d="m 24.266599,175.85548 -0.0121,-0.49985"
       id="path1457" /><path
       style="fill:none;stroke:#000000;stroke-width:0.3"
       d="m 19.267701,175.95997 -0.009,-0.49992"
       id="path1456" /><path
       style="fill:none;stroke:#000000;stroke-width:0.3"
       d="m 14.268316,176.03954 -0.0071,-0.49995"
       id="path1455" /><path
       style="fill:none;stroke:#000000;stroke-width:0.3"
       d="M 9.2687655,176.10654 Z"
       id="path1454" /></g></svg>
