<?xml version="1.0" encoding="UTF-8" standalone="no"?>
<!-- Created with Inkscape (http://www.inkscape.org/) -->

<svg
   width="272.54453mm"
   height="172.6918mm"
   viewBox="0 0 272.54453 172.6918"
   version="1.1"
   id="svg1"
   inkscape:version="1.3.1 (91b66b0783, 2023-11-16)"
   sodipodi:docname="Track2.svg"
   xml:space="preserve"
   inkscape:export-filename="MegTestTrial\Track1.svg"
   inkscape:export-xdpi="96"
   inkscape:export-ydpi="96"
   xmlns:inkscape="http://www.inkscape.org/namespaces/inkscape"
   xmlns:sodipodi="http://sodipodi.sourceforge.net/DTD/sodipodi-0.dtd"
   xmlns="http://www.w3.org/2000/svg"
   xmlns:svg="http://www.w3.org/2000/svg"><sodipodi:namedview
     id="namedview1"
     pagecolor="#ffffff"
     bordercolor="#000000"
     borderopacity="0.25"
     inkscape:showpageshadow="2"
     inkscape:pageopacity="0.0"
     inkscape:pagecheckerboard="0"
     inkscape:deskcolor="#d1d1d1"
     inkscape:document-units="mm"
     inkscape:zoom="3.0680976"
     inkscape:cx="829.17831"
     inkscape:cy="87.839447"
     inkscape:window-width="1920"
     inkscape:window-height="1057"
     inkscape:window-x="1912"
     inkscape:window-y="-8"
     inkscape:window-maximized="1"
     inkscape:current-layer="g1009" /><defs
     id="defs1" /><g
     inkscape:groupmode="layer"
     id="g1009"
     inkscape:label="Track2_BASE copy"
     transform="translate(-5.5191636,-3.4147482)"><path
       style="fill:none;stroke:#000000;stroke-width:0.3"
       d="m 266.26202,4.7259775 -0.07,-0.4950802"
       id="path1452" /><path
       style="fill:none;stroke:#000000;stroke-width:0.3"
       d="m 261.27174,4.9939687 -0.0248,-0.4993838"
       id="path1451" /><path
       style="fill:none;stroke:#000000;stroke-width:0.3"
       d="M 256.34398,5.7577927 256.1954,5.2803803"
       id="path1450" /><path
       style="fill:none;stroke:#000000;stroke-width:0.3"
       d="M 252.07769,8.2712481 251.73321,7.9088506"
       id="path1449" /><path
       style="fill:none;stroke:#000000;stroke-width:0.3"
       d="m 248.77826,12.023928 -0.3823,-0.322248"
       id="path1448" /><path
       style="fill:none;stroke:#000000;stroke-width:0.3"
       d="m 244.90169,15.020988 -0.0746,-0.494407"
       id="path1447" /><path
       style="fill:none;stroke:#000000;stroke-width:0.3"
       d="m 240.37517,13.16753 0.28224,-0.412725"
       id="path1446" /><path
       style="fill:none;stroke:#000000;stroke-width:0.3"
       d="m 236.18037,10.4514 0.23891,-0.439231"
       id="path1445" /><path
       style="fill:none;stroke:#000000;stroke-width:0.3"
       d="m 231.49095,8.7900342 0.0812,-0.4933611"
       id="path1444" /><path
       style="fill:none;stroke:#000000;stroke-width:0.3"
       d="m 226.50665,8.6783327 -0.0516,-0.4973282"
       id="path1443" /><path
       style="fill:none;stroke:#000000;stroke-width:0.3"
       d="M 221.66536,9.8519032 221.46423,9.3941398"
       id="path1442" /><path
       style="fill:none;stroke:#000000;stroke-width:0.3"
       d="m 221.06374,13.413843 -0.32836,0.37706"
       id="path1441" /><path
       style="fill:none;stroke:#000000;stroke-width:0.3"
       d="m 223.93307,17.274725 -0.49658,-0.05846"
       id="path1440" /><path
       style="fill:none;stroke:#000000;stroke-width:0.3"
       d="m 220.89746,21.137454 -0.33159,-0.37423"
       id="path1439" /><path
       style="fill:none;stroke:#000000;stroke-width:0.3"
       d="M 217.61785,24.804569 217.118,24.792299"
       id="path1438" /><path
       style="fill:none;stroke:#000000;stroke-width:0.3"
       d="m 222.05706,26.423578 -0.0492,0.49757"
       id="path1437" /><path
       style="fill:none;stroke:#000000;stroke-width:0.3"
       d="m 227.04263,26.799617 -0.049,0.497588"
       id="path1436" /><path
       style="fill:none;stroke:#000000;stroke-width:0.3"
       d="m 225.84937,28.877096 -0.20001,-0.458252"
       id="path1435" /><path
       style="fill:none;stroke:#000000;stroke-width:0.3"
       d="m 221.32755,31.007144 -0.2372,-0.440158"
       id="path1434" /><path
       style="fill:none;stroke:#000000;stroke-width:0.3"
       d="m 217.20459,33.814176 -0.33668,-0.369654"
       id="path1433" /><path
       style="fill:none;stroke:#000000;stroke-width:0.3"
       d="m 214.59737,37.981599 -0.48876,-0.105408"
       id="path1432" /><path
       style="fill:none;stroke:#000000;stroke-width:0.3"
       d="m 214.5198,42.964232 -0.49871,0.03585"
       id="path1431" /><path
       style="fill:none;stroke:#000000;stroke-width:0.3"
       d="m 214.74829,47.95762 -0.5,-0.0025"
       id="path1430" /><path
       style="fill:none;stroke:#000000;stroke-width:0.3"
       d="m 214.3746,52.939679 -0.49521,-0.06905"
       id="path1429" /><path
       style="fill:none;stroke:#000000;stroke-width:0.3"
       d="m 213.46684,57.85516 -0.48775,-0.109977"
       id="path1428" /><path
       style="fill:none;stroke:#000000;stroke-width:0.3"
       d="m 212.18748,62.68746 -0.4778,-0.147329"
       id="path1427" /><path
       style="fill:none;stroke:#000000;stroke-width:0.3"
       d="m 210.33659,67.319731 -0.41855,-0.27353"
       id="path1426" /><path
       style="fill:none;stroke:#000000;stroke-width:0.3"
       d="m 207.09537,64.785563 0.40205,-0.297255"
       id="path1425" /><path
       style="fill:none;stroke:#000000;stroke-width:0.3"
       d="m 203.75893,61.072392 0.33714,-0.369236"
       id="path1424" /><path
       style="fill:none;stroke:#000000;stroke-width:0.3"
       d="m 199.81036,58.011793 0.28162,-0.41315"
       id="path1423" /><path
       style="fill:none;stroke:#000000;stroke-width:0.3"
       d="m 195.5739,55.358137 0.25131,-0.432257"
       id="path1422" /><path
       style="fill:none;stroke:#000000;stroke-width:0.3"
       d="m 191.18666,52.960926 0.22866,-0.444655"
       id="path1421" /><path
       style="fill:none;stroke:#000000;stroke-width:0.3"
       d="m 186.68308,50.790295 0.204,-0.45649"
       id="path1420" /><path
       style="fill:none;stroke:#000000;stroke-width:0.3"
       d="m 181.99787,49.077754 0.0536,-0.497116"
       id="path1419" /><path
       style="fill:none;stroke:#000000;stroke-width:0.3"
       d="m 184.00115,52.789883 -0.38056,0.324305"
       id="path1418" /><path
       style="fill:none;stroke:#000000;stroke-width:0.3"
       d="m 187.19972,56.63264 -0.39061,0.312123"
       id="path1417" /><path
       style="fill:none;stroke:#000000;stroke-width:0.3"
       d="m 190.23394,60.606297 -0.40341,0.295397"
       id="path1416" /><path
       style="fill:none;stroke:#000000;stroke-width:0.3"
       d="m 193.10672,64.698194 -0.41529,0.278444"
       id="path1415" /><path
       style="fill:none;stroke:#000000;stroke-width:0.3"
       d="m 195.76615,68.931167 -0.43332,0.249459"
       id="path1414" /><path
       style="fill:none;stroke:#000000;stroke-width:0.3"
       d="m 197.73358,73.495832 -0.49897,0.03217"
       id="path1413" /><path
       style="fill:none;stroke:#000000;stroke-width:0.3"
       d="m 193.63679,73.08657 0.25388,-0.430754"
       id="path1412" /><path
       style="fill:none;stroke:#000000;stroke-width:0.3"
       d="m 189.52595,70.245922 0.30629,-0.395204"
       id="path1411" /><path
       style="fill:none;stroke:#000000;stroke-width:0.3"
       d="m 185.70761,67.019907 0.33587,-0.370395"
       id="path1410" /><path
       style="fill:none;stroke:#000000;stroke-width:0.3"
       d="m 182.03279,63.62944 0.33483,-0.371332"
       id="path1409" /><path
       style="fill:none;stroke:#000000;stroke-width:0.3"
       d="m 177.89269,60.974503 -0.011,-0.499879"
       id="path1408" /><path
       style="fill:none;stroke:#000000;stroke-width:0.3"
       d="m 174.92506,64.780682 -0.38077,-0.324059"
       id="path1407" /><path
       style="fill:none;stroke:#000000;stroke-width:0.3"
       d="m 170.47697,64.233152 0.2765,-0.416593"
       id="path1406" /><path
       style="fill:none;stroke:#000000;stroke-width:0.3"
       d="m 166.44577,61.276316 0.29091,-0.406656"
       id="path1405" /><path
       style="fill:none;stroke:#000000;stroke-width:0.3"
       d="m 162.86911,61.81974 -0.4812,-0.135804"
       id="path1404" /><path
       style="fill:none;stroke:#000000;stroke-width:0.3"
       d="m 159.51387,64.844441 -0.007,-0.499949"
       id="path1403" /><path
       style="fill:none;stroke:#000000;stroke-width:0.3"
       d="m 154.5633,64.196905 0.0911,-0.491632"
       id="path1402" /><path
       style="fill:none;stroke:#000000;stroke-width:0.3"
       d="m 149.62978,63.390024 0.0593,-0.496472"
       id="path1401" /><path
       style="fill:none;stroke:#000000;stroke-width:0.3"
       d="m 144.64021,63.228891 -0.035,-0.498774"
       id="path1400" /><path
       style="fill:none;stroke:#000000;stroke-width:0.3"
       d="M 139.74054,64.157579 139.58033,63.68394"
       id="path1399" /><path
       style="fill:none;stroke:#000000;stroke-width:0.3"
       d="m 136.15615,67.21117 -0.49953,0.02178"
       id="path1398" /><path
       style="fill:none;stroke:#000000;stroke-width:0.3"
       d="m 139.61296,70.575604 -0.23464,0.441524"
       id="path1397" /><path
       style="fill:none;stroke:#000000;stroke-width:0.3"
       d="m 144.22977,72.478566 -0.15226,0.476255"
       id="path1396" /><path
       style="fill:none;stroke:#000000;stroke-width:0.3"
       d="m 149.09469,73.604108 -0.0639,0.495894"
       id="path1395" /><path
       style="fill:none;stroke:#000000;stroke-width:0.3"
       d="m 154.07907,73.537736 0.0619,0.496155"
       id="path1394" /><path
       style="fill:none;stroke:#000000;stroke-width:0.3"
       d="m 157.5691,75.651483 -0.49814,0.04303"
       id="path1393" /><path
       style="fill:none;stroke:#000000;stroke-width:0.3"
       d="m 157.27157,80.631536 -0.4936,-0.07975"
       id="path1392" /><path
       style="fill:none;stroke:#000000;stroke-width:0.3"
       d="M 155.86548,85.406074 155.4334,85.154459"
       id="path1391" /><path
       style="fill:none;stroke:#000000;stroke-width:0.3"
       d="m 151.52501,85.195433 0.0858,-0.492585"
       id="path1390" /><path
       style="fill:none;stroke:#000000;stroke-width:0.3"
       d="m 149.32978,89.158879 -0.4985,-0.0387"
       id="path1389" /><path
       style="fill:none;stroke:#000000;stroke-width:0.3"
       d="m 149.92772,94.089286 -0.47288,0.162453"
       id="path1388" /><path
       style="fill:none;stroke:#000000;stroke-width:0.3"
       d="m 152.3958,98.414189 -0.401,0.298666"
       id="path1387" /><path
       style="fill:none;stroke:#000000;stroke-width:0.3"
       d="m 155.43789,102.38197 -0.40452,0.29388"
       id="path1386" /><path
       style="fill:none;stroke:#000000;stroke-width:0.3"
       d="m 158.01825,106.65576 -0.45184,0.2141"
       id="path1385" /><path
       style="fill:none;stroke:#000000;stroke-width:0.3"
       d="m 159.69752,111.35626 -0.48616,0.11684"
       id="path1384" /><path
       style="fill:none;stroke:#000000;stroke-width:0.3"
       d="m 159.8014,116.28053 -0.45569,-0.2058"
       id="path1383" /><path
       style="fill:none;stroke:#000000;stroke-width:0.3"
       d="m 155.28816,116.72189 0.14113,-0.47966"
       id="path1382" /><path
       style="fill:none;stroke:#000000;stroke-width:0.3"
       d="m 150.41842,115.64828 0.0198,-0.49961"
       id="path1381" /><path
       style="fill:none;stroke:#000000;stroke-width:0.3"
       d="m 145.99111,117.55231 -0.36446,-0.34229"
       id="path1380" /><path
       style="fill:none;stroke:#000000;stroke-width:0.3"
       d="m 143.13806,121.64697 -0.42736,-0.25955"
       id="path1379" /><path
       style="fill:none;stroke:#000000;stroke-width:0.3"
       d="m 139.72189,123.56738 0.39245,-0.30982"
       id="path1378" /><path
       style="fill:none;stroke:#000000;stroke-width:0.3"
       d="m 136.77153,119.53928 0.35979,-0.34721"
       id="path1377" /><path
       style="fill:none;stroke:#000000;stroke-width:0.3"
       d="m 132.38751,117.40918 0.0241,-0.49942"
       id="path1376" /><path
       style="fill:none;stroke:#000000;stroke-width:0.3"
       d="m 127.5287,118.43829 -0.17764,-0.46738"
       id="path1375" /><path
       style="fill:none;stroke:#000000;stroke-width:0.3"
       d="m 122.98435,120.51755 -0.22877,-0.4446"
       id="path1374" /><path
       style="fill:none;stroke:#000000;stroke-width:0.3"
       d="m 118.58332,122.89015 -0.24051,-0.43836"
       id="path1373" /><path
       style="fill:none;stroke:#000000;stroke-width:0.3"
       d="m 114.12162,125.1404 -0.18193,-0.46573"
       id="path1372" /><path
       style="fill:none;stroke:#000000;stroke-width:0.3"
       d="m 111.3897,121.16361 0.47652,0.15144"
       id="path1371" /><path
       style="fill:none;stroke:#000000;stroke-width:0.3"
       d="m 113.58136,117.82275 0.35485,-0.35225"
       id="path1370" /><path
       style="fill:none;stroke:#000000;stroke-width:0.3"
       d="m 109.06648,119.75319 -0.22071,-0.44864"
       id="path1369" /><path
       style="fill:none;stroke:#000000;stroke-width:0.3"
       d="m 104.44275,121.64357 -0.15194,-0.47636"
       id="path1368" /><path
       style="fill:none;stroke:#000000;stroke-width:0.3"
       d="m 99.591898,122.84224 -0.09059,-0.49173"
       id="path1367" /><path
       style="fill:none;stroke:#000000;stroke-width:0.3"
       d="m 94.630983,123.43448 -0.02146,-0.49954"
       id="path1366" /><path
       style="fill:none;stroke:#000000;stroke-width:0.3"
       d="m 90.01507,122.33369 0.48476,-0.12251"
       id="path1365" /><path
       style="fill:none;stroke:#000000;stroke-width:0.3"
       d="m 92.305435,117.99973 0.408211,0.28872"
       id="path1364" /><path
       style="fill:none;stroke:#000000;stroke-width:0.3"
       d="m 94.883129,113.72416 0.454179,0.2091"
       id="path1363" /><path
       style="fill:none;stroke:#000000;stroke-width:0.3"
       d="m 96.417356,108.97713 0.490362,0.0977"
       id="path1362" /><path
       style="fill:none;stroke:#000000;stroke-width:0.3"
       d="m 96.631493,104.00892 0.491812,-0.0901"
       id="path1361" /><path
       style="fill:none;stroke:#000000;stroke-width:0.3"
       d="m 93.072576,101.29268 0.02701,-0.49927"
       id="path1360" /><path
       style="fill:none;stroke:#000000;stroke-width:0.3"
       d="m 92.196508,97.814809 0.447351,0.223332"
       id="path1359" /><path
       style="fill:none;stroke:#000000;stroke-width:0.3"
       d="m 94.623341,93.444047 0.433225,0.249632"
       id="path1358" /><path
       style="fill:none;stroke:#000000;stroke-width:0.3"
       d="m 97.068081,89.08277 0.441455,0.234771"
       id="path1357" /><path
       style="fill:none;stroke:#000000;stroke-width:0.3"
       d="m 99.18664,84.557381 0.467824,0.176467"
       id="path1356" /><path
       style="fill:none;stroke:#000000;stroke-width:0.3"
       d="m 99.560941,79.741276 0.404711,-0.293613"
       id="path1355" /><path
       style="fill:none;stroke:#000000;stroke-width:0.3"
       d="M 94.82416,78.812032 94.79729,78.312755"
       id="path1354" /><path
       style="fill:none;stroke:#000000;stroke-width:0.3"
       d="m 91.416719,77.469457 0.419479,0.272098"
       id="path1353" /><path
       style="fill:none;stroke:#000000;stroke-width:0.3"
       d="m 94.511974,73.544513 0.397329,0.303528"
       id="path1352" /><path
       style="fill:none;stroke:#000000;stroke-width:0.3"
       d="m 97.178544,69.325444 0.451028,0.215809"
       id="path1351" /><path
       style="fill:none;stroke:#000000;stroke-width:0.3"
       d="m 98.531947,64.538152 0.497029,0.05443"
       id="path1350" /><path
       style="fill:none;stroke:#000000;stroke-width:0.3"
       d="m 98.391107,59.55507 0.493478,-0.08049"
       id="path1349" /><path
       style="fill:none;stroke:#000000;stroke-width:0.3"
       d="m 96.647314,54.931292 0.359447,-0.34756"
       id="path1348" /><path
       style="fill:none;stroke:#000000;stroke-width:0.3"
       d="M 93.397292,57.672496 92.9521,57.444891"
       id="path1347" /><path
       style="fill:none;stroke:#000000;stroke-width:0.3"
       d="m 90.703616,61.841567 -0.3047,-0.396431"
       id="path1346" /><path
       style="fill:none;stroke:#000000;stroke-width:0.3"
       d="m 87.281797,59.627317 0.478826,-0.143963"
       id="path1345" /><path
       style="fill:none;stroke:#000000;stroke-width:0.3"
       d="m 86.545192,54.691097 0.498527,-0.03835"
       id="path1344" /><path
       style="fill:none;stroke:#000000;stroke-width:0.3"
       d="m 86.203833,49.702803 0.498452,-0.0393"
       id="path1343" /><path
       style="fill:none;stroke:#000000;stroke-width:0.3"
       d="m 85.461192,44.767187 0.478034,-0.146572"
       id="path1342" /><path
       style="fill:none;stroke:#000000;stroke-width:0.3"
       d="M 81.719364,43.226331 81.440109,42.811582"
       id="path1341" /><path
       style="fill:none;stroke:#000000;stroke-width:0.3"
       d="M 78.648504,47.103657 78.197206,46.888412"
       id="path1340" /><path
       style="fill:none;stroke:#000000;stroke-width:0.3"
       d="m 77.237822,51.88269 -0.493751,-0.0788"
       id="path1339" /><path
       style="fill:none;stroke:#000000;stroke-width:0.3"
       d="m 76.863174,56.863942 -0.499984,-0.004"
       id="path1338" /><path
       style="fill:none;stroke:#000000;stroke-width:0.3"
       d="m 77.045029,61.859276 -0.498683,0.03628"
       id="path1337" /><path
       style="fill:none;stroke:#000000;stroke-width:0.3"
       d="m 77.49908,66.838438 -0.497421,0.05072"
       id="path1336" /><path
       style="fill:none;stroke:#000000;stroke-width:0.3"
       d="m 77.996787,71.813579 -0.497896,0.04583"
       id="path1335" /><path
       style="fill:none;stroke:#000000;stroke-width:0.3"
       d="m 78.34245,76.800998 -0.499668,0.0182"
       id="path1334" /><path
       style="fill:none;stroke:#000000;stroke-width:0.3"
       d="m 78.176087,81.792157 -0.495522,-0.06676"
       id="path1333" /><path
       style="fill:none;stroke:#000000;stroke-width:0.3"
       d="M 76.897338,86.61345 76.430357,86.434765"
       id="path1332" /><path
       style="fill:none;stroke:#000000;stroke-width:0.3"
       d="m 75.190638,91.308924 -0.48491,-0.121913"
       id="path1331" /><path
       style="fill:none;stroke:#000000;stroke-width:0.3"
       d="m 74.591979,96.265767 -0.498816,-0.03439"
       id="path1330" /><path
       style="fill:none;stroke:#000000;stroke-width:0.3"
       d="M 73.953824,101.2189 73.46739,101.10322"
       id="path1329" /><path
       style="fill:none;stroke:#000000;stroke-width:0.3"
       d="M 71.922141,105.75008 71.516967,105.4571"
       id="path1328" /><path
       style="fill:none;stroke:#000000;stroke-width:0.3"
       d="M 68.403389,109.27617 68.10416,108.8756"
       id="path1327" /><path
       style="fill:none;stroke:#000000;stroke-width:0.3"
       d="m 63.940152,111.41809 -0.05433,-0.49704"
       id="path1326" /><path
       style="fill:none;stroke:#000000;stroke-width:0.3"
       d="m 62.095488,107.65274 0.497223,0.0526"
       id="path1325" /><path
       style="fill:none;stroke:#000000;stroke-width:0.3"
       d="m 62.845623,102.70989 0.494941,0.0709"
       id="path1324" /><path
       style="fill:none;stroke:#000000;stroke-width:0.3"
       d="m 63.293995,97.732205 0.499576,0.0206"
       id="path1323" /><path
       style="fill:none;stroke:#000000;stroke-width:0.3"
       d="m 63.324494,92.733103 0.49989,-0.01052"
       id="path1322" /><path
       style="fill:none;stroke:#000000;stroke-width:0.3"
       d="m 63.139803,87.736744 0.499171,-0.02878"
       id="path1321" /><path
       style="fill:none;stroke:#000000;stroke-width:0.3"
       d="m 62.654983,82.761853 0.49492,-0.07109"
       id="path1320" /><path
       style="fill:none;stroke:#000000;stroke-width:0.3"
       d="m 61.692839,77.85755 0.485044,-0.121377"
       id="path1319" /><path
       style="fill:none;stroke:#000000;stroke-width:0.3"
       d="m 60.24055,73.075184 0.470935,-0.167989"
       id="path1318" /><path
       style="fill:none;stroke:#000000;stroke-width:0.3"
       d="m 58.373546,68.438128 0.45667,-0.203597"
       id="path1317" /><path
       style="fill:none;stroke:#000000;stroke-width:0.3"
       d="m 56.175819,63.948273 0.440302,-0.236928"
       id="path1316" /><path
       style="fill:none;stroke:#000000;stroke-width:0.3"
       d="m 53.56923,59.685431 0.405581,-0.292412"
       id="path1315" /><path
       style="fill:none;stroke:#000000;stroke-width:0.3"
       d="M 49.82436,57.5256 49.417533,57.234925"
       id="path1314" /><path
       style="fill:none;stroke:#000000;stroke-width:0.3"
       d="m 49.012718,62.400473 -0.499999,0.001"
       id="path1313" /><path
       style="fill:none;stroke:#000000;stroke-width:0.3"
       d="m 49.314276,67.389229 -0.497212,0.05273"
       id="path1312" /><path
       style="fill:none;stroke:#000000;stroke-width:0.3"
       d="m 50.004467,72.340558 -0.492912,0.08389"
       id="path1311" /><path
       style="fill:none;stroke:#000000;stroke-width:0.3"
       d="m 50.965171,77.246969 -0.48869,0.105746"
       id="path1310" /><path
       style="fill:none;stroke:#000000;stroke-width:0.3"
       d="m 52.072067,82.122862 -0.487,0.113272"
       id="path1309" /><path
       style="fill:none;stroke:#000000;stroke-width:0.3"
       d="m 53.165743,87.001627 -0.489917,0.09991"
       id="path1308" /><path
       style="fill:none;stroke:#000000;stroke-width:0.3"
       d="M 53.507549,91.92708 53.086093,91.658054"
       id="path1307" /><path
       style="fill:none;stroke:#000000;stroke-width:0.3"
       d="m 49.480494,89.587119 0.343504,-0.363325"
       id="path1306" /><path
       style="fill:none;stroke:#000000;stroke-width:0.3"
       d="M 45.826558,86.175246 46.148636,85.7928"
       id="path1305" /><path
       style="fill:none;stroke:#000000;stroke-width:0.3"
       d="m 42.291381,86.411274 -0.498644,-0.0368"
       id="path1304" /><path
       style="fill:none;stroke:#000000;stroke-width:0.3"
       d="m 43.108427,91.319226 -0.47809,0.146388"
       id="path1303" /><path
       style="fill:none;stroke:#000000;stroke-width:0.3"
       d="M 44.899431,95.98428 44.4415,96.185026"
       id="path1302" /><path
       style="fill:none;stroke:#000000;stroke-width:0.3"
       d="m 46.915561,100.55967 -0.461844,0.19157"
       id="path1301" /><path
       style="fill:none;stroke:#000000;stroke-width:0.3"
       d="m 48.047278,105.36277 -0.483469,-0.12751"
       id="path1300" /><path
       style="fill:none;stroke:#000000;stroke-width:0.3"
       d="m 43.531391,106.07435 0.09778,-0.49035"
       id="path1299" /><path
       style="fill:none;stroke:#000000;stroke-width:0.3"
       d="m 38.647118,105.00602 0.09379,-0.49113"
       id="path1298" /><path
       style="fill:none;stroke:#000000;stroke-width:0.3"
       d="m 33.737415,105.10055 -0.23771,-0.43988"
       id="path1297" /><path
       style="fill:none;stroke:#000000;stroke-width:0.3"
       d="m 32.841345,109.53478 -0.459938,0.19611"
       id="path1296" /><path
       style="fill:none;stroke:#000000;stroke-width:0.3"
       d="M 35.922248,113.41398 35.60397,113.7996"
       id="path1295" /><path
       style="fill:none;stroke:#000000;stroke-width:0.3"
       d="m 40.124347,116.10707 -0.231015,0.44343"
       id="path1294" /><path
       style="fill:none;stroke:#000000;stroke-width:0.3"
       d="m 44.674496,118.17514 -0.187139,0.46366"
       id="path1293" /><path
       style="fill:none;stroke:#000000;stroke-width:0.3"
       d="m 49.362022,119.91338 -0.162757,0.47277"
       id="path1292" /><path
       style="fill:none;stroke:#000000;stroke-width:0.3"
       d="m 54.115188,121.46439 -0.148759,0.47735"
       id="path1291" /><path
       style="fill:none;stroke:#000000;stroke-width:0.3"
       d="m 58.901445,122.9105 -0.141456,0.47958"
       id="path1290" /><path
       style="fill:none;stroke:#000000;stroke-width:0.3"
       d="m 63.701282,124.31105 -0.139489,0.48015"
       id="path1289" /><path
       style="fill:none;stroke:#000000;stroke-width:0.3"
       d="m 68.498751,125.71965 -0.143516,0.47896"
       id="path1288" /><path
       style="fill:none;stroke:#000000;stroke-width:0.3"
       d="m 73.265636,126.02017 -0.162784,0.47276"
       id="path1287" /><path
       style="fill:none;stroke:#000000;stroke-width:0.3"
       d="m 76.79305,129.65284 -0.254083,-0.43063"
       id="path1286" /><path
       style="fill:none;stroke:#000000;stroke-width:0.3"
       d="m 71.915721,130.65973 -0.06417,-0.49587"
       id="path1285" /><path
       style="fill:none;stroke:#000000;stroke-width:0.3"
       d="m 66.961535,131.33341 -0.07805,-0.49387"
       id="path1284" /><path
       style="fill:none;stroke:#000000;stroke-width:0.3"
       d="m 62.056732,132.29669 -0.121142,-0.4851"
       id="path1283" /><path
       style="fill:none;stroke:#000000;stroke-width:0.3"
       d="m 59.520798,136.02905 -0.123088,0.48461"
       id="path1282" /><path
       style="fill:none;stroke:#000000;stroke-width:0.3"
       d="m 65.06006,135.13051 -0.06102,0.49626"
       id="path1281" /><path
       style="fill:none;stroke:#000000;stroke-width:0.3"
       d="m 70.024966,135.72189 -0.06054,0.49632"
       id="path1280" /><path
       style="fill:none;stroke:#000000;stroke-width:0.3"
       d="M 74.97732,136.40778 74.896,136.90112"
       id="path1279" /><path
       style="fill:none;stroke:#000000;stroke-width:0.3"
       d="m 79.865527,137.44847 -0.131796,0.48232"
       id="path1278" /><path
       style="fill:none;stroke:#000000;stroke-width:0.3"
       d="m 84.566791,139.13417 -0.208933,0.45425"
       id="path1277" /><path
       style="fill:none;stroke:#000000;stroke-width:0.3"
       d="m 88.870201,141.66289 -0.295528,0.40331"
       id="path1276" /><path
       style="fill:none;stroke:#000000;stroke-width:0.3"
       d="m 92.613965,144.96713 -0.362829,0.34402"
       id="path1275" /><path
       style="fill:none;stroke:#000000;stroke-width:0.3"
       d="m 95.674211,148.90966 -0.427043,0.26006"
       id="path1274" /><path
       style="fill:none;stroke:#000000;stroke-width:0.3"
       d="m 97.407196,153.55299 -0.498606,0.0373"
       id="path1273" /><path
       style="fill:none;stroke:#000000;stroke-width:0.3"
       d="m 95.275021,157.81019 -0.296143,-0.40287"
       id="path1272" /><path
       style="fill:none;stroke:#000000;stroke-width:0.3"
       d="m 90.770426,159.93436 -0.156532,-0.47487"
       id="path1271" /><path
       style="fill:none;stroke:#000000;stroke-width:0.3"
       d="m 85.941917,161.22472 -0.108456,-0.48809"
       id="path1270" /><path
       style="fill:none;stroke:#000000;stroke-width:0.3"
       d="m 81.035517,162.18544 -0.08616,-0.49252"
       id="path1269" /><path
       style="fill:none;stroke:#000000;stroke-width:0.3"
       d="m 76.099088,162.97939 -0.0736,-0.49456"
       id="path1268" /><path
       style="fill:none;stroke:#000000;stroke-width:0.3"
       d="m 71.147177,163.67075 -0.06514,-0.49574"
       id="path1267" /><path
       style="fill:none;stroke:#000000;stroke-width:0.3"
       d="m 66.185582,164.28899 -0.05877,-0.49654"
       id="path1266" /><path
       style="fill:none;stroke:#000000;stroke-width:0.3"
       d="m 61.217178,164.85001 -0.05359,-0.49712"
       id="path1265" /><path
       style="fill:none;stroke:#000000;stroke-width:0.3"
       d="m 56.243593,165.36319 -0.04912,-0.49758"
       id="path1264" /><path
       style="fill:none;stroke:#000000;stroke-width:0.3"
       d="m 51.265804,165.83376 -0.04504,-0.49797"
       id="path1263" /><path
       style="fill:none;stroke:#000000;stroke-width:0.3"
       d="m 46.284391,166.26437 -0.04108,-0.49831"
       id="path1262" /><path
       style="fill:none;stroke:#000000;stroke-width:0.3"
       d="m 41.299683,166.65499 -0.03699,-0.49863"
       id="path1261" /><path
       style="fill:none;stroke:#000000;stroke-width:0.3"
       d="m 36.311867,167.00358 -0.03271,-0.49893"
       id="path1260" /><path
       style="fill:none;stroke:#000000;stroke-width:0.3"
       d="m 31.321226,167.30906 -0.0284,-0.4992"
       id="path1259" /><path
       style="fill:none;stroke:#000000;stroke-width:0.3"
       d="m 26.328163,167.57205 -0.02425,-0.49941"
       id="path1258" /><path
       style="fill:none;stroke:#000000;stroke-width:0.3"
       d="m 21.33317,167.79547 -0.02053,-0.49958"
       id="path1257" /><path
       style="fill:none;stroke:#000000;stroke-width:0.3"
       d="m 16.336771,167.98509 -0.01754,-0.49969"
       id="path1256" /><path
       style="fill:none;stroke:#000000;stroke-width:0.3"
       d="m 11.339492,168.14981 -0.0156,-0.49975"
       id="path1255" /><path
       style="fill:none;stroke:#000000;stroke-width:0.3"
       d="M 6.341787,168.30127 Z"
       id="path1254" /></g></svg>
