<?xml version="1.0" encoding="UTF-8" standalone="no"?>
<!-- Created with Inkscape (http://www.inkscape.org/) -->

<svg
   width="269.55411mm"
   height="131.66638mm"
   viewBox="0 0 269.55411 131.66638"
   version="1.1"
   id="svg1"
   inkscape:version="1.3.1 (91b66b0783, 2023-11-16)"
   sodipodi:docname="Meg3_MASTER.svg"
   xmlns:inkscape="http://www.inkscape.org/namespaces/inkscape"
   xmlns:sodipodi="http://sodipodi.sourceforge.net/DTD/sodipodi-0.dtd"
   xmlns="http://www.w3.org/2000/svg"
   xmlns:svg="http://www.w3.org/2000/svg">
  <sodipodi:namedview
     id="namedview1"
     pagecolor="#ffffff"
     bordercolor="#000000"
     borderopacity="0.25"
     inkscape:showpageshadow="2"
     inkscape:pageopacity="0.0"
     inkscape:pagecheckerboard="0"
     inkscape:deskcolor="#d1d1d1"
     inkscape:document-units="mm"
     inkscape:zoom="0.76702441"
     inkscape:cx="334.40918"
     inkscape:cy="350.05405"
     inkscape:window-width="1920"
     inkscape:window-height="1057"
     inkscape:window-x="1912"
     inkscape:window-y="-8"
     inkscape:window-maximized="1"
     inkscape:current-layer="g252" />
  <defs
     id="defs1" />
  <g
     inkscape:groupmode="layer"
     id="g252"
     inkscape:label="Track3 copy"
     transform="translate(-4.6067161,-45.515816)">
    <path
       style="fill:#ffffff;stroke:#000000;stroke-width:0.3"
       d="m 268.43621,161.36126 -0.58955,-0.80774"
       id="path376" />
    <path
       style="fill:#ffffff;stroke:#000000;stroke-width:0.3"
       d="m 263.41958,164.64674 -0.49654,-0.86801"
       id="path375" />
    <path
       style="fill:#ffffff;stroke:#000000;stroke-width:0.3"
       d="m 258.05026,167.31767 -0.39832,-0.91724"
       id="path374" />
    <path
       style="fill:#ffffff;stroke:#000000;stroke-width:0.3"
       d="m 252.45652,169.48388 -0.32601,-0.94537"
       id="path373" />
    <path
       style="fill:#ffffff;stroke:#000000;stroke-width:0.3"
       d="m 246.71432,171.21813 -0.24824,-0.96869"
       id="path372" />
    <path
       style="fill:#ffffff;stroke:#000000;stroke-width:0.3"
       d="m 240.82942,172.36603 -0.11923,-0.99287"
       id="path371" />
    <path
       style="fill:#ffffff;stroke:#000000;stroke-width:0.3"
       d="m 234.86202,172.22436 0.23181,-0.97276"
       id="path370" />
    <path
       style="fill:#ffffff;stroke:#000000;stroke-width:0.3"
       d="m 230.86943,168.46014 0.98996,0.14141"
       id="path369" />
    <path
       style="fill:#ffffff;stroke:#000000;stroke-width:0.3"
       d="m 235.28388,164.77905 0.37053,0.92882"
       id="path368" />
    <path
       style="fill:#ffffff;stroke:#000000;stroke-width:0.3"
       d="m 240.97679,162.88981 0.28917,0.95727"
       id="path367" />
    <path
       style="fill:#ffffff;stroke:#000000;stroke-width:0.3"
       d="m 246.70411,161.10247 0.31926,0.94767"
       id="path366" />
    <path
       style="fill:#ffffff;stroke:#000000;stroke-width:0.3"
       d="m 252.28159,158.90035 0.4275,0.90401"
       id="path365" />
    <path
       style="fill:#ffffff;stroke:#000000;stroke-width:0.3"
       d="m 257.49772,155.94655 0.55867,0.82939"
       id="path364" />
    <path
       style="fill:#ffffff;stroke:#000000;stroke-width:0.3"
       d="m 263.20747,152.53757 0.81398,0.58089"
       id="path363" />
    <path
       style="fill:#ffffff;stroke:#000000;stroke-width:0.3"
       d="m 257.98227,150.43671 -0.0903,-0.99591"
       id="path362" />
    <path
       style="fill:#ffffff;stroke:#000000;stroke-width:0.3"
       d="m 251.99697,150.83577 -0.0205,-0.99979"
       id="path361" />
    <path
       style="fill:#ffffff;stroke:#000000;stroke-width:0.3"
       d="m 246.01,150.53171 0.12207,-0.99253"
       id="path360" />
    <path
       style="fill:#ffffff;stroke:#000000;stroke-width:0.3"
       d="m 240.12526,149.38756 0.26292,-0.96482"
       id="path359" />
    <path
       style="fill:#ffffff;stroke:#000000;stroke-width:0.3"
       d="m 234.53811,147.23674 0.47926,-0.87768"
       id="path358" />
    <path
       style="fill:#ffffff;stroke:#000000;stroke-width:0.3"
       d="m 230.52186,142.99763 0.96211,-0.27266"
       id="path357" />
    <path
       style="fill:#ffffff;stroke:#000000;stroke-width:0.3"
       d="m 232.17272,137.51034 0.72474,0.68902"
       id="path356" />
    <path
       style="fill:#ffffff;stroke:#000000;stroke-width:0.3"
       d="m 237.39371,134.736 0.22589,0.97416"
       id="path355" />
    <path
       style="fill:#ffffff;stroke:#000000;stroke-width:0.3"
       d="m 243.35137,134.11769 0.0228,0.99974"
       id="path354" />
    <path
       style="fill:#ffffff;stroke:#000000;stroke-width:0.3"
       d="m 249.351,134.13792 -0.0114,0.99994"
       id="path353" />
    <path
       style="fill:#ffffff;stroke:#000000;stroke-width:0.3"
       d="m 255.35013,134.08809 0.0367,0.99933"
       id="path352" />
    <path
       style="fill:#ffffff;stroke:#000000;stroke-width:0.3"
       d="m 261.3267,133.59079 0.1427,0.98977"
       id="path351" />
    <path
       style="fill:#ffffff;stroke:#000000;stroke-width:0.3"
       d="m 267.10573,132.05529 0.42254,0.90634"
       id="path350" />
    <path
       style="fill:#ffffff;stroke:#000000;stroke-width:0.3"
       d="m 270.85099,127.68387 0.98629,0.16502"
       id="path349" />
    <path
       style="fill:#ffffff;stroke:#000000;stroke-width:0.3"
       d="m 268.85496,122.2608 0.71319,-0.70098"
       id="path348" />
    <path
       style="fill:#ffffff;stroke:#000000;stroke-width:0.3"
       d="m 263.78184,119.13391 0.37496,-0.92704"
       id="path347" />
    <path
       style="fill:#ffffff;stroke:#000000;stroke-width:0.3"
       d="m 258.04383,117.40281 0.21917,-0.97568"
       id="path346" />
    <path
       style="fill:#ffffff;stroke:#000000;stroke-width:0.3"
       d="m 252.13461,116.37475 0.13022,-0.99148"
       id="path345" />
    <path
       style="fill:#ffffff;stroke:#000000;stroke-width:0.3"
       d="m 246.16182,115.81957 0.0531,-0.99859"
       id="path344" />
    <path
       style="fill:#ffffff;stroke:#000000;stroke-width:0.3"
       d="m 240.16428,115.77442 -0.0426,-0.99909"
       id="path343" />
    <path
       style="fill:#ffffff;stroke:#000000;stroke-width:0.3"
       d="m 234.20271,116.40994 -0.17863,-0.98392"
       id="path342" />
    <path
       style="fill:#ffffff;stroke:#000000;stroke-width:0.3"
       d="m 228.45182,118.07632 -0.39264,-0.91969"
       id="path341" />
    <path
       style="fill:#ffffff;stroke:#000000;stroke-width:0.3"
       d="m 223.39318,121.25214 -0.66772,-0.74442"
       id="path340" />
    <path
       style="fill:#ffffff;stroke:#000000;stroke-width:0.3"
       d="m 219.71347,125.95385 -0.87863,-0.4775"
       id="path339" />
    <path
       style="fill:#ffffff;stroke:#000000;stroke-width:0.3"
       d="m 217.58674,131.54745 -0.96931,-0.24585"
       id="path338" />
    <path
       style="fill:#ffffff;stroke:#000000;stroke-width:0.3"
       d="m 216.48549,137.44264 -0.99,-0.14102"
       id="path337" />
    <path
       style="fill:#ffffff;stroke:#000000;stroke-width:0.3"
       d="m 215.72029,143.39357 -0.99207,-0.1257"
       id="path336" />
    <path
       style="fill:#ffffff;stroke:#000000;stroke-width:0.3"
       d="m 214.8427,149.3283 -0.98387,-0.17888"
       id="path335" />
    <path
       style="fill:#ffffff;stroke:#000000;stroke-width:0.3"
       d="m 213.39474,155.14527 -0.94637,-0.32309"
       id="path334" />
    <path
       style="fill:#ffffff;stroke:#000000;stroke-width:0.3"
       d="m 210.84128,160.56098 -0.85045,-0.52605"
       id="path333" />
    <path
       style="fill:#ffffff;stroke:#000000;stroke-width:0.3"
       d="m 209.76877,165.66111 -0.6279,-0.77829"
       id="path332" />
    <path
       style="fill:#ffffff;stroke:#000000;stroke-width:0.3"
       d="m 204.13039,163.06919 0.98924,0.14627"
       id="path331" />
    <path
       style="fill:#ffffff;stroke:#000000;stroke-width:0.3"
       d="m 205.28078,157.18112 0.98156,0.19113"
       id="path330" />
    <path
       style="fill:#ffffff;stroke:#000000;stroke-width:0.3"
       d="m 206.12806,151.24517 0.9977,0.0677"
       id="path329" />
    <path
       style="fill:#ffffff;stroke:#000000;stroke-width:0.3"
       d="m 205.76272,145.27545 0.97895,-0.20406"
       id="path328" />
    <path
       style="fill:#ffffff;stroke:#000000;stroke-width:0.3"
       d="m 203.48302,139.77178 0.80996,-0.58647"
       id="path327" />
    <path
       style="fill:#ffffff;stroke:#000000;stroke-width:0.3"
       d="m 198.43876,137.11324 -0.12597,-0.99203"
       id="path326" />
    <path
       style="fill:#ffffff;stroke:#000000;stroke-width:0.3"
       d="m 193.37179,140.11835 -0.72118,-0.69274"
       id="path325" />
    <path
       style="fill:#ffffff;stroke:#000000;stroke-width:0.3"
       d="m 189.95792,145.02641 -0.89203,-0.45196"
       id="path324" />
    <path
       style="fill:#ffffff;stroke:#000000;stroke-width:0.3"
       d="m 187.94784,150.66326 -0.97462,-0.22385"
       id="path323" />
    <path
       style="fill:#ffffff;stroke:#000000;stroke-width:0.3"
       d="m 186.96128,156.57936 -0.99094,-0.13425"
       id="path322" />
    <path
       style="fill:#ffffff;stroke:#000000;stroke-width:0.3"
       d="m 185.96414,162.49313 -0.97188,-0.23549"
       id="path321" />
    <path
       style="fill:#ffffff;stroke:#000000;stroke-width:0.3"
       d="m 183.55713,167.93956 -0.79175,-0.61084"
       id="path320" />
    <path
       style="fill:#ffffff;stroke:#000000;stroke-width:0.3"
       d="m 178.9149,171.6652 -0.46006,-0.8879"
       id="path319" />
    <path
       style="fill:#ffffff;stroke:#000000;stroke-width:0.3"
       d="m 173.28574,173.70105 -0.23787,-0.97129"
       id="path318" />
    <path
       style="fill:#ffffff;stroke:#000000;stroke-width:0.3"
       d="m 167.37318,174.69467 -0.10356,-0.99462"
       id="path317" />
    <path
       style="fill:#ffffff;stroke:#000000;stroke-width:0.3"
       d="m 161.38398,175.00766 -5.8e-4,-1"
       id="path316" />
    <path
       style="fill:#ffffff;stroke:#000000;stroke-width:0.3"
       d="m 155.22502,175.87204 0.12154,-0.99258"
       id="path315" />
    <path
       style="fill:#ffffff;stroke:#000000;stroke-width:0.3"
       d="m 148.85649,174.24988 0.32968,-0.9441"
       id="path314" />
    <path
       style="fill:#ffffff;stroke:#000000;stroke-width:0.3"
       d="m 144.58076,170.15948 0.7671,-0.64152"
       id="path313" />
    <path
       style="fill:#ffffff;stroke:#000000;stroke-width:0.3"
       d="m 141.80132,164.87299 0.92897,-0.37016"
       id="path312" />
    <path
       style="fill:#ffffff;stroke:#000000;stroke-width:0.3"
       d="m 139.07178,159.55017 0.80774,-0.58954"
       id="path311" />
    <path
       style="fill:#ffffff;stroke:#000000;stroke-width:0.3"
       d="m 134.40189,155.99005 0.20469,-0.97883"
       id="path310" />
    <path
       style="fill:#ffffff;stroke:#000000;stroke-width:0.3"
       d="m 129.15366,158.27613 -0.71195,-0.70223"
       id="path309" />
    <path
       style="fill:#ffffff;stroke:#000000;stroke-width:0.3"
       d="m 125.28065,162.85548 -0.77351,-0.63378"
       id="path308" />
    <path
       style="fill:#ffffff;stroke:#000000;stroke-width:0.3"
       d="m 120.68676,166.42832 0.0372,-0.9993"
       id="path307" />
    <path
       style="fill:#ffffff;stroke:#000000;stroke-width:0.3"
       d="m 116.10265,162.78339 0.74643,-0.66547"
       id="path306" />
    <path
       style="fill:#ffffff;stroke:#000000;stroke-width:0.3"
       d="m 111.5156,158.97522 0.45556,-0.8902"
       id="path305" />
    <path
       style="fill:#ffffff;stroke:#000000;stroke-width:0.3"
       d="m 105.71464,158.10805 -0.26419,-0.96447"
       id="path304" />
    <path
       style="fill:#ffffff;stroke:#000000;stroke-width:0.3"
       d="m 101.38158,162.01614 -0.86394,-0.50359"
       id="path303" />
    <path
       style="fill:#ffffff;stroke:#000000;stroke-width:0.3"
       d="M 98.659604,167.36178 97.78101,166.88421"
       id="path302" />
    <path
       style="fill:#ffffff;stroke:#000000;stroke-width:0.3"
       d="M 94.054612,169.85629 94.498089,168.96"
       id="path301" />
    <path
       style="fill:#ffffff;stroke:#000000;stroke-width:0.3"
       d="m 89.69311,165.79594 0.779079,-0.62693"
       id="path300" />
    <path
       style="fill:#ffffff;stroke:#000000;stroke-width:0.3"
       d="m 86.216302,160.91035 0.850688,-0.52568"
       id="path299" />
    <path
       style="fill:#ffffff;stroke:#000000;stroke-width:0.3"
       d="m 83.427073,155.60306 0.91239,-0.40932"
       id="path298" />
    <path
       style="fill:#ffffff;stroke:#000000;stroke-width:0.3"
       d="m 81.220605,150.02533 0.943102,-0.3325"
       id="path297" />
    <path
       style="fill:#ffffff;stroke:#000000;stroke-width:0.3"
       d="m 79.378334,144.31581 0.958452,-0.28526"
       id="path296" />
    <path
       style="fill:#ffffff;stroke:#000000;stroke-width:0.3"
       d="m 77.737666,138.54458 0.963875,-0.26636"
       id="path295" />
    <path
       style="fill:#ffffff;stroke:#000000;stroke-width:0.3"
       d="m 76.139475,132.76135 0.962961,-0.26964"
       id="path294" />
    <path
       style="fill:#ffffff;stroke:#000000;stroke-width:0.3"
       d="m 74.451576,127.00391 0.954101,-0.29949"
       id="path293" />
    <path
       style="fill:#ffffff;stroke:#000000;stroke-width:0.3"
       d="m 72.3399,121.39464 0.887518,-0.46077"
       id="path292" />
    <path
       style="fill:#ffffff;stroke:#000000;stroke-width:0.3"
       d="m 69.478821,123.30078 -0.983345,-0.18174"
       id="path291" />
    <path
       style="fill:#ffffff;stroke:#000000;stroke-width:0.3"
       d="m 68.694003,129.24773 -0.994804,-0.1018"
       id="path290" />
    <path
       style="fill:#ffffff;stroke:#000000;stroke-width:0.3"
       d="m 68.152063,135.22316 -0.996561,-0.0829"
       id="path289" />
    <path
       style="fill:#ffffff;stroke:#000000;stroke-width:0.3"
       d="m 67.667961,141.20365 -0.996758,-0.0805"
       id="path288" />
    <path
       style="fill:#ffffff;stroke:#000000;stroke-width:0.3"
       d="m 67.165688,147.18253 -0.996055,-0.0887"
       id="path287" />
    <path
       style="fill:#ffffff;stroke:#000000;stroke-width:0.3"
       d="m 66.578063,153.15357 -0.993949,-0.10984"
       id="path286" />
    <path
       style="fill:#ffffff;stroke:#000000;stroke-width:0.3"
       d="m 65.798084,159.10211 -0.987616,-0.15689"
       id="path285" />
    <path
       style="fill:#ffffff;stroke:#000000;stroke-width:0.3"
       d="M 64.527251,164.96118 63.570581,164.67"
       id="path284" />
    <path
       style="fill:#ffffff;stroke:#000000;stroke-width:0.3"
       d="m 61.573785,170.05273 -0.509838,-0.86027"
       id="path283" />
    <path
       style="fill:#ffffff;stroke:#000000;stroke-width:0.3"
       d="m 57.138502,167.15342 0.902261,-0.43119"
       id="path282" />
    <path
       style="fill:#ffffff;stroke:#000000;stroke-width:0.3"
       d="m 55.463927,161.41133 0.98555,-0.16939"
       id="path281" />
    <path
       style="fill:#ffffff;stroke:#000000;stroke-width:0.3"
       d="m 54.766991,155.454 0.996867,-0.0791"
       id="path280" />
    <path
       style="fill:#ffffff;stroke:#000000;stroke-width:0.3"
       d="m 54.392203,149.46593 0.998628,-0.0524"
       id="path279" />
    <path
       style="fill:#ffffff;stroke:#000000;stroke-width:0.3"
       d="m 54.083058,143.47389 0.998541,-0.054"
       id="path278" />
    <path
       style="fill:#ffffff;stroke:#000000;stroke-width:0.3"
       d="m 53.713469,137.48538 0.997464,-0.0712"
       id="path277" />
    <path
       style="fill:#ffffff;stroke:#000000;stroke-width:0.3"
       d="m 53.209671,131.50678 0.995179,-0.0981"
       id="path276" />
    <path
       style="fill:#ffffff;stroke:#000000;stroke-width:0.3"
       d="m 52.534215,125.54512 0.991956,-0.12658"
       id="path275" />
    <path
       style="fill:#ffffff;stroke:#000000;stroke-width:0.3"
       d="m 51.691274,119.60483 0.987951,-0.15477"
       id="path274" />
    <path
       style="fill:#ffffff;stroke:#000000;stroke-width:0.3"
       d="m 50.666523,113.69327 0.982101,-0.18835"
       id="path273" />
    <path
       style="fill:#ffffff;stroke:#000000;stroke-width:0.3"
       d="m 49.398398,107.82949 0.971008,-0.23905"
       id="path272" />
    <path
       style="fill:#ffffff;stroke:#000000;stroke-width:0.3"
       d="m 47.673564,102.08669 0.932865,-0.36022"
       id="path271" />
    <path
       style="fill:#ffffff;stroke:#000000;stroke-width:0.3"
       d="M 43.922117,99.466528 43.119202,98.870434"
       id="path270" />
    <path
       style="fill:#ffffff;stroke:#000000;stroke-width:0.3"
       d="m 41.665502,104.99848 -0.961046,-0.27639"
       id="path269" />
    <path
       style="fill:#ffffff;stroke:#000000;stroke-width:0.3"
       d="M 40.223913,110.8217 39.24715,110.60738"
       id="path268" />
    <path
       style="fill:#ffffff;stroke:#000000;stroke-width:0.3"
       d="m 39.024336,116.70039 -0.98193,-0.18924"
       id="path267" />
    <path
       style="fill:#ffffff;stroke:#000000;stroke-width:0.3"
       d="m 37.912809,122.59653 -0.982716,-0.18512"
       id="path266" />
    <path
       style="fill:#ffffff;stroke:#000000;stroke-width:0.3"
       d="m 36.808214,128.49396 -0.984302,-0.1765"
       id="path265" />
    <path
       style="fill:#ffffff;stroke:#000000;stroke-width:0.3"
       d="m 36.087602,134.44209 -0.999816,0.0192"
       id="path264" />
    <path
       style="fill:#ffffff;stroke:#000000;stroke-width:0.3"
       d="m 39.279486,139.10852 -0.531025,0.84736"
       id="path263" />
    <path
       style="fill:#ffffff;stroke:#000000;stroke-width:0.3"
       d="m 43.773212,143.00752 -0.827095,0.56206"
       id="path262" />
    <path
       style="fill:#ffffff;stroke:#000000;stroke-width:0.3"
       d="m 45.774502,148.60195 -0.994027,0.10914"
       id="path261" />
    <path
       style="fill:#ffffff;stroke:#000000;stroke-width:0.3"
       d="m 45.172031,154.52969 -0.955736,-0.29423"
       id="path260" />
    <path
       style="fill:#ffffff;stroke:#000000;stroke-width:0.3"
       d="m 42.519853,159.88709 -0.83016,-0.55752"
       id="path259" />
    <path
       style="fill:#ffffff;stroke:#000000;stroke-width:0.3"
       d="m 38.805194,164.59307 -0.746621,-0.66525"
       id="path258" />
    <path
       style="fill:#ffffff;stroke:#000000;stroke-width:0.3"
       d="m 34.651168,168.92099 -0.700705,-0.71345"
       id="path257" />
    <path
       style="fill:#ffffff;stroke:#000000;stroke-width:0.3"
       d="m 30.294697,173.04629 -0.67744,-0.73558"
       id="path256" />
    <path
       style="fill:#ffffff;stroke:#000000;stroke-width:0.0188611"
       d="m 25.959321,177.17645 -1.591533,-2.07667"
       id="path255" />
  </g>
</svg>
