<?xml version="1.0" encoding="UTF-8" standalone="no"?>
<!-- Created with Inkscape (http://www.inkscape.org/) -->

<svg
   width="269.55411mm"
   height="131.66638mm"
   viewBox="0 0 269.55411 131.66638"
   version="1.1"
   id="svg1"
   inkscape:version="1.3.1 (91b66b0783, 2023-11-16)"
   sodipodi:docname="Meg3_MASTER.svg"
   inkscape:export-filename="Track2.svg"
   inkscape:export-xdpi="96"
   inkscape:export-ydpi="96"
   xmlns:inkscape="http://www.inkscape.org/namespaces/inkscape"
   xmlns:sodipodi="http://sodipodi.sourceforge.net/DTD/sodipodi-0.dtd"
   xmlns="http://www.w3.org/2000/svg"
   xmlns:svg="http://www.w3.org/2000/svg">
  <sodipodi:namedview
     id="namedview1"
     pagecolor="#ffffff"
     bordercolor="#000000"
     borderopacity="0.25"
     inkscape:showpageshadow="2"
     inkscape:pageopacity="0.0"
     inkscape:pagecheckerboard="0"
     inkscape:deskcolor="#d1d1d1"
     inkscape:document-units="mm"
     inkscape:zoom="0.76702441"
     inkscape:cx="334.40918"
     inkscape:cy="350.05405"
     inkscape:window-width="1920"
     inkscape:window-height="1057"
     inkscape:window-x="1912"
     inkscape:window-y="-8"
     inkscape:window-maximized="1"
     inkscape:current-layer="g252" />
  <defs
     id="defs1" />
  <g
     inkscape:label="Megtrack (1) ruelr"
     inkscape:groupmode="layer"
     id="layer1"
     transform="translate(-4.6067161,-45.515816)">
    <path
       style="fill:#ffffff;stroke:#000000;stroke-width:0.3"
       d="m 272.77248,103.38899 -0.76523,-0.64376"
       id="path128" />
    <path
       style="fill:#ffffff;stroke:#000000;stroke-width:0.3"
       d="m 267.76416,106.52018 -0.28064,-0.95982"
       id="path127" />
    <path
       style="fill:#ffffff;stroke:#000000;stroke-width:0.3"
       d="m 261.83888,107.36728 -0.0405,-0.99918"
       id="path126" />
    <path
       style="fill:#ffffff;stroke:#000000;stroke-width:0.3"
       d="m 255.84123,107.29438 0.0465,-0.99891"
       id="path125" />
    <path
       style="fill:#ffffff;stroke:#000000;stroke-width:0.3"
       d="m 249.85199,106.93666 0.0667,-0.99777"
       id="path124" />
    <path
       style="fill:#ffffff;stroke:#000000;stroke-width:0.3"
       d="m 243.8647,106.54664 0.0598,-0.99821"
       id="path123" />
    <path
       style="fill:#ffffff;stroke:#000000;stroke-width:0.3"
       d="m 237.87178,106.25906 0.0326,-0.99947"
       id="path122" />
    <path
       style="fill:#ffffff;stroke:#000000;stroke-width:0.3"
       d="m 231.87267,106.20376 -0.0191,-0.99981"
       id="path121" />
    <path
       style="fill:#ffffff;stroke:#000000;stroke-width:0.3"
       d="m 225.88598,106.56944 -0.11217,-0.99369"
       id="path120" />
    <path
       style="fill:#ffffff;stroke:#000000;stroke-width:0.3"
       d="m 220.00602,107.72103 -0.28964,-0.95714"
       id="path119" />
    <path
       style="fill:#ffffff;stroke:#000000;stroke-width:0.3"
       d="m 214.52797,110.13165 -0.51191,-0.85904"
       id="path118" />
    <path
       style="fill:#ffffff;stroke:#000000;stroke-width:0.3"
       d="m 209.75195,113.74554 -0.67687,-0.7361"
       id="path117" />
    <path
       style="fill:#ffffff;stroke:#000000;stroke-width:0.3"
       d="m 205.56867,118.0439 -0.73855,-0.67421"
       id="path116" />
    <path
       style="fill:#ffffff;stroke:#000000;stroke-width:0.3"
       d="m 201.44533,122.40111 -0.69565,-0.71839"
       id="path115" />
    <path
       style="fill:#ffffff;stroke:#000000;stroke-width:0.3"
       d="m 196.82478,126.21922 -0.57902,-0.81531"
       id="path114" />
    <path
       style="fill:#ffffff;stroke:#000000;stroke-width:0.3"
       d="m 191.75555,129.42449 -0.49596,-0.86834"
       id="path113" />
    <path
       style="fill:#ffffff;stroke:#000000;stroke-width:0.3"
       d="m 186.46401,132.2516 -0.45369,-0.89115"
       id="path112" />
    <path
       style="fill:#ffffff;stroke:#000000;stroke-width:0.3"
       d="m 181.11986,134.97907 -0.46849,-0.88347"
       id="path111" />
    <path
       style="fill:#ffffff;stroke:#000000;stroke-width:0.3"
       d="m 175.99078,138.08424 -0.57546,-0.81782"
       id="path110" />
    <path
       style="fill:#ffffff;stroke:#000000;stroke-width:0.3"
       d="m 171.30361,141.82558 -0.65484,-0.75577"
       id="path109" />
    <path
       style="fill:#ffffff;stroke:#000000;stroke-width:0.3"
       d="m 166.7567,145.74016 -0.63983,-0.76852"
       id="path108" />
    <path
       style="fill:#ffffff;stroke:#000000;stroke-width:0.3"
       d="m 157.55058,153.43452 -0.67671,-0.73625"
       id="path106" />
    <path
       style="fill:#ffffff;stroke:#000000;stroke-width:0.3"
       d="M 153.42937,157.78563 152.638,157.17428"
       id="path105" />
    <path
       style="fill:#ffffff;stroke:#000000;stroke-width:0.3"
       d="m 151.13901,163.21164 -1,-0.002"
       id="path104" />
    <path
       style="fill:#ffffff;stroke:#000000;stroke-width:0.3"
       d="m 154.26531,167.84325 -0.25773,0.96622"
       id="path103" />
    <path
       style="fill:#ffffff;stroke:#000000;stroke-width:0.3"
       d="m 159.04381,165.03175 0.86654,0.4991"
       id="path102" />
    <path
       style="fill:#ffffff;stroke:#000000;stroke-width:0.3"
       d="m 161.0375,159.39881 0.98009,0.19857"
       id="path101" />
    <path
       style="fill:#ffffff;stroke:#000000;stroke-width:0.3"
       d="m 161.79886,155.15829 0.99937,-0.0355"
       id="path100" />
    <path
       style="fill:#ffffff;stroke:#000000;stroke-width:0.3"
       d="m 158.52404,145.15281 0.93176,-0.36306"
       id="path99" />
    <path
       style="fill:#ffffff;stroke:#000000;stroke-width:0.3"
       d="m 152.4972,138.84547 0.52376,-0.85187"
       id="path97" />
    <path
       style="fill:#ffffff;stroke:#000000;stroke-width:0.3"
       d="m 147.15794,136.1195 0.39663,-0.91798"
       id="path96" />
    <path
       style="fill:#ffffff;stroke:#000000;stroke-width:0.3"
       d="m 141.55329,133.98237 0.31769,-0.9482"
       id="path95" />
    <path
       style="fill:#ffffff;stroke:#000000;stroke-width:0.3"
       d="m 135.78199,134.24874 0.21551,-0.9765"
       id="path94" />
    <path
       style="fill:#ffffff;stroke:#000000;stroke-width:0.3"
       d="m 125.44331,133.44149 -0.24032,-0.9707"
       id="path93" />
    <path
       style="fill:#ffffff;stroke:#000000;stroke-width:0.3"
       d="m 127.37483,136.59978 -0.72105,0.69289"
       id="path92" />
    <path
       style="fill:#ffffff;stroke:#000000;stroke-width:0.3"
       d="m 135.3838,140.25998 -0.50832,0.86117"
       id="path91" />
    <path
       style="fill:#ffffff;stroke:#000000;stroke-width:0.3"
       d="m 140.86869,142.65299 -0.27624,0.96109"
       id="path90" />
    <path
       style="fill:#ffffff;stroke:#000000;stroke-width:0.3"
       d="m 146.79255,143.47511 -5.6e-4,1"
       id="path89" />
    <path
       style="fill:#ffffff;stroke:#000000;stroke-width:0.3"
       d="m 152.7141,142.64492 0.28393,0.95884"
       id="path88" />
    <path
       style="fill:#ffffff;stroke:#000000;stroke-width:0.3"
       d="m 159.72884,137.66344 0.64833,0.76136"
       id="path87" />
    <path
       style="fill:#ffffff;stroke:#000000;stroke-width:0.3"
       d="m 161.37577,133.30622 0.97866,0.20547"
       id="path86" />
    <path
       style="fill:#ffffff;stroke:#000000;stroke-width:0.3"
       d="m 160.79627,128.91343 0.97008,-0.24275"
       id="path85" />
    <path
       style="fill:#ffffff;stroke:#000000;stroke-width:0.3"
       d="m 158.42806,123.42775 0.84501,-0.53475"
       id="path84" />
    <path
       style="fill:#ffffff;stroke:#000000;stroke-width:0.3"
       d="m 154.41169,119.01554 0.59954,-0.80034"
       id="path83" />
    <path
       style="fill:#ffffff;stroke:#000000;stroke-width:0.3"
       d="m 149.03943,116.4287 0.25273,-0.96754"
       id="path82" />
    <path
       style="fill:#ffffff;stroke:#000000;stroke-width:0.3"
       d="m 143.0927,116.13162 -0.17715,-0.98419"
       id="path81" />
    <path
       style="fill:#ffffff;stroke:#000000;stroke-width:0.3"
       d="m 137.91513,118.93669 -0.73711,-0.67577"
       id="path80" />
    <path
       style="fill:#ffffff;stroke:#000000;stroke-width:0.3"
       d="m 134.97642,124.125 -0.93765,-0.34757"
       id="path79" />
    <path
       style="fill:#ffffff;stroke:#000000;stroke-width:0.3"
       d="m 133.29262,129.88069 -0.97028,-0.24198"
       id="path78" />
    <path
       style="fill:#ffffff;stroke:#000000;stroke-width:0.3"
       d="m 130.19196,142.19723 -0.85276,-0.5223"
       id="path76" />
    <path
       style="fill:#ffffff;stroke:#000000;stroke-width:0.3"
       d="m 125.14734,145.13814 -0.40909,-0.9125"
       id="path75" />
    <path
       style="fill:#ffffff;stroke:#000000;stroke-width:0.3"
       d="m 119.35341,146.6176 -0.13164,-0.9913"
       id="path74" />
    <path
       style="fill:#ffffff;stroke:#000000;stroke-width:0.3"
       d="m 113.36728,146.88885 0.0461,-0.99893"
       id="path73" />
    <path
       style="fill:#ffffff;stroke:#000000;stroke-width:0.3"
       d="m 102.98252,142.15226 0.8158,-0.57833"
       id="path71" />
    <path
       style="fill:#ffffff;stroke:#000000;stroke-width:0.3"
       d="m 100.73569,136.87814 0.99555,-0.0943"
       id="path70" />
    <path
       style="fill:#ffffff;stroke:#000000;stroke-width:0.3"
       d="m 101.09343,130.90917 0.98139,0.19205"
       id="path69" />
    <path
       style="fill:#ffffff;stroke:#000000;stroke-width:0.3"
       d="m 102.91768,125.20754 0.90887,0.41708"
       id="path68" />
    <path
       style="fill:#ffffff;stroke:#000000;stroke-width:0.3"
       d="m 106.33309,120.3316 0.63783,0.77018"
       id="path67" />
    <path
       style="fill:#ffffff;stroke:#000000;stroke-width:0.3"
       d="m 111.69807,120.44684 -0.6945,0.71949"
       id="path66" />
    <path
       style="fill:#ffffff;stroke:#000000;stroke-width:0.3"
       d="m 114.68487,125.59101 -0.94648,0.32276"
       id="path65" />
    <path
       style="fill:#ffffff;stroke:#000000;stroke-width:0.3"
       d="m 115.69286,131.47974 -0.99999,0.005"
       id="path64" />
    <path
       style="fill:#ffffff;stroke:#000000;stroke-width:0.3"
       d="m 114.54829,137.32448 -0.91472,-0.40408"
       id="path63" />
    <path
       style="fill:#ffffff;stroke:#000000;stroke-width:0.3"
       d="m 110.06383,142.2163 -0.65058,-0.75944"
       id="path62" />
    <path
       style="fill:#ffffff;stroke:#000000;stroke-width:0.3"
       d="m 101.31108,146.53678 -0.15234,-0.98833"
       id="path60" />
    <path
       style="fill:#ffffff;stroke:#000000;stroke-width:0.3"
       d="m 94.137068,146.80302 0.211509,-0.97738"
       id="path59" />
    <path
       style="fill:#ffffff;stroke:#000000;stroke-width:0.3"
       d="m 88.998654,143.90474 0.738102,-0.67469"
       id="path58" />
    <path
       style="fill:#ffffff;stroke:#000000;stroke-width:0.3"
       d="m 86.160628,138.67325 0.955423,-0.29524"
       id="path57" />
    <path
       style="fill:#ffffff;stroke:#000000;stroke-width:0.3"
       d="m 85.168612,132.7711 0.998616,-0.0526"
       id="path56" />
    <path
       style="fill:#ffffff;stroke:#000000;stroke-width:0.3"
       d="m 85.407291,126.78393 0.991775,0.12799"
       id="path55" />
    <path
       style="fill:#ffffff;stroke:#000000;stroke-width:0.3"
       d="m 86.652561,120.92031 0.96226,0.27213"
       id="path54" />
    <path
       style="fill:#ffffff;stroke:#000000;stroke-width:0.3"
       d="m 88.426233,115.18872 0.955227,0.29587"
       id="path53" />
    <path
       style="fill:#ffffff;stroke:#000000;stroke-width:0.3"
       d="m 89.923953,109.38232 0.983284,0.18208"
       id="path52" />
    <path
       style="fill:#ffffff;stroke:#000000;stroke-width:0.3"
       d="m 90.428112,103.41421 0.999791,-0.0205"
       id="path51" />
    <path
       style="fill:#ffffff;stroke:#000000;stroke-width:0.3"
       d="m 89.791837,97.454389 0.983697,-0.179833"
       id="path50" />
    <path
       style="fill:#ffffff;stroke:#000000;stroke-width:0.3"
       d="m 88.340632,91.636594 0.953131,-0.302559"
       id="path49" />
    <path
       style="fill:#ffffff;stroke:#000000;stroke-width:0.3"
       d="m 86.119867,86.069184 0.893969,-0.448128"
       id="path48" />
    <path
       style="fill:#ffffff;stroke:#000000;stroke-width:0.3"
       d="M 82.570817,81.300395 83.13725,80.476287"
       id="path47" />
    <path
       style="fill:#ffffff;stroke:#000000;stroke-width:0.3"
       d="M 77.091719,82.136909 76.481203,81.344905"
       id="path46" />
    <path
       style="fill:#ffffff;stroke:#000000;stroke-width:0.3"
       d="M 72.746358,86.267372 72.030867,85.56875"
       id="path45" />
    <path
       style="fill:#ffffff;stroke:#000000;stroke-width:0.3"
       d="M 69.512898,88.931518 68.816011,88.214337"
       id="path44" />
    <path
       style="fill:#ffffff;stroke:#000000;stroke-width:0.3"
       d="M 62.996388,93.916037 62.249807,93.250743"
       id="path43" />
    <path
       style="fill:#ffffff;stroke:#000000;stroke-width:0.3"
       d="M 60.710421,99.58113 59.846058,99.078261"
       id="path42" />
    <path
       style="fill:#ffffff;stroke:#000000;stroke-width:0.3"
       d="m 58.63859,105.17582 -0.985994,-0.16678"
       id="path41" />
    <path
       style="fill:#ffffff;stroke:#000000;stroke-width:0.3"
       d="m 58.578508,111.15289 -0.990736,0.1358"
       id="path40" />
    <path
       style="fill:#ffffff;stroke:#000000;stroke-width:0.3"
       d="m 60.403912,116.82369 -0.836282,0.5483"
       id="path39" />
    <path
       style="fill:#ffffff;stroke:#000000;stroke-width:0.3"
       d="m 64.257986,114.88716 0.937231,0.34871"
       id="path38" />
    <path
       style="fill:#ffffff;stroke:#000000;stroke-width:0.3"
       d="m 65.730703,109.07849 0.984646,0.17456"
       id="path37" />
    <path
       style="fill:#ffffff;stroke:#000000;stroke-width:0.3"
       d="m 66.489789,103.129 0.996865,0.0791"
       id="path36" />
    <path
       style="fill:#ffffff;stroke:#000000;stroke-width:0.3"
       d="m 66.647981,97.134122 0.999506,-0.03143"
       id="path35" />
    <path
       style="fill:#ffffff;stroke:#000000;stroke-width:0.3"
       d="m 64.157352,85.488865 0.895044,-0.445976"
       id="path33" />
    <path
       style="fill:#ffffff;stroke:#000000;stroke-width:0.3"
       d="m 60.656382,80.651308 0.69466,-0.719339"
       id="path32" />
    <path
       style="fill:#ffffff;stroke:#000000;stroke-width:0.3"
       d="m 55.483708,77.824465 0.08658,-0.996245"
       id="path31" />
    <path
       style="fill:#ffffff;stroke:#000000;stroke-width:0.3"
       d="M 50.607934,80.877481 49.865249,80.20784"
       id="path30" />
    <path
       style="fill:#ffffff;stroke:#000000;stroke-width:0.3"
       d="M 46.019896,84.685952 45.565466,83.79517"
       id="path29" />
    <path
       style="fill:#ffffff;stroke:#000000;stroke-width:0.3"
       d="M 40.27453,86.29685 40.173385,85.301979"
       id="path28" />
    <path
       style="fill:#ffffff;stroke:#000000;stroke-width:0.3"
       d="m 29.099682,83.075941 0.691711,-0.722175"
       id="path26" />
    <path
       style="fill:#ffffff;stroke:#000000;stroke-width:0.3"
       d="m 25.856193,78.085297 0.934302,-0.356482"
       id="path25" />
    <path
       style="fill:#ffffff;stroke:#000000;stroke-width:0.3"
       d="m 25.061355,72.202102 0.988359,0.152144"
       id="path24" />
    <path
       style="fill:#ffffff;stroke:#000000;stroke-width:0.3"
       d="m 28.76579,68.013506 0.159111,0.987261"
       id="path23" />
    <path
       style="fill:#ffffff;stroke:#000000;stroke-width:0.3"
       d="m 33.720315,70.718318 -0.853822,0.520564"
       id="path22" />
    <path
       style="fill:#ffffff;stroke:#000000;stroke-width:0.3"
       d="m 35.395994,76.432196 -0.993252,0.115971"
       id="path21" />
    <path
       style="fill:#ffffff;stroke:#000000;stroke-width:0.3"
       d="m 35.625605,82.423282 -0.9998,-0.01999"
       id="path20" />
    <path
       style="fill:#ffffff;stroke:#000000;stroke-width:0.3"
       d="M 35.290177,88.41284 34.293819,88.32757"
       id="path19" />
    <path
       style="fill:#ffffff;stroke:#000000;stroke-width:0.3"
       d="M 34.655265,94.378788 33.662902,94.255434"
       id="path18" />
    <path
       style="fill:#ffffff;stroke:#000000;stroke-width:0.3"
       d="m 33.836629,100.32253 -0.989008,-0.14787"
       id="path17" />
    <path
       style="fill:#ffffff;stroke:#000000;stroke-width:0.3"
       d="M 32.896372,106.24832 31.910033,106.0836"
       id="path16" />
    <path
       style="fill:#ffffff;stroke:#000000;stroke-width:0.3"
       d="m 31.863521,112.1587 -0.983764,-0.17947"
       id="path15" />
    <path
       style="fill:#ffffff;stroke:#000000;stroke-width:0.3"
       d="m 30.742919,118.05307 -0.980973,-0.19415"
       id="path14" />
    <path
       style="fill:#ffffff;stroke:#000000;stroke-width:0.3"
       d="M 29.531979,123.92953 28.554221,123.7198"
       id="path13" />
    <path
       style="fill:#ffffff;stroke:#000000;stroke-width:0.3"
       d="m 28.22224,129.78476 -0.973831,-0.22728"
       id="path12" />
    <path
       style="fill:#ffffff;stroke:#000000;stroke-width:0.3"
       d="M 26.798022,135.61315 25.82931,135.36497"
       id="path11" />
    <path
       style="fill:#ffffff;stroke:#000000;stroke-width:0.3"
       d="m 25.232599,141.40515 -0.961483,-0.27487"
       id="path10" />
    <path
       style="fill:#ffffff;stroke:#000000;stroke-width:0.3"
       d="m 23.479024,147.14279 -0.950071,-0.31204"
       id="path9" />
    <path
       style="fill:#ffffff;stroke:#000000;stroke-width:0.3"
       d="M 21.453821,152.78981 20.522857,152.4247"
       id="path8" />
    <path
       style="fill:#ffffff;stroke:#000000;stroke-width:0.3"
       d="m 19.077539,158.2979 -0.903596,-0.42839"
       id="path7" />
    <path
       style="fill:#ffffff;stroke:#000000;stroke-width:0.3"
       d="m 16.304437,163.61696 -0.868504,-0.49568"
       id="path6" />
    <path
       style="fill:#ffffff;stroke:#000000;stroke-width:0.3"
       d="M 13.152183,168.72091 12.31787,168.16962"
       id="path5" />
    <path
       style="fill:#ffffff;stroke:#000000;stroke-width:0.3"
       d="M 9.7565952,173.66739 Z"
       id="path4" />
  </g>
</svg>
