<?xml version="1.0" encoding="UTF-8" standalone="no"?>
<!-- Created with Inkscape (http://www.inkscape.org/) -->

<svg
   width="269.55411mm"
   height="131.66638mm"
   viewBox="0 0 269.55411 131.66638"
   version="1.1"
   id="svg1"
   inkscape:version="1.3.1 (91b66b0783, 2023-11-16)"
   sodipodi:docname="Meg3_MASTER.svg"
   inkscape:export-filename="Track3.svg"
   inkscape:export-xdpi="96"
   inkscape:export-ydpi="96"
   xmlns:inkscape="http://www.inkscape.org/namespaces/inkscape"
   xmlns:sodipodi="http://sodipodi.sourceforge.net/DTD/sodipodi-0.dtd"
   xmlns="http://www.w3.org/2000/svg"
   xmlns:svg="http://www.w3.org/2000/svg">
  <sodipodi:namedview
     id="namedview1"
     pagecolor="#ffffff"
     bordercolor="#000000"
     borderopacity="0.25"
     inkscape:showpageshadow="2"
     inkscape:pageopacity="0.0"
     inkscape:pagecheckerboard="0"
     inkscape:deskcolor="#d1d1d1"
     inkscape:document-units="mm"
     inkscape:zoom="0.76702441"
     inkscape:cx="334.40918"
     inkscape:cy="350.05405"
     inkscape:window-width="1920"
     inkscape:window-height="1057"
     inkscape:window-x="1912"
     inkscape:window-y="-8"
     inkscape:window-maximized="1"
     inkscape:current-layer="g252" />
  <defs
     id="defs1" />
  <g
     inkscape:groupmode="layer"
     id="g131"
     inkscape:label="Track2 copy"
     transform="translate(-4.6067161,-45.515816)">
    <path
       style="fill:#ffffff;stroke:#000000;stroke-width:0.0398731"
       d="m 270.3768,77.109653 0.5245,-1.620015"
       id="path250" />
    <path
       style="fill:#ffffff;stroke:#000000;stroke-width:0.3"
       d="m 264.78286,75.803157 0.13789,-0.990447"
       id="path249" />
    <path
       style="fill:#ffffff;stroke:#000000;stroke-width:0.3"
       d="M 258.89658,76.371435 258.46306,75.47029"
       id="path248" />
    <path
       style="fill:#ffffff;stroke:#000000;stroke-width:0.3"
       d="m 254.96831,80.764039 -0.88445,-0.466635"
       id="path247" />
    <path
       style="fill:#ffffff;stroke:#000000;stroke-width:0.3"
       d="m 252.46528,86.21572 -0.90953,-0.415642"
       id="path246" />
    <path
       style="fill:#ffffff;stroke:#000000;stroke-width:0.3"
       d="M 249.19173,91.17811 248.576,90.390157"
       id="path245" />
    <path
       style="fill:#ffffff;stroke:#000000;stroke-width:0.3"
       d="m 243.57485,91.536755 0.51893,-0.854813"
       id="path244" />
    <path
       style="fill:#ffffff;stroke:#000000;stroke-width:0.3"
       d="m 240.9188,86.435302 0.9971,-0.07613"
       id="path243" />
    <path
       style="fill:#ffffff;stroke:#000000;stroke-width:0.3"
       d="m 240.97989,80.438328 0.99971,0.02421"
       id="path242" />
    <path
       style="fill:#ffffff;stroke:#000000;stroke-width:0.3"
       d="m 240.76072,74.447502 0.99352,-0.113624"
       id="path241" />
    <path
       style="fill:#ffffff;stroke:#000000;stroke-width:0.3"
       d="m 239.61277,68.564971 0.96156,-0.274607"
       id="path240" />
    <path
       style="fill:#ffffff;stroke:#000000;stroke-width:0.3"
       d="m 237.09086,63.1697 0.74344,-0.668798"
       id="path239" />
    <path
       style="fill:#ffffff;stroke:#000000;stroke-width:0.3"
       d="m 232.3001,64.461973 -0.84921,-0.528052"
       id="path238" />
    <path
       style="fill:#ffffff;stroke:#000000;stroke-width:0.3"
       d="m 230.5997,70.155236 -0.99817,-0.06052"
       id="path237" />
    <path
       style="fill:#ffffff;stroke:#000000;stroke-width:0.3"
       d="m 231.34031,76.084234 -0.96935,0.245689"
       id="path236" />
    <path
       style="fill:#ffffff;stroke:#000000;stroke-width:0.3"
       d="m 232.92476,81.870905 -0.97117,0.238366"
       id="path235" />
    <path
       style="fill:#ffffff;stroke:#000000;stroke-width:0.3"
       d="m 233.50788,87.80844 -0.99179,-0.127869"
       id="path234" />
    <path
       style="fill:#ffffff;stroke:#000000;stroke-width:0.3"
       d="m 232.98852,93.744103 -0.79401,-0.607901"
       id="path233" />
    <path
       style="fill:#ffffff;stroke:#000000;stroke-width:0.3"
       d="m 226.3577,96.104996 0.69849,-0.71562"
       id="path232" />
    <path
       style="fill:#ffffff;stroke:#000000;stroke-width:0.3"
       d="m 225.4712,90.243915 0.9415,-0.337009"
       id="path231" />
    <path
       style="fill:#ffffff;stroke:#000000;stroke-width:0.3"
       d="M 220.13463,89.704003 219.8397,88.748485"
       id="path230" />
    <path
       style="fill:#ffffff;stroke:#000000;stroke-width:0.3"
       d="m 214.35217,90.600791 0.59615,-0.802878"
       id="path229" />
    <path
       style="fill:#ffffff;stroke:#000000;stroke-width:0.3"
       d="m 213.33473,84.819899 0.98114,-0.19328"
       id="path228" />
    <path
       style="fill:#ffffff;stroke:#000000;stroke-width:0.3"
       d="M 208.75481,81.971573 208.64766,80.97733"
       id="path227" />
    <path
       style="fill:#ffffff;stroke:#000000;stroke-width:0.3"
       d="M 204.62707,85.706626 203.6684,85.422085"
       id="path226" />
    <path
       style="fill:#ffffff;stroke:#000000;stroke-width:0.3"
       d="m 202.83059,91.423995 -0.91548,-0.402359"
       id="path225" />
    <path
       style="fill:#ffffff;stroke:#000000;stroke-width:0.3"
       d="m 199.73128,96.542249 -0.77365,-0.633617"
       id="path224" />
    <path
       style="fill:#ffffff;stroke:#000000;stroke-width:0.3"
       d="m 194.87178,98.296142 0.77518,-0.631741"
       id="path223" />
    <path
       style="fill:#ffffff;stroke:#000000;stroke-width:0.3"
       d="m 190.86464,93.534417 0.66599,-0.745961"
       id="path222" />
    <path
       style="fill:#ffffff;stroke:#000000;stroke-width:0.3"
       d="m 187.02732,97.908509 -0.52573,-0.850656"
       id="path221" />
    <path
       style="fill:#ffffff;stroke:#000000;stroke-width:0.3"
       d="m 182.05715,94.340528 0.99657,-0.08273"
       id="path220" />
    <path
       style="fill:#ffffff;stroke:#000000;stroke-width:0.3"
       d="m 182.71289,88.388087 0.98628,0.165122"
       id="path219" />
    <path
       style="fill:#ffffff;stroke:#000000;stroke-width:0.3"
       d="m 183.59876,82.454773 0.99429,0.106691"
       id="path218" />
    <path
       style="fill:#ffffff;stroke:#000000;stroke-width:0.3"
       d="m 183.40586,76.495898 0.95644,-0.291931"
       id="path217" />
    <path
       style="fill:#ffffff;stroke:#000000;stroke-width:0.3"
       d="m 178.92971,73.414989 -0.1629,-0.986643"
       id="path216" />
    <path
       style="fill:#ffffff;stroke:#000000;stroke-width:0.3"
       d="m 174.16978,76.817274 -0.81592,-0.578156"
       id="path215" />
    <path
       style="fill:#ffffff;stroke:#000000;stroke-width:0.3"
       d="m 171.71719,82.264291 -0.95818,-0.286159"
       id="path214" />
    <path
       style="fill:#ffffff;stroke:#000000;stroke-width:0.3"
       d="m 170.38573,88.111351 -0.98478,-0.173856"
       id="path213" />
    <path
       style="fill:#ffffff;stroke:#000000;stroke-width:0.3"
       d="m 172.17717,94.044285 -0.99113,-0.132902"
       id="path212" />
    <path
       style="fill:#ffffff;stroke:#000000;stroke-width:0.3"
       d="m 172.41502,99.372033 -0.98365,-0.180047"
       id="path211" />
    <path
       style="fill:#ffffff;stroke:#000000;stroke-width:0.3"
       d="m 165.94205,102.88134 0.89309,-0.44987"
       id="path210" />
    <path
       style="fill:#ffffff;stroke:#000000;stroke-width:0.3"
       d="m 164.21738,97.147454 0.97664,-0.214876"
       id="path209" />
    <path
       style="fill:#ffffff;stroke:#000000;stroke-width:0.3"
       d="m 163.05685,91.261044 0.98345,-0.181218"
       id="path208" />
    <path
       style="fill:#ffffff;stroke:#000000;stroke-width:0.3"
       d="m 161.98149,85.35821 0.98346,-0.181104"
       id="path207" />
    <path
       style="fill:#ffffff;stroke:#000000;stroke-width:0.3"
       d="m 161.91999,78.373896 0.97672,-0.214522"
       id="path206" />
    <path
       style="fill:#ffffff;stroke:#000000;stroke-width:0.3"
       d="m 158.63566,75.260758 -0.93469,-0.355464"
       id="path205" />
    <path
       style="fill:#ffffff;stroke:#000000;stroke-width:0.3"
       d="M 157.54135,81.151841 156.5506,81.016176"
       id="path204" />
    <path
       style="fill:#ffffff;stroke:#000000;stroke-width:0.3"
       d="m 156.74331,87.098524 -0.99053,-0.137273"
       id="path203" />
    <path
       style="fill:#ffffff;stroke:#000000;stroke-width:0.3"
       d="m 155.82702,93.027792 -0.98471,-0.174249"
       id="path202" />
    <path
       style="fill:#ffffff;stroke:#000000;stroke-width:0.3"
       d="m 154.53791,98.885168 -0.96217,-0.272442"
       id="path201" />
    <path
       style="fill:#ffffff;stroke:#000000;stroke-width:0.3"
       d="m 152.09632,104.32953 -0.80009,-0.59987"
       id="path200" />
    <path
       style="fill:#ffffff;stroke:#000000;stroke-width:0.3"
       d="m 146.96559,106.84992 0.10212,-0.99477"
       id="path199" />
    <path
       style="fill:#ffffff;stroke:#000000;stroke-width:0.3"
       d="m 141.87881,103.95504 0.80161,-0.59785"
       id="path198" />
    <path
       style="fill:#ffffff;stroke:#000000;stroke-width:0.3"
       d="m 140.78863,98.19301 0.99648,0.08384"
       id="path197" />
    <path
       style="fill:#ffffff;stroke:#000000;stroke-width:0.3"
       d="m 141.75145,92.274408 0.97868,0.205414"
       id="path196" />
    <path
       style="fill:#ffffff;stroke:#000000;stroke-width:0.3"
       d="m 143.06407,86.419835 0.97453,0.224255"
       id="path195" />
    <path
       style="fill:#ffffff;stroke:#000000;stroke-width:0.3"
       d="m 144.38143,80.566283 0.97756,0.210657"
       id="path194" />
    <path
       style="fill:#ffffff;stroke:#000000;stroke-width:0.3"
       d="m 145.53302,74.678344 0.98605,0.166461"
       id="path193" />
    <path
       style="fill:#ffffff;stroke:#000000;stroke-width:0.3"
       d="m 146.22925,68.72275 0.9992,0.04018"
       id="path192" />
    <path
       style="fill:#ffffff;stroke:#000000;stroke-width:0.3"
       d="m 144.94549,63.013803 0.70463,-0.709582"
       id="path191" />
    <path
       style="fill:#ffffff;stroke:#000000;stroke-width:0.3"
       d="m 139.95006,64.746964 -0.782,-0.623282"
       id="path190" />
    <path
       style="fill:#ffffff;stroke:#000000;stroke-width:0.3"
       d="M 137.06733,69.985687 136.13921,69.61339"
       id="path189" />
    <path
       style="fill:#ffffff;stroke:#000000;stroke-width:0.3"
       d="M 135.16632,75.673964 134.2054,75.397118"
       id="path188" />
    <path
       style="fill:#ffffff;stroke:#000000;stroke-width:0.3"
       d="m 133.63698,81.475384 -0.97111,-0.238631"
       id="path187" />
    <path
       style="fill:#ffffff;stroke:#000000;stroke-width:0.3"
       d="M 132.24878,87.312551 131.27516,87.08439"
       id="path186" />
    <path
       style="fill:#ffffff;stroke:#000000;stroke-width:0.3"
       d="M 130.84237,93.145291 129.8734,92.898114"
       id="path185" />
    <path
       style="fill:#ffffff;stroke:#000000;stroke-width:0.3"
       d="m 129.11796,98.888713 -0.93229,-0.361728"
       id="path184" />
    <path
       style="fill:#ffffff;stroke:#000000;stroke-width:0.3"
       d="m 122.67453,102.67477 0.82662,-0.56275"
       id="path183" />
    <path
       style="fill:#ffffff;stroke:#000000;stroke-width:0.3"
       d="m 120.59269,96.33227 0.97142,0.237369"
       id="path182" />
    <path
       style="fill:#ffffff;stroke:#000000;stroke-width:0.3"
       d="m 122.9305,90.673926 0.97358,0.228355"
       id="path181" />
    <path
       style="fill:#ffffff;stroke:#000000;stroke-width:0.3"
       d="m 124.98718,85.747647 0.10155,-0.99483"
       id="path180" />
    <path
       style="fill:#ffffff;stroke:#000000;stroke-width:0.3"
       d="m 119.03215,86.346803 -0.16001,-0.987115"
       id="path179" />
    <path
       style="fill:#ffffff;stroke:#000000;stroke-width:0.3"
       d="m 113.06814,86.788889 0.12979,-0.991541"
       id="path178" />
    <path
       style="fill:#ffffff;stroke:#000000;stroke-width:0.3"
       d="m 108.72843,83.210228 0.96223,-0.272233"
       id="path177" />
    <path
       style="fill:#ffffff;stroke:#000000;stroke-width:0.3"
       d="m 108.9981,77.284017 0.96898,0.24713"
       id="path176" />
    <path
       style="fill:#ffffff;stroke:#000000;stroke-width:0.3"
       d="m 110.62647,71.509754 0.97097,0.239175"
       id="path175" />
    <path
       style="fill:#ffffff;stroke:#000000;stroke-width:0.3"
       d="m 111.25729,65.569853 0.99653,-0.08323"
       id="path174" />
    <path
       style="fill:#ffffff;stroke:#000000;stroke-width:0.3"
       d="m 109.23839,59.993706 0.82932,-0.558769"
       id="path173" />
    <path
       style="fill:#ffffff;stroke:#000000;stroke-width:0.3"
       d="M 105.18063,55.599664 105.824,54.834105"
       id="path172" />
    <path
       style="fill:#ffffff;stroke:#000000;stroke-width:0.3"
       d="m 100.20788,52.263832 0.45814,-0.888879"
       id="path171" />
    <path
       style="fill:#ffffff;stroke:#000000;stroke-width:0.3"
       d="M 94.492388,50.87432 94.220856,49.911891"
       id="path170" />
    <path
       style="fill:#ffffff;stroke:#000000;stroke-width:0.3"
       d="M 91.704073,55.832498 90.721197,55.648229"
       id="path169" />
    <path
       style="fill:#ffffff;stroke:#000000;stroke-width:0.3"
       d="M 90.456067,61.697348 89.496939,61.414376"
       id="path168" />
    <path
       style="fill:#ffffff;stroke:#000000;stroke-width:0.3"
       d="m 88.154484,67.222899 -0.86109,-0.508451"
       id="path167" />
    <path
       style="fill:#ffffff;stroke:#000000;stroke-width:0.3"
       d="m 83.521728,69.620502 0.587859,-0.808964"
       id="path166" />
    <path
       style="fill:#ffffff;stroke:#000000;stroke-width:0.3"
       d="m 80.603479,64.481785 0.958293,-0.285787"
       id="path165" />
    <path
       style="fill:#ffffff;stroke:#000000;stroke-width:0.3"
       d="m 79.515103,58.588834 0.992186,-0.12477"
       id="path164" />
    <path
       style="fill:#ffffff;stroke:#000000;stroke-width:0.3"
       d="m 78.526628,52.675948 0.964915,-0.262562"
       id="path163" />
    <path
       style="fill:#ffffff;stroke:#000000;stroke-width:0.3"
       d="m 75.302415,47.797765 0.526589,-0.85012"
       id="path162" />
    <path
       style="fill:#ffffff;stroke:#000000;stroke-width:0.3"
       d="M 69.687352,47.798125 69.031783,47.04299"
       id="path161" />
    <path
       style="fill:#ffffff;stroke:#000000;stroke-width:0.3"
       d="m 68.165736,53.409362 -0.999984,0.0056"
       id="path160" />
    <path
       style="fill:#ffffff;stroke:#000000;stroke-width:0.3"
       d="m 68.247415,59.407711 -0.999178,-0.04054"
       id="path159" />
    <path
       style="fill:#ffffff;stroke:#000000;stroke-width:0.3"
       d="M 66.58487,65.062103 65.805271,64.435825"
       id="path158" />
    <path
       style="fill:#ffffff;stroke:#000000;stroke-width:0.3"
       d="M 61.407753,67.795372 61.289419,66.802398"
       id="path157" />
    <path
       style="fill:#ffffff;stroke:#000000;stroke-width:0.3"
       d="m 56.184417,65.690549 0.874552,-0.484932"
       id="path156" />
    <path
       style="fill:#ffffff;stroke:#000000;stroke-width:0.3"
       d="m 54.695772,59.901836 0.978757,-0.205024"
       id="path155" />
    <path
       style="fill:#ffffff;stroke:#000000;stroke-width:0.3"
       d="m 52.566939,54.329091 0.849723,-0.527229"
       id="path154" />
    <path
       style="fill:#ffffff;stroke:#000000;stroke-width:0.3"
       d="m 48.613359,49.854798 0.615799,-0.787903"
       id="path153" />
    <path
       style="fill:#ffffff;stroke:#000000;stroke-width:0.3"
       d="M 43.335987,49.288293 42.572699,48.642235"
       id="path152" />
    <path
       style="fill:#ffffff;stroke:#000000;stroke-width:0.3"
       d="M 40.265738,54.433042 39.45704,53.844819"
       id="path151" />
    <path
       style="fill:#ffffff;stroke:#000000;stroke-width:0.3"
       d="m 35.440051,57.775964 -0.197413,-0.98032"
       id="path150" />
    <path
       style="fill:#ffffff;stroke:#000000;stroke-width:0.3"
       d="m 30.664153,55.065858 0.893209,-0.44964"
       id="path149" />
    <path
       style="fill:#ffffff;stroke:#000000;stroke-width:0.3"
       d="m 28.419841,49.504022 0.911346,-0.411641"
       id="path148" />
    <path
       style="fill:#ffffff;stroke:#000000;stroke-width:0.3"
       d="M 23.937635,46.519321 23.66877,45.556143"
       id="path147" />
    <path
       style="fill:#ffffff;stroke:#000000;stroke-width:0.3"
       d="M 19.343875,50.218968 18.537792,49.627166"
       id="path146" />
    <path
       style="fill:#ffffff;stroke:#000000;stroke-width:0.3"
       d="M 16.568749,55.517082 15.631792,55.167638"
       id="path145" />
    <path
       style="fill:#ffffff;stroke:#000000;stroke-width:0.3"
       d="M 14.911448,61.278811 13.935392,61.061292"
       id="path144" />
    <path
       style="fill:#ffffff;stroke:#000000;stroke-width:0.3"
       d="M 13.846748,67.182161 12.857087,67.038734"
       id="path143" />
    <path
       style="fill:#ffffff;stroke:#000000;stroke-width:0.3"
       d="m 13.13834,73.139617 -0.995392,-0.09588"
       id="path142" />
    <path
       style="fill:#ffffff;stroke:#000000;stroke-width:0.3"
       d="m 12.665675,79.120711 -0.997957,-0.06389"
       id="path141" />
    <path
       style="fill:#ffffff;stroke:#000000;stroke-width:0.3"
       d="m 12.337306,85.111668 -0.998778,-0.04943"
       id="path140" />
    <path
       style="fill:#ffffff;stroke:#000000;stroke-width:0.3"
       d="m 12.014436,91.102941 -0.997959,-0.06386"
       id="path139" />
    <path
       style="fill:#ffffff;stroke:#000000;stroke-width:0.3"
       d="M 11.499492,97.080178 10.50596,96.966626"
       id="path138" />
    <path
       style="fill:#ffffff;stroke:#000000;stroke-width:0.3"
       d="M 10.606927,103.01215 9.623634,102.83012"
       id="path137" />
    <path
       style="fill:#ffffff;stroke:#000000;stroke-width:0.3"
       d="M 9.3634478,108.8813 8.3899461,108.65262"
       id="path136" />
    <path
       style="fill:#ffffff;stroke:#000000;stroke-width:0.3"
       d="m 7.9038023,114.70086 -0.967009,-0.25474"
       id="path135" />
    <path
       style="fill:#ffffff;stroke:#000000;stroke-width:0.0532653"
       d="M 6.3725244,120.60846 4.6188161,119.71409"
       id="path134" />
  </g>
</svg>
