  0
SECTION
  2
HEADER
  9
$ACADVER
  1
AC1024
  9
$ACADMAINTVER
 70
6
  9
$DWGCODEPAGE
  3
ANSI_1252
  9
$LASTSAVEDBY
  1
ezdxf
  9
$INSBASE
 10
0.0
 20
0.0
 30
0.0
  9
$EXTMIN
 10
1e+20
 20
1e+20
 30
1e+20
  9
$EXTMAX
 10
-1e+20
 20
-1e+20
 30
-1e+20
  9
$LIMMIN
 10
0.0
 20
0.0
  9
$LIMMAX
 10
420.0
 20
297.0
  9
$ORTHOMODE
 70
0
  9
$REGENMODE
 70
1
  9
$FILLMODE
 70
1
  9
$QTEXTMODE
 70
0
  9
$MIRRTEXT
 70
1
  9
$LTSCALE
 40
1.0
  9
$ATTMODE
 70
1
  9
$TEXTSIZE
 40
2.5
  9
$TRACEWID
 40
1.0
  9
$TEXTSTYLE
  7
Standard
  9
$CLAYER
  8
0
  9
$CELTYPE
  6
ByLayer
  9
$CECOLOR
 62
256
  9
$CELTSCALE
 40
1.0
  9
$DISPSILH
 70
0
  9
$DIMSCALE
 40
1.0
  9
$DIMASZ
 40
2.5
  9
$DIMEXO
 40
0.625
  9
$DIMDLI
 40
3.75
  9
$DIMRND
 40
0.0
  9
$DIMDLE
 40
0.0
  9
$DIMEXE
 40
1.25
  9
$DIMTP
 40
0.0
  9
$DIMTM
 40
0.0
  9
$DIMTXT
 40
2.5
  9
$DIMCEN
 40
2.5
  9
$DIMTSZ
 40
0.0
  9
$DIMTOL
 70
0
  9
$DIMLIM
 70
0
  9
$DIMTIH
 70
0
  9
$DIMTOH
 70
0
  9
$DIMSE1
 70
0
  9
$DIMSE2
 70
0
  9
$DIMTAD
 70
1
  9
$DIMZIN
 70
8
  9
$DIMBLK
  1

  9
$DIMASO
 70
1
  9
$DIMSHO
 70
1
  9
$DIMPOST
  1

  9
$DIMAPOST
  1

  9
$DIMALT
 70
0
  9
$DIMALTD
 70
3
  9
$DIMALTF
 40
0.03937007874
  9
$DIMLFAC
 40
1.0
  9
$DIMTOFL
 70
1
  9
$DIMTVP
 40
0.0
  9
$DIMTIX
 70
0
  9
$DIMSOXD
 70
0
  9
$DIMSAH
 70
0
  9
$DIMBLK1
  1

  9
$DIMBLK2
  1

  9
$DIMSTYLE
  2
ISO-25
  9
$DIMCLRD
 70
0
  9
$DIMCLRE
 70
0
  9
$DIMCLRT
 70
0
  9
$DIMTFAC
 40
1.0
  9
$DIMGAP
 40
0.625
  9
$DIMJUST
 70
0
  9
$DIMSD1
 70
0
  9
$DIMSD2
 70
0
  9
$DIMTOLJ
 70
0
  9
$DIMTZIN
 70
8
  9
$DIMALTZ
 70
0
  9
$DIMALTTZ
 70
0
  9
$DIMUPT
 70
0
  9
$DIMDEC
 70
2
  9
$DIMTDEC
 70
2
  9
$DIMALTU
 70
2
  9
$DIMALTTD
 70
3
  9
$DIMTXSTY
  7
Standard
  9
$DIMAUNIT
 70
0
  9
$DIMADEC
 70
0
  9
$DIMALTRND
 40
0.0
  9
$DIMAZIN
 70
0
  9
$DIMDSEP
 70
44
  9
$DIMATFIT
 70
3
  9
$DIMFRAC
 70
0
  9
$DIMLDRBLK
  1

  9
$DIMLUNIT
 70
1
  9
$DIMLWD
 70
-2
  9
$DIMLWE
 70
-2
  9
$DIMTMOVE
 70
0
  9
$DIMFXL
 40
1.0
  9
$DIMFXLON
 70
0
  9
$DIMJOGANG
 40
0.785398163397
  9
$DIMTFILL
 70
0
  9
$DIMTFILLCLR
 70
0
  9
$DIMARCSYM
 70
0
  9
$DIMLTYPE
  6

  9
$DIMLTEX1
  6

  9
$DIMLTEX2
  6

  9
$DIMTXTDIRECTION
 70
0
  9
$LUNITS
 70
2
  9
$LUPREC
 70
4
  9
$SKETCHINC
 40
1.0
  9
$FILLETRAD
 40
10.0
  9
$AUNITS
 70
0
  9
$AUPREC
 70
2
  9
$MENU
  1
.
  9
$ELEVATION
 40
0.0
  9
$PELEVATION
 40
0.0
  9
$THICKNESS
 40
0.0
  9
$LIMCHECK
 70
0
  9
$CHAMFERA
 40
0.0
  9
$CHAMFERB
 40
0.0
  9
$CHAMFERC
 40
0.0
  9
$CHAMFERD
 40
0.0
  9
$SKPOLY
 70
0
  9
$TDCREATE
 40
2460574.6992708333
  9
$TDUCREATE
 40
2458532.153996898
  9
$TDUPDATE
 40
2460574.6992939813
  9
$TDUUPDATE
 40
2458532.1544311
  9
$TDINDWG
 40
0.0
  9
$TDUSRTIMER
 40
0.0
  9
$USRTIMER
 70
1
  9
$ANGBASE
 50
0.0
  9
$ANGDIR
 70
0
  9
$PDMODE
 70
0
  9
$PDSIZE
 40
0.0
  9
$PLINEWID
 40
0.0
  9
$SPLFRAME
 70
0
  9
$SPLINETYPE
 70
6
  9
$SPLINESEGS
 70
8
  9
$HANDSEED
  5
221
  9
$SURFTAB1
 70
6
  9
$SURFTAB2
 70
6
  9
$SURFTYPE
 70
6
  9
$SURFU
 70
6
  9
$SURFV
 70
6
  9
$UCSBASE
  2

  9
$UCSNAME
  2

  9
$UCSORG
 10
0.0
 20
0.0
 30
0.0
  9
$UCSXDIR
 10
1.0
 20
0.0
 30
0.0
  9
$UCSYDIR
 10
0.0
 20
1.0
 30
0.0
  9
$UCSORTHOREF
  2

  9
$UCSORTHOVIEW
 70
0
  9
$UCSORGTOP
 10
0.0
 20
0.0
 30
0.0
  9
$UCSORGBOTTOM
 10
0.0
 20
0.0
 30
0.0
  9
$UCSORGLEFT
 10
0.0
 20
0.0
 30
0.0
  9
$UCSORGRIGHT
 10
0.0
 20
0.0
 30
0.0
  9
$UCSORGFRONT
 10
0.0
 20
0.0
 30
0.0
  9
$UCSORGBACK
 10
0.0
 20
0.0
 30
0.0
  9
$PUCSBASE
  2

  9
$PUCSNAME
  2

  9
$PUCSORG
 10
0.0
 20
0.0
 30
0.0
  9
$PUCSXDIR
 10
1.0
 20
0.0
 30
0.0
  9
$PUCSYDIR
 10
0.0
 20
1.0
 30
0.0
  9
$PUCSORTHOREF
  2

  9
$PUCSORTHOVIEW
 70
0
  9
$PUCSORGTOP
 10
0.0
 20
0.0
 30
0.0
  9
$PUCSORGBOTTOM
 10
0.0
 20
0.0
 30
0.0
  9
$PUCSORGLEFT
 10
0.0
 20
0.0
 30
0.0
  9
$PUCSORGRIGHT
 10
0.0
 20
0.0
 30
0.0
  9
$PUCSORGFRONT
 10
0.0
 20
0.0
 30
0.0
  9
$PUCSORGBACK
 10
0.0
 20
0.0
 30
0.0
  9
$USERI1
 70
0
  9
$USERI2
 70
0
  9
$USERI3
 70
0
  9
$USERI4
 70
0
  9
$USERI5
 70
0
  9
$USERR1
 40
0.0
  9
$USERR2
 40
0.0
  9
$USERR3
 40
0.0
  9
$USERR4
 40
0.0
  9
$USERR5
 40
0.0
  9
$WORLDVIEW
 70
1
  9
$SHADEDGE
 70
3
  9
$SHADEDIF
 70
70
  9
$TILEMODE
 70
1
  9
$MAXACTVP
 70
64
  9
$PINSBASE
 10
0.0
 20
0.0
 30
0.0
  9
$PLIMCHECK
 70
0
  9
$PEXTMIN
 10
1e+20
 20
1e+20
 30
1e+20
  9
$PEXTMAX
 10
-1e+20
 20
-1e+20
 30
-1e+20
  9
$PLIMMIN
 10
0.0
 20
0.0
  9
$PLIMMAX
 10
420.0
 20
297.0
  9
$UNITMODE
 70
0
  9
$VISRETAIN
 70
1
  9
$PLINEGEN
 70
0
  9
$PSLTSCALE
 70
1
  9
$TREEDEPTH
 70
3020
  9
$CMLSTYLE
  2
Standard
  9
$CMLJUST
 70
0
  9
$CMLSCALE
 40
20.0
  9
$PROXYGRAPHICS
 70
1
  9
$MEASUREMENT
 70
1
  9
$CELWEIGHT
370
-1
  9
$ENDCAPS
280
0
  9
$JOINSTYLE
280
0
  9
$LWDISPLAY
290
0
  9
$INSUNITS
 70
1
  9
$HYPERLINKBASE
  1

  9
$STYLESHEET
  1

  9
$XEDIT
290
1
  9
$CEPSNTYPE
380
0
  9
$PSTYLEMODE
290
1
  9
$FINGERPRINTGUID
  2
{2A859A58-D004-440B-8724-358FCBCAB822}
  9
$VERSIONGUID
  2
{212198D0-90B9-4EC0-A393-6B0BC2902195}
  9
$EXTNAMES
290
1
  9
$PSVPSCALE
 40
0.0
  9
$OLESTARTUP
290
0
  9
$SORTENTS
280
127
  9
$INDEXCTL
280
0
  9
$HIDETEXT
280
1
  9
$XCLIPFRAME
280
1
  9
$HALOGAP
280
0
  9
$OBSCOLOR
 70
257
  9
$OBSLTYPE
280
0
  9
$INTERSECTIONDISPLAY
280
0
  9
$INTERSECTIONCOLOR
 70
257
  9
$DIMASSOC
280
2
  9
$PROJECTNAME
  1

  9
$CAMERADISPLAY
290
0
  9
$LENSLENGTH
 40
50.0
  9
$CAMERAHEIGHT
 40
0.0
  9
$STEPSPERSEC
 40
24.0
  9
$STEPSIZE
 40
100.0
  9
$3DDWFPREC
 40
2.0
  9
$PSOLWIDTH
 40
0.005
  9
$PSOLHEIGHT
 40
0.08
  9
$LOFTANG1
 40
1.570796326795
  9
$LOFTANG2
 40
1.570796326795
  9
$LOFTMAG1
 40
0.0
  9
$LOFTMAG2
 40
0.0
  9
$LOFTPARAM
 70
7
  9
$LOFTNORMALS
280
1
  9
$LATITUDE
 40
37.795
  9
$LONGITUDE
 40
-122.394
  9
$NORTHDIRECTION
 40
0.0
  9
$TIMEZONE
 70
-8000
  9
$LIGHTGLYPHDISPLAY
280
1
  9
$TILEMODELIGHTSYNCH
280
1
  9
$CMATERIAL
347
20
  9
$SOLIDHIST
280
0
  9
$SHOWHIST
280
1
  9
$DWFFRAME
280
2
  9
$DGNFRAME
280
2
  9
$REALWORLDSCALE
290
1
  9
$INTERFERECOLOR
 62
256
  9
$CSHADOW
280
0
  9
$SHADOWPLANELOCATION
 40
0.0
  0
ENDSEC
  0
SECTION
  2
CLASSES
  0
CLASS
  1
ACDBDICTIONARYWDFLT
  2
AcDbDictionaryWithDefault
  3
ObjectDBX Classes
 90
0
 91
0
280
0
281
0
  0
CLASS
  1
SUN
  2
AcDbSun
  3
SCENEOE
 90
1153
 91
0
280
0
281
0
  0
CLASS
  1
VISUALSTYLE
  2
AcDbVisualStyle
  3
ObjectDBX Classes
 90
4095
 91
0
280
0
281
0
  0
CLASS
  1
MATERIAL
  2
AcDbMaterial
  3
ObjectDBX Classes
 90
1153
 91
0
280
0
281
0
  0
CLASS
  1
SCALE
  2
AcDbScale
  3
ObjectDBX Classes
 90
1153
 91
0
280
0
281
0
  0
CLASS
  1
TABLESTYLE
  2
AcDbTableStyle
  3
ObjectDBX Classes
 90
4095
 91
0
280
0
281
0
  0
CLASS
  1
MLEADERSTYLE
  2
AcDbMLeaderStyle
  3
ACDB_MLEADERSTYLE_CLASS
 90
4095
 91
0
280
0
281
0
  0
CLASS
  1
DICTIONARYVAR
  2
AcDbDictionaryVar
  3
ObjectDBX Classes
 90
0
 91
0
280
0
281
0
  0
CLASS
  1
CELLSTYLEMAP
  2
AcDbCellStyleMap
  3
ObjectDBX Classes
 90
1152
 91
0
280
0
281
0
  0
CLASS
  1
MENTALRAYRENDERSETTINGS
  2
AcDbMentalRayRenderSettings
  3
SCENEOE
 90
1024
 91
0
280
0
281
0
  0
CLASS
  1
ACDBDETAILVIEWSTYLE
  2
AcDbDetailViewStyle
  3
ObjectDBX Classes
 90
1025
 91
0
280
0
281
0
  0
CLASS
  1
ACDBSECTIONVIEWSTYLE
  2
AcDbSectionViewStyle
  3
ObjectDBX Classes
 90
1025
 91
0
280
0
281
0
  0
CLASS
  1
RASTERVARIABLES
  2
AcDbRasterVariables
  3
ISM
 90
0
 91
0
280
0
281
0
  0
CLASS
  1
ACDBPLACEHOLDER
  2
AcDbPlaceHolder
  3
ObjectDBX Classes
 90
0
 91
0
280
0
281
0
  0
CLASS
  1
LAYOUT
  2
AcDbLayout
  3
ObjectDBX Classes
 90
0
 91
0
280
0
281
0
  0
ENDSEC
  0
SECTION
  2
TABLES
  0
TABLE
  2
VPORT
  5
8
330
0
100
AcDbSymbolTable
 70
1
  0
VPORT
  5
23
330
8
100
AcDbSymbolTableRecord
100
AcDbViewportTableRecord
  2
*Active
 70
0
 10
0.0
 20
0.0
 11
1.0
 21
1.0
 12
0.0
 22
0.0
 13
0.0
 23
0.0
 14
0.5
 24
0.5
 15
0.5
 25
0.5
 16
0.0
 26
0.0
 36
1.0
 17
0.0
 27
0.0
 37
0.0
 40
1000.0
 41
1.34
 42
50.0
 43
0.0
 44
0.0
 50
0.0
 51
0.0
 71
0
 72
1000
 73
1
 74
3
 75
0
 76
0
 77
0
 78
0
281
0
 65
0
146
0.0
  0
ENDTAB
  0
TABLE
  2
LTYPE
  5
2
330
0
100
AcDbSymbolTable
 70
3
  0
LTYPE
  5
24
330
2
100
AcDbSymbolTableRecord
100
AcDbLinetypeTableRecord
  2
ByBlock
 70
0
  3

 72
65
 73
0
 40
0.0
  0
LTYPE
  5
25
330
2
100
AcDbSymbolTableRecord
100
AcDbLinetypeTableRecord
  2
ByLayer
 70
0
  3

 72
65
 73
0
 40
0.0
  0
LTYPE
  5
26
330
2
100
AcDbSymbolTableRecord
100
AcDbLinetypeTableRecord
  2
Continuous
 70
0
  3

 72
65
 73
0
 40
0.0
  0
ENDTAB
  0
TABLE
  2
LAYER
  5
1
330
0
100
AcDbSymbolTable
 70
20
  0
LAYER
  5
27
330
1
100
AcDbSymbolTableRecord
100
AcDbLayerTableRecord
  2
0
 70
0
 62
7
  6
Continuous
370
-3
390
13
347
21
  0
LAYER
  5
28
330
1
100
AcDbSymbolTableRecord
100
AcDbLayerTableRecord
  2
Defpoints
 70
0
 62
7
  6
Continuous
290
0
370
-3
390
13
347
21
  0
LAYER
  5
2F
330
1
100
AcDbSymbolTableRecord
100
AcDbLayerTableRecord
  2
Holes_T29
 70
0
 62
28
  6
DASHED
370
-3
390
13
347
21
  0
LAYER
  5
A8
330
1
100
AcDbSymbolTableRecord
100
AcDbLayerTableRecord
  2
TrackPath_T29
 70
0
 62
2
  6
DOTTED
370
-3
390
13
347
21
  0
LAYER
  5
AB
330
1
100
AcDbSymbolTableRecord
100
AcDbLayerTableRecord
  2
NumMarks_T29
 70
0
 62
18
  6
DOTTED
370
-3
390
13
347
21
  0
LAYER
  5
C4
330
1
100
AcDbSymbolTableRecord
100
AcDbLayerTableRecord
  2
Holes_T30
 70
0
 62
11
  6
DASHED
370
-3
390
13
347
21
  0
LAYER
  5
13D
330
1
100
AcDbSymbolTableRecord
100
AcDbLayerTableRecord
  2
TrackPath_T30
 70
0
 62
4
  6
DOTTED
370
-3
390
13
347
21
  0
LAYER
  5
140
330
1
100
AcDbSymbolTableRecord
100
AcDbLayerTableRecord
  2
NumMarks_T30
 70
0
 62
23
  6
DOTTED
370
-3
390
13
347
21
  0
LAYER
  5
159
330
1
100
AcDbSymbolTableRecord
100
AcDbLayerTableRecord
  2
Holes_T31
 70
0
 62
10
  6
DASHED
370
-3
390
13
347
21
  0
LAYER
  5
1D2
330
1
100
AcDbSymbolTableRecord
100
AcDbLayerTableRecord
  2
TrackPath_T31
 70
0
 62
9
  6
DOTTED
370
-3
390
13
347
21
  0
LAYER
  5
1D5
330
1
100
AcDbSymbolTableRecord
100
AcDbLayerTableRecord
  2
NumMarks_T31
 70
0
 62
22
  6
DOTTED
370
-3
390
13
347
21
  0
LAYER
  5
1EE
330
1
100
AcDbSymbolTableRecord
100
AcDbLayerTableRecord
  2
NormEvents_T29
 70
0
 62
15
  6
DASHED
370
-3
390
13
347
21
  0
LAYER
  5
1EF
330
1
100
AcDbSymbolTableRecord
100
AcDbLayerTableRecord
  2
RampUpEvents_T29
 70
0
 62
9
  6
DASHED
370
-3
390
13
347
21
  0
LAYER
  5
1F0
330
1
100
AcDbSymbolTableRecord
100
AcDbLayerTableRecord
  2
RampDownEvents_T29
 70
0
 62
16
  6
DASHED
370
-3
390
13
347
21
  0
LAYER
  5
1FD
330
1
100
AcDbSymbolTableRecord
100
AcDbLayerTableRecord
  2
NormEvents_T30
 70
0
 62
13
  6
DASHED
370
-3
390
13
347
21
  0
LAYER
  5
1FE
330
1
100
AcDbSymbolTableRecord
100
AcDbLayerTableRecord
  2
RampUpEvents_T30
 70
0
 62
5
  6
DASHED
370
-3
390
13
347
21
  0
LAYER
  5
1FF
330
1
100
AcDbSymbolTableRecord
100
AcDbLayerTableRecord
  2
RampDownEvents_T30
 70
0
 62
14
  6
DASHED
370
-3
390
13
347
21
  0
LAYER
  5
20B
330
1
100
AcDbSymbolTableRecord
100
AcDbLayerTableRecord
  2
NormEvents_T31
 70
0
 62
30
  6
DASHED
370
-3
390
13
347
21
  0
LAYER
  5
20C
330
1
100
AcDbSymbolTableRecord
100
AcDbLayerTableRecord
  2
RampUpEvents_T31
 70
0
 62
29
  6
DASHED
370
-3
390
13
347
21
  0
LAYER
  5
20D
330
1
100
AcDbSymbolTableRecord
100
AcDbLayerTableRecord
  2
RampDownEvents_T31
 70
0
 62
20
  6
DASHED
370
-3
390
13
347
21
  0
ENDTAB
  0
TABLE
  2
STYLE
  5
5
330
0
100
AcDbSymbolTable
 70
1
  0
STYLE
  5
29
330
5
100
AcDbSymbolTableRecord
100
AcDbTextStyleTableRecord
  2
Standard
 70
0
 40
0.0
 41
1.0
 50
0.0
 71
0
 42
2.5
  3
txt
  4

  0
ENDTAB
  0
TABLE
  2
VIEW
  5
7
330
0
100
AcDbSymbolTable
 70
0
  0
ENDTAB
  0
TABLE
  2
UCS
  5
6
330
0
100
AcDbSymbolTable
 70
0
  0
ENDTAB
  0
TABLE
  2
APPID
  5
3
330
0
100
AcDbSymbolTable
 70
3
  0
APPID
  5
2A
330
3
100
AcDbSymbolTableRecord
100
AcDbRegAppTableRecord
  2
ACAD
 70
0
  0
APPID
  5
21E
330
3
100
AcDbSymbolTableRecord
100
AcDbRegAppTableRecord
  2
HATCHBACKGROUNDCOLOR
 70
0
  0
APPID
  5
21F
330
3
100
AcDbSymbolTableRecord
100
AcDbRegAppTableRecord
  2
EZDXF
 70
0
  0
ENDTAB
  0
TABLE
  2
DIMSTYLE
  5
4
330
0
100
AcDbSymbolTable
 70
1
100
AcDbDimStyleTable
  0
DIMSTYLE
105
2B
330
4
100
AcDbSymbolTableRecord
100
AcDbDimStyleTableRecord
  2
Standard
 70
0
 40
1.0
 41
2.5
 42
0.625
 43
3.75
 44
1.25
 45
0.0
 46
0.0
 47
0.0
 48
0.0
 49
2.5
140
2.5
141
2.5
142
0.0
143
0.03937007874
144
1.0
145
0.0
146
1.0
147
0.625
148
0.0
 69
0
 70
0
 71
0
 72
0
 73
0
 74
0
 75
0
 76
0
 77
1
 78
8
 79
3
170
0
171
3
172
1
173
0
174
0
175
0
176
0
177
0
178
0
179
2
271
2
272
2
273
2
274
3
275
0
276
0
277
2
278
44
279
0
280
0
281
0
282
0
283
0
284
8
285
0
286
0
288
0
289
3
290
0
371
-2
372
-2
  0
ENDTAB
  0
TABLE
  2
BLOCK_RECORD
  5
9
330
0
100
AcDbSymbolTable
 70
2
  0
BLOCK_RECORD
  5
17
330
9
100
AcDbSymbolTableRecord
100
AcDbBlockTableRecord
  2
*Model_Space
340
1A
 70
0
280
1
281
0
  0
BLOCK_RECORD
  5
1B
330
9
100
AcDbSymbolTableRecord
100
AcDbBlockTableRecord
  2
*Paper_Space
340
1E
 70
0
280
1
281
0
  0
ENDTAB
  0
ENDSEC
  0
SECTION
  2
BLOCKS
  0
BLOCK
  5
18
330
17
100
AcDbEntity
  8
0
100
AcDbBlockBegin
  2
*Model_Space
 70
0
 10
0.0
 20
0.0
 30
0.0
  3
*Model_Space
  1

  0
ENDBLK
  5
19
330
17
100
AcDbEntity
  8
0
100
AcDbBlockEnd
  0
BLOCK
  5
1C
330
1B
100
AcDbEntity
  8
0
100
AcDbBlockBegin
  2
*Paper_Space
 70
0
 10
0.0
 20
0.0
 30
0.0
  3
*Paper_Space
  1

  0
ENDBLK
  5
1D
330
1B
100
AcDbEntity
  8
0
100
AcDbBlockEnd
  0
ENDSEC
  0
SECTION
  2
ENTITIES
  0
CIRCLE
  5
30
330
17
100
AcDbEntity
  8
Holes_T29
100
AcDbCircle
 10
0.3846591377952756
 20
1.1058988188976375
 30
0.0
 40
0.0625
  0
CIRCLE
  5
31
330
17
100
AcDbEntity
  8
Holes_T29
100
AcDbCircle
 10
0.6200585433070867
 20
1.0862311023622044
 30
0.0
 40
0.0625
  0
CIRCLE
  5
32
330
17
100
AcDbEntity
  8
Holes_T29
100
AcDbCircle
 10
0.8556874409448819
 20
1.069559448818897
 30
0.0
 40
0.0625
  0
CIRCLE
  5
33
330
17
100
AcDbEntity
  8
Holes_T29
100
AcDbCircle
 10
1.09159468503937
 20
1.0575003937007872
 30
0.0
 40
0.0625
  0
CIRCLE
  5
34
330
17
100
AcDbEntity
  8
Holes_T29
100
AcDbCircle
 10
1.3277370078740158
 20
1.0518106299212595
 30
0.0
 40
0.0625
  0
CIRCLE
  5
35
330
17
100
AcDbEntity
  8
Holes_T29
100
AcDbCircle
 10
1.5639294881889765
 20
1.0543999999999998
 30
0.0
 40
0.0625
  0
CIRCLE
  5
36
330
17
100
AcDbEntity
  8
Holes_T29
100
AcDbCircle
 10
1.7998376377952758
 20
1.0662440944881884
 30
0.0
 40
0.0625
  0
CIRCLE
  5
37
330
17
100
AcDbEntity
  8
Holes_T29
100
AcDbCircle
 10
2.0350155905511813
 20
1.0881602362204719
 30
0.0
 40
0.0625
  0
CIRCLE
  5
38
330
17
100
AcDbEntity
  8
Holes_T29
100
AcDbCircle
 10
2.267768070866142
 20
1.1275763779527552
 30
0.0
 40
0.0625
  0
CIRCLE
  5
39
330
17
100
AcDbEntity
  8
Holes_T29
100
AcDbCircle
 10
2.20929531496063
 20
1.2164047244094485
 30
0.0
 40
0.0625
  0
CIRCLE
  5
3A
330
17
100
AcDbEntity
  8
Holes_T29
100
AcDbCircle
 10
1.9760455118110236
 20
1.2535539370078737
 30
0.0
 40
0.0625
  0
CIRCLE
  5
3B
330
17
100
AcDbEntity
  8
Holes_T29
100
AcDbCircle
 10
1.7418877165354334
 20
1.2847015748031494
 30
0.0
 40
0.0625
  0
CIRCLE
  5
3C
330
17
100
AcDbEntity
  8
Holes_T29
100
AcDbCircle
 10
1.5079000393700788
 20
1.3170940944881884
 30
0.0
 40
0.0625
  0
CIRCLE
  5
3D
330
17
100
AcDbEntity
  8
Holes_T29
100
AcDbCircle
 10
1.2742178346456694
 20
1.351627952755905
 30
0.0
 40
0.0625
  0
CIRCLE
  5
3E
330
17
100
AcDbEntity
  8
Holes_T29
100
AcDbCircle
 10
1.0405429133858268
 20
1.3862106299212593
 30
0.0
 40
0.0625
  0
CIRCLE
  5
3F
330
17
100
AcDbEntity
  8
Holes_T29
100
AcDbCircle
 10
0.8064340157480315
 20
1.4177070866141728
 30
0.0
 40
0.0625
  0
CIRCLE
  5
40
330
17
100
AcDbEntity
  8
Holes_T29
100
AcDbCircle
 10
0.5735656299212599
 20
1.456712204724409
 30
0.0
 40
0.0625
  0
CIRCLE
  5
41
330
17
100
AcDbEntity
  8
Holes_T29
100
AcDbCircle
 10
0.39773736220472444
 20
1.587813228346456
 30
0.0
 40
0.0625
  0
CIRCLE
  5
42
330
17
100
AcDbEntity
  8
Holes_T29
100
AcDbCircle
 10
0.5756936220472441
 20
1.7199139370078738
 30
0.0
 40
0.0625
  0
CIRCLE
  5
43
330
17
100
AcDbEntity
  8
Holes_T29
100
AcDbCircle
 10
0.8102535039370079
 20
1.7446421259842517
 30
0.0
 40
0.0625
  0
CIRCLE
  5
44
330
17
100
AcDbEntity
  8
Holes_T29
100
AcDbCircle
 10
1.0464376377952758
 20
1.7436853149606295
 30
0.0
 40
0.0625
  0
CIRCLE
  5
45
330
17
100
AcDbEntity
  8
Holes_T29
100
AcDbCircle
 10
1.2824314960629921
 20
1.7334672440944878
 30
0.0
 40
0.0625
  0
CIRCLE
  5
46
330
17
100
AcDbEntity
  8
Holes_T29
100
AcDbCircle
 10
1.5182987007874018
 20
1.7205522440944878
 30
0.0
 40
0.0625
  0
CIRCLE
  5
47
330
17
100
AcDbEntity
  8
Holes_T29
100
AcDbCircle
 10
1.7543643307086614
 20
1.712670748031496
 30
0.0
 40
0.0625
  0
CIRCLE
  5
48
330
17
100
AcDbEntity
  8
Holes_T29
100
AcDbCircle
 10
1.9898201181102364
 20
1.7280735039370074
 30
0.0
 40
0.0625
  0
CIRCLE
  5
49
330
17
100
AcDbEntity
  8
Holes_T29
100
AcDbCircle
 10
2.213345748031496
 20
1.8010059448818896
 30
0.0
 40
0.0625
  0
CIRCLE
  5
4A
330
17
100
AcDbEntity
  8
Holes_T29
100
AcDbCircle
 10
2.3688838976377955
 20
1.9663620078740152
 30
0.0
 40
0.0625
  0
CIRCLE
  5
4B
330
17
100
AcDbEntity
  8
Holes_T29
100
AcDbCircle
 10
2.1759777165354333
 20
2.0716236614173225
 30
0.0
 40
0.0625
  0
CIRCLE
  5
4C
330
17
100
AcDbEntity
  8
Holes_T29
100
AcDbCircle
 10
1.9404904330708663
 20
2.088861614173228
 30
0.0
 40
0.0625
  0
CIRCLE
  5
4D
330
17
100
AcDbEntity
  8
Holes_T29
100
AcDbCircle
 10
1.704302716535433
 20
2.0921961023622044
 30
0.0
 40
0.0625
  0
CIRCLE
  5
4E
330
17
100
AcDbEntity
  8
Holes_T29
100
AcDbCircle
 10
1.4680841732283465
 20
2.0913446850393695
 30
0.0
 40
0.0625
  0
CIRCLE
  5
4F
330
17
100
AcDbEntity
  8
Holes_T29
100
AcDbCircle
 10
1.2318635826771656
 20
2.0910716535433065
 30
0.0
 40
0.0625
  0
CIRCLE
  5
50
330
17
100
AcDbEntity
  8
Holes_T29
100
AcDbCircle
 10
0.9957364566929134
 20
2.097021023622047
 30
0.0
 40
0.0625
  0
CIRCLE
  5
51
330
17
100
AcDbEntity
  8
Holes_T29
100
AcDbCircle
 10
0.760568188976378
 20
2.1184120866141734
 30
0.0
 40
0.0625
  0
CIRCLE
  5
52
330
17
100
AcDbEntity
  8
Holes_T29
100
AcDbCircle
 10
0.5315857874015748
 20
2.174193307086614
 30
0.0
 40
0.0625
  0
CIRCLE
  5
53
330
17
100
AcDbEntity
  8
Holes_T29
100
AcDbCircle
 10
0.36682536220472445
 20
2.330496062992126
 30
0.0
 40
0.0625
  0
CIRCLE
  5
54
330
17
100
AcDbEntity
  8
Holes_T29
100
AcDbCircle
 10
0.4759417322834646
 20
2.5206740944881885
 30
0.0
 40
0.0625
  0
CIRCLE
  5
55
330
17
100
AcDbEntity
  8
Holes_T29
100
AcDbCircle
 10
0.7027610236220473
 20
2.581687244094488
 30
0.0
 40
0.0625
  0
CIRCLE
  5
56
330
17
100
AcDbEntity
  8
Holes_T29
100
AcDbCircle
 10
0.9385601968503937
 20
2.593129921259842
 30
0.0
 40
0.0625
  0
CIRCLE
  5
57
330
17
100
AcDbEntity
  8
Holes_T29
100
AcDbCircle
 10
1.1745590944881892
 20
2.583875708661417
 30
0.0
 40
0.0625
  0
CIRCLE
  5
58
330
17
100
AcDbEntity
  8
Holes_T29
100
AcDbCircle
 10
1.4099632677165355
 20
2.564299803149606
 30
0.0
 40
0.0625
  0
CIRCLE
  5
59
330
17
100
AcDbEntity
  8
Holes_T29
100
AcDbCircle
 10
1.6456029527559057
 20
2.54802153543307
 30
0.0
 40
0.0625
  0
CIRCLE
  5
5A
330
17
100
AcDbEntity
  8
Holes_T29
100
AcDbCircle
 10
1.8817400393700787
 20
2.5481064173228343
 30
0.0
 40
0.0625
  0
CIRCLE
  5
5B
330
17
100
AcDbEntity
  8
Holes_T29
100
AcDbCircle
 10
2.1164098031496064
 20
2.573805196850393
 30
0.0
 40
0.0625
  0
CIRCLE
  5
5C
330
17
100
AcDbEntity
  8
Holes_T29
100
AcDbCircle
 10
2.3461514566929136
 20
2.628129881889764
 30
0.0
 40
0.0625
  0
CIRCLE
  5
5D
330
17
100
AcDbEntity
  8
Holes_T29
100
AcDbCircle
 10
2.5644938582677166
 20
2.7169647244094484
 30
0.0
 40
0.0625
  0
CIRCLE
  5
5E
330
17
100
AcDbEntity
  8
Holes_T29
100
AcDbCircle
 10
2.555477598425197
 20
2.869288228346456
 30
0.0
 40
0.0625
  0
CIRCLE
  5
5F
330
17
100
AcDbEntity
  8
Holes_T29
100
AcDbCircle
 10
2.3235412992125988
 20
2.9125129921259836
 30
0.0
 40
0.0625
  0
CIRCLE
  5
60
330
17
100
AcDbEntity
  8
Holes_T29
100
AcDbCircle
 10
2.0884441732283463
 20
2.9353378346456687
 30
0.0
 40
0.0625
  0
CIRCLE
  5
61
330
17
100
AcDbEntity
  8
Holes_T29
100
AcDbCircle
 10
1.852776102362205
 20
2.951433228346456
 30
0.0
 40
0.0625
  0
CIRCLE
  5
62
330
17
100
AcDbEntity
  8
Holes_T29
100
AcDbCircle
 10
1.6169267322834646
 20
2.964660236220472
 30
0.0
 40
0.0625
  0
CIRCLE
  5
63
330
17
100
AcDbEntity
  8
Holes_T29
100
AcDbCircle
 10
1.3810437007874017
 20
2.97727779527559
 30
0.0
 40
0.0625
  0
CIRCLE
  5
64
330
17
100
AcDbEntity
  8
Holes_T29
100
AcDbCircle
 10
1.1452678346456693
 20
2.99173031496063
 30
0.0
 40
0.0625
  0
CIRCLE
  5
65
330
17
100
AcDbEntity
  8
Holes_T29
100
AcDbCircle
 10
0.9100387401574803
 20
3.0131018503937
 30
0.0
 40
0.0625
  0
CIRCLE
  5
66
330
17
100
AcDbEntity
  8
Holes_T29
100
AcDbCircle
 10
0.6778196850393701
 20
3.0550877952755906
 30
0.0
 40
0.0625
  0
CIRCLE
  5
67
330
17
100
AcDbEntity
  8
Holes_T29
100
AcDbCircle
 10
0.5125625196850394
 20
3.2006229133858266
 30
0.0
 40
0.0625
  0
CIRCLE
  5
68
330
17
100
AcDbEntity
  8
Holes_T29
100
AcDbCircle
 10
0.6171809448818898
 20
3.3984816535433064
 30
0.0
 40
0.0625
  0
CIRCLE
  5
69
330
17
100
AcDbEntity
  8
Holes_T29
100
AcDbCircle
 10
0.8428679921259844
 20
3.459107244094488
 30
0.0
 40
0.0625
  0
CIRCLE
  5
6A
330
17
100
AcDbEntity
  8
Holes_T29
100
AcDbCircle
 10
1.078895905511811
 20
3.4535878346456688
 30
0.0
 40
0.0625
  0
CIRCLE
  5
6B
330
17
100
AcDbEntity
  8
Holes_T29
100
AcDbCircle
 10
1.3145712204724411
 20
3.4375621653543305
 30
0.0
 40
0.0625
  0
CIRCLE
  5
6C
330
17
100
AcDbEntity
  8
Holes_T29
100
AcDbCircle
 10
1.550629251968504
 20
3.430014527559055
 30
0.0
 40
0.0625
  0
CIRCLE
  5
6D
330
17
100
AcDbEntity
  8
Holes_T29
100
AcDbCircle
 10
1.7862225196850394
 20
3.444845748031496
 30
0.0
 40
0.0625
  0
CIRCLE
  5
6E
330
17
100
AcDbEntity
  8
Holes_T29
100
AcDbCircle
 10
2.0163331102362205
 20
3.4967816929133857
 30
0.0
 40
0.0625
  0
CIRCLE
  5
6F
330
17
100
AcDbEntity
  8
Holes_T29
100
AcDbCircle
 10
2.2313772440944883
 20
3.593200708661417
 30
0.0
 40
0.0625
  0
CIRCLE
  5
70
330
17
100
AcDbEntity
  8
Holes_T29
100
AcDbCircle
 10
2.370643267716536
 20
3.770385393700787
 30
0.0
 40
0.0625
  0
CIRCLE
  5
71
330
17
100
AcDbEntity
  8
Holes_T29
100
AcDbCircle
 10
2.1873912992125986
 20
3.8999131102362203
 30
0.0
 40
0.0625
  0
CIRCLE
  5
72
330
17
100
AcDbEntity
  8
Holes_T29
100
AcDbCircle
 10
1.9568016141732285
 20
3.9505991338582676
 30
0.0
 40
0.0625
  0
CIRCLE
  5
73
330
17
100
AcDbEntity
  8
Holes_T29
100
AcDbCircle
 10
1.7232901968503938
 20
3.9862012992125977
 30
0.0
 40
0.0625
  0
CIRCLE
  5
74
330
17
100
AcDbEntity
  8
Holes_T29
100
AcDbCircle
 10
1.4892215748031497
 20
4.018013149606299
 30
0.0
 40
0.0625
  0
CIRCLE
  5
75
330
17
100
AcDbEntity
  8
Holes_T29
100
AcDbCircle
 10
1.255569251968504
 20
4.052697204724409
 30
0.0
 40
0.0625
  0
CIRCLE
  5
76
330
17
100
AcDbEntity
  8
Holes_T29
100
AcDbCircle
 10
1.0243238582677165
 20
4.100467283464567
 30
0.0
 40
0.0625
  0
CIRCLE
  5
77
330
17
100
AcDbEntity
  8
Holes_T29
100
AcDbCircle
 10
0.8064682283464568
 20
4.189207322834646
 30
0.0
 40
0.0625
  0
CIRCLE
  5
78
330
17
100
AcDbEntity
  8
Holes_T29
100
AcDbCircle
 10
0.8455085826771654
 20
4.347140590551181
 30
0.0
 40
0.0625
  0
CIRCLE
  5
79
330
17
100
AcDbEntity
  8
Holes_T29
100
AcDbCircle
 10
1.0793311811023623
 20
4.376325
 30
0.0
 40
0.0625
  0
CIRCLE
  5
7A
330
17
100
AcDbEntity
  8
Holes_T29
100
AcDbCircle
 10
1.315523937007874
 20
4.377960826771653
 30
0.0
 40
0.0625
  0
CIRCLE
  5
7B
330
17
100
AcDbEntity
  8
Holes_T29
100
AcDbCircle
 10
1.551720905511811
 20
4.374703031496063
 30
0.0
 40
0.0625
  0
CIRCLE
  5
7C
330
17
100
AcDbEntity
  8
Holes_T29
100
AcDbCircle
 10
1.7876971653543308
 20
4.381873779527559
 30
0.0
 40
0.0625
  0
CIRCLE
  5
7D
330
17
100
AcDbEntity
  8
Holes_T29
100
AcDbCircle
 10
1.7645462992125986
 20
4.510270787401574
 30
0.0
 40
0.0625
  0
CIRCLE
  5
7E
330
17
100
AcDbEntity
  8
Holes_T29
100
AcDbCircle
 10
1.5587205905511814
 20
4.626134488188976
 30
0.0
 40
0.0625
  0
CIRCLE
  5
7F
330
17
100
AcDbEntity
  8
Holes_T29
100
AcDbCircle
 10
1.3538395275590551
 20
4.743647519685039
 30
0.0
 40
0.0625
  0
CIRCLE
  5
80
330
17
100
AcDbEntity
  8
Holes_T29
100
AcDbCircle
 10
1.1684884251968504
 20
4.888785275590551
 30
0.0
 40
0.0625
  0
CIRCLE
  5
81
330
17
100
AcDbEntity
  8
Holes_T29
100
AcDbCircle
 10
1.1256652362204724
 20
5.100402559055118
 30
0.0
 40
0.0625
  0
CIRCLE
  5
82
330
17
100
AcDbEntity
  8
Holes_T29
100
AcDbCircle
 10
1.346892559055118
 20
5.10596811023622
 30
0.0
 40
0.0625
  0
CIRCLE
  5
83
330
17
100
AcDbEntity
  8
Holes_T29
100
AcDbCircle
 10
1.5562789370078742
 20
4.996898267716535
 30
0.0
 40
0.0625
  0
CIRCLE
  5
84
330
17
100
AcDbEntity
  8
Holes_T29
100
AcDbCircle
 10
1.763053503937008
 20
4.882712992125984
 30
0.0
 40
0.0625
  0
CIRCLE
  5
85
330
17
100
AcDbEntity
  8
Holes_T29
100
AcDbCircle
 10
1.9764296850393703
 20
4.7815131102362205
 30
0.0
 40
0.0625
  0
CIRCLE
  5
86
330
17
100
AcDbEntity
  8
Holes_T29
100
AcDbCircle
 10
2.1981705905511815
 20
4.700436102362205
 30
0.0
 40
0.0625
  0
CIRCLE
  5
87
330
17
100
AcDbEntity
  8
Holes_T29
100
AcDbCircle
 10
2.429684566929134
 20
4.656497834645669
 30
0.0
 40
0.0625
  0
CIRCLE
  5
88
330
17
100
AcDbEntity
  8
Holes_T29
100
AcDbCircle
 10
2.6456046062992127
 20
4.729950511811023
 30
0.0
 40
0.0625
  0
CIRCLE
  5
89
330
17
100
AcDbEntity
  8
Holes_T29
100
AcDbCircle
 10
2.7649169291338587
 20
4.932832322834646
 30
0.0
 40
0.0625
  0
CIRCLE
  5
8A
330
17
100
AcDbEntity
  8
Holes_T29
100
AcDbCircle
 10
2.92211062992126
 20
5.1024418503937
 30
0.0
 40
0.0625
  0
CIRCLE
  5
8B
330
17
100
AcDbEntity
  8
Holes_T29
100
AcDbCircle
 10
3.1536791338582675
 20
5.134184980314961
 30
0.0
 40
0.0625
  0
CIRCLE
  5
8C
330
17
100
AcDbEntity
  8
Holes_T29
100
AcDbCircle
 10
3.380774881889764
 20
5.073656653543307
 30
0.0
 40
0.0625
  0
CIRCLE
  5
8D
330
17
100
AcDbEntity
  8
Holes_T29
100
AcDbCircle
 10
3.568648385826772
 20
4.932693031496062
 30
0.0
 40
0.0625
  0
CIRCLE
  5
8E
330
17
100
AcDbEntity
  8
Holes_T29
100
AcDbCircle
 10
3.7493045275590555
 20
4.783755590551181
 30
0.0
 40
0.0625
  0
CIRCLE
  5
8F
330
17
100
AcDbEntity
  8
Holes_T29
100
AcDbCircle
 10
3.9788984251968507
 20
4.814113267716535
 30
0.0
 40
0.0625
  0
CIRCLE
  5
90
330
17
100
AcDbEntity
  8
Holes_T29
100
AcDbCircle
 10
4.200522440944882
 20
4.89577248031496
 30
0.0
 40
0.0625
  0
CIRCLE
  5
91
330
17
100
AcDbEntity
  8
Holes_T29
100
AcDbCircle
 10
4.431514960629921
 20
4.942488937007874
 30
0.0
 40
0.0625
  0
CIRCLE
  5
92
330
17
100
AcDbEntity
  8
Holes_T29
100
AcDbCircle
 10
4.667557874015748
 20
4.949418503937008
 30
0.0
 40
0.0625
  0
CIRCLE
  5
93
330
17
100
AcDbEntity
  8
Holes_T29
100
AcDbCircle
 10
4.9037216535433075
 20
4.953178464566929
 30
0.0
 40
0.0625
  0
CIRCLE
  5
94
330
17
100
AcDbEntity
  8
Holes_T29
100
AcDbCircle
 10
5.138325984251968
 20
4.979281102362204
 30
0.0
 40
0.0625
  0
CIRCLE
  5
95
330
17
100
AcDbEntity
  8
Holes_T29
100
AcDbCircle
 10
5.3696822834645666
 20
5.026897125984251
 30
0.0
 40
0.0625
  0
CIRCLE
  5
96
330
17
100
AcDbEntity
  8
Holes_T29
100
AcDbCircle
 10
5.601161023622047
 20
5.073947125984252
 30
0.0
 40
0.0625
  0
CIRCLE
  5
97
330
17
100
AcDbEntity
  8
Holes_T29
100
AcDbCircle
 10
5.834203543307087
 20
5.112476519685039
 30
0.0
 40
0.0625
  0
CIRCLE
  5
98
330
17
100
AcDbEntity
  8
Holes_T29
100
AcDbCircle
 10
6.068573622047245
 20
5.141880594488189
 30
0.0
 40
0.0625
  0
CIRCLE
  5
99
330
17
100
AcDbEntity
  8
Holes_T29
100
AcDbCircle
 10
6.303812598425197
 20
5.163286755905512
 30
0.0
 40
0.0625
  0
CIRCLE
  5
9A
330
17
100
AcDbEntity
  8
Holes_T29
100
AcDbCircle
 10
6.539566535433071
 20
5.1780056181102365
 30
0.0
 40
0.0625
  0
CIRCLE
  5
9B
330
17
100
AcDbEntity
  8
Holes_T29
100
AcDbCircle
 10
6.775587007874016
 20
5.187705437007875
 30
0.0
 40
0.0625
  0
CIRCLE
  5
9C
330
17
100
AcDbEntity
  8
Holes_T29
100
AcDbCircle
 10
7.011725590551181
 20
5.193936988188976
 30
0.0
 40
0.0625
  0
CIRCLE
  5
9D
330
17
100
AcDbEntity
  8
Holes_T29
100
AcDbCircle
 10
7.247914566929134
 20
5.197641417322834
 30
0.0
 40
0.0625
  0
CIRCLE
  5
9E
330
17
100
AcDbEntity
  8
Holes_T29
100
AcDbCircle
 10
7.484113385826773
 20
5.199430090551181
 30
0.0
 40
0.0625
  0
CIRCLE
  5
9F
330
17
100
AcDbEntity
  8
Holes_T29
100
AcDbCircle
 10
7.720336614173229
 20
5.199729047244094
 30
0.0
 40
0.0625
  0
CIRCLE
  5
A0
330
17
100
AcDbEntity
  8
Holes_T29
100
AcDbCircle
 10
7.956555511811024
 20
5.198851602362204
 30
0.0
 40
0.0625
  0
CIRCLE
  5
A1
330
17
100
AcDbEntity
  8
Holes_T29
100
AcDbCircle
 10
8.192772047244095
 20
5.197038460629922
 30
0.0
 40
0.0625
  0
CIRCLE
  5
A2
330
17
100
AcDbEntity
  8
Holes_T29
100
AcDbCircle
 10
8.42899094488189
 20
5.194481622047244
 30
0.0
 40
0.0625
  0
CIRCLE
  5
A3
330
17
100
AcDbEntity
  8
Holes_T29
100
AcDbCircle
 10
8.665187401574805
 20
5.1913394842519685
 30
0.0
 40
0.0625
  0
CIRCLE
  5
A4
330
17
100
AcDbEntity
  8
Holes_T29
100
AcDbCircle
 10
8.901374015748031
 20
5.187746905511811
 30
0.0
 40
0.0625
  0
CIRCLE
  5
A5
330
17
100
AcDbEntity
  8
Holes_T29
100
AcDbCircle
 10
9.137562204724409
 20
5.18382225984252
 30
0.0
 40
0.0625
  0
CIRCLE
  5
A6
330
17
100
AcDbEntity
  8
Holes_T29
100
AcDbCircle
 10
9.373762598425197
 20
5.179672602362205
 30
0.0
 40
0.0625
  0
CIRCLE
  5
A7
330
17
100
AcDbEntity
  8
Holes_T29
100
AcDbCircle
 10
9.609946456692914
 20
5.175397728346456
 30
0.0
 40
0.0625
  0
SPLINE
  5
A9
330
17
100
AcDbEntity
  8
TrackPath_T29
100
AcDbSpline
 70
0
 71
3
 72
0
 73
0
 74
110
 11
0.25674114371754764
 21
1.2771439020363424
 31
0.0
 11
0.45503233290135325
 21
1.2871697762958703
 31
0.0
 11
0.6323658139423004
 21
1.2457570597782677
 31
0.0
 11
0.8239835008211557
 21
1.244381615233943
 31
0.0
 11
1.057884925613994
 21
1.2225854480659262
 31
0.0
 11
1.2897987770844495
 21
1.2025783095878486
 31
0.0
 11
1.4852339918429425
 21
1.158707698956572
 31
0.0
 11
1.2897987770844495
 21
1.2025783095878486
 31
0.0
 11
1.057884925613994
 21
1.2225854480659262
 31
0.0
 11
0.8239835008211557
 21
1.244381615233943
 31
0.0
 11
0.45503233290135325
 21
1.2871697762958703
 31
0.0
 11
0.23774259135644432
 21
1.5891067897892703
 31
0.0
 11
0.5188357293697029
 21
1.8694705484975342
 31
0.0
 11
0.7682550688360734
 21
1.9325086605818766
 31
0.0
 11
1.018346740703696
 21
1.920465047621983
 31
0.0
 11
1.2601035349428749
 21
1.9121792590464812
 31
0.0
 11
1.4969037574700406
 21
1.9058711293390922
 31
0.0
 11
1.7276371105180002
 21
1.9024243547944844
 31
0.0
 11
1.9465500636422537
 21
1.9071018515267157
 31
0.0
 11
2.157633679307515
 21
1.933382605605901
 31
0.0
 11
2.1564679960893254
 21
1.9326738262057637
 31
0.0
 11
2.1564679960893254
 21
1.9326738262057637
 31
0.0
 11
1.9465500636422537
 21
1.9071018515267157
 31
0.0
 11
1.7276371105180002
 21
1.9024243547944844
 31
0.0
 11
1.4969037574700406
 21
1.9058711293390922
 31
0.0
 11
1.2601035349428749
 21
1.9121792590464812
 31
0.0
 11
1.018346740703696
 21
1.920465047621983
 31
0.0
 11
0.7682550688360734
 21
1.9325086605818766
 31
0.0
 11
0.4557107882587269
 21
2.0333281783106365
 31
0.0
 11
0.2088496210412594
 21
2.305125505176936
 31
0.0
 11
0.38012750335285844
 21
2.648813212381334
 31
0.0
 11
0.6780034568800615
 21
2.7397602110718178
 31
0.0
 11
0.9131835101867801
 21
2.8038398865237384
 31
0.0
 11
1.1587298111605155
 21
2.7878842159313857
 31
0.0
 11
1.3969913108872618
 21
2.77068948818842
 31
0.0
 11
1.629632809789233
 21
2.756413594064278
 31
0.0
 11
1.857918046116393
 21
2.749804367745512
 31
0.0
 11
2.08225079582233
 21
2.753681682622401
 31
0.0
 11
2.299296974522524
 21
2.7673148078270597
 31
0.0
 11
2.299296974522524
 21
2.7673148078270597
 31
0.0
 11
2.08225079582233
 21
2.753681682622401
 31
0.0
 11
1.857918046116393
 21
2.749804367745512
 31
0.0
 11
1.629632809789233
 21
2.756413594064278
 31
0.0
 11
1.3969913108872618
 21
2.77068948818842
 31
0.0
 11
1.1587298111605155
 21
2.7878842159313857
 31
0.0
 11
0.9131835101867801
 21
2.8038398865237384
 31
0.0
 11
0.6095510842171212
 21
2.9103832751603833
 31
0.0
 11
0.3550002784899716
 21
3.172799539226906
 31
0.0
 11
0.5185753146781183
 21
3.5244853427437306
 31
0.0
 11
0.8239063920980738
 21
3.617979701507287
 31
0.0
 11
1.0861963058472375
 21
3.6134211983559483
 31
0.0
 11
1.3225567246602514
 21
3.597362765237017
 31
0.0
 11
1.548158710071784
 21
3.58999545274308
 31
0.0
 11
1.7635157690181789
 21
3.6032263133611884
 31
0.0
 11
1.9657458583308929
 21
3.6485740838447724
 31
0.0
 11
2.1574830568190384
 21
3.7398372515991234
 31
0.0
 11
2.155938867347711
 21
3.7404454925721926
 31
0.0
 11
2.155938867347711
 21
3.7404454925721926
 31
0.0
 11
1.9275547598605522
 21
3.7932949015159267
 31
0.0
 11
1.7004580532928466
 21
3.827838761911102
 31
0.0
 11
1.4667008280587113
 21
3.8596060286613336
 31
0.0
 11
1.22762776267127
 21
3.8951558667338597
 31
0.0
 11
0.9777919118808617
 21
3.947383064926368
 31
0.0
 11
0.6769248495854623
 21
4.095300384756645
 31
0.0
 11
0.7550202130250074
 21
4.479094578583731
 31
0.0
 11
1.068862012044919
 21
4.535982121667799
 31
0.0
 11
1.2902869454406585
 21
4.574436250316637
 31
0.0
 11
1.4796738077100346
 21
4.48702443778835
 31
0.0
 11
1.2902869454406585
 21
4.574436250316637
 31
0.0
 11
1.0336994587184987
 21
4.802576607141852
 31
0.0
 11
1.0020301379127898
 21
5.201962208849953
 31
0.0
 11
1.3842858610338837
 21
5.261537197676897
 31
0.0
 11
1.6319164181816408
 21
5.137891074063838
 31
0.0
 11
1.8360435694667816
 21
5.025094347415078
 31
0.0
 11
2.038250694400033
 21
4.929087372225325
 31
0.0
 11
2.240712730445971
 21
4.85467671417755
 31
0.0
 11
2.4191532597921523
 21
4.8161508695995545
 31
0.0
 11
2.5438342280996906
 21
4.8534122067658805
 31
0.0
 11
2.636444599076933
 21
5.028199300398917
 31
0.0
 11
2.8485254859528224
 21
5.244516572238032
 31
0.0
 11
3.1637008178471424
 21
5.293870815159593
 31
0.0
 11
3.450661401618687
 21
5.217586755885308
 31
0.0
 11
3.667571985715048
 21
5.058447241704485
 31
0.0
 11
3.793732687172286
 21
4.937463555970613
 31
0.0
 11
3.940347881715427
 21
4.969399634140915
 31
0.0
 11
4.156863746082446
 21
5.049700769992032
 31
0.0
 11
4.413256616405465
 21
5.101443750921078
 31
0.0
 11
4.663936819138012
 21
5.109377523568827
 31
0.0
 11
4.89359260791824
 21
5.112857525294143
 31
0.0
 11
5.113323684050093
 21
5.137315544762003
 31
0.0
 11
5.337620439540268
 21
5.183651832976335
 31
0.0
 11
5.572171860923442
 21
5.231299051444457
 31
0.0
 11
5.811191021492752
 21
5.27081294581543
 31
0.0
 11
6.0513625687317925
 21
5.300952212458752
 31
0.0
 11
6.291576582076889
 21
5.322818194512214
 31
0.0
 11
6.531296129189954
 21
5.337791726331739
 31
0.0
 11
6.770191433215317
 21
5.347614435422918
 31
0.0
 11
7.008360541899186
 21
5.353901598173715
 31
0.0
 11
7.246054152729236
 21
5.357630600891614
 31
0.0
 11
7.4834063537818
 21
5.359428528373828
 31
0.0
 11
7.720532528203242
 21
5.359728927299339
 31
0.0
 11
7.957466719664726
 21
5.358849007654438
 31
0.0
 11
8.194251967867116
 21
5.357031616217745
 31
0.0
 11
8.430920962335039
 21
5.35446998110074
 31
0.0
 11
8.667468273217798
 21
5.351323226002648
 31
0.0
 11
8.903919883203718
 21
5.34772664972619
 31
0.0
 11
9.140296605761339
 21
5.343798892670471
 31
0.0
 11
9.376615595171977
 21
5.339647164119888
 31
0.0
 11
9.612841945989084
 21
5.335371526643977
 31
0.0
 11
9.754552260949714
 21
5.3328066022345295
 31
0.0
  0
SPLINE
  5
AA
330
17
100
AcDbEntity
  8
TrackPath_T29
100
AcDbSpline
 70
0
 71
3
 72
0
 73
0
 74
120
 11
0.23009784525883048
 21
0.9582549956014529
 31
0.0
 11
0.3713374885659172
 21
0.9464543656801927
 31
0.0
 11
0.6077512726718729
 21
0.9267051449461412
 31
0.0
 11
0.8459566828575622
 21
0.9098556218545877
 31
0.0
 11
1.085583015930733
 21
0.897613371605408
 31
0.0
 11
1.326686794545383
 21
0.8918140766709961
 31
0.0
 11
1.5688188606325348
 21
0.89447472358283
 31
0.0
 11
1.811274655426645
 21
0.906653384772053
 31
0.0
 11
2.0558091568868675
 21
0.9295171538026008
 31
0.0
 11
2.36259739536259
 21
0.9987066793593798
 31
0.0
 11
2.2727278165608027
 21
1.363293518198301
 31
0.0
 11
1.999178805372873
 21
1.4118727632067225
 31
0.0
 11
1.760161481836966
 21
1.4979694872639762
 31
0.0
 11
1.5209104802373925
 21
1.5180939288776243
 31
0.0
 11
1.2861111069866404
 21
1.5417828225563905
 31
0.0
 11
1.0527871799617063
 21
1.5641839422818213
 31
0.0
 11
0.8243210224570541
 21
1.5803799773494682
 31
0.0
 11
0.6076903063293695
 21
1.5876249690567483
 31
0.0
 11
0.6088203612564338
 21
1.5868400761686332
 31
0.0
 11
0.6088203612564338
 21
1.5868400761686332
 31
0.0
 11
0.8243210224570541
 21
1.5803799773494682
 31
0.0
 11
1.0527871799617063
 21
1.5641839422818213
 31
0.0
 11
1.2861111069866404
 21
1.5417828225563905
 31
0.0
 11
1.5209104802373925
 21
1.5180939288776243
 31
0.0
 11
1.760161481836966
 21
1.4979694872639762
 31
0.0
 11
2.0200586563551264
 21
1.5709568886322844
 31
0.0
 11
2.298498277799216
 21
1.6655472918760457
 31
0.0
 11
2.52737999056055
 21
1.9882478144212186
 31
0.0
 11
2.2199667845635194
 21
2.225457864031762
 31
0.0
 11
1.947462318722572
 21
2.2487096445347547
 31
0.0
 11
1.7051436999946232
 21
2.252193892180756
 31
0.0
 11
1.4677033595138458
 21
2.2513442318540866
 31
0.0
 11
1.2337862099463732
 21
2.251060101577481
 31
0.0
 11
1.0050026773372474
 21
2.256752476864577
 31
0.0
 11
0.7868104321264704
 21
2.2762453678778263
 31
0.0
 11
0.5678887625368576
 21
2.3532976684162312
 31
0.0
 11
0.5680645442949127
 21
2.3550811824243594
 31
0.0
 11
0.5680645442949127
 21
2.3550811824243594
 31
0.0
 11
0.7275185903640331
 21
2.423614277117158
 31
0.0
 11
0.9393023587738654
 21
2.4331316425326026
 31
0.0
 11
1.1647920466854806
 21
2.4241740969687995
 31
0.0
 11
1.3978197673043842
 21
2.4047612955793642
 31
0.0
 11
1.6401143043729358
 21
2.3881157045858865
 31
0.0
 11
1.8904893031101029
 21
2.3883458139689178
 31
0.0
 11
2.143579258158553
 21
2.416128880573925
 31
0.0
 11
2.3948454144296187
 21
2.475719585387408
 31
0.0
 11
2.6853241677794943
 21
2.612083666523441
 31
0.0
 11
2.65630231017227
 21
2.9935233984921106
 31
0.0
 11
2.345946148336358
 21
3.070936546989967
 31
0.0
 11
2.1016271029526923
 21
3.094793817173396
 31
0.0
 11
1.8627068881216784
 21
3.111124741878639
 31
0.0
 11
1.6256794461273387
 21
3.1244206505926413
 31
0.0
 11
1.3902115479289665
 21
3.1370149248941885
 31
0.0
 11
1.1574021892612052
 21
3.151269518412523
 31
0.0
 11
0.9315284948683225
 21
3.171652127727005
 31
0.0
 11
0.7105065395317375
 21
3.2323563836162448
 31
0.0
 11
0.7107465411478249
 21
3.234180091831092
 31
0.0
 11
0.7107465411478249
 21
3.234180091831092
 31
0.0
 11
0.861829592153895
 21
3.3002347866816892
 31
0.0
 11
1.0715955051763846
 21
3.293754470935389
 31
0.0
 11
1.3065857162846308
 21
3.277761565471644
 31
0.0
 11
1.5530997938652242
 21
3.27003360237503
 31
0.0
 11
1.8089292703519
 21
3.286465182701803
 31
0.0
 11
2.066920362141548
 21
3.344989301981999
 31
0.0
 11
2.329168238857359
 21
3.4665637419286015
 31
0.0
 11
2.5290228817000653
 21
3.793098779058945
 31
0.0
 11
2.2512717099753607
 21
4.0466076674657945
 31
0.0
 11
1.9860484684859048
 21
4.107903366200608
 31
0.0
 11
1.746122340407941
 21
4.144563836514093
 31
0.0
 11
1.5323945597815392
 21
4.195564397931653
 31
0.0
 11
1.2992426576423766
 21
4.214100156306717
 31
0.0
 11
0.9359969523293235
 21
4.215186602518631
 31
0.0
 11
1.0898003501598055
 21
4.2166678783322
 31
0.0
 11
1.2992426576423766
 21
4.214100156306717
 31
0.0
 11
1.5323945597815392
 21
4.195564397931653
 31
0.0
 11
1.8736574472435703
 21
4.246926271445629
 31
0.0
 11
1.8979425906476843
 21
4.626817839384264
 31
0.0
 11
1.6639154058997814
 21
4.752788087713245
 31
0.0
 11
1.461909960033817
 21
4.866143941875434
 31
0.0
 11
1.2866671112187642
 21
4.975506112945322
 31
0.0
 11
1.2877049360304729
 21
4.974364881574877
 31
0.0
 11
1.2877049360304729
 21
4.974364881574877
 31
0.0
 11
1.461909960033817
 21
4.866143941875434
 31
0.0
 11
1.6639154058997814
 21
4.752788087713245
 31
0.0
 11
1.8979425906476843
 21
4.626817839384264
 31
0.0
 11
2.155628450656392
 21
4.546195490546859
 31
0.0
 11
2.4402158740661153
 21
4.496844799691783
 31
0.0
 11
2.7473749844987347
 21
4.606488816856166
 31
0.0
 11
2.8933892591907844
 21
4.837465345270374
 31
0.0
 11
2.9956957738896977
 21
4.960367128549368
 31
0.0
 11
3.1436574498693926
 21
4.974499145470329
 31
0.0
 11
3.310888362160841
 21
4.929726551201306
 31
0.0
 11
3.469724785938496
 21
4.806938821287639
 31
0.0
 11
3.704876367945825
 21
4.630047625131748
 31
0.0
 11
4.017448968678274
 21
4.658826901292155
 31
0.0
 11
4.244181135807318
 21
4.741844190637888
 31
0.0
 11
4.449773304854378
 21
4.78353412309467
 31
0.0
 11
4.671178928893484
 21
4.78945948430519
 31
0.0
 11
4.913850699168375
 21
4.793499403839715
 31
0.0
 11
5.163328284453843
 21
4.821246659962406
 31
0.0
 11
5.401744127388865
 21
4.870142418992168
 31
0.0
 11
5.630150186320652
 21
4.916595200524047
 31
0.0
 11
5.857216065121422
 21
4.954140093554648
 31
0.0
 11
6.085784675362697
 21
4.982808976517626
 31
0.0
 11
6.316048614773505
 21
5.003755317298809
 31
0.0
 11
6.547836941676188
 21
5.018219509888734
 31
0.0
 11
6.780982582532715
 21
5.027796438592831
 31
0.0
 11
7.0150906392031755
 21
5.033972378204237
 31
0.0
 11
7.249774981129031
 21
5.037652233754054
 31
0.0
 11
7.484820417871746
 21
5.039431652728535
 31
0.0
 11
7.720140700143216
 21
5.039729167188848
 31
0.0
 11
7.955644303957321
 21
5.03885419706997
 31
0.0
 11
8.191292126621073
 21
5.037045305042098
 31
0.0
 11
8.427060927428743
 21
5.034493262993747
 31
0.0
 11
8.662906529931812
 21
5.0313557425012885
 31
0.0
 11
8.898828148292344
 21
5.027767161297432
 31
0.0
 11
9.134827803687479
 21
5.023845627014569
 31
0.0
 11
9.370909601678417
 21
5.0196980406045215
 31
0.0
 11
9.607050967396743
 21
5.015423930048936
 31
0.0
 11
9.748761282357373
 21
5.012859005639489
 31
0.0
  0
LWPOLYLINE
  5
AC
330
17
100
AcDbEntity
  8
NumMarks_T29
100
AcDbPolyline
 90
2
 70
0
 10
1.3265883370458238
 20
0.876814399803784
 10
1.3288856787022079
 20
1.2268068600387352
  0
LWPOLYLINE
  5
AD
330
17
100
AcDbEntity
  8
NumMarks_T29
100
AcDbPolyline
 90
2
 70
0
 10
2.278674613585819
 20
1.377064342616006
 10
2.139916016335441
 20
1.0557451062028909
  0
LWPOLYLINE
  5
AE
330
17
100
AcDbEntity
  8
NumMarks_T29
100
AcDbPolyline
 90
2
 70
0
 10
1.0650203999703465
 20
1.55949032478048
 10
1.0160654268013072
 20
1.2129309350620385
  0
LWPOLYLINE
  5
AF
330
17
100
AcDbEntity
  8
NumMarks_T29
100
AcDbPolyline
 90
2
 70
0
 10
0.8190793140366998
 20
1.5698648246088038
 10
0.801427693837316
 20
1.9194194273596996
  0
LWPOLYLINE
  5
B0
330
17
100
AcDbEntity
  8
NumMarks_T29
100
AcDbPolyline
 90
2
 70
0
 10
2.0228935193155846
 20
1.5562272059474667
 10
1.9567467169048882
 20
1.8999198019265482
  0
LWPOLYLINE
  5
B1
330
17
100
AcDbEntity
  8
NumMarks_T29
100
AcDbPolyline
 90
2
 70
0
 10
1.7052225421939222
 20
2.2671936849762453
 10
1.7033828908769437
 20
1.9171985197481638
  0
LWPOLYLINE
  5
B2
330
17
100
AcDbEntity
  8
NumMarks_T29
100
AcDbPolyline
 90
2
 70
0
 10
0.6145740677140648
 20
2.32826454168534
 10
0.4485975070890849
 20
2.0201220724878883
  0
LWPOLYLINE
  5
B3
330
17
100
AcDbEntity
  8
NumMarks_T29
100
AcDbPolyline
 90
2
 70
0
 10
1.1638763859539767
 20
2.4092020708726167
 10
1.1852418030224017
 20
2.7585493464502173
  0
LWPOLYLINE
  5
B4
330
17
100
AcDbEntity
  8
NumMarks_T29
100
AcDbPolyline
 90
2
 70
0
 10
2.399410472967435
 20
2.4614311200903125
 10
2.292892440418392
 20
2.794828643689215
  0
LWPOLYLINE
  5
B5
330
17
100
AcDbEntity
  8
NumMarks_T29
100
AcDbPolyline
 90
2
 70
0
 10
1.863637899286629
 20
3.1260958212722816
 10
1.841914305437781
 20
2.7767706354206307
  0
LWPOLYLINE
  5
B6
330
17
100
AcDbEntity
  8
NumMarks_T29
100
AcDbPolyline
 90
2
 70
0
 10
0.7524884671887047
 20
3.2133583641515986
 10
0.6031509028900355
 20
2.8968172263995826
  0
LWPOLYLINE
  5
B7
330
17
100
AcDbEntity
  8
NumMarks_T29
100
AcDbPolyline
 90
2
 70
0
 10
1.3058370752670236
 20
3.2627802592326423
 10
1.3233053656778586
 20
3.6123440714760187
  0
LWPOLYLINE
  5
B8
330
17
100
AcDbEntity
  8
NumMarks_T29
100
AcDbPolyline
 90
2
 70
0
 10
2.5438709705110214
 20
3.795228158936272
 10
2.1974155649220504
 20
3.7455426284653024
  0
LWPOLYLINE
  5
B9
330
17
100
AcDbEntity
  8
NumMarks_T29
100
AcDbPolyline
 90
2
 70
0
 10
1.2861302558873537
 20
4.225008043151573
 10
1.2250082480496542
 20
3.8803863662972455
  0
LWPOLYLINE
  5
BA
330
17
100
AcDbEntity
  8
NumMarks_T29
100
AcDbPolyline
 90
2
 70
0
 10
1.3149230712388094
 20
4.202961858316614
 10
1.3161248027769386
 20
4.552959795226691
  0
LWPOLYLINE
  5
BB
330
17
100
AcDbEntity
  8
NumMarks_T29
100
AcDbPolyline
 90
2
 70
0
 10
1.451553989546758
 20
4.888826319509441
 10
1.2561250655713523
 20
4.598468719860637
  0
LWPOLYLINE
  5
BC
330
17
100
AcDbEntity
  8
NumMarks_T29
100
AcDbPolyline
 90
2
 70
0
 10
1.6832206197638184
 20
4.726983384778537
 10
1.8428863881101978
 20
5.038442599473431
  0
LWPOLYLINE
  5
BD
330
17
100
AcDbEntity
  8
NumMarks_T29
100
AcDbPolyline
 90
2
 70
0
 10
2.9054335401336213
 20
4.828524691123723
 10
2.624400318134096
 20
5.037139954545568
  0
LWPOLYLINE
  5
BE
330
17
100
AcDbEntity
  8
NumMarks_T29
100
AcDbPolyline
 90
2
 70
0
 10
3.7007112279820844
 20
4.6156375033736765
 10
3.7978978271360266
 20
4.951873677728685
  0
LWPOLYLINE
  5
BF
330
17
100
AcDbEntity
  8
NumMarks_T29
100
AcDbPolyline
 90
2
 70
0
 10
4.9148002971957245
 20
4.778529491896539
 10
4.89264300989089
 20
5.127827437237319
  0
LWPOLYLINE
  5
C0
330
17
100
AcDbEntity
  8
NumMarks_T29
100
AcDbPolyline
 90
2
 70
0
 10
6.087398211611021
 20
4.967896012332886
 10
6.049749032483469
 20
5.3158651766434915
  0
LWPOLYLINE
  5
C1
330
17
100
AcDbEntity
  8
NumMarks_T29
100
AcDbPolyline
 90
2
 70
0
 10
7.249949394960272
 20
5.022653247794481
 10
7.245879738897996
 20
5.372629586851187
  0
LWPOLYLINE
  5
C2
330
17
100
AcDbEntity
  8
NumMarks_T29
100
AcDbPolyline
 90
2
 70
0
 10
8.42687998829251
 20
5.0194943543324815
 10
8.431101901471271
 20
5.369468889762006
  0
LWPOLYLINE
  5
C3
330
17
100
AcDbEntity
  8
NumMarks_T29
100
AcDbPolyline
 90
2
 70
0
 10
9.606779515275226
 20
5.000426386458543
 10
9.6131133981106
 20
5.350369070234369
  0
CIRCLE
  5
C5
330
17
100
AcDbEntity
  8
Holes_T30
100
AcDbCircle
 10
0.19012867322834645
 20
0.7196220472440942
 30
0.0
 40
0.0625
  0
CIRCLE
  5
C6
330
17
100
AcDbEntity
  8
Holes_T30
100
AcDbCircle
 10
0.42502311023622047
 20
0.6946279527559052
 30
0.0
 40
0.0625
  0
CIRCLE
  5
C7
330
17
100
AcDbEntity
  8
Holes_T30
100
AcDbCircle
 10
0.6599983070866142
 20
0.6704086614173222
 30
0.0
 40
0.0625
  0
CIRCLE
  5
C8
330
17
100
AcDbEntity
  8
Holes_T30
100
AcDbCircle
 10
0.8951348818897639
 20
0.647812204724409
 30
0.0
 40
0.0625
  0
CIRCLE
  5
C9
330
17
100
AcDbEntity
  8
Holes_T30
100
AcDbCircle
 10
1.1305087007874017
 20
0.627851574803149
 30
0.0
 40
0.0625
  0
CIRCLE
  5
CA
330
17
100
AcDbEntity
  8
Holes_T30
100
AcDbCircle
 10
1.3661824015748034
 20
0.6118492125984247
 30
0.0
 40
0.0625
  0
CIRCLE
  5
CB
330
17
100
AcDbEntity
  8
Holes_T30
100
AcDbCircle
 10
1.60217562992126
 20
0.6016944881889759
 30
0.0
 40
0.0625
  0
CIRCLE
  5
CC
330
17
100
AcDbEntity
  8
Holes_T30
100
AcDbCircle
 10
1.8383713779527562
 20
0.6003814960629916
 30
0.0
 40
0.0625
  0
CIRCLE
  5
CD
330
17
100
AcDbEntity
  8
Holes_T30
100
AcDbCircle
 10
2.074178188976378
 20
0.6133188976377947
 30
0.0
 40
0.0625
  0
CIRCLE
  5
CE
330
17
100
AcDbEntity
  8
Holes_T30
100
AcDbCircle
 10
2.306915
 20
0.6523125984251965
 30
0.0
 40
0.0625
  0
CIRCLE
  5
CF
330
17
100
AcDbEntity
  8
Holes_T30
100
AcDbCircle
 10
2.523243385826772
 20
0.7445633858267714
 30
0.0
 40
0.0625
  0
CIRCLE
  5
D0
330
17
100
AcDbEntity
  8
Holes_T30
100
AcDbCircle
 10
2.6836479921259846
 20
0.9148452755905507
 30
0.0
 40
0.0625
  0
CIRCLE
  5
D1
330
17
100
AcDbEntity
  8
Holes_T30
100
AcDbCircle
 10
2.755968937007874
 20
1.1383692913385821
 30
0.0
 40
0.0625
  0
CIRCLE
  5
D2
330
17
100
AcDbEntity
  8
Holes_T30
100
AcDbCircle
 10
2.777758070866142
 20
1.3735173228346456
 30
0.0
 40
0.0625
  0
CIRCLE
  5
D3
330
17
100
AcDbEntity
  8
Holes_T30
100
AcDbCircle
 10
2.7964518110236223
 20
1.6089901181102362
 30
0.0
 40
0.0625
  0
CIRCLE
  5
D4
330
17
100
AcDbEntity
  8
Holes_T30
100
AcDbCircle
 10
2.7964962992125986
 20
1.8450700787401568
 30
0.0
 40
0.0625
  0
CIRCLE
  5
D5
330
17
100
AcDbEntity
  8
Holes_T30
100
AcDbCircle
 10
2.779221062992126
 20
2.0806547244094484
 30
0.0
 40
0.0625
  0
CIRCLE
  5
D6
330
17
100
AcDbEntity
  8
Holes_T30
100
AcDbCircle
 10
2.7798464960629925
 20
2.3164097637795273
 30
0.0
 40
0.0625
  0
CIRCLE
  5
D7
330
17
100
AcDbEntity
  8
Holes_T30
100
AcDbCircle
 10
2.960158937007874
 20
2.3506765748031495
 30
0.0
 40
0.0625
  0
CIRCLE
  5
D8
330
17
100
AcDbEntity
  8
Holes_T30
100
AcDbCircle
 10
3.161198700787402
 20
2.2266744094488184
 30
0.0
 40
0.0625
  0
CIRCLE
  5
D9
330
17
100
AcDbEntity
  8
Holes_T30
100
AcDbCircle
 10
3.3740276377952756
 20
2.1254599999999995
 30
0.0
 40
0.0625
  0
CIRCLE
  5
DA
330
17
100
AcDbEntity
  8
Holes_T30
100
AcDbCircle
 10
3.546825275590551
 20
2.219382007874015
 30
0.0
 40
0.0625
  0
CIRCLE
  5
DB
330
17
100
AcDbEntity
  8
Holes_T30
100
AcDbCircle
 10
3.4672232677165353
 20
2.4364173228346453
 30
0.0
 40
0.0625
  0
CIRCLE
  5
DC
330
17
100
AcDbEntity
  8
Holes_T30
100
AcDbCircle
 10
3.2971694881889766
 20
2.599772047244094
 30
0.0
 40
0.0625
  0
CIRCLE
  5
DD
330
17
100
AcDbEntity
  8
Holes_T30
100
AcDbCircle
 10
3.204220511811024
 20
2.759507007874016
 30
0.0
 40
0.0625
  0
CIRCLE
  5
DE
330
17
100
AcDbEntity
  8
Holes_T30
100
AcDbCircle
 10
3.4397044881889767
 20
2.7754209448818896
 30
0.0
 40
0.0625
  0
CIRCLE
  5
DF
330
17
100
AcDbEntity
  8
Holes_T30
100
AcDbCircle
 10
3.6747930708661416
 20
2.7974673228346454
 30
0.0
 40
0.0625
  0
CIRCLE
  5
E0
330
17
100
AcDbEntity
  8
Holes_T30
100
AcDbCircle
 10
3.904611968503937
 20
2.8509688976377947
 30
0.0
 40
0.0625
  0
CIRCLE
  5
E1
330
17
100
AcDbEntity
  8
Holes_T30
100
AcDbCircle
 10
4.121865354330709
 20
2.942719763779527
 30
0.0
 40
0.0625
  0
CIRCLE
  5
E2
330
17
100
AcDbEntity
  8
Holes_T30
100
AcDbCircle
 10
4.248410629921261
 20
3.1146292125984254
 30
0.0
 40
0.0625
  0
CIRCLE
  5
E3
330
17
100
AcDbEntity
  8
Holes_T30
100
AcDbCircle
 10
4.034648425196851
 20
3.2050220866141728
 30
0.0
 40
0.0625
  0
CIRCLE
  5
E4
330
17
100
AcDbEntity
  8
Holes_T30
100
AcDbCircle
 10
3.8020631496062998
 20
3.2460527559055117
 30
0.0
 40
0.0625
  0
CIRCLE
  5
E5
330
17
100
AcDbEntity
  8
Holes_T30
100
AcDbCircle
 10
3.5681831102362205
 20
3.279214960629921
 30
0.0
 40
0.0625
  0
CIRCLE
  5
E6
330
17
100
AcDbEntity
  8
Holes_T30
100
AcDbCircle
 10
3.3346680314960633
 20
3.314795275590551
 30
0.0
 40
0.0625
  0
CIRCLE
  5
E7
330
17
100
AcDbEntity
  8
Holes_T30
100
AcDbCircle
 10
3.1046546062992126
 20
3.3677941338582675
 30
0.0
 40
0.0625
  0
CIRCLE
  5
E8
330
17
100
AcDbEntity
  8
Holes_T30
100
AcDbCircle
 10
2.897518976377953
 20
3.476981496062992
 30
0.0
 40
0.0625
  0
CIRCLE
  5
E9
330
17
100
AcDbEntity
  8
Holes_T30
100
AcDbCircle
 10
2.8646712992125987
 20
3.693407086614173
 30
0.0
 40
0.0625
  0
CIRCLE
  5
EA
330
17
100
AcDbEntity
  8
Holes_T30
100
AcDbCircle
 10
3.070187047244094
 20
3.782880748031496
 30
0.0
 40
0.0625
  0
CIRCLE
  5
EB
330
17
100
AcDbEntity
  8
Holes_T30
100
AcDbCircle
 10
3.3038388976377955
 20
3.7488979133858265
 30
0.0
 40
0.0625
  0
CIRCLE
  5
EC
330
17
100
AcDbEntity
  8
Holes_T30
100
AcDbCircle
 10
3.481773503937008
 20
3.8458957874015747
 30
0.0
 40
0.0625
  0
CIRCLE
  5
ED
330
17
100
AcDbEntity
  8
Holes_T30
100
AcDbCircle
 10
3.4805745275590554
 20
4.0819588976377945
 30
0.0
 40
0.0625
  0
CIRCLE
  5
EE
330
17
100
AcDbEntity
  8
Holes_T30
100
AcDbCircle
 10
3.5710613385826777
 20
4.290145826771654
 30
0.0
 40
0.0625
  0
CIRCLE
  5
EF
330
17
100
AcDbEntity
  8
Holes_T30
100
AcDbCircle
 10
3.7960387795275596
 20
4.348913661417322
 30
0.0
 40
0.0625
  0
CIRCLE
  5
F0
330
17
100
AcDbEntity
  8
Holes_T30
100
AcDbCircle
 10
4.020386220472441
 20
4.285926141732284
 30
0.0
 40
0.0625
  0
CIRCLE
  5
F1
330
17
100
AcDbEntity
  8
Holes_T30
100
AcDbCircle
 10
4.144696062992126
 20
4.089974803149606
 30
0.0
 40
0.0625
  0
CIRCLE
  5
F2
330
17
100
AcDbEntity
  8
Holes_T30
100
AcDbCircle
 10
4.263544094488189
 20
3.8905983464566924
 30
0.0
 40
0.0625
  0
CIRCLE
  5
F3
330
17
100
AcDbEntity
  8
Holes_T30
100
AcDbCircle
 10
4.491028346456693
 20
3.846051259842519
 30
0.0
 40
0.0625
  0
CIRCLE
  5
F4
330
17
100
AcDbEntity
  8
Holes_T30
100
AcDbCircle
 10
4.71442283464567
 20
3.9168301968503934
 30
0.0
 40
0.0625
  0
CIRCLE
  5
F5
330
17
100
AcDbEntity
  8
Holes_T30
100
AcDbCircle
 10
4.872169291338583
 20
4.087746614173228
 30
0.0
 40
0.0625
  0
CIRCLE
  5
F6
330
17
100
AcDbEntity
  8
Holes_T30
100
AcDbCircle
 10
4.941720078740158
 20
4.31290842519685
 30
0.0
 40
0.0625
  0
CIRCLE
  5
F7
330
17
100
AcDbEntity
  8
Holes_T30
100
AcDbCircle
 10
5.0325031496063
 20
4.521562834645669
 30
0.0
 40
0.0625
  0
CIRCLE
  5
F8
330
17
100
AcDbEntity
  8
Holes_T30
100
AcDbCircle
 10
5.219604330708661
 20
4.393757125984252
 30
0.0
 40
0.0625
  0
CIRCLE
  5
F9
330
17
100
AcDbEntity
  8
Holes_T30
100
AcDbCircle
 10
5.333027165354331
 20
4.187473779527559
 30
0.0
 40
0.0625
  0
CIRCLE
  5
FA
330
17
100
AcDbEntity
  8
Holes_T30
100
AcDbCircle
 10
5.381856692913386
 20
3.9573444488188976
 30
0.0
 40
0.0625
  0
CIRCLE
  5
FB
330
17
100
AcDbEntity
  8
Holes_T30
100
AcDbCircle
 10
5.363302362204725
 20
3.722452913385826
 30
0.0
 40
0.0625
  0
CIRCLE
  5
FC
330
17
100
AcDbEntity
  8
Holes_T30
100
AcDbCircle
 10
5.2964263779527565
 20
3.4962173228346454
 30
0.0
 40
0.0625
  0
CIRCLE
  5
FD
330
17
100
AcDbEntity
  8
Holes_T30
100
AcDbCircle
 10
5.194604724409449
 20
3.283298346456692
 30
0.0
 40
0.0625
  0
CIRCLE
  5
FE
330
17
100
AcDbEntity
  8
Holes_T30
100
AcDbCircle
 10
5.064287795275591
 20
3.0864631102362203
 30
0.0
 40
0.0625
  0
CIRCLE
  5
FF
330
17
100
AcDbEntity
  8
Holes_T30
100
AcDbCircle
 10
4.921368110236221
 20
2.8983959448818895
 30
0.0
 40
0.0625
  0
CIRCLE
  5
100
330
17
100
AcDbEntity
  8
Holes_T30
100
AcDbCircle
 10
4.83851220472441
 20
2.683537007874015
 30
0.0
 40
0.0625
  0
CIRCLE
  5
101
330
17
100
AcDbEntity
  8
Holes_T30
100
AcDbCircle
 10
4.965683070866142
 20
2.4879025590551174
 30
0.0
 40
0.0625
  0
CIRCLE
  5
102
330
17
100
AcDbEntity
  8
Holes_T30
100
AcDbCircle
 10
4.973445669291339
 20
2.292081535433071
 30
0.0
 40
0.0625
  0
CIRCLE
  5
103
330
17
100
AcDbEntity
  8
Holes_T30
100
AcDbCircle
 10
4.785432677165354
 20
2.1497061811023617
 30
0.0
 40
0.0625
  0
CIRCLE
  5
104
330
17
100
AcDbEntity
  8
Holes_T30
100
AcDbCircle
 10
4.735475196850394
 20
1.9316674803149605
 30
0.0
 40
0.0625
  0
CIRCLE
  5
105
330
17
100
AcDbEntity
  8
Holes_T30
100
AcDbCircle
 10
4.816382283464567
 20
1.7098898818897632
 30
0.0
 40
0.0625
  0
CIRCLE
  5
106
330
17
100
AcDbEntity
  8
Holes_T30
100
AcDbCircle
 10
4.693304724409449
 20
1.6017010629921253
 30
0.0
 40
0.0625
  0
CIRCLE
  5
107
330
17
100
AcDbEntity
  8
Holes_T30
100
AcDbCircle
 10
4.463977952755906
 20
1.6581607874015742
 30
0.0
 40
0.0625
  0
CIRCLE
  5
108
330
17
100
AcDbEntity
  8
Holes_T30
100
AcDbCircle
 10
4.234206692913386
 20
1.7128255905511807
 30
0.0
 40
0.0625
  0
CIRCLE
  5
109
330
17
100
AcDbEntity
  8
Holes_T30
100
AcDbCircle
 10
4.000140551181103
 20
1.7426805905511809
 30
0.0
 40
0.0625
  0
CIRCLE
  5
10A
330
17
100
AcDbEntity
  8
Holes_T30
100
AcDbCircle
 10
3.765836377952756
 20
1.7193409055118107
 30
0.0
 40
0.0625
  0
CIRCLE
  5
10B
330
17
100
AcDbEntity
  8
Holes_T30
100
AcDbCircle
 10
3.5726250393700787
 20
1.5982312992125982
 30
0.0
 40
0.0625
  0
CIRCLE
  5
10C
330
17
100
AcDbEntity
  8
Holes_T30
100
AcDbCircle
 10
3.7317785826771654
 20
1.4526681102362202
 30
0.0
 40
0.0625
  0
CIRCLE
  5
10D
330
17
100
AcDbEntity
  8
Holes_T30
100
AcDbCircle
 10
3.959962598425197
 20
1.3920389763779526
 30
0.0
 40
0.0625
  0
CIRCLE
  5
10E
330
17
100
AcDbEntity
  8
Holes_T30
100
AcDbCircle
 10
4.19143188976378
 20
1.3449326771653543
 30
0.0
 40
0.0625
  0
CIRCLE
  5
10F
330
17
100
AcDbEntity
  8
Holes_T30
100
AcDbCircle
 10
4.423193700787402
 20
1.2992649606299207
 30
0.0
 40
0.0625
  0
CIRCLE
  5
110
330
17
100
AcDbEntity
  8
Holes_T30
100
AcDbCircle
 10
4.652767322834646
 20
1.2439334645669289
 30
0.0
 40
0.0625
  0
CIRCLE
  5
111
330
17
100
AcDbEntity
  8
Holes_T30
100
AcDbCircle
 10
4.800595669291339
 20
1.1039019685039368
 30
0.0
 40
0.0625
  0
CIRCLE
  5
112
330
17
100
AcDbEntity
  8
Holes_T30
100
AcDbCircle
 10
4.622260236220473
 20
0.9514645669291337
 30
0.0
 40
0.0625
  0
CIRCLE
  5
113
330
17
100
AcDbEntity
  8
Holes_T30
100
AcDbCircle
 10
4.503492913385827
 20
0.7733074803149601
 30
0.0
 40
0.0625
  0
CIRCLE
  5
114
330
17
100
AcDbEntity
  8
Holes_T30
100
AcDbCircle
 10
4.720282283464567
 20
0.7010027559055113
 30
0.0
 40
0.0625
  0
CIRCLE
  5
115
330
17
100
AcDbEntity
  8
Holes_T30
100
AcDbCircle
 10
4.951900787401575
 20
0.7417720472440938
 30
0.0
 40
0.0625
  0
CIRCLE
  5
116
330
17
100
AcDbEntity
  8
Holes_T30
100
AcDbCircle
 10
5.165244094488189
 20
0.8420051181102359
 30
0.0
 40
0.0625
  0
CIRCLE
  5
117
330
17
100
AcDbEntity
  8
Holes_T30
100
AcDbCircle
 10
5.348908267716536
 20
0.9894535433070861
 30
0.0
 40
0.0625
  0
CIRCLE
  5
118
330
17
100
AcDbEntity
  8
Holes_T30
100
AcDbCircle
 10
5.473604330708662
 20
1.188379527559055
 30
0.0
 40
0.0625
  0
CIRCLE
  5
119
330
17
100
AcDbEntity
  8
Holes_T30
100
AcDbCircle
 10
5.549841732283465
 20
1.411719291338582
 30
0.0
 40
0.0625
  0
CIRCLE
  5
11A
330
17
100
AcDbEntity
  8
Holes_T30
100
AcDbCircle
 10
5.742816141732283
 20
1.340501181102362
 30
0.0
 40
0.0625
  0
CIRCLE
  5
11B
330
17
100
AcDbEntity
  8
Holes_T30
100
AcDbCircle
 10
5.938497637795276
 20
1.3694362204724406
 30
0.0
 40
0.0625
  0
CIRCLE
  5
11C
330
17
100
AcDbEntity
  8
Holes_T30
100
AcDbCircle
 10
5.9668366141732285
 20
1.599870826771653
 30
0.0
 40
0.0625
  0
CIRCLE
  5
11D
330
17
100
AcDbEntity
  8
Holes_T30
100
AcDbCircle
 10
5.864699212598425
 20
1.809805984251968
 30
0.0
 40
0.0625
  0
CIRCLE
  5
11E
330
17
100
AcDbEntity
  8
Holes_T30
100
AcDbCircle
 10
5.700916929133859
 20
1.979874173228346
 30
0.0
 40
0.0625
  0
CIRCLE
  5
11F
330
17
100
AcDbEntity
  8
Holes_T30
100
AcDbCircle
 10
5.587046456692914
 20
2.1771583070866143
 30
0.0
 40
0.0625
  0
CIRCLE
  5
120
330
17
100
AcDbEntity
  8
Holes_T30
100
AcDbCircle
 10
5.763996456692913
 20
2.3235355511811018
 30
0.0
 40
0.0625
  0
CIRCLE
  5
121
330
17
100
AcDbEntity
  8
Holes_T30
100
AcDbCircle
 10
5.979999606299213
 20
2.4191006692913386
 30
0.0
 40
0.0625
  0
CIRCLE
  5
122
330
17
100
AcDbEntity
  8
Holes_T30
100
AcDbCircle
 10
6.16806377952756
 20
2.5499815354330706
 30
0.0
 40
0.0625
  0
CIRCLE
  5
123
330
17
100
AcDbEntity
  8
Holes_T30
100
AcDbCircle
 10
6.002930708661417
 20
2.70829842519685
 30
0.0
 40
0.0625
  0
CIRCLE
  5
124
330
17
100
AcDbEntity
  8
Holes_T30
100
AcDbCircle
 10
5.820438582677165
 20
2.857228582677165
 30
0.0
 40
0.0625
  0
CIRCLE
  5
125
330
17
100
AcDbEntity
  8
Holes_T30
100
AcDbCircle
 10
5.725319291338583
 20
3.0696821259842517
 30
0.0
 40
0.0625
  0
CIRCLE
  5
126
330
17
100
AcDbEntity
  8
Holes_T30
100
AcDbCircle
 10
5.758301181102363
 20
3.300556417322834
 30
0.0
 40
0.0625
  0
CIRCLE
  5
127
330
17
100
AcDbEntity
  8
Holes_T30
100
AcDbCircle
 10
5.921646850393701
 20
3.463421653543307
 30
0.0
 40
0.0625
  0
CIRCLE
  5
128
330
17
100
AcDbEntity
  8
Holes_T30
100
AcDbCircle
 10
6.14574094488189
 20
3.5373663385826766
 30
0.0
 40
0.0625
  0
CIRCLE
  5
129
330
17
100
AcDbEntity
  8
Holes_T30
100
AcDbCircle
 10
6.127792913385827
 20
3.729541889763779
 30
0.0
 40
0.0625
  0
CIRCLE
  5
12A
330
17
100
AcDbEntity
  8
Holes_T30
100
AcDbCircle
 10
5.982797244094489
 20
3.9160076377952753
 30
0.0
 40
0.0625
  0
CIRCLE
  5
12B
330
17
100
AcDbEntity
  8
Holes_T30
100
AcDbCircle
 10
5.8649937007874025
 20
4.119923503937008
 30
0.0
 40
0.0625
  0
CIRCLE
  5
12C
330
17
100
AcDbEntity
  8
Holes_T30
100
AcDbCircle
 10
5.871587795275591
 20
4.348462913385826
 30
0.0
 40
0.0625
  0
CIRCLE
  5
12D
330
17
100
AcDbEntity
  8
Holes_T30
100
AcDbCircle
 10
6.035224409448819
 20
4.5151147244094485
 30
0.0
 40
0.0625
  0
CIRCLE
  5
12E
330
17
100
AcDbEntity
  8
Holes_T30
100
AcDbCircle
 10
6.251374803149607
 20
4.608097755905512
 30
0.0
 40
0.0625
  0
CIRCLE
  5
12F
330
17
100
AcDbEntity
  8
Holes_T30
100
AcDbCircle
 10
6.485339763779528
 20
4.631788582677165
 30
0.0
 40
0.0625
  0
CIRCLE
  5
130
330
17
100
AcDbEntity
  8
Holes_T30
100
AcDbCircle
 10
6.713050787401576
 20
4.573032322834646
 30
0.0
 40
0.0625
  0
CIRCLE
  5
131
330
17
100
AcDbEntity
  8
Holes_T30
100
AcDbCircle
 10
6.923953937007874
 20
4.4668497637795275
 30
0.0
 40
0.0625
  0
CIRCLE
  5
132
330
17
100
AcDbEntity
  8
Holes_T30
100
AcDbCircle
 10
7.146335039370079
 20
4.402523070866142
 30
0.0
 40
0.0625
  0
CIRCLE
  5
133
330
17
100
AcDbEntity
  8
Holes_T30
100
AcDbCircle
 10
7.32435157480315
 20
4.551859803149606
 30
0.0
 40
0.0625
  0
CIRCLE
  5
134
330
17
100
AcDbEntity
  8
Holes_T30
100
AcDbCircle
 10
7.500621653543308
 20
4.705921614173228
 30
0.0
 40
0.0625
  0
CIRCLE
  5
135
330
17
100
AcDbEntity
  8
Holes_T30
100
AcDbCircle
 10
7.732409448818898
 20
4.705885118110236
 30
0.0
 40
0.0625
  0
CIRCLE
  5
136
330
17
100
AcDbEntity
  8
Holes_T30
100
AcDbCircle
 10
7.957507086614173
 20
4.63444625984252
 30
0.0
 40
0.0625
  0
CIRCLE
  5
137
330
17
100
AcDbEntity
  8
Holes_T30
100
AcDbCircle
 10
8.185739763779528
 20
4.574728622047244
 30
0.0
 40
0.0625
  0
CIRCLE
  5
138
330
17
100
AcDbEntity
  8
Holes_T30
100
AcDbCircle
 10
8.419679527559056
 20
4.589689566929134
 30
0.0
 40
0.0625
  0
CIRCLE
  5
139
330
17
100
AcDbEntity
  8
Holes_T30
100
AcDbCircle
 10
8.638388976377954
 20
4.677983622047244
 30
0.0
 40
0.0625
  0
CIRCLE
  5
13A
330
17
100
AcDbEntity
  8
Holes_T30
100
AcDbCircle
 10
8.851707874015748
 20
4.77933779527559
 30
0.0
 40
0.0625
  0
CIRCLE
  5
13B
330
17
100
AcDbEntity
  8
Holes_T30
100
AcDbCircle
 10
9.078265748031496
 20
4.84424622047244
 30
0.0
 40
0.0625
  0
CIRCLE
  5
13C
330
17
100
AcDbEntity
  8
Holes_T30
100
AcDbCircle
 10
9.31345433070866
 20
4.863752047244095
 30
0.0
 40
0.0625
  0
SPLINE
  5
13E
330
17
100
AcDbEntity
  8
TrackPath_T30
100
AcDbSpline
 70
0
 71
3
 72
0
 73
0
 74
119
 11
0.0661213459199871
 21
0.8937203506263742
 31
0.0
 11
0.2070580081247114
 21
0.8787238939334607
 31
0.0
 11
0.44169008151205513
 21
0.8537574976823283
 31
0.0
 11
0.6758533702118796
 21
0.8296211514213852
 31
0.0
 11
0.9095478491584227
 21
0.807161714841361
 31
0.0
 11
1.1426887498335203
 21
0.787387296211347
 31
0.0
 11
1.3750418590288866
 21
0.7716037430932413
 31
0.0
 11
1.6060602902208807
 21
0.7616473231571519
 31
0.0
 11
1.8344321159989714
 21
0.7603329956347664
 31
0.0
 11
2.056552495416705
 21
0.7723451059386295
 31
0.0
 11
2.2620308105773046
 21
0.805888018137687
 31
0.0
 11
2.4317656600980935
 21
0.8758334345641303
 31
0.0
 11
2.5459031274625032
 21
0.996247685007221
 31
0.0
 11
2.599234086153092
 21
1.1705280619545306
 31
0.0
 11
2.618346763160361
 21
1.3872299074025827
 31
0.0
 11
2.636577985789613
 21
1.6153430705770364
 31
0.0
 11
2.636602958147481
 21
1.8392288902451706
 31
0.0
 11
2.6193207948643122
 21
2.0750063394497245
 31
0.0
 11
2.6469285885310203
 21
2.4054761988565083
 31
0.0
 11
2.996807329309595
 21
2.5064228278614467
 31
0.0
 11
3.2855679536880498
 21
2.357919739820544
 31
0.0
 11
3.3853067176078255
 21
2.2753738309347122
 31
0.0
 11
3.3853067176078255
 21
2.2753738309347122
 31
0.0
 11
3.2855679536880498
 21
2.357919739820544
 31
0.0
 11
3.173083851014357
 21
2.49876336124646
 31
0.0
 11
3.079980078141057
 21
2.860325233614695
 31
0.0
 11
3.426839342488538
 21
2.934902881244935
 31
0.0
 11
3.6491295385210516
 21
2.9553957341721007
 31
0.0
 11
3.816051451663549
 21
3.045588970890998
 31
0.0
 11
4.006976677106422
 21
3.060609687281259
 31
0.0
 11
4.006976677106422
 21
3.060609687281259
 31
0.0
 11
3.816051451663549
 21
3.045588970890998
 31
0.0
 11
3.544901438412999
 21
3.1209178862503992
 31
0.0
 11
3.3046358641022073
 21
3.15763908283434
 31
0.0
 11
3.049000078304476
 21
3.217785555724605
 31
0.0
 11
2.768720994495786
 21
3.3820547882138254
 31
0.0
 11
2.7253360968010183
 21
3.7720563165463465
 31
0.0
 11
3.050129796078536
 21
3.94161860323838
 31
0.0
 11
3.3100319569277064
 21
3.9139742195534604
 31
0.0
 11
3.3100319569277064
 21
3.9139742195534604
 31
0.0
 11
3.323711419689858
 21
4.113486114286532
 31
0.0
 11
3.4677052838056666
 21
4.412283150882391
 31
0.0
 11
3.7975413000052822
 21
4.508906606362448
 31
0.0
 11
4.115782938464024
 21
4.414376389674569
 31
0.0
 11
4.280979973538212
 21
4.173800191465237
 31
0.0
 11
4.355675634321177
 21
4.021410346548437
 31
0.0
 11
4.481735358300111
 21
4.005781158017913
 31
0.0
 11
4.6287370666978385
 21
4.051952175710942
 31
0.0
 11
4.7333965440552905
 21
4.1673840715123935
 31
0.0
 11
4.791642136975945
 21
4.368375635292704
 31
0.0
 11
4.987805506516544
 21
4.675192651745804
 31
0.0
 11
5.338559032837735
 21
4.500760765368074
 31
0.0
 11
5.482997678491165
 21
4.243230798722228
 31
0.0
 11
5.541518673915264
 21
3.967739246679178
 31
0.0
 11
5.520625258887109
 21
3.6933066240943266
 31
0.0
 11
5.44578536044432
 21
3.438842290380756
 31
0.0
 11
5.333816357062835
 21
3.204430600616084
 31
0.0
 11
5.194756127249867
 21
2.9938455398089503
 31
0.0
 11
5.060948839756422
 21
2.8201832864012553
 31
0.0
 11
4.997587927067268
 21
2.700710084508616
 31
0.0
 11
5.116948841930041
 21
2.540043392424407
 31
0.0
 11
5.114643111957496
 21
2.216826753627943
 31
0.0
 11
4.907017069820666
 21
2.0022225784921
 31
0.0
 11
4.907017069820666
 21
2.0022225784921
 31
0.0
 11
4.975091400956448
 21
1.6896064890535467
 31
0.0
 11
4.721431503814455
 21
1.4147109568940321
 31
0.0
 11
4.4418743542601495
 21
1.479107299206968
 31
0.0
 11
4.214188049530405
 21
1.5286173832155616
 31
0.0
 11
3.9971948127007506
 21
1.5652566696696217
 31
0.0
 11
3.8120076970791827
 21
1.5808314390842297
 31
0.0
 11
3.8120076970791827
 21
1.5808314390842297
 31
0.0
 11
3.9971948127007506
 21
1.5652566696696217
 31
0.0
 11
4.214188049530405
 21
1.5286173832155616
 31
0.0
 11
4.4418743542601495
 21
1.479107299206968
 31
0.0
 11
4.721431503814455
 21
1.4147109568940321
 31
0.0
 11
4.959732281940383
 21
1.0873026156675105
 31
0.0
 11
4.736385806386718
 21
0.8525623751363476
 31
0.0
 11
4.736385806386718
 21
0.8525623751363476
 31
0.0
 11
4.903567650346916
 21
0.894297152923308
 31
0.0
 11
5.080554491180197
 21
0.9777536764507759
 31
0.0
 11
5.229403651593162
 21
1.095842672099482
 31
0.0
 11
5.3291273342613685
 21
1.2571283275308995
 31
0.0
 11
5.471128863334066
 21
1.5510185528648184
 31
0.0
 11
5.795100498858524
 21
1.5138649608278767
 31
0.0
 11
5.7957339804405965
 21
1.516572295861076
 31
0.0
 11
5.7957339804405965
 21
1.516572295861076
 31
0.0
 11
5.73360871063219
 21
1.7180711473891908
 31
0.0
 11
5.573274481772298
 21
1.8833992768482457
 31
0.0
 11
5.4296754979839275
 21
2.2060439671104852
 31
0.0
 11
5.680109425177085
 21
2.4597815270609877
 31
0.0
 11
5.936983812616346
 21
2.5693278627683616
 31
0.0
 11
5.935165032967609
 21
2.5701953779188536
 31
0.0
 11
5.935165032967609
 21
2.5701953779188536
 31
0.0
 11
5.69355496464292
 21
2.759757830784406
 31
0.0
 11
5.566868123014994
 21
3.0474734056949226
 31
0.0
 11
5.615114046310894
 21
3.371952806798841
 31
0.0
 11
5.838204285223442
 21
3.5999402907977385
 31
0.0
 11
6.0000380300324005
 21
3.6508222518425684
 31
0.0
 11
6.0000380300324005
 21
3.6508222518425684
 31
0.0
 11
5.850069875749624
 21
3.8266575080122327
 31
0.0
 11
5.710035407497656
 21
4.080074697923167
 31
0.0
 11
5.724641032407228
 21
4.411761008795633
 31
0.0
 11
5.944926969434335
 21
4.647199440886529
 31
0.0
 11
6.2112281816079635
 21
4.762979158206731
 31
0.0
 11
6.497457258270783
 21
4.791329067593234
 31
0.0
 11
6.76936776583627
 21
4.722793459115011
 31
0.0
 11
6.982544764428907
 21
4.615736012110657
 31
0.0
 11
7.113105486597998
 21
4.559034402157417
 31
0.0
 11
7.220279482371048
 21
4.673387576011631
 31
0.0
 11
7.444119259841654
 21
4.855612894834405
 31
0.0
 11
7.757139134732004
 21
4.863962449295448
 31
0.0
 11
8.001974261498312
 21
4.7881429428185145
 31
0.0
 11
8.201161988243612
 21
4.733983621945456
 31
0.0
 11
8.384095579315117
 21
4.74568245980369
 31
0.0
 11
8.574077035487491
 21
4.82448950677172
 31
0.0
 11
8.795137900638341
 21
4.929003549915987
 31
0.0
 11
9.049492196794253
 21
5.00163771563402
 31
0.0
 11
9.300229821345457
 21
5.023204586741284
 31
0.0
 11
9.441342970951757
 21
5.034908082804276
 31
0.0
  0
SPLINE
  5
13F
330
17
100
AcDbEntity
  8
TrackPath_T30
100
AcDbSpline
 70
0
 71
3
 72
0
 73
0
 74
119
 11
0.03226267612725707
 21
0.5755166572476411
 31
0.0
 11
0.1731993383319815
 21
0.5605202005547276
 31
0.0
 11
0.4083561389603858
 21
0.535498407829482
 31
0.0
 11
0.6441432439613488
 21
0.5111961714132593
 31
0.0
 11
0.880721914621105
 21
0.48846269460745706
 31
0.0
 11
1.1183286517412832
 21
0.4683158533949511
 31
0.0
 11
1.3573229441207202
 21
0.45209468210360815
 31
0.0
 11
1.5982909696216392
 21
0.44174165322079983
 31
0.0
 11
1.842310639906541
 21
0.44042999649121684
 31
0.0
 11
2.091803882536051
 21
0.4542926893369599
 31
0.0
 11
2.3517991894226955
 21
0.49873717871270606
 31
0.0
 11
2.614721111555451
 21
0.6132933370894125
 31
0.0
 11
2.821392856789466
 21
0.8334428661738804
 31
0.0
 11
2.9127037878626565
 21
1.1062105207226336
 31
0.0
 11
2.9371693785719226
 21
1.3598047382667084
 31
0.0
 11
2.9563256362576316
 21
1.602637165643436
 31
0.0
 11
2.9563896402777163
 21
1.850911267235143
 31
0.0
 11
2.924359112543766
 21
2.1731391954865877
 31
0.0
 11
2.925518583438646
 21
2.1677187821649917
 31
0.0
 11
2.925518583438646
 21
2.1677187821649917
 31
0.0
 11
3.084721100500162
 21
2.086135529937471
 31
0.0
 11
3.371002494409339
 21
1.9654886009703776
 31
0.0
 11
3.7000898971466625
 21
2.1734477529082277
 31
0.0
 11
3.600986929131613
 21
2.524208454988369
 31
0.0
 11
3.452569633889415
 21
2.6159390085188443
 31
0.0
 11
3.7004566032112316
 21
2.63953891149719
 31
0.0
 11
3.9540515628619017
 21
2.6987988397758094
 31
0.0
 11
4.219233318975822
 21
2.81575725174992
 31
0.0
 11
4.400237627909336
 21
3.1651125037146848
 31
0.0
 11
4.079840885866453
 21
3.3585070744749617
 31
0.0
 11
3.827195770031474
 21
3.404066525528808
 31
0.0
 11
3.591464782059442
 21
3.437512035009443
 31
0.0
 11
3.346376695681389
 21
3.531346141427081
 31
0.0
 11
3.160309134293949
 21
3.51780271199193
 31
0.0
 11
3.038625032588244
 21
3.602961112336933
 31
0.0
 11
3.0409713628528534
 21
3.6039239205409186
 31
0.0
 11
3.0409713628528534
 21
3.6039239205409186
 31
0.0
 11
3.346376695681389
 21
3.531346141427081
 31
0.0
 11
3.6231076968213345
 21
3.770898147960483
 31
0.0
 11
3.655927514393971
 21
4.109220091824986
 31
0.0
 11
3.655927514393971
 21
4.109220091824986
 31
0.0
 11
3.794536259049837
 21
4.188920716472197
 31
0.0
 11
3.924989502480859
 21
4.157475893789998
 31
0.0
 11
4.00841215244604
 21
4.006149414833975
 31
0.0
 11
4.171412554655202
 21
3.759786346364948
 31
0.0
 11
4.500321334613274
 21
3.6863213616671255
 31
0.0
 11
4.800108602593501
 21
3.781708217989845
 31
0.0
 11
5.0109420386218755
 21
4.008109156834062
 31
0.0
 11
5.089546350968767
 21
4.30458285703488
 31
0.0
 11
5.090051045405623
 21
4.303772431106042
 31
0.0
 11
5.090051045405623
 21
4.303772431106042
 31
0.0
 11
5.183056652217497
 21
4.131716760332889
 31
0.0
 11
5.222194711911508
 21
3.9469496509586173
 31
0.0
 11
5.205979465522341
 21
3.7515992026773257
 31
0.0
 11
5.147067395461193
 21
3.5535923552885347
 31
0.0
 11
5.055393091756063
 21
3.3621660922973002
 31
0.0
 11
4.933819463301316
 21
3.1790806806634904
 31
0.0
 11
4.78178738071602
 21
2.9766086033625236
 31
0.0
 11
4.6794364823815515
 21
2.666363931239414
 31
0.0
 11
4.8233327632137115
 21
2.401549021462013
 31
0.0
 11
4.8233327632137115
 21
2.401549021462013
 31
0.0
 11
4.651911728619645
 21
2.2378660149239726
 31
0.0
 11
4.5758698797705195
 21
1.920436150926471
 31
0.0
 11
4.663870327940751
 21
1.7450889706906638
 31
0.0
 11
4.663870327940751
 21
1.7450889706906638
 31
0.0
 11
4.501618938433191
 21
1.8136701318064763
 31
0.0
 11
4.26288937339974
 21
1.8702336711573482
 31
0.0
 11
4.002366032846741
 21
1.902665112400502
 31
0.0
 11
3.7146199756953493
 21
1.8709221713061281
 31
0.0
 11
3.413914155845917
 21
1.6185008687931317
 31
0.0
 11
3.656594551406128
 21
1.3114329820214745
 31
0.0
 11
3.9234506409643575
 21
1.2362606821185216
 31
0.0
 11
4.1600116928937805
 21
1.1880480978445984
 31
0.0
 11
4.388975660133125
 21
1.1429667658425773
 31
0.0
 11
4.541234712982385
 21
1.0801276993031055
 31
0.0
 11
4.541234712982385
 21
1.0801276993031055
 31
0.0
 11
4.354497147694488
 21
0.7149957164413498
 31
0.0
 11
4.709057597582339
 21
0.5413969714650804
 31
0.0
 11
5.000233924456235
 21
0.5892469415648797
 31
0.0
 11
5.249933697796181
 21
0.7062565597696959
 31
0.0
 11
5.4684128838399095
 21
0.8830644145146901
 31
0.0
 11
5.6717963424305475
 21
1.1505352300148552
 31
0.0
 11
5.628554601232864
 21
1.2724200298123458
 31
0.0
 11
5.6717963424305475
 21
1.1505352300148552
 31
0.0
 11
6.059584835274367
 21
1.2648518497153358
 31
0.0
 11
6.12463613468235
 21
1.6263153219850475
 31
0.0
 11
5.99578971456466
 21
1.9015408211147453
 31
0.0
 11
5.805674362279936
 21
2.135741707387351
 31
0.0
 11
5.807592958913063
 21
2.138084792292527
 31
0.0
 11
5.807592958913063
 21
2.138084792292527
 31
0.0
 11
6.058220393702299
 21
2.279524495042145
 31
0.0
 11
6.32756315974379
 21
2.5373344918797955
 31
0.0
 11
6.1088907569787265
 21
2.828183654314508
 31
0.0
 11
5.947322200711411
 21
2.9546993345699235
 31
0.0
 11
5.8837704596621725
 21
3.091890846273581
 31
0.0
 11
5.901488315893832
 21
3.229160027846827
 31
0.0
 11
6.00508941556396
 21
3.3269030162888753
 31
0.0
 11
6.272229700848655
 21
3.439383714541573
 31
0.0
 11
6.274761955621978
 21
3.7927882384662013
 31
0.0
 11
6.115524612439354
 21
4.005357767578317
 31
0.0
 11
6.019243276110552
 21
4.222468563963433
 31
0.0
 11
6.019243276110552
 21
4.222468563963433
 31
0.0
 11
6.125521849463303
 21
4.383030007932368
 31
0.0
 11
6.29152142469125
 21
4.453216353604294
 31
0.0
 11
6.473222269288273
 21
4.4722480977610966
 31
0.0
 11
6.656733808966882
 21
4.42327118655428
 31
0.0
 11
6.865363109586841
 21
4.3179635154483975
 31
0.0
 11
7.17956459214216
 21
4.246011739574866
 31
0.0
 11
7.428423667235252
 21
4.43033203028758
 31
0.0
 11
7.557124047244963
 21
4.556230333512051
 31
0.0
 11
7.7076797629057925
 21
4.5478077869250235
 31
0.0
 11
7.913039911730035
 21
4.480749576866525
 31
0.0
 11
8.170317539315445
 21
4.415473622149032
 31
0.0
 11
8.455263475802996
 21
4.433696674054578
 31
0.0
 11
8.702700917268416
 21
4.531477737322768
 31
0.0
 11
8.908277847393155
 21
4.629672040635193
 31
0.0
 11
9.10703929926874
 21
4.686854725310861
 31
0.0
 11
9.326678840071864
 21
4.704299507746906
 31
0.0
 11
9.467791989678163
 21
4.716003003809898
 31
0.0
  0
LWPOLYLINE
  5
141
330
17
100
AcDbEntity
  8
NumMarks_T30
100
AcDbPolyline
 90
2
 70
0
 10
1.1171867721432096
 20
0.45335937951293254
 10
1.1438306294315939
 20
0.8023437700933655
  0
LWPOLYLINE
  5
142
330
17
100
AcDbEntity
  8
NumMarks_T30
100
AcDbPolyline
 90
2
 70
0
 10
2.356007082181073
 20
0.48433948311466013
 10
2.257822917818927
 20
0.8202857137357329
  0
LWPOLYLINE
  5
143
330
17
100
AcDbEntity
  8
NumMarks_T30
100
AcDbPolyline
 90
2
 70
0
 10
2.97131380737332
 20
1.6020415763496734
 10
2.6215898146739245
 20
1.615938659870799
  0
LWPOLYLINE
  5
144
330
17
100
AcDbEntity
  8
NumMarks_T30
100
AcDbPolyline
 90
2
 70
0
 10
3.077551325473233
 20
2.072960009983282
 10
3.244846076101571
 20
2.380388808914355
  0
LWPOLYLINE
  5
145
330
17
100
AcDbEntity
  8
NumMarks_T30
100
AcDbPolyline
 90
2
 70
0
 10
3.3401084861375505
 20
2.649237073470148
 10
3.0683325374844976
 20
2.8697769422778836
  0
LWPOLYLINE
  5
146
330
17
100
AcDbEntity
  8
NumMarks_T30
100
AcDbPolyline
 90
2
 70
0
 10
4.414471408970718
 20
3.1698453122568337
 10
4.082349850871803
 20
3.059413112940017
  0
LWPOLYLINE
  5
147
330
17
100
AcDbEntity
  8
NumMarks_T30
100
AcDbPolyline
 90
2
 70
0
 10
3.1655267462934558
 20
3.5318660161919606
 10
3.0437824663049695
 20
3.2037222515245745
  0
LWPOLYLINE
  5
148
330
17
100
AcDbEntity
  8
NumMarks_T30
100
AcDbPolyline
 90
2
 70
0
 10
3.63635777740424
 20
3.7638671192628803
 10
3.3271892304697763
 20
3.927924455540269
  0
LWPOLYLINE
  5
149
330
17
100
AcDbEntity
  8
NumMarks_T30
100
AcDbPolyline
 90
2
 70
0
 10
3.995635535832344
 20
3.998290784679385
 10
4.293756590151908
 20
4.181658821619828
  0
LWPOLYLINE
  5
14A
330
17
100
AcDbEntity
  8
NumMarks_T30
100
AcDbPolyline
 90
2
 70
0
 10
5.105867827544765
 20
4.252241164154511
 10
4.77757232993555
 20
4.37357568623919
  0
LWPOLYLINE
  5
14B
330
17
100
AcDbEntity
  8
NumMarks_T30
100
AcDbPolyline
 90
2
 70
0
 10
5.191230443958367
 20
3.7543316672984037
 10
5.535374280451083
 20
3.6905741594732486
  0
LWPOLYLINE
  5
14C
330
17
100
AcDbEntity
  8
NumMarks_T30
100
AcDbPolyline
 90
2
 70
0
 10
4.664523133411908
 20
2.66475395530492
 10
5.012501276036911
 20
2.70232006044311
  0
LWPOLYLINE
  5
14D
330
17
100
AcDbEntity
  8
NumMarks_T30
100
AcDbPolyline
 90
2
 70
0
 10
4.642794186207823
 20
1.732074842804375
 10
4.989970380721312
 20
1.6877049209751513
  0
LWPOLYLINE
  5
14E
330
17
100
AcDbEntity
  8
NumMarks_T30
100
AcDbPolyline
 90
2
 70
0
 10
3.7098184379837176
 20
1.8851329149743454
 10
3.8218543179217943
 20
1.553548896049276
  0
LWPOLYLINE
  5
14F
330
17
100
AcDbEntity
  8
NumMarks_T30
100
AcDbPolyline
 90
2
 70
0
 10
4.385767718821787
 20
1.128313810081264
 10
4.460619682753016
 20
1.4702161111785774
  0
LWPOLYLINE
  5
150
330
17
100
AcDbEntity
  8
NumMarks_T30
100
AcDbPolyline
 90
2
 70
0
 10
4.70800528328088
 20
0.52643392917379
 10
4.7325592836482535
 20
0.8755715826372327
  0
LWPOLYLINE
  5
151
330
17
100
AcDbEntity
  8
NumMarks_T30
100
AcDbPolyline
 90
2
 70
0
 10
5.63593393269687
 20
1.2593607240442612
 10
5.46374953187006
 20
1.564077858632903
  0
LWPOLYLINE
  5
152
330
17
100
AcDbEntity
  8
NumMarks_T30
100
AcDbPolyline
 90
2
 70
0
 10
5.840525855935566
 20
2.0853935911440806
 10
5.561308002332152
 20
1.8743547553126114
  0
LWPOLYLINE
  5
153
330
17
100
AcDbEntity
  8
NumMarks_T30
100
AcDbPolyline
 90
2
 70
0
 10
6.118824511508475
 20
2.8394228945442883
 10
5.887036905814359
 20
2.5771739558494113
  0
LWPOLYLINE
  5
154
330
17
100
AcDbEntity
  8
NumMarks_T30
100
AcDbPolyline
 90
2
 70
0
 10
6.284088021720539
 20
3.4301978435377194
 10
6.007393868043241
 20
3.6445348336276338
  0
LWPOLYLINE
  5
155
330
17
100
AcDbEntity
  8
NumMarks_T30
100
AcDbPolyline
 90
2
 70
0
 10
6.13398723446466
 20
4.3706470657626415
 10
5.936461584432978
 20
4.6595823830562555
  0
LWPOLYLINE
  5
156
330
17
100
AcDbEntity
  8
NumMarks_T30
100
AcDbPolyline
 90
2
 70
0
 10
7.182679862714543
 20
4.2313388022663085
 10
7.109990216025616
 20
4.573707339465975
  0
LWPOLYLINE
  5
157
330
17
100
AcDbEntity
  8
NumMarks_T30
100
AcDbPolyline
 90
2
 70
0
 10
8.168871705771936
 20
4.400543465908576
 10
8.20260782178712
 20
4.748913778185913
  0
LWPOLYLINE
  5
158
330
17
100
AcDbEntity
  8
NumMarks_T30
100
AcDbPolyline
 90
2
 70
0
 10
9.327918637824663
 20
4.689350832169044
 10
9.298990023592658
 20
5.038153262319145
  0
CIRCLE
  5
15A
330
17
100
AcDbEntity
  8
Holes_T31
100
AcDbCircle
 10
0.23047075590551183
 20
0.19917283464566907
 30
0.0
 40
0.0625
  0
CIRCLE
  5
15B
330
17
100
AcDbEntity
  8
Holes_T31
100
AcDbCircle
 10
0.46643594488188983
 20
0.18819488188976347
 30
0.0
 40
0.0625
  0
CIRCLE
  5
15C
330
17
100
AcDbEntity
  8
Holes_T31
100
AcDbCircle
 10
0.7024351181102363
 20
0.1779799212598426
 30
0.0
 40
0.0625
  0
CIRCLE
  5
15D
330
17
100
AcDbEntity
  8
Holes_T31
100
AcDbCircle
 10
0.9384967716535433
 20
0.1693334645669284
 30
0.0
 40
0.0625
  0
CIRCLE
  5
15E
330
17
100
AcDbEntity
  8
Holes_T31
100
AcDbCircle
 10
1.174634842519685
 20
0.16315157480314935
 30
0.0
 40
0.0625
  0
CIRCLE
  5
15F
330
17
100
AcDbEntity
  8
Holes_T31
100
AcDbCircle
 10
1.410838503937008
 20
0.16048425196850297
 30
0.0
 40
0.0625
  0
CIRCLE
  5
160
330
17
100
AcDbEntity
  8
Holes_T31
100
AcDbCircle
 10
1.6470449606299213
 20
0.16262165354330646
 30
0.0
 40
0.0625
  0
CIRCLE
  5
161
330
17
100
AcDbEntity
  8
Holes_T31
100
AcDbCircle
 10
1.8830975196850395
 20
0.17125551181102316
 30
0.0
 40
0.0625
  0
CIRCLE
  5
162
330
17
100
AcDbEntity
  8
Holes_T31
100
AcDbCircle
 10
2.118554724409449
 20
0.18985669291338486
 30
0.0
 40
0.0625
  0
CIRCLE
  5
163
330
17
100
AcDbEntity
  8
Holes_T31
100
AcDbCircle
 10
2.3520231496062993
 20
0.2252669291338581
 30
0.0
 40
0.0625
  0
CIRCLE
  5
164
330
17
100
AcDbEntity
  8
Holes_T31
100
AcDbCircle
 10
2.5795509055118115
 20
0.28793622047244105
 30
0.0
 40
0.0625
  0
CIRCLE
  5
165
330
17
100
AcDbEntity
  8
Holes_T31
100
AcDbCircle
 10
2.7907190551181102
 20
0.392561811023622
 30
0.0
 40
0.0625
  0
CIRCLE
  5
166
330
17
100
AcDbEntity
  8
Holes_T31
100
AcDbCircle
 10
2.9640385826771656
 20
0.5515842519685032
 30
0.0
 40
0.0625
  0
CIRCLE
  5
167
330
17
100
AcDbEntity
  8
Holes_T31
100
AcDbCircle
 10
3.0886322047244095
 20
0.7517917322834642
 30
0.0
 40
0.0625
  0
CIRCLE
  5
168
330
17
100
AcDbEntity
  8
Holes_T31
100
AcDbCircle
 10
3.1842994881889766
 20
0.9677043307086609
 30
0.0
 40
0.0625
  0
CIRCLE
  5
169
330
17
100
AcDbEntity
  8
Holes_T31
100
AcDbCircle
 10
3.291030748031496
 20
1.1769968503937003
 30
0.0
 40
0.0625
  0
CIRCLE
  5
16A
330
17
100
AcDbEntity
  8
Holes_T31
100
AcDbCircle
 10
3.450985905511811
 20
1.0443106299212594
 30
0.0
 40
0.0625
  0
CIRCLE
  5
16B
330
17
100
AcDbEntity
  8
Holes_T31
100
AcDbCircle
 10
3.5661713385826777
 20
0.8380803149606293
 30
0.0
 40
0.0625
  0
CIRCLE
  5
16C
330
17
100
AcDbEntity
  8
Holes_T31
100
AcDbCircle
 10
3.6919567322834648
 20
0.6382440944881883
 30
0.0
 40
0.0625
  0
CIRCLE
  5
16D
330
17
100
AcDbEntity
  8
Holes_T31
100
AcDbCircle
 10
3.8445873622047246
 20
0.4584330708661411
 30
0.0
 40
0.0625
  0
CIRCLE
  5
16E
330
17
100
AcDbEntity
  8
Holes_T31
100
AcDbCircle
 10
4.032252362204725
 20
0.31581181102362144
 30
0.0
 40
0.0625
  0
CIRCLE
  5
16F
330
17
100
AcDbEntity
  8
Holes_T31
100
AcDbCircle
 10
4.247612992125984
 20
0.22009999999999907
 30
0.0
 40
0.0625
  0
CIRCLE
  5
170
330
17
100
AcDbEntity
  8
Holes_T31
100
AcDbCircle
 10
4.479650393700788
 20
0.1793582677165355
 30
0.0
 40
0.0625
  0
CIRCLE
  5
171
330
17
100
AcDbEntity
  8
Holes_T31
100
AcDbCircle
 10
4.714108267716536
 20
0.20102322834645636
 30
0.0
 40
0.0625
  0
CIRCLE
  5
172
330
17
100
AcDbEntity
  8
Holes_T31
100
AcDbCircle
 10
4.934659842519685
 20
0.2841834645669286
 30
0.0
 40
0.0625
  0
CIRCLE
  5
173
330
17
100
AcDbEntity
  8
Holes_T31
100
AcDbCircle
 10
5.141433464566929
 20
0.39830511811023633
 30
0.0
 40
0.0625
  0
CIRCLE
  5
174
330
17
100
AcDbEntity
  8
Holes_T31
100
AcDbCircle
 10
5.349602362204724
 20
0.5097566929133855
 30
0.0
 40
0.0625
  0
CIRCLE
  5
175
330
17
100
AcDbEntity
  8
Holes_T31
100
AcDbCircle
 10
5.575349212598425
 20
0.5752858267716533
 30
0.0
 40
0.0625
  0
CIRCLE
  5
176
330
17
100
AcDbEntity
  8
Holes_T31
100
AcDbCircle
 10
5.806799606299212
 20
0.5390968503937004
 30
0.0
 40
0.0625
  0
CIRCLE
  5
177
330
17
100
AcDbEntity
  8
Holes_T31
100
AcDbCircle
 10
6.019539763779528
 20
0.4370291338582675
 30
0.0
 40
0.0625
  0
CIRCLE
  5
178
330
17
100
AcDbEntity
  8
Holes_T31
100
AcDbCircle
 10
6.224845275590552
 20
0.3202232283464565
 30
0.0
 40
0.0625
  0
CIRCLE
  5
179
330
17
100
AcDbEntity
  8
Holes_T31
100
AcDbCircle
 10
6.448337007874016
 20
0.26447874015748024
 30
0.0
 40
0.0625
  0
CIRCLE
  5
17A
330
17
100
AcDbEntity
  8
Holes_T31
100
AcDbCircle
 10
6.570432677165355
 20
0.4551035433070866
 30
0.0
 40
0.0625
  0
CIRCLE
  5
17B
330
17
100
AcDbEntity
  8
Holes_T31
100
AcDbCircle
 10
6.589287795275591
 20
0.6900704724409442
 30
0.0
 40
0.0625
  0
CIRCLE
  5
17C
330
17
100
AcDbEntity
  8
Holes_T31
100
AcDbCircle
 10
6.569011417322835
 20
0.9252578740157479
 30
0.0
 40
0.0625
  0
CIRCLE
  5
17D
330
17
100
AcDbEntity
  8
Holes_T31
100
AcDbCircle
 10
6.521341732283465
 20
1.1565059055118108
 30
0.0
 40
0.0625
  0
CIRCLE
  5
17E
330
17
100
AcDbEntity
  8
Holes_T31
100
AcDbCircle
 10
6.455909842519685
 20
1.3834606299212593
 30
0.0
 40
0.0625
  0
CIRCLE
  5
17F
330
17
100
AcDbEntity
  8
Holes_T31
100
AcDbCircle
 10
6.389072047244095
 20
1.61000437007874
 30
0.0
 40
0.0625
  0
CIRCLE
  5
180
330
17
100
AcDbEntity
  8
Holes_T31
100
AcDbCircle
 10
6.376562598425197
 20
1.8419089370078736
 30
0.0
 40
0.0625
  0
CIRCLE
  5
181
330
17
100
AcDbEntity
  8
Holes_T31
100
AcDbCircle
 10
6.5819692913385826
 20
1.9398727952755899
 30
0.0
 40
0.0625
  0
CIRCLE
  5
182
330
17
100
AcDbEntity
  8
Holes_T31
100
AcDbCircle
 10
6.797074803149607
 20
2.0266693700787397
 30
0.0
 40
0.0625
  0
CIRCLE
  5
183
330
17
100
AcDbEntity
  8
Holes_T31
100
AcDbCircle
 10
6.847903149606299
 20
2.2508372834645667
 30
0.0
 40
0.0625
  0
CIRCLE
  5
184
330
17
100
AcDbEntity
  8
Holes_T31
100
AcDbCircle
 10
6.786934251968504
 20
2.478146614173228
 30
0.0
 40
0.0625
  0
CIRCLE
  5
185
330
17
100
AcDbEntity
  8
Holes_T31
100
AcDbCircle
 10
6.671035826771654
 20
2.6834121653543304
 30
0.0
 40
0.0625
  0
CIRCLE
  5
186
330
17
100
AcDbEntity
  8
Holes_T31
100
AcDbCircle
 10
6.518022047244095
 20
2.863121181102362
 30
0.0
 40
0.0625
  0
CIRCLE
  5
187
330
17
100
AcDbEntity
  8
Holes_T31
100
AcDbCircle
 10
6.350434645669291
 20
3.029585393700787
 30
0.0
 40
0.0625
  0
CIRCLE
  5
188
330
17
100
AcDbEntity
  8
Holes_T31
100
AcDbCircle
 10
6.392471653543307
 20
3.12837937007874
 30
0.0
 40
0.0625
  0
CIRCLE
  5
189
330
17
100
AcDbEntity
  8
Holes_T31
100
AcDbCircle
 10
6.626657086614174
 20
3.0981221653543303
 30
0.0
 40
0.0625
  0
CIRCLE
  5
18A
330
17
100
AcDbEntity
  8
Holes_T31
100
AcDbCircle
 10
6.859572047244095
 20
3.1237154724409444
 30
0.0
 40
0.0625
  0
CIRCLE
  5
18B
330
17
100
AcDbEntity
  8
Holes_T31
100
AcDbCircle
 10
7.001044094488189
 20
3.3009624803149604
 30
0.0
 40
0.0625
  0
CIRCLE
  5
18C
330
17
100
AcDbEntity
  8
Holes_T31
100
AcDbCircle
 10
7.028745275590552
 20
3.5350107480314956
 30
0.0
 40
0.0625
  0
CIRCLE
  5
18D
330
17
100
AcDbEntity
  8
Holes_T31
100
AcDbCircle
 10
7.03310157480315
 20
3.7711754724409445
 30
0.0
 40
0.0625
  0
CIRCLE
  5
18E
330
17
100
AcDbEntity
  8
Holes_T31
100
AcDbCircle
 10
7.151845275590551
 20
3.925026968503937
 30
0.0
 40
0.0625
  0
CIRCLE
  5
18F
330
17
100
AcDbEntity
  8
Holes_T31
100
AcDbCircle
 10
7.369770866141733
 20
3.834506181102362
 30
0.0
 40
0.0625
  0
CIRCLE
  5
190
330
17
100
AcDbEntity
  8
Holes_T31
100
AcDbCircle
 10
7.599142913385827
 20
3.789471023622047
 30
0.0
 40
0.0625
  0
CIRCLE
  5
191
330
17
100
AcDbEntity
  8
Holes_T31
100
AcDbCircle
 10
7.811043700787402
 20
3.8876078740157483
 30
0.0
 40
0.0625
  0
CIRCLE
  5
192
330
17
100
AcDbEntity
  8
Holes_T31
100
AcDbCircle
 10
7.991783858267717
 20
4.039610866141732
 30
0.0
 40
0.0625
  0
CIRCLE
  5
193
330
17
100
AcDbEntity
  8
Holes_T31
100
AcDbCircle
 10
8.194957086614172
 20
4.151129960629921
 30
0.0
 40
0.0625
  0
CIRCLE
  5
194
330
17
100
AcDbEntity
  8
Holes_T31
100
AcDbCircle
 10
8.36104251968504
 20
4.002803503937008
 30
0.0
 40
0.0625
  0
CIRCLE
  5
195
330
17
100
AcDbEntity
  8
Holes_T31
100
AcDbCircle
 10
8.376387795275592
 20
3.7705901968503936
 30
0.0
 40
0.0625
  0
CIRCLE
  5
196
330
17
100
AcDbEntity
  8
Holes_T31
100
AcDbCircle
 10
8.25350472440945
 20
3.5727234645669292
 30
0.0
 40
0.0625
  0
CIRCLE
  5
197
330
17
100
AcDbEntity
  8
Holes_T31
100
AcDbCircle
 10
8.072207874015747
 20
3.421475433070866
 30
0.0
 40
0.0625
  0
CIRCLE
  5
198
330
17
100
AcDbEntity
  8
Holes_T31
100
AcDbCircle
 10
7.904829921259843
 20
3.256221771653543
 30
0.0
 40
0.0625
  0
CIRCLE
  5
199
330
17
100
AcDbEntity
  8
Holes_T31
100
AcDbCircle
 10
7.880686220472442
 20
3.028807952755905
 30
0.0
 40
0.0625
  0
CIRCLE
  5
19A
330
17
100
AcDbEntity
  8
Holes_T31
100
AcDbCircle
 10
7.945103937007875
 20
2.8016405118110232
 30
0.0
 40
0.0625
  0
CIRCLE
  5
19B
330
17
100
AcDbEntity
  8
Holes_T31
100
AcDbCircle
 10
7.8884854330708665
 20
2.5847598425196847
 30
0.0
 40
0.0625
  0
CIRCLE
  5
19C
330
17
100
AcDbEntity
  8
Holes_T31
100
AcDbCircle
 10
7.682900393700788
 20
2.4704891732283465
 30
0.0
 40
0.0625
  0
CIRCLE
  5
19D
330
17
100
AcDbEntity
  8
Holes_T31
100
AcDbCircle
 10
7.464298818897638
 20
2.380993464566929
 30
0.0
 40
0.0625
  0
CIRCLE
  5
19E
330
17
100
AcDbEntity
  8
Holes_T31
100
AcDbCircle
 10
7.263869291338583
 20
2.2586973228346454
 30
0.0
 40
0.0625
  0
CIRCLE
  5
19F
330
17
100
AcDbEntity
  8
Holes_T31
100
AcDbCircle
 10
7.240221653543308
 20
2.0386422047244093
 30
0.0
 40
0.0625
  0
CIRCLE
  5
1A0
330
17
100
AcDbEntity
  8
Holes_T31
100
AcDbCircle
 10
7.350814960629922
 20
1.8301930708661416
 30
0.0
 40
0.0625
  0
CIRCLE
  5
1A1
330
17
100
AcDbEntity
  8
Holes_T31
100
AcDbCircle
 10
7.444337401574804
 20
1.6149981102362203
 30
0.0
 40
0.0625
  0
CIRCLE
  5
1A2
330
17
100
AcDbEntity
  8
Holes_T31
100
AcDbCircle
 10
7.298071653543307
 20
1.454608267716535
 30
0.0
 40
0.0625
  0
CIRCLE
  5
1A3
330
17
100
AcDbEntity
  8
Holes_T31
100
AcDbCircle
 10
7.07251220472441
 20
1.3846968503937005
 30
0.0
 40
0.0625
  0
CIRCLE
  5
1A4
330
17
100
AcDbEntity
  8
Holes_T31
100
AcDbCircle
 10
6.858518503937008
 20
1.2886629921259838
 30
0.0
 40
0.0625
  0
CIRCLE
  5
1A5
330
17
100
AcDbEntity
  8
Holes_T31
100
AcDbCircle
 10
6.856552362204725
 20
1.0733125984251963
 30
0.0
 40
0.0625
  0
CIRCLE
  5
1A6
330
17
100
AcDbEntity
  8
Holes_T31
100
AcDbCircle
 10
7.007034645669291
 20
0.8922625984251965
 30
0.0
 40
0.0625
  0
CIRCLE
  5
1A7
330
17
100
AcDbEntity
  8
Holes_T31
100
AcDbCircle
 10
7.193444094488189
 20
0.7477366141732277
 30
0.0
 40
0.0625
  0
CIRCLE
  5
1A8
330
17
100
AcDbEntity
  8
Holes_T31
100
AcDbCircle
 10
7.408522440944882
 20
0.6531236220472438
 30
0.0
 40
0.0625
  0
CIRCLE
  5
1A9
330
17
100
AcDbEntity
  8
Holes_T31
100
AcDbCircle
 10
7.632049606299213
 20
0.6999078740157474
 30
0.0
 40
0.0625
  0
CIRCLE
  5
1AA
330
17
100
AcDbEntity
  8
Holes_T31
100
AcDbCircle
 10
7.761629133858268
 20
0.89407716535433
 30
0.0
 40
0.0625
  0
CIRCLE
  5
1AB
330
17
100
AcDbEntity
  8
Holes_T31
100
AcDbCircle
 10
7.823501181102363
 20
1.12178937007874
 30
0.0
 40
0.0625
  0
CIRCLE
  5
1AC
330
17
100
AcDbEntity
  8
Holes_T31
100
AcDbCircle
 10
7.872235039370079
 20
1.3529062992125982
 30
0.0
 40
0.0625
  0
CIRCLE
  5
1AD
330
17
100
AcDbEntity
  8
Holes_T31
100
AcDbCircle
 10
8.006708661417322
 20
1.5037129921259837
 30
0.0
 40
0.0625
  0
CIRCLE
  5
1AE
330
17
100
AcDbEntity
  8
Holes_T31
100
AcDbCircle
 10
8.180045275590551
 20
1.3451409448818892
 30
0.0
 40
0.0625
  0
CIRCLE
  5
1AF
330
17
100
AcDbEntity
  8
Holes_T31
100
AcDbCircle
 10
8.334452362204724
 20
1.1663724409448815
 30
0.0
 40
0.0625
  0
CIRCLE
  5
1B0
330
17
100
AcDbEntity
  8
Holes_T31
100
AcDbCircle
 10
8.494272834645669
 20
0.992475590551181
 30
0.0
 40
0.0625
  0
CIRCLE
  5
1B1
330
17
100
AcDbEntity
  8
Holes_T31
100
AcDbCircle
 10
8.667188976377954
 20
0.8316629921259837
 30
0.0
 40
0.0625
  0
CIRCLE
  5
1B2
330
17
100
AcDbEntity
  8
Holes_T31
100
AcDbCircle
 10
8.857582677165354
 20
0.6922240157480313
 30
0.0
 40
0.0625
  0
CIRCLE
  5
1B3
330
17
100
AcDbEntity
  8
Holes_T31
100
AcDbCircle
 10
9.075287401574805
 20
0.6048732283464564
 30
0.0
 40
0.0625
  0
CIRCLE
  5
1B4
330
17
100
AcDbEntity
  8
Holes_T31
100
AcDbCircle
 10
9.274593700787403
 20
0.7012877952755904
 30
0.0
 40
0.0625
  0
CIRCLE
  5
1B5
330
17
100
AcDbEntity
  8
Holes_T31
100
AcDbCircle
 10
9.326346850393701
 20
0.9286212598425191
 30
0.0
 40
0.0625
  0
CIRCLE
  5
1B6
330
17
100
AcDbEntity
  8
Holes_T31
100
AcDbCircle
 10
9.276156692913387
 20
1.1581185039370077
 30
0.0
 40
0.0625
  0
CIRCLE
  5
1B7
330
17
100
AcDbEntity
  8
Holes_T31
100
AcDbCircle
 10
9.152702362204725
 20
1.3583622047244093
 30
0.0
 40
0.0625
  0
CIRCLE
  5
1B8
330
17
100
AcDbEntity
  8
Holes_T31
100
AcDbCircle
 10
8.97905472440945
 20
1.5178523622047237
 30
0.0
 40
0.0625
  0
CIRCLE
  5
1B9
330
17
100
AcDbEntity
  8
Holes_T31
100
AcDbCircle
 10
8.783507874015749
 20
1.6502061023622046
 30
0.0
 40
0.0625
  0
CIRCLE
  5
1BA
330
17
100
AcDbEntity
  8
Holes_T31
100
AcDbCircle
 10
8.57988661417323
 20
1.7699284645669284
 30
0.0
 40
0.0625
  0
CIRCLE
  5
1BB
330
17
100
AcDbEntity
  8
Holes_T31
100
AcDbCircle
 10
8.378474803149608
 20
1.893181338582677
 30
0.0
 40
0.0625
  0
CIRCLE
  5
1BC
330
17
100
AcDbEntity
  8
Holes_T31
100
AcDbCircle
 10
8.379536614173228
 20
2.053797204724409
 30
0.0
 40
0.0625
  0
CIRCLE
  5
1BD
330
17
100
AcDbEntity
  8
Holes_T31
100
AcDbCircle
 10
8.606939763779527
 20
2.117014488188976
 30
0.0
 40
0.0625
  0
CIRCLE
  5
1BE
330
17
100
AcDbEntity
  8
Holes_T31
100
AcDbCircle
 10
8.836703543307086
 20
2.1718339370078734
 30
0.0
 40
0.0625
  0
CIRCLE
  5
1BF
330
17
100
AcDbEntity
  8
Holes_T31
100
AcDbCircle
 10
9.062006299212598
 20
2.2423545275590544
 30
0.0
 40
0.0625
  0
CIRCLE
  5
1C0
330
17
100
AcDbEntity
  8
Holes_T31
100
AcDbCircle
 10
9.266902362204725
 20
2.3578446850393697
 30
0.0
 40
0.0625
  0
CIRCLE
  5
1C1
330
17
100
AcDbEntity
  8
Holes_T31
100
AcDbCircle
 10
9.405620472440946
 20
2.545538149606299
 30
0.0
 40
0.0625
  0
CIRCLE
  5
1C2
330
17
100
AcDbEntity
  8
Holes_T31
100
AcDbCircle
 10
9.369733858267717
 20
2.765767401574803
 30
0.0
 40
0.0625
  0
CIRCLE
  5
1C3
330
17
100
AcDbEntity
  8
Holes_T31
100
AcDbCircle
 10
9.146395669291339
 20
2.8200521259842515
 30
0.0
 40
0.0625
  0
CIRCLE
  5
1C4
330
17
100
AcDbEntity
  8
Holes_T31
100
AcDbCircle
 10
8.912178740157481
 20
2.7904227952755902
 30
0.0
 40
0.0625
  0
CIRCLE
  5
1C5
330
17
100
AcDbEntity
  8
Holes_T31
100
AcDbCircle
 10
8.6782094488189
 20
2.7589506692913384
 30
0.0
 40
0.0625
  0
CIRCLE
  5
1C6
330
17
100
AcDbEntity
  8
Holes_T31
100
AcDbCircle
 10
8.535995669291339
 20
2.886902204724409
 30
0.0
 40
0.0625
  0
CIRCLE
  5
1C7
330
17
100
AcDbEntity
  8
Holes_T31
100
AcDbCircle
 10
8.669460236220472
 20
3.0776389370078734
 30
0.0
 40
0.0625
  0
CIRCLE
  5
1C8
330
17
100
AcDbEntity
  8
Holes_T31
100
AcDbCircle
 10
8.877608267716536
 20
3.185870472440945
 30
0.0
 40
0.0625
  0
CIRCLE
  5
1C9
330
17
100
AcDbEntity
  8
Holes_T31
100
AcDbCircle
 10
9.096354330708662
 20
3.2717097244094484
 30
0.0
 40
0.0625
  0
CIRCLE
  5
1CA
330
17
100
AcDbEntity
  8
Holes_T31
100
AcDbCircle
 10
9.074597244094488
 20
3.48410531496063
 30
0.0
 40
0.0625
  0
CIRCLE
  5
1CB
330
17
100
AcDbEntity
  8
Holes_T31
100
AcDbCircle
 10
8.940078740157482
 20
3.678234803149606
 30
0.0
 40
0.0625
  0
CIRCLE
  5
1CC
330
17
100
AcDbEntity
  8
Holes_T31
100
AcDbCircle
 10
8.80940157480315
 20
3.874923464566929
 30
0.0
 40
0.0625
  0
CIRCLE
  5
1CD
330
17
100
AcDbEntity
  8
Holes_T31
100
AcDbCircle
 10
8.721137401574802
 20
4.092547007874016
 30
0.0
 40
0.0625
  0
CIRCLE
  5
1CE
330
17
100
AcDbEntity
  8
Holes_T31
100
AcDbCircle
 10
8.80866653543307
 20
4.298764094488189
 30
0.0
 40
0.0625
  0
CIRCLE
  5
1CF
330
17
100
AcDbEntity
  8
Holes_T31
100
AcDbCircle
 10
9.018264173228348
 20
4.405365118110236
 30
0.0
 40
0.0625
  0
CIRCLE
  5
1D0
330
17
100
AcDbEntity
  8
Holes_T31
100
AcDbCircle
 10
9.245529527559055
 20
4.469359212598425
 30
0.0
 40
0.0625
  0
CIRCLE
  5
1D1
330
17
100
AcDbEntity
  8
Holes_T31
100
AcDbCircle
 10
9.476944488188977
 20
4.516665157480315
 30
0.0
 40
0.0625
  0
SPLINE
  5
1D3
330
17
100
AcDbEntity
  8
TrackPath_T31
100
AcDbSpline
 70
0
 71
3
 72
0
 73
0
 74
122
 11
0.09632737756835498
 21
0.3655867311694484
 31
0.0
 11
0.23790649095418176
 21
0.358999959515905
 31
0.0
 11
0.4736132934515075
 21
0.3480338185338434
 31
0.0
 11
0.7088228982239073
 21
0.33785235873803765
 31
0.0
 11
0.9435187281716675
 21
0.3292546324989132
 31
0.0
 11
1.1776318794200893
 21
0.32312350287122515
 31
0.0
 11
1.4110179822017201
 21
0.32048415130457286
 31
0.0
 11
1.6433966374996014
 21
0.3225800535676152
 31
0.0
 11
1.873871082668905
 21
0.3309892679804293
 31
0.0
 11
2.100246775199654
 21
0.34880580110758513
 31
0.0
 11
2.318727474461396
 21
0.3817642071186367
 31
0.0
 11
2.5225402826138907
 21
0.43743467824639626
 31
0.0
 11
2.700234672629835
 21
0.5245185331931103
 31
0.0
 11
2.8408798639336434
 21
0.6537210719574473
 31
0.0
 11
2.9472208041576167
 21
0.8266436914411114
 31
0.0
 11
3.039831244940515
 21
1.036471522687855
 31
0.0
 11
3.2468567380413873
 21
1.3307780483386824
 31
0.0
 11
3.575205229895677
 21
1.1451548635175135
 31
0.0
 11
3.7037676067773404
 21
0.9197336491173096
 31
0.0
 11
3.8209802278353755
 21
0.7328640585315448
 31
0.0
 11
3.954634950448197
 21
0.5745774995822664
 31
0.0
 11
4.1136950335949845
 21
0.4535328743248396
 31
0.0
 11
4.294289295862608
 21
0.3731402648634867
 31
0.0
 11
4.486187940054571
 21
0.33922465094850873
 31
0.0
 11
4.678188328844263
 21
0.3569390966582233
 31
0.0
 11
4.867595155765238
 21
0.4294498673947257
 31
0.0
 11
5.065015383468952
 21
0.5388763700834014
 31
0.0
 11
5.289176236010589
 21
0.6579075730092206
 31
0.0
 11
5.565102456972403
 21
0.7349573771466045
 31
0.0
 11
5.854350347537416
 21
0.6918676820589678
 31
0.0
 11
6.093753561387857
 21
0.57877648742986
 31
0.0
 11
6.362737232176196
 21
0.4611905668443502
 31
0.0
 11
6.365273988401855
 21
0.4632003865492527
 31
0.0
 11
6.365273988401855
 21
0.4632003865492527
 31
0.0
 11
6.4292885263357205
 21
0.689586800333885
 31
0.0
 11
6.41068246962452
 21
0.9021939558589293
 31
0.0
 11
6.366004027561506
 21
1.1181627510808865
 31
0.0
 11
6.302309778748175
 21
1.3386608485670135
 31
0.0
 11
6.231415990677485
 21
1.582717599880237
 31
0.0
 11
6.2384444323303105
 21
1.9226763326238354
 31
0.0
 11
6.517608442884638
 21
2.0863572012247844
 31
0.0
 11
6.681710004345989
 21
2.1889517606998057
 31
0.0
 11
6.681710004345989
 21
2.1889517606998057
 31
0.0
 11
6.638835328084313
 21
2.4175932596472847
 31
0.0
 11
6.5398675459442055
 21
2.591788576116778
 31
0.0
 11
6.400632243798425
 21
2.754403040725574
 31
0.0
 11
6.205815880480334
 21
2.961135318790518
 31
0.0
 11
6.3539405450992446
 21
3.28367056004801
 31
0.0
 11
6.628254572801623
 21
3.258114190273952
 31
0.0
 11
6.818212667315032
 21
3.3131103431277036
 31
0.0
 11
6.818212667315032
 21
3.3131103431277036
 31
0.0
 11
6.86911582724749
 21
3.545893726561733
 31
0.0
 11
6.880521270769381
 21
3.8193340731365892
 31
0.0
 11
7.122266523417792
 21
4.082269130216064
 31
0.0
 11
7.416175562924158
 21
3.987629021059474
 31
0.0
 11
7.580026818783436
 21
3.9483249657423243
 31
0.0
 11
7.725075769964368
 21
4.022550509494703
 31
0.0
 11
7.901236885437267
 21
4.171524647496228
 31
0.0
 11
8.210827092122512
 21
4.310340961899196
 31
0.0
 11
8.533302613457836
 21
4.081965431685404
 31
0.0
 11
8.531609084831572
 21
3.7317784554751547
 31
0.0
 11
8.374138572281703
 21
3.4676164964461904
 31
0.0
 11
8.179747052043812
 21
3.3030046552855894
 31
0.0
 11
8.048636257723402
 21
3.186080930534196
 31
0.0
 11
8.040061955025038
 21
3.0429279823529214
 31
0.0
 11
8.105079263495071
 21
2.804450301005064
 31
0.0
 11
8.01392500973936
 21
2.485437576107621
 31
0.0
 11
7.752180691090009
 21
2.326266288797127
 31
0.0
 11
7.536472892175426
 21
2.2381967449040023
 31
0.0
 11
7.397384595513102
 21
2.120766259430571
 31
0.0
 11
7.397384595513102
 21
2.120766259430571
 31
0.0
 11
7.494956742130146
 21
1.8996419500935393
 31
0.0
 11
7.602782715786283
 21
1.5927476629502515
 31
0.0
 11
7.38232111970628
 21
1.3185861097743303
 31
0.0
 11
7.129024068242074
 21
1.2350091445466238
 31
0.0
 11
6.998187292487476
 21
1.1634635785063874
 31
0.0
 11
6.998187292487476
 21
1.1634635785063874
 31
0.0
 11
7.118222993322288
 21
1.0073154182350401
 31
0.0
 11
7.2753214896136456
 21
0.88519967163766
 31
0.0
 11
7.483866033063624
 21
0.8221251467275853
 31
0.0
 11
7.483866033063624
 21
0.8221251467275853
 31
0.0
 11
7.615929837333501
 21
0.9601961111428713
 31
0.0
 11
7.667956749105934
 21
1.159285098834272
 31
0.0
 11
7.727974282197387
 21
1.4221077004987113
 31
0.0
 11
8.010743814773999
 21
1.6636621013369703
 31
0.0
 11
8.29480292877729
 21
1.4566339089427305
 31
0.0
 11
8.453912083953742
 21
1.2728119772067763
 31
0.0
 11
8.607743834138098
 21
1.1052777725965168
 31
0.0
 11
8.769115440017519
 21
0.9549958588320345
 31
0.0
 11
8.935303462025958
 21
0.8320792251635248
 31
0.0
 11
9.10998358057207
 21
0.7820862288204693
 31
0.0
 11
9.10998358057207
 21
0.7820862288204693
 31
0.0
 11
9.166347786853578
 21
0.929168677675289
 31
0.0
 11
9.12780941960189
 21
1.098176144114894
 31
0.0
 11
9.02933678341061
 21
1.2564753362437604
 31
0.0
 11
8.879833207778574
 21
1.3923330782780343
 31
0.0
 11
8.698076281238475
 21
1.5149232765655134
 31
0.0
 11
8.49757840419819
 21
1.6327229305287385
 31
0.0
 11
8.24775388483682
 21
1.8009206128351434
 31
0.0
 11
8.267563993707796
 21
2.168086890462468
 31
0.0
 11
8.566940799844625
 21
2.2719340895444353
 31
0.0
 11
8.794216507824554
 21
2.326089736950391
 31
0.0
 11
8.998506604627464
 21
2.389214286470727
 31
0.0
 11
9.161043951412436
 21
2.4778196693674834
 31
0.0
 11
9.216266269759029
 21
2.6327827927584146
 31
0.0
 11
9.212699009602654
 21
2.6340328435189573
 31
0.0
 11
9.212699009602654
 21
2.6340328435189573
 31
0.0
 11
8.932884234729695
 21
2.631768194035916
 31
0.0
 11
8.638460806312048
 21
2.6039666526352248
 31
0.0
 11
8.376055932237534
 21
2.882511246838049
 31
0.0
 11
8.564088072414988
 21
3.1980412089754338
 31
0.0
 11
8.811391874225606
 21
3.331525507482836
 31
0.0
 11
8.944050300247707
 21
3.393293409476006
 31
0.0
 11
8.944050300247707
 21
3.393293409476006
 31
0.0
 11
8.807682244663502
 21
3.5883951238263108
 31
0.0
 11
8.667939013711143
 21
3.800168238600511
 31
0.0
 11
8.533302613457836
 21
4.081965431685404
 31
0.0
 11
8.692657287158385
 21
4.408954177139679
 31
0.0
 11
8.960064217370206
 21
4.554404593210326
 31
0.0
 11
9.207799966501472
 21
4.624847090654568
 31
0.0
 11
9.444899902780037
 21
4.673423393455236
 31
0.0
 11
9.58374887915799
 21
4.701806960384371
 31
0.0
  0
SPLINE
  5
1D4
330
17
100
AcDbEntity
  8
TrackPath_T31
100
AcDbSpline
 70
0
 71
3
 72
0
 73
0
 74
117
 11
0.08145590747101515
 21
0.04593248142897646
 31
0.0
 11
0.2230350208568419
 21
0.03934570977543314
 31
0.0
 11
0.45925859631227217
 21
0.028355945245683495
 31
0.0
 11
0.6960473379965653
 21
0.018107483781647532
 31
0.0
 11
0.9334748151354191
 21
0.009412296634943668
 31
0.0
 11
1.1716378056192809
 21
0.0031796467350735658
 31
0.0
 11
1.4106590256722957
 21
0.0004843526324330716
 31
0.0
 11
1.6506932837602413
 21
0.002663253518997738
 31
0.0
 11
1.892323956701174
 21
0.011521755641617004
 31
0.0
 11
2.1368626736192438
 21
0.03090758471918459
 31
0.0
 11
2.3853188247512027
 21
0.06876965114907954
 31
0.0
 11
2.6365615284097323
 21
0.13843776269848582
 31
0.0
 11
2.8812034376063855
 21
0.2606050888541337
 31
0.0
 11
3.0871973014206877
 21
0.4494474319795591
 31
0.0
 11
3.2300436052912023
 21
0.676939773125817
 31
0.0
 11
3.3277671562826914
 21
0.9212017675272361
 31
0.0
 11
3.3277671562826914
 21
0.9212017675272361
 31
0.0
 11
3.428575070388015
 21
0.756426980803949
 31
0.0
 11
3.562933236731554
 21
0.5436241304448318
 31
0.0
 11
3.7345397739612523
 21
0.34228864215001575
 31
0.0
 11
3.9508096908144648
 21
0.1780907477224033
 31
0.0
 11
4.20093668838936
 21
0.06705973513651145
 31
0.0
 11
4.4731128473470045
 21
0.019491884484562266
 31
0.0
 11
4.750028206588808
 21
0.04510736003468943
 31
0.0
 11
5.001724529274132
 21
0.13891706173913151
 31
0.0
 11
5.217851545664906
 21
0.2577338661370713
 31
0.0
 11
5.410028488398859
 21
0.36160581281755044
 31
0.0
 11
5.585595968224448
 21
0.4156142763967021
 31
0.0
 11
5.759248865061009
 21
0.38632601872843303
 31
0.0
 11
5.945325966171199
 21
0.29528178028667507
 31
0.0
 11
6.165115081509222
 21
0.17179040207475013
 31
0.0
 11
6.506510145580719
 21
0.11542879534247227
 31
0.0
 11
6.722319485190001
 21
0.4048004862619685
 31
0.0
 11
6.749287064215461
 21
0.6905541445480035
 31
0.0
 11
6.717031706532564
 21
0.9827495243137403
 31
0.0
 11
6.676679437005423
 21
1.194849059942735
 31
0.0
 11
6.609509906291195
 21
1.428260411275505
 31
0.0
 11
6.546728103810706
 21
1.6372911402772432
 31
0.0
 11
6.514680764520084
 21
1.7611415413919118
 31
0.0
 11
6.646330139792527
 21
1.7933883893263953
 31
0.0
 11
6.918673091040686
 21
1.922679676445389
 31
0.0
 11
7.007862805779148
 21
2.2544301092416124
 31
0.0
 11
6.935033175852696
 21
2.5386999686991714
 31
0.0
 11
6.802204107599102
 21
2.7750357545918827
 31
0.0
 11
6.6250596004267255
 21
2.9381301404347084
 31
0.0
 11
6.935791107438359
 21
2.9830362100633527
 31
0.0
 11
7.149015841396146
 21
3.2400990091930497
 31
0.0
 11
7.188374723933614
 21
3.5241277695012583
 31
0.0
 11
7.183552953300115
 21
3.745400839268555
 31
0.0
 11
7.183552953300115
 21
3.745400839268555
 31
0.0
 11
7.323366169359309
 21
3.6813833411452506
 31
0.0
 11
7.618259007988218
 21
3.6306170815017693
 31
0.0
 11
7.897011631610436
 21
3.7526652385367933
 31
0.0
 11
8.082330831098167
 21
3.907697084787236
 31
0.0
 11
8.197852267870129
 21
3.962932317255814
 31
0.0
 11
8.197852267870129
 21
3.962932317255814
 31
0.0
 11
8.221166505719612
 21
3.8094019382256326
 31
0.0
 11
8.132870876537195
 21
3.677830432687668
 31
0.0
 11
7.964668695987684
 21
3.5399462108561424
 31
0.0
 11
7.761023584796283
 21
3.32636261277289
 31
0.0
 11
7.7213104859198465
 21
3.0146879231588883
 31
0.0
 11
7.774087233461525
 21
2.7414564157743655
 31
0.0
 11
7.774087233461525
 21
2.7414564157743655
 31
0.0
 11
7.613620096311566
 21
2.614712057659566
 31
0.0
 11
7.39212474561985
 21
2.523790184229856
 31
0.0
 11
7.129995741375931
 21
2.3463207935511
 31
0.0
 11
7.083416957361648
 21
2.0068257427058676
 31
0.0
 11
7.206673179129698
 21
1.7607441916387438
 31
0.0
 11
7.249857137371829
 21
1.6139394915904646
 31
0.0
 11
7.249857137371829
 21
1.6139394915904646
 31
0.0
 11
7.0160003412067455
 21
1.5343845562407772
 31
0.0
 11
6.727044099264535
 21
1.3798467676346713
 31
0.0
 11
6.717031706532564
 21
0.9827495243137403
 31
0.0
 11
6.895846298016295
 21
0.777209778615353
 31
0.0
 11
7.111566699362733
 21
0.6102735567087954
 31
0.0
 11
7.391177696481625
 21
0.4940665258851916
 31
0.0
 11
7.722234331879316
 21
0.5677461727856202
 31
0.0
 11
7.907328430383035
 21
0.8279582195657887
 31
0.0
 11
7.9790456130987915
 21
1.084293641323208
 31
0.0
 11
8.026991830458616
 21
1.2887073874208372
 31
0.0
 11
8.028732548274306
 21
1.2862046871208468
 31
0.0
 11
8.028732548274306
 21
1.2862046871208468
 31
0.0
 11
8.214992640455705
 21
1.0599329046829866
 31
0.0
 11
8.380801835153239
 21
0.8796734085058452
 31
0.0
 11
8.56526251273839
 21
0.7083301254199329
 31
0.0
 11
8.77986189230475
 21
0.5523688063325377
 31
0.0
 11
9.07876419766516
 21
0.44491100815385565
 31
0.0
 11
9.401030845915114
 21
0.6032385814492992
 31
0.0
 11
9.486345913933825
 21
0.9280738420097492
 31
0.0
 11
9.424503966224885
 21
1.2180608637591213
 31
0.0
 11
9.27606794099884
 21
1.4602490732050581
 31
0.0
 11
9.078276241040324
 21
1.6433716461314132
 31
0.0
 11
8.868939466793023
 21
1.7854889281588957
 31
0.0
 11
8.65456677593135
 21
1.9346144427193177
 31
0.0
 11
8.509195721462396
 21
1.9854420643302106
 31
0.0
 11
8.65456677593135
 21
1.9346144427193177
 31
0.0
 11
8.879190578789618
 21
2.017578137065356
 31
0.0
 11
9.125505993797733
 21
2.0954947686473817
 31
0.0
 11
9.372760772997013
 21
2.237869700711256
 31
0.0
 11
9.560766834027037
 21
2.5064279656819335
 31
0.0
 11
9.486064084744743
 21
2.875618566374288
 31
0.0
 11
9.155004792263886
 21
2.979820342478157
 31
0.0
 11
8.833152822805612
 21
2.953157030777789
 31
0.0
 11
8.706946748835446
 21
2.9026139242791107
 31
0.0
 11
8.706946748835446
 21
2.9026139242791107
 31
0.0
 11
8.833152822805612
 21
2.953157030777789
 31
0.0
 11
8.943824661207465
 21
3.040215437399054
 31
0.0
 11
9.229860137474878
 21
3.1835269621500264
 31
0.0
 11
9.223942411636008
 21
3.541516297638119
 31
0.0
 11
9.072475235651462
 21
3.7680744824729016
 31
0.0
 11
8.950864135895158
 21
3.9496786905333465
 31
0.0
 11
8.902906472338671
 21
4.1406992484684775
 31
0.0
 11
8.902906472338671
 21
4.1406992484684775
 31
0.0
 11
9.076464129086489
 21
4.256325643010146
 31
0.0
 11
9.283259088616639
 21
4.313871334542282
 31
0.0
 11
9.508989073597917
 21
4.359906921505393
 31
0.0
 11
9.64783804997587
 21
4.388290488434528
 31
0.0
  0
LWPOLYLINE
  5
1D6
330
17
100
AcDbEntity
  8
NumMarks_T31
100
AcDbPolyline
 90
2
 70
0
 10
1.1713568334098678
 20
-0.011817721521308527
 10
1.1779128516295023
 20
0.33812087112760725
  0
LWPOLYLINE
  5
1D7
330
17
100
AcDbEntity
  8
NumMarks_T31
100
AcDbPolyline
 90
2
 70
0
 10
2.3884402942960374
 20
0.05409803133800656
 10
2.315606004916561
 20
0.39643582692970963
  0
LWPOLYLINE
  5
1D8
330
17
100
AcDbEntity
  8
NumMarks_T31
100
AcDbPolyline
 90
2
 70
0
 10
3.3423116292419817
 20
0.8924902144814175
 10
3.0262873471359715
 20
1.0429184469359043
  0
LWPOLYLINE
  5
1D9
330
17
100
AcDbEntity
  8
NumMarks_T31
100
AcDbPolyline
 90
2
 70
0
 10
3.7242228125634265
 20
0.33140010195787895
 10
3.964951911846023
 20
0.5854660397744033
  0
LWPOLYLINE
  5
1DA
330
17
100
AcDbEntity
  8
NumMarks_T31
100
AcDbPolyline
 90
2
 70
0
 10
5.008011843657362
 20
0.12529833647402555
 10
4.861307841382008
 20
0.4430685926598317
  0
LWPOLYLINE
  5
1DB
330
17
100
AcDbEntity
  8
NumMarks_T31
100
AcDbPolyline
 90
2
 70
0
 10
5.938368422645418
 20
0.2819929658893383
 10
6.100711104913637
 20
0.5920653018271967
  0
LWPOLYLINE
  5
1DC
330
17
100
AcDbEntity
  8
NumMarks_T31
100
AcDbPolyline
 90
2
 70
0
 10
6.742183703867866
 20
0.9504840344997683
 10
6.395839130777803
 20
0.9000317135317275
  0
LWPOLYLINE
  5
1DD
330
17
100
AcDbEntity
  8
NumMarks_T31
100
AcDbPolyline
 90
2
 70
0
 10
6.6523639693350844
 20
1.7796554762686583
 10
6.511574613342081
 20
2.1000901142825215
  0
LWPOLYLINE
  5
1DE
330
17
100
AcDbEntity
  8
NumMarks_T31
100
AcDbPolyline
 90
2
 70
0
 10
6.646417144762797
 20
2.9820316471394737
 10
6.389626949725393
 20
2.7442107150652504
  0
LWPOLYLINE
  5
1DF
330
17
100
AcDbEntity
  8
NumMarks_T31
100
AcDbPolyline
 90
2
 70
0
 10
7.162888192668767
 20
3.2343930587753706
 10
6.839199996307611
 20
3.36753190185455
  0
LWPOLYLINE
  5
1E0
330
17
100
AcDbEntity
  8
NumMarks_T31
100
AcDbPolyline
 90
2
 70
0
 10
7.620051141857192
 20
3.615724524427993
 10
7.578234684914462
 20
3.9632175228161004
  0
LWPOLYLINE
  5
1E1
330
17
100
AcDbEntity
  8
NumMarks_T31
100
AcDbPolyline
 90
2
 70
0
 10
8.206614509823739
 20
3.8130405389795614
 10
8.546161080727446
 20
3.728139854721226
  0
LWPOLYLINE
  5
1E2
330
17
100
AcDbEntity
  8
NumMarks_T31
100
AcDbPolyline
 90
2
 70
0
 10
7.770130923662505
 20
2.798567304880041
 10
8.120076950353246
 20
2.8047137187420055
  0
LWPOLYLINE
  5
1E3
330
17
100
AcDbEntity
  8
NumMarks_T31
100
AcDbPolyline
 90
2
 70
0
 10
7.068716517094618
 20
2.0038429493916294
 10
7.411726789991999
 20
2.073441460057189
  0
LWPOLYLINE
  5
1E4
330
17
100
AcDbEntity
  8
NumMarks_T31
100
AcDbPolyline
 90
2
 70
0
 10
6.71471837382649
 20
1.3883952465886107
 10
7.002318634047525
 20
1.1889307376633569
  0
LWPOLYLINE
  5
1E5
330
17
100
AcDbEntity
  8
NumMarks_T31
100
AcDbPolyline
 90
2
 70
0
 10
7.730689149902451
 20
0.5553560132952958
 10
7.533410062695975
 20
0.844459734736199
  0
LWPOLYLINE
  5
1E6
330
17
100
AcDbEntity
  8
NumMarks_T31
100
AcDbPolyline
 90
2
 70
0
 10
8.054529092417555
 20
1.223195515440344
 10
8.305561458763547
 20
1.4670863743234344
  0
LWPOLYLINE
  5
1E7
330
17
100
AcDbEntity
  8
NumMarks_T31
100
AcDbPolyline
 90
2
 70
0
 10
9.079090147298633
 20
0.42991455001079937
 10
9.071484655850977
 20
0.7798319066821134
  0
LWPOLYLINE
  5
1E8
330
17
100
AcDbEntity
  8
NumMarks_T31
100
AcDbPolyline
 90
2
 70
0
 10
9.08757825822447
 20
1.6551390789995402
 10
8.870531190594429
 20
1.3805656454099073
  0
LWPOLYLINE
  5
1E9
330
17
100
AcDbEntity
  8
NumMarks_T31
100
AcDbPolyline
 90
2
 70
0
 10
8.650688630583327
 20
1.9475711742064428
 10
8.563190896975728
 20
2.2864578021715096
  0
LWPOLYLINE
  5
1EA
330
17
100
AcDbEntity
  8
NumMarks_T31
100
AcDbPolyline
 90
2
 70
0
 10
9.496970043476965
 20
2.88591711307424
 10
9.242497673058468
 20
2.6456176900753663
  0
LWPOLYLINE
  5
1EB
330
17
100
AcDbEntity
  8
NumMarks_T31
100
AcDbPolyline
 90
2
 70
0
 10
8.784711040382719
 20
2.9459489520433544
 10
8.554209432058224
 20
3.2093289219723924
  0
LWPOLYLINE
  5
1EC
330
17
100
AcDbEntity
  8
NumMarks_T31
100
AcDbPolyline
 90
2
 70
0
 10
8.964126250997532
 20
3.956686992967698
 10
8.654676898608768
 20
3.7931599361661594
  0
LWPOLYLINE
  5
1ED
330
17
100
AcDbEntity
  8
NumMarks_T31
100
AcDbPolyline
 90
2
 70
0
 10
9.511993253480005
 20
4.345210836882744
 10
9.441895722897948
 20
4.688119478077885
  0
LWPOLYLINE
  5
1F1
330
17
100
AcDbEntity
  8
NormEvents_T29
100
AcDbPolyline
 90
2
 70
0
 10
0.8064340157480315
 20
1.4177070866141728
 10
0.5756936220472441
 20
1.7199139370078738
  0
LWPOLYLINE
  5
1F2
330
17
100
AcDbEntity
  8
NormEvents_T29
100
AcDbPolyline
 90
2
 70
0
 10
1.7418877165354334
 20
1.2847015748031494
 10
1.7543643307086614
 20
1.712670748031496
  0
LWPOLYLINE
  5
1F3
330
17
100
AcDbEntity
  8
NormEvents_T29
100
AcDbPolyline
 90
2
 70
0
 10
1.5182987007874018
 20
1.7205522440944878
 10
1.704302716535433
 20
2.0921961023622044
  0
LWPOLYLINE
  5
1F4
330
17
100
AcDbEntity
  8
NormEvents_T29
100
AcDbPolyline
 90
2
 70
0
 10
0.760568188976378
 20
2.1184120866141734
 10
0.7027610236220473
 20
2.581687244094488
  0
LWPOLYLINE
  5
1F5
330
17
100
AcDbEntity
  8
NormEvents_T29
100
AcDbPolyline
 90
2
 70
0
 10
2.1164098031496064
 20
2.573805196850393
 10
2.3235412992125988
 20
2.9125129921259836
  0
LWPOLYLINE
  5
1F6
330
17
100
AcDbEntity
  8
NormEvents_T29
100
AcDbPolyline
 90
2
 70
0
 10
1.4099632677165355
 20
2.564299803149606
 10
1.1452678346456693
 20
2.99173031496063
  0
LWPOLYLINE
  5
1F7
330
17
100
AcDbEntity
  8
RampUpEvents_T29
100
AcDbPolyline
 90
2
 70
0
 10
1.3810437007874017
 20
2.97727779527559
 10
1.078895905511811
 20
3.4535878346456688
  0
LWPOLYLINE
  5
1F8
330
17
100
AcDbEntity
  8
RampDownEvents_T29
100
AcDbPolyline
 90
3
 70
0
 10
2.2313772440944883
 20
3.593200708661417
 10
1.7070816560371003
 20
3.9035289326796057
 10
1.3145712204724411
 20
3.4375621653543305
  0
LWPOLYLINE
  5
1F9
330
17
100
AcDbEntity
  8
NormEvents_T29
100
AcDbPolyline
 90
2
 70
0
 10
0.8428679921259844
 20
3.459107244094488
 10
1.255569251968504
 20
4.052697204724409
  0
LWPOLYLINE
  5
1FA
330
17
100
AcDbEntity
  8
NormEvents_T29
100
AcDbPolyline
 90
3
 70
0
 10
1.763053503937008
 20
4.882712992125984
 10
2.271477007048233
 20
5.194264043164028
 10
2.6456046062992127
 20
4.729950511811023
  0
LWPOLYLINE
  5
1FB
330
17
100
AcDbEntity
  8
NormEvents_T29
100
AcDbPolyline
 90
3
 70
0
 10
3.7493045275590555
 20
4.783755590551181
 10
4.001188673460216
 20
5.246580097909297
 10
4.431514960629921
 20
4.942488937007874
  0
LWPOLYLINE
  5
1FC
330
17
100
AcDbEntity
  8
RampDownEvents_T29
100
AcDbPolyline
 90
3
 70
0
 10
5.601161023622047
 20
5.073947125984252
 10
5.185267719088733
 20
5.401490642748161
 10
4.9037216535433075
 20
4.953178464566929
  0
LWPOLYLINE
  5
200
330
17
100
AcDbEntity
  8
NormEvents_T30
100
AcDbPolyline
 90
3
 70
0
 10
2.6836479921259846
 20
0.9148452755905507
 10
2.349236783029863
 20
1.4273710646326725
 10
2.7964962992125986
 20
1.8450700787401568
  0
LWPOLYLINE
  5
201
330
17
100
AcDbEntity
  8
NormEvents_T30
100
AcDbPolyline
 90
2
 70
0
 10
2.7964518110236223
 20
1.6089901181102362
 10
3.3740276377952756
 20
2.1254599999999995
  0
LWPOLYLINE
  5
202
330
17
100
AcDbEntity
  8
RampDownEvents_T30
100
AcDbPolyline
 90
2
 70
0
 10
3.904611968503937
 20
2.8509688976377947
 10
3.546825275590551
 20
2.219382007874015
  0
LWPOLYLINE
  5
203
330
17
100
AcDbEntity
  8
NormEvents_T30
100
AcDbPolyline
 90
2
 70
0
 10
3.204220511811024
 20
2.759507007874016
 10
3.3346680314960633
 20
3.314795275590551
  0
LWPOLYLINE
  5
204
330
17
100
AcDbEntity
  8
RampUpEvents_T30
100
AcDbPolyline
 90
2
 70
0
 10
3.5681831102362205
 20
3.279214960629921
 10
3.3038388976377955
 20
3.7488979133858265
  0
LWPOLYLINE
  5
205
330
17
100
AcDbEntity
  8
NormEvents_T30
100
AcDbPolyline
 90
2
 70
0
 10
4.248410629921261
 20
3.1146292125984254
 10
4.71442283464567
 20
3.9168301968503934
  0
LWPOLYLINE
  5
206
330
17
100
AcDbEntity
  8
NormEvents_T30
100
AcDbPolyline
 90
3
 70
0
 10
5.194604724409449
 20
3.283298346456692
 10
5.4682777194800325
 20
2.7019559986969064
 10
4.973445669291339
 20
2.292081535433071
  0
LWPOLYLINE
  5
207
330
17
100
AcDbEntity
  8
NormEvents_T30
100
AcDbPolyline
 90
2
 70
0
 10
4.720282283464567
 20
0.7010027559055113
 10
5.587046456692914
 20
2.1771583070866143
  0
LWPOLYLINE
  5
208
330
17
100
AcDbEntity
  8
NormEvents_T30
100
AcDbPolyline
 90
2
 70
0
 10
4.652767322834646
 20
1.2439334645669289
 10
5.820438582677165
 20
2.857228582677165
  0
LWPOLYLINE
  5
209
330
17
100
AcDbEntity
  8
RampDownEvents_T30
100
AcDbPolyline
 90
2
 70
0
 10
6.251374803149607
 20
4.608097755905512
 10
5.982797244094489
 20
3.9160076377952753
  0
LWPOLYLINE
  5
20A
330
17
100
AcDbEntity
  8
NormEvents_T30
100
AcDbPolyline
 90
3
 70
0
 10
7.500621653543308
 20
4.705921614173228
 10
7.886054562621311
 20
4.061921236649824
 10
8.419679527559056
 20
4.589689566929134
  0
LWPOLYLINE
  5
20E
330
17
100
AcDbEntity
  8
NormEvents_T31
100
AcDbPolyline
 90
2
 70
0
 10
3.0886322047244095
 20
0.7517917322834642
 10
3.5661713385826777
 20
0.8380803149606293
  0
LWPOLYLINE
  5
20F
330
17
100
AcDbEntity
  8
NormEvents_T31
100
AcDbPolyline
 90
3
 70
0
 10
3.6919567322834648
 20
0.6382440944881883
 10
4.184893743502216
 20
0.5788929611113702
 10
4.479650393700788
 20
0.1793582677165355
  0
LWPOLYLINE
  5
210
330
17
100
AcDbEntity
  8
NormEvents_T31
100
AcDbPolyline
 90
2
 70
0
 10
6.019539763779528
 20
0.4370291338582675
 10
6.589287795275591
 20
0.6900704724409442
  0
LWPOLYLINE
  5
211
330
17
100
AcDbEntity
  8
NormEvents_T31
100
AcDbPolyline
 90
2
 70
0
 10
6.376562598425197
 20
1.8419089370078736
 10
6.671035826771654
 20
2.6834121653543304
  0
LWPOLYLINE
  5
212
330
17
100
AcDbEntity
  8
NormEvents_T31
100
AcDbPolyline
 90
2
 70
0
 10
6.392471653543307
 20
3.12837937007874
 10
7.03310157480315
 20
3.7711754724409445
  0
LWPOLYLINE
  5
213
330
17
100
AcDbEntity
  8
NormEvents_T31
100
AcDbPolyline
 90
2
 70
0
 10
7.811043700787402
 20
3.8876078740157483
 10
8.376387795275592
 20
3.7705901968503936
  0
LWPOLYLINE
  5
214
330
17
100
AcDbEntity
  8
RampDownEvents_T31
100
AcDbPolyline
 90
3
 70
0
 10
7.8884854330708665
 20
2.5847598425196847
 10
8.440296124825693
 20
2.9422973522304665
 10
8.25350472440945
 20
3.5727234645669292
  0
LWPOLYLINE
  5
215
330
17
100
AcDbEntity
  8
RampUpEvents_T31
100
AcDbPolyline
 90
2
 70
0
 10
7.682900393700788
 20
2.4704891732283465
 10
7.350814960629922
 20
1.8301930708661416
  0
LWPOLYLINE
  5
216
330
17
100
AcDbEntity
  8
RampDownEvents_T31
100
AcDbPolyline
 90
2
 70
0
 10
7.007034645669291
 20
0.8922625984251965
 10
7.298071653543307
 20
1.454608267716535
  0
LWPOLYLINE
  5
217
330
17
100
AcDbEntity
  8
RampUpEvents_T31
100
AcDbPolyline
 90
2
 70
0
 10
7.193444094488189
 20
0.7477366141732277
 10
7.823501181102363
 20
1.12178937007874
  0
LWPOLYLINE
  5
218
330
17
100
AcDbEntity
  8
RampUpEvents_T31
100
AcDbPolyline
 90
2
 70
0
 10
7.761629133858268
 20
0.89407716535433
 10
8.494272834645669
 20
0.992475590551181
  0
LWPOLYLINE
  5
219
330
17
100
AcDbEntity
  8
NormEvents_T31
100
AcDbPolyline
 90
2
 70
0
 10
8.334452362204724
 20
1.1663724409448815
 10
9.276156692913387
 20
1.1581185039370077
  0
LWPOLYLINE
  5
21A
330
17
100
AcDbEntity
  8
NormEvents_T31
100
AcDbPolyline
 90
2
 70
0
 10
8.783507874015749
 20
1.6502061023622046
 10
8.836703543307086
 20
2.1718339370078734
  0
LWPOLYLINE
  5
21B
330
17
100
AcDbEntity
  8
RampDownEvents_T31
100
AcDbPolyline
 90
2
 70
0
 10
8.912178740157481
 20
2.7904227952755902
 10
9.266902362204725
 20
2.3578446850393697
  0
LWPOLYLINE
  5
21C
330
17
100
AcDbEntity
  8
NormEvents_T31
100
AcDbPolyline
 90
2
 70
0
 10
8.669460236220472
 20
3.0776389370078734
 10
8.80940157480315
 20
3.874923464566929
  0
LWPOLYLINE
  5
21D
330
17
100
AcDbEntity
  8
RampUpEvents_T31
100
AcDbPolyline
 90
2
 70
0
 10
9.074597244094488
 20
3.48410531496063
 10
9.476944488188977
 20
4.516665157480315
  0
ENDSEC
  0
SECTION
  2
OBJECTS
  0
DICTIONARY
  5
A
330
0
100
AcDbDictionary
280
0
281
1
  3
ACAD_COLOR
350
B
  3
ACAD_GROUP
350
C
  3
ACAD_LAYOUT
350
D
  3
ACAD_MATERIAL
350
E
  3
ACAD_MLEADERSTYLE
350
F
  3
ACAD_MLINESTYLE
350
10
  3
ACAD_PLOTSETTINGS
350
11
  3
ACAD_PLOTSTYLENAME
350
12
  3
ACAD_SCALELIST
350
14
  3
ACAD_TABLESTYLE
350
15
  3
ACAD_VISUALSTYLE
350
16
  3
EZDXF_META
350
2D
  0
DICTIONARY
  5
B
330
A
100
AcDbDictionary
280
0
281
1
  0
DICTIONARY
  5
C
330
A
100
AcDbDictionary
280
0
281
1
  0
DICTIONARY
  5
D
330
A
100
AcDbDictionary
280
0
281
1
  3
Model
350
1A
  3
Layout1
350
1E
  0
DICTIONARY
  5
E
330
A
100
AcDbDictionary
280
0
281
1
  3
ByBlock
350
1F
  3
ByLayer
350
20
  3
Global
350
21
  0
DICTIONARY
  5
F
330
A
100
AcDbDictionary
280
0
281
1
  3
Standard
350
2C
  0
DICTIONARY
  5
10
330
A
100
AcDbDictionary
280
0
281
1
  3
Standard
350
22
  0
DICTIONARY
  5
11
330
A
100
AcDbDictionary
280
0
281
1
  0
ACDBDICTIONARYWDFLT
  5
12
330
A
100
AcDbDictionary
280
0
281
1
  3
Normal
350
13
100
AcDbDictionaryWithDefault
340
13
  0
ACDBPLACEHOLDER
  5
13
330
12
  0
DICTIONARY
  5
14
330
A
100
AcDbDictionary
280
0
281
1
  0
DICTIONARY
  5
15
330
A
100
AcDbDictionary
280
0
281
1
  0
DICTIONARY
  5
16
330
A
100
AcDbDictionary
280
0
281
1
  0
LAYOUT
  5
1A
330
D
100
AcDbPlotSettings
  1

  4
A3
  6

 40
7.5
 41
20.0
 42
7.5
 43
20.0
 44
420.0
 45
297.0
 46
0.0
 47
0.0
 48
0.0
 49
0.0
140
0.0
141
0.0
142
1.0
143
1.0
 70
1024
 72
1
 73
0
 74
5
  7

 75
16
 76
0
 77
2
 78
300
147
1.0
148
0.0
149
0.0
100
AcDbLayout
  1
Model
 70
1
 71
0
 10
0.0
 20
0.0
 11
420.0
 21
297.0
 12
0.0
 22
0.0
 32
0.0
 14
1e+20
 24
1e+20
 34
1e+20
 15
-1e+20
 25
-1e+20
 35
-1e+20
146
0.0
 13
0.0
 23
0.0
 33
0.0
 16
1.0
 26
0.0
 36
0.0
 17
0.0
 27
1.0
 37
0.0
 76
1
330
17
  0
LAYOUT
  5
1E
330
D
100
AcDbPlotSettings
  1

  4
A3
  6

 40
7.5
 41
20.0
 42
7.5
 43
20.0
 44
420.0
 45
297.0
 46
0.0
 47
0.0
 48
0.0
 49
0.0
140
0.0
141
0.0
142
1.0
143
1.0
 70
0
 72
1
 73
0
 74
5
  7

 75
16
 76
0
 77
2
 78
300
147
1.0
148
0.0
149
0.0
100
AcDbLayout
  1
Layout1
 70
1
 71
1
 10
0.0
 20
0.0
 11
420.0
 21
297.0
 12
0.0
 22
0.0
 32
0.0
 14
1e+20
 24
1e+20
 34
1e+20
 15
-1e+20
 25
-1e+20
 35
-1e+20
146
0.0
 13
0.0
 23
0.0
 33
0.0
 16
1.0
 26
0.0
 36
0.0
 17
0.0
 27
1.0
 37
0.0
 76
1
330
1B
  0
MATERIAL
  5
1F
102
{ACAD_REACTORS
330
E
102
}
330
E
100
AcDbMaterial
  1
ByBlock
  2

 70
0
 40
1.0
 71
1
 41
1.0
 91
-1023410177
 42
1.0
 72
1
  3

 73
1
 74
1
 75
1
 44
0.5
 73
0
 45
1.0
 46
1.0
 77
1
  4

 78
1
 79
1
170
1
 48
1.0
171
1
  6

172
1
173
1
174
1
140
1.0
141
1.0
175
1
  7

176
1
177
1
178
1
143
1.0
179
1
  8

270
1
271
1
272
1
145
1.0
146
1.0
273
1
  9

274
1
275
1
276
1
 42
1.0
 72
1
  3

 73
1
 74
1
 75
1
 94
63
  0
MATERIAL
  5
20
102
{ACAD_REACTORS
330
E
102
}
330
E
100
AcDbMaterial
  1
ByLayer
  2

 70
0
 40
1.0
 71
1
 41
1.0
 91
-1023410177
 42
1.0
 72
1
  3

 73
1
 74
1
 75
1
 44
0.5
 73
0
 45
1.0
 46
1.0
 77
1
  4

 78
1
 79
1
170
1
 48
1.0
171
1
  6

172
1
173
1
174
1
140
1.0
141
1.0
175
1
  7

176
1
177
1
178
1
143
1.0
179
1
  8

270
1
271
1
272
1
145
1.0
146
1.0
273
1
  9

274
1
275
1
276
1
 42
1.0
 72
1
  3

 73
1
 74
1
 75
1
 94
63
  0
MATERIAL
  5
21
102
{ACAD_REACTORS
330
E
102
}
330
E
100
AcDbMaterial
  1
Global
  2

 70
0
 40
1.0
 71
1
 41
1.0
 91
-1023410177
 42
1.0
 72
1
  3

 73
1
 74
1
 75
1
 44
0.5
 73
0
 45
1.0
 46
1.0
 77
1
  4

 78
1
 79
1
170
1
 48
1.0
171
1
  6

172
1
173
1
174
1
140
1.0
141
1.0
175
1
  7

176
1
177
1
178
1
143
1.0
179
1
  8

270
1
271
1
272
1
145
1.0
146
1.0
273
1
  9

274
1
275
1
276
1
 42
1.0
 72
1
  3

 73
1
 74
1
 75
1
 94
63
  0
MLINESTYLE
  5
22
102
{ACAD_REACTORS
330
10
102
}
330
10
100
AcDbMlineStyle
  2
Standard
 70
0
  3

 62
256
 51
90.0
 52
90.0
 71
2
 49
0.5
 62
256
  6
BYLAYER
 49
-0.5
 62
256
  6
BYLAYER
  0
MLEADERSTYLE
  5
2C
102
{ACAD_REACTORS
330
F
102
}
330
F
100
AcDbMLeaderStyle
179
2
170
2
171
1
172
0
 90
2
 40
0.0
 41
0.0
173
1
 91
-1056964608
 92
-2
290
1
 42
2.0
291
1
 43
8.0
  3
Standard
 44
4.0
300

342
29
174
1
175
1
176
0
178
1
 93
-1056964608
 45
4.0
292
0
297
0
 46
4.0
 94
-1056964608
 47
1.0
 49
1.0
140
1.0
294
1
141
0.0
177
0
142
1.0
295
0
296
0
143
3.75
271
0
272
9
273
9
  0
DICTIONARY
  5
2D
330
A
100
AcDbDictionary
281
1
  3
CREATED_BY_EZDXF
350
2E
  3
WRITTEN_BY_EZDXF
350
220
  0
DICTIONARYVAR
  5
2E
330
2D
100
DictionaryVariables
280
0
  1
1.3.3 @ 2024-09-20T23:46:57.779537+00:00
  0
DICTIONARYVAR
  5
220
330
2D
100
DictionaryVariables
280
0
  1
1.3.3 @ 2024-09-20T23:46:59.343224+00:00
  0
ENDSEC
  0
EOF
