<?xml version="1.0" encoding="UTF-8" standalone="no"?>
<!-- Created with Inkscape (http://www.inkscape.org/) -->

<svg
   width="242.87907mm"
   height="128.49701mm"
   viewBox="0 0 242.87907 128.497"
   version="1.1"
   id="svg1"
   inkscape:version="1.3.1 (91b66b0783, 2023-11-16)"
   sodipodi:docname="micro-board-2.svg"
   inkscape:export-filename="Micro Board 2\track1.svg"
   inkscape:export-xdpi="96"
   inkscape:export-ydpi="96"
   xmlns:inkscape="http://www.inkscape.org/namespaces/inkscape"
   xmlns:sodipodi="http://sodipodi.sourceforge.net/DTD/sodipodi-0.dtd"
   xmlns="http://www.w3.org/2000/svg"
   xmlns:svg="http://www.w3.org/2000/svg">
  <sodipodi:namedview
     id="namedview1"
     pagecolor="#ffffff"
     bordercolor="#000000"
     borderopacity="0.25"
     inkscape:showpageshadow="2"
     inkscape:pageopacity="0.0"
     inkscape:pagecheckerboard="0"
     inkscape:deskcolor="#d1d1d1"
     inkscape:document-units="mm"
     inkscape:zoom="1.3356756"
     inkscape:cx="555.14979"
     inkscape:cy="322.30881"
     inkscape:window-width="1920"
     inkscape:window-height="1057"
     inkscape:window-x="1912"
     inkscape:window-y="-8"
     inkscape:window-maximized="1"
     inkscape:current-layer="g763" />
  <defs
     id="defs1" />
  <g
     inkscape:groupmode="layer"
     id="g759"
     inkscape:label="track2 copy"
     style="display:inline"
     transform="translate(-3.794425,-7.126812)">
    <path
       style="fill:none;stroke:#000000;stroke-width:0.1"
       d="m 242.55885,16.31877 0.028,-0.499215"
       id="path1009" />
    <path
       style="fill:none;stroke:#000000;stroke-width:0.1"
       d="m 236.56174,16.160698 -0.007,-0.499944"
       id="path1008" />
    <path
       style="fill:none;stroke:#000000;stroke-width:0.1"
       d="m 230.58795,16.656146 -0.0825,-0.493148"
       id="path1007" />
    <path
       style="fill:none;stroke:#000000;stroke-width:0.1"
       d="m 224.83338,18.30482 -0.19145,-0.461894"
       id="path1006" />
    <path
       style="fill:none;stroke:#000000;stroke-width:0.1"
       d="m 219.41508,20.879216 -0.21979,-0.449101"
       id="path1005" />
    <path
       style="fill:none;stroke:#000000;stroke-width:0.1"
       d="m 213.85986,23.121885 -0.13145,-0.482413"
       id="path1004" />
    <path
       style="fill:none;stroke:#000000;stroke-width:0.1"
       d="m 207.91779,23.501893 0.0723,-0.494746"
       id="path1003" />
    <path
       style="fill:none;stroke:#000000;stroke-width:0.1"
       d="m 202.12068,21.985065 0.1576,-0.474513"
       id="path1002" />
    <path
       style="fill:none;stroke:#000000;stroke-width:0.1"
       d="m 196.4032,20.170518 0.12272,-0.484707"
       id="path1001" />
    <path
       style="fill:none;stroke:#000000;stroke-width:0.1"
       d="m 190.51579,20.169591 -0.19951,-0.458469"
       id="path1000" />
    <path
       style="fill:none;stroke:#000000;stroke-width:0.1"
       d="m 186.03853,24.082761 -0.38154,-0.323146"
       id="path999" />
    <path
       style="fill:none;stroke:#000000;stroke-width:0.1"
       d="m 181.51691,27.875914 -0.1144,-0.486736"
       id="path998" />
    <path
       style="fill:none;stroke:#000000;stroke-width:0.1"
       d="m 175.86843,26.242016 0.23363,-0.442063"
       id="path997" />
    <path
       style="fill:none;stroke:#000000;stroke-width:0.1"
       d="m 170.51149,23.544979 0.19396,-0.460847"
       id="path996" />
    <path
       style="fill:none;stroke:#000000;stroke-width:0.1"
       d="m 164.72763,22.05257 0.037,-0.498632"
       id="path995" />
    <path
       style="fill:none;stroke:#000000;stroke-width:0.1"
       d="m 158.78492,22.654317 -0.12723,-0.483541"
       id="path994" />
    <path
       style="fill:none;stroke:#000000;stroke-width:0.1"
       d="m 153.2947,25.016086 -0.26821,-0.421975"
       id="path993" />
    <path
       style="fill:none;stroke:#000000;stroke-width:0.1"
       d="m 149.13833,29.249042 -0.44419,-0.229559"
       id="path992" />
    <path
       style="fill:none;stroke:#000000;stroke-width:0.1"
       d="m 148.97084,35.053943 -0.46863,0.174325"
       id="path991" />
    <path
       style="fill:none;stroke:#000000;stroke-width:0.1"
       d="m 151.96305,40.233406 -0.40364,0.295095"
       id="path990" />
    <path
       style="fill:none;stroke:#000000;stroke-width:0.1"
       d="m 155.64594,44.969636 -0.39817,0.302424"
       id="path989" />
    <path
       style="fill:none;stroke:#000000;stroke-width:0.1"
       d="m 156.10182,49.850895 -0.20397,-0.456508"
       id="path988" />
    <path
       style="fill:none;stroke:#000000;stroke-width:0.1"
       d="m 150.40983,51.72909 -0.20652,-0.455359"
       id="path987" />
    <path
       style="fill:none;stroke:#000000;stroke-width:0.1"
       d="m 146.26085,55.865867 -0.45508,-0.20712"
       id="path986" />
    <path
       style="fill:none;stroke:#000000;stroke-width:0.1"
       d="m 145.42311,61.730074 -0.49568,0.06565"
       id="path985" />
    <path
       style="fill:none;stroke:#000000;stroke-width:0.1"
       d="m 147.83914,67.126394 -0.37649,0.329013"
       id="path984" />
    <path
       style="fill:none;stroke:#000000;stroke-width:0.1"
       d="m 152.47444,70.90922 -0.2793,0.414714"
       id="path983" />
    <path
       style="fill:none;stroke:#000000;stroke-width:0.1"
       d="m 156.66882,74.930469 -0.49809,-0.04364"
       id="path982" />
    <path
       style="fill:none;stroke:#000000;stroke-width:0.1"
       d="m 151.89199,78.254843 -0.20144,-0.457627"
       id="path981" />
    <path
       style="fill:none;stroke:#000000;stroke-width:0.1"
       d="M 146.40551,80.682197 146.1863,80.23281"
       id="path980" />
    <path
       style="fill:none;stroke:#000000;stroke-width:0.1"
       d="m 141.91098,84.400179 -0.48909,-0.10392"
       id="path979" />
    <path
       style="fill:none;stroke:#000000;stroke-width:0.1"
       d="m 144.80329,89.411196 -0.35475,0.352347"
       id="path978" />
    <path
       style="fill:none;stroke:#000000;stroke-width:0.1"
       d="m 148.96336,93.730928 -0.38654,0.317155"
       id="path977" />
    <path
       style="fill:none;stroke:#000000;stroke-width:0.1"
       d="m 151.55765,99.063281 -0.49208,0.08862"
       id="path976" />
    <path
       style="fill:none;stroke:#000000;stroke-width:0.1"
       d="m 150.83784,104.91632 -0.44198,-0.23377"
       id="path975" />
    <path
       style="fill:none;stroke:#000000;stroke-width:0.1"
       d="m 145.86753,105.65127 0.28486,-0.41091"
       id="path974" />
    <path
       style="fill:none;stroke:#000000;stroke-width:0.1"
       d="m 140.96598,103.84233 -0.43913,-0.23909"
       id="path973" />
    <path
       style="fill:none;stroke:#000000;stroke-width:0.1"
       d="m 139.02955,109.51516 -0.46391,-0.18651"
       id="path972" />
    <path
       style="fill:none;stroke:#000000;stroke-width:0.1"
       d="m 135.86227,114.56788 -0.3654,-0.3413"
       id="path971" />
    <path
       style="fill:none;stroke:#000000;stroke-width:0.1"
       d="m 131.1972,118.31307 -0.262,-0.42586"
       id="path970" />
    <path
       style="fill:none;stroke:#000000;stroke-width:0.1"
       d="m 125.77828,120.85899 -0.15874,-0.47413"
       id="path969" />
    <path
       style="fill:none;stroke:#000000;stroke-width:0.1"
       d="m 119.89517,121.89453 7e-4,-0.5"
       id="path968" />
    <path
       style="fill:none;stroke:#000000;stroke-width:0.1"
       d="m 114.38872,120.05799 0.41886,-0.27305"
       id="path967" />
    <path
       style="fill:none;stroke:#000000;stroke-width:0.1"
       d="m 117.40541,115.5328 0.2887,0.40824"
       id="path966" />
    <path
       style="fill:none;stroke:#000000;stroke-width:0.1"
       d="m 121.93513,111.66089 0.43874,0.23981"
       id="path965" />
    <path
       style="fill:none;stroke:#000000;stroke-width:0.1"
       d="m 118.18029,108.10409 0.14463,-0.47862"
       id="path964" />
    <path
       style="fill:none;stroke:#000000;stroke-width:0.1"
       d="m 112.34912,106.69867 0.10136,-0.48962"
       id="path963" />
    <path
       style="fill:none;stroke:#000000;stroke-width:0.1"
       d="m 106.46237,105.53871 0.0952,-0.49085"
       id="path962" />
    <path
       style="fill:none;stroke:#000000;stroke-width:0.1"
       d="m 100.58305,104.34221 0.10772,-0.48826"
       id="path961" />
    <path
       style="fill:none;stroke:#000000;stroke-width:0.1"
       d="m 94.787176,102.80223 0.162489,-0.47286"
       id="path960" />
    <path
       style="fill:none;stroke:#000000;stroke-width:0.1"
       d="m 90.744676,99.104925 0.478505,0.145025"
       id="path959" />
    <path
       style="fill:none;stroke:#000000;stroke-width:0.1"
       d="m 95.652244,96.028741 0.122421,0.484781"
       id="path958" />
    <path
       style="fill:none;stroke:#000000;stroke-width:0.1"
       d="m 101.60357,95.435913 -0.0168,0.499718"
       id="path957" />
    <path
       style="fill:none;stroke:#000000;stroke-width:0.1"
       d="m 107.54885,96.19423 -0.0977,0.49036"
       id="path956" />
    <path
       style="fill:none;stroke:#000000;stroke-width:0.1"
       d="m 113.38504,97.582716 -0.12696,0.483612"
       id="path955" />
    <path
       style="fill:none;stroke:#000000;stroke-width:0.1"
       d="m 119.20994,99.016793 -0.0917,0.491528"
       id="path954" />
    <path
       style="fill:none;stroke:#000000;stroke-width:0.1"
       d="m 122.33611,96.268797 0.47404,-0.159038"
       id="path953" />
    <path
       style="fill:none;stroke:#000000;stroke-width:0.1"
       d="m 120.28107,90.635646 0.48443,-0.123793"
       id="path952" />
    <path
       style="fill:none;stroke:#000000;stroke-width:0.1"
       d="m 121.54999,85.097463 0.3612,0.345738"
       id="path951" />
    <path
       style="fill:none;stroke:#000000;stroke-width:0.1"
       d="m 126.32552,81.481129 0.30869,0.393334"
       id="path950" />
    <path
       style="fill:none;stroke:#000000;stroke-width:0.1"
       d="m 126.12835,76.507275 0.37923,-0.32587"
       id="path949" />
    <path
       style="fill:none;stroke:#000000;stroke-width:0.1"
       d="m 122.89821,71.53816 0.49287,-0.0841"
       id="path948" />
    <path
       style="fill:none;stroke:#000000;stroke-width:0.1"
       d="m 125.00275,66.080743 0.40672,0.29083"
       id="path947" />
    <path
       style="fill:none;stroke:#000000;stroke-width:0.1"
       d="m 128.63291,61.303837 0.40102,0.298634"
       id="path946" />
    <path
       style="fill:none;stroke:#000000;stroke-width:0.1"
       d="m 131.94296,56.304222 0.43447,0.247456"
       id="path945" />
    <path
       style="fill:none;stroke:#000000;stroke-width:0.1"
       d="m 134.52923,50.89608 0.4658,0.181728"
       id="path944" />
    <path
       style="fill:none;stroke:#000000;stroke-width:0.1"
       d="m 136.22788,45.149696 0.49056,0.09673"
       id="path943" />
    <path
       style="fill:none;stroke:#000000;stroke-width:0.1"
       d="m 136.69916,39.183451 0.49932,-0.02606"
       id="path942" />
    <path
       style="fill:none;stroke:#000000;stroke-width:0.1"
       d="m 135.45889,33.338166 0.46772,-0.176723"
       id="path941" />
    <path
       style="fill:none;stroke:#000000;stroke-width:0.1"
       d="m 132.57795,28.098569 0.39722,-0.303671"
       id="path940" />
    <path
       style="fill:none;stroke:#000000;stroke-width:0.1"
       d="m 127.82558,24.852304 -0.1231,-0.484609"
       id="path939" />
    <path
       style="fill:none;stroke:#000000;stroke-width:0.1"
       d="m 125.51969,30.152126 -0.48835,-0.107294"
       id="path938" />
    <path
       style="fill:none;stroke:#000000;stroke-width:0.1"
       d="m 123.7531,35.871236 -0.4498,-0.218337"
       id="path937" />
    <path
       style="fill:none;stroke:#000000;stroke-width:0.1"
       d="m 119.74634,40.212513 -0.25462,-0.430312"
       id="path936" />
    <path
       style="fill:none;stroke:#000000;stroke-width:0.1"
       d="m 114.07212,42.010298 -0.0452,-0.497949"
       id="path935" />
    <path
       style="fill:none;stroke:#000000;stroke-width:0.1"
       d="m 108.29402,40.878802 0.28456,-0.411129"
       id="path934" />
    <path
       style="fill:none;stroke:#000000;stroke-width:0.1"
       d="m 105.27528,35.81464 0.47028,-0.169806"
       id="path933" />
    <path
       style="fill:none;stroke:#000000;stroke-width:0.1"
       d="m 102.11781,30.837476 0.28458,-0.411111"
       id="path932" />
    <path
       style="fill:none;stroke:#000000;stroke-width:0.1"
       d="m 96.419385,29.237593 0.0079,-0.499937"
       id="path931" />
    <path
       style="fill:none;stroke:#000000;stroke-width:0.1"
       d="M 90.704958,30.730296 90.415944,30.322287"
       id="path930" />
    <path
       style="fill:none;stroke:#000000;stroke-width:0.1"
       d="M 88.406593,36.018244 87.90699,35.998314"
       id="path929" />
    <path
       style="fill:none;stroke:#000000;stroke-width:0.1"
       d="m 88.437047,42.014247 -0.496892,-0.05566"
       id="path928" />
    <path
       style="fill:none;stroke:#000000;stroke-width:0.1"
       d="m 83.917508,44.477993 0.05853,-0.496563"
       id="path927" />
    <path
       style="fill:none;stroke:#000000;stroke-width:0.1"
       d="m 77.982751,43.614829 0.02585,-0.499332"
       id="path926" />
    <path
       style="fill:none;stroke:#000000;stroke-width:0.1"
       d="M 72.762651,45.88746 72.331145,45.634869"
       id="path925" />
    <path
       style="fill:none;stroke:#000000;stroke-width:0.1"
       d="m 73.596982,51.38467 -0.351691,0.355406"
       id="path924" />
    <path
       style="fill:none;stroke:#000000;stroke-width:0.1"
       d="m 78.858227,54.158029 -0.150872,0.476695"
       id="path923" />
    <path
       style="fill:none;stroke:#000000;stroke-width:0.1"
       d="m 84.700568,55.5042 -0.08554,0.492628"
       id="path922" />
    <path
       style="fill:none;stroke:#000000;stroke-width:0.1"
       d="m 90.631851,56.40794 -0.06947,0.49515"
       id="path921" />
    <path
       style="fill:none;stroke:#000000;stroke-width:0.1"
       d="m 96.572404,57.25026 -0.07405,0.494486"
       id="path920" />
    <path
       style="fill:none;stroke:#000000;stroke-width:0.1"
       d="m 102.48007,58.292439 -0.1075,0.488306"
       id="path919" />
    <path
       style="fill:none;stroke:#000000;stroke-width:0.1"
       d="m 107.90963,60.588418 -0.41686,0.276093"
       id="path918" />
    <path
       style="fill:none;stroke:#000000;stroke-width:0.1"
       d="m 104.69538,64.954918 -0.24511,-0.435795"
       id="path917" />
    <path
       style="fill:none;stroke:#000000;stroke-width:0.1"
       d="M 99.177144,67.28539 99.025066,66.809078"
       id="path916" />
    <path
       style="fill:none;stroke:#000000;stroke-width:0.1"
       d="m 93.339744,68.64433 -0.07487,-0.494364"
       id="path915" />
    <path
       style="fill:none;stroke:#000000;stroke-width:0.1"
       d="M 87.368494,69.204308 87.343364,68.70494"
       id="path914" />
    <path
       style="fill:none;stroke:#000000;stroke-width:0.1"
       d="m 81.387201,69.608522 -0.10994,-0.487764"
       id="path913" />
    <path
       style="fill:none;stroke:#000000;stroke-width:0.1"
       d="m 83.748105,73.66579 -0.320858,0.383472"
       id="path912" />
    <path
       style="fill:none;stroke:#000000;stroke-width:0.1"
       d="M 88.067471,77.815 87.67418,78.123743"
       id="path911" />
    <path
       style="fill:none;stroke:#000000;stroke-width:0.1"
       d="m 90.089362,83.327697 -0.498583,-0.03762"
       id="path910" />
    <path
       style="fill:none;stroke:#000000;stroke-width:0.1"
       d="m 85.700302,85.713316 0.140827,-0.479758"
       id="path909" />
    <path
       style="fill:none;stroke:#000000;stroke-width:0.1"
       d="m 80.294447,83.14247 0.253964,-0.4307"
       id="path908" />
    <path
       style="fill:none;stroke:#000000;stroke-width:0.1"
       d="m 75.188037,79.992815 0.248579,-0.43383"
       id="path907" />
    <path
       style="fill:none;stroke:#000000;stroke-width:0.1"
       d="m 70.608101,80.863192 -0.492778,-0.08468"
       id="path906" />
    <path
       style="fill:none;stroke:#000000;stroke-width:0.1"
       d="m 70.592215,86.85137 -0.498857,0.03379"
       id="path905" />
    <path
       style="fill:none;stroke:#000000;stroke-width:0.1"
       d="m 71.031006,92.83522 -0.499181,0.02861"
       id="path904" />
    <path
       style="fill:none;stroke:#000000;stroke-width:0.1"
       d="m 71.029876,98.831651 -0.499173,-0.02874"
       id="path903" />
    <path
       style="fill:none;stroke:#000000;stroke-width:0.1"
       d="m 70.555055,104.81266 -0.498365,-0.0404"
       id="path902" />
    <path
       style="fill:none;stroke:#000000;stroke-width:0.1"
       d="m 70.001611,110.78542 -0.494065,-0.0768"
       id="path901" />
    <path
       style="fill:none;stroke:#000000;stroke-width:0.1"
       d="m 68.164659,116.46293 -0.435652,-0.24537"
       id="path900" />
    <path
       style="fill:none;stroke:#000000;stroke-width:0.1"
       d="m 64.090382,120.78809 -0.274669,-0.4178"
       id="path899" />
    <path
       style="fill:none;stroke:#000000;stroke-width:0.1"
       d="m 58.595641,123.13126 -0.12641,-0.48375"
       id="path898" />
    <path
       style="fill:none;stroke:#000000;stroke-width:0.1"
       d="m 52.684126,124.1217 -0.04881,-0.49761"
       id="path897" />
    <path
       style="fill:none;stroke:#000000;stroke-width:0.1"
       d="m 46.694633,124.45031 -0.0097,-0.49991"
       id="path896" />
    <path
       style="fill:none;stroke:#000000;stroke-width:0.1"
       d="m 40.695261,124.41696 0.01348,-0.49982"
       id="path895" />
    <path
       style="fill:none;stroke:#000000;stroke-width:0.1"
       d="m 34.701033,124.15903 0.02849,-0.49919"
       id="path894" />
    <path
       style="fill:none;stroke:#000000;stroke-width:0.1"
       d="m 28.714921,123.75257 0.0386,-0.4985"
       id="path893" />
    <path
       style="fill:none;stroke:#000000;stroke-width:0.1"
       d="m 22.736426,123.24557 0.04544,-0.49793"
       id="path892" />
    <path
       style="fill:none;stroke:#000000;stroke-width:0.1"
       d="m 16.763957,122.67162 0.04987,-0.49751"
       id="path891" />
    <path
       style="fill:none;stroke:#000000;stroke-width:0.1"
       d="m 10.795587,122.05645 0.05236,-0.49725"
       id="path890" />
    <path
       style="fill:none;stroke:#000000;stroke-width:0.1"
       d="M 4.8292683,121.4216 Z"
       id="path889" />
  </g>
</svg>
