<?xml version="1.0" encoding="UTF-8" standalone="no"?>
<!-- Created with Inkscape (http://www.inkscape.org/) -->

<svg
   width="265.2648mm"
   height="164.07426mm"
   viewBox="0 0 265.2648 164.07426"
   version="1.1"
   id="svg1"
   inkscape:version="1.3.1 (91b66b0783, 2023-11-16)"
   sodipodi:docname="SVG TEST2.svg"
   inkscape:export-filename="TestSVG\Skunk.svg"
   inkscape:export-xdpi="96"
   inkscape:export-ydpi="96"
   xmlns:inkscape="http://www.inkscape.org/namespaces/inkscape"
   xmlns:sodipodi="http://sodipodi.sourceforge.net/DTD/sodipodi-0.dtd"
   xmlns="http://www.w3.org/2000/svg"
   xmlns:svg="http://www.w3.org/2000/svg">
  <sodipodi:namedview
     id="namedview1"
     pagecolor="#ffffff"
     bordercolor="#000000"
     borderopacity="0.25"
     inkscape:showpageshadow="2"
     inkscape:pageopacity="0.0"
     inkscape:pagecheckerboard="0"
     inkscape:deskcolor="#d1d1d1"
     inkscape:document-units="mm"
     inkscape:zoom="0.3835122"
     inkscape:cx="535.83693"
     inkscape:cy="616.66878"
     inkscape:window-width="1920"
     inkscape:window-height="1057"
     inkscape:window-x="1912"
     inkscape:window-y="-8"
     inkscape:window-maximized="1"
     inkscape:current-layer="layer1"
     showgrid="false" />
  <defs
     id="defs1" />
  <g
     inkscape:groupmode="layer"
     id="g2"
     inkscape:label="Track1_HOLES"
     style="display:inline"
     transform="translate(-4.1393728,-9.0894757)">
    <path
       style="fill:none;stroke:#000000;stroke-width:0.3"
       d="M 269.40417,42.77352 Z"
       id="path133" />
    <path
       style="fill:none;stroke:#000000;stroke-width:0.3"
       d="m 264.85976,43.93361 -0.24735,-0.968927"
       id="path132" />
    <path
       style="fill:none;stroke:#000000;stroke-width:0.3"
       d="m 260.01512,45.170341 -0.24734,-0.968928"
       id="path131" />
    <path
       style="fill:none;stroke:#000000;stroke-width:0.3"
       d="m 255.17049,46.407071 -0.24735,-0.968927"
       id="path130" />
    <path
       style="fill:none;stroke:#000000;stroke-width:0.3"
       d="M 250.32585,47.643802 250.0785,46.674875"
       id="path129" />
    <path
       style="fill:none;stroke:#000000;stroke-width:0.3"
       d="m 245.48121,48.880532 -0.24734,-0.968927"
       id="path128" />
    <path
       style="fill:none;stroke:#000000;stroke-width:0.3"
       d="m 240.63658,50.117263 -0.24735,-0.968927"
       id="path127" />
    <path
       style="fill:none;stroke:#000000;stroke-width:0.3"
       d="M 235.79194,51.353993 235.5446,50.385066"
       id="path126" />
    <path
       style="fill:none;stroke:#000000;stroke-width:0.3"
       d="m 230.94731,52.590724 -0.24735,-0.968927"
       id="path125" />
    <path
       style="fill:none;stroke:#000000;stroke-width:0.3"
       d="m 226.10267,53.827454 -0.24735,-0.968927"
       id="path124" />
    <path
       style="fill:none;stroke:#000000;stroke-width:0.3"
       d="m 221.25803,55.064185 -0.24734,-0.968927"
       id="path123" />
    <path
       style="fill:none;stroke:#000000;stroke-width:0.3"
       d="m 216.4134,56.300916 -0.24735,-0.968928"
       id="path122" />
    <path
       style="fill:none;stroke:#000000;stroke-width:0.3"
       d="m 211.56876,57.537646 -0.24734,-0.968927"
       id="path121" />
    <path
       style="fill:none;stroke:#000000;stroke-width:0.3"
       d="m 206.72413,58.774377 -0.24735,-0.968928"
       id="path120" />
    <path
       style="fill:none;stroke:#000000;stroke-width:0.3"
       d="M 201.87949,60.011107 201.63214,59.04218"
       id="path119" />
    <path
       style="fill:none;stroke:#000000;stroke-width:0.3"
       d="m 197.03485,61.247838 -0.24734,-0.968927"
       id="path118" />
    <path
       style="fill:none;stroke:#000000;stroke-width:0.3"
       d="m 192.19022,62.484568 -0.24735,-0.968927"
       id="path117" />
    <path
       style="fill:none;stroke:#000000;stroke-width:0.3"
       d="m 187.34558,63.721299 -0.24734,-0.968927"
       id="path116" />
    <path
       style="fill:none;stroke:#000000;stroke-width:0.3"
       d="M 182.50095,64.958029 182.2536,63.989102"
       id="path115" />
    <path
       style="fill:none;stroke:#000000;stroke-width:0.3"
       d="m 177.65631,66.19476 -0.24735,-0.968927"
       id="path114" />
    <path
       style="fill:none;stroke:#000000;stroke-width:0.3"
       d="m 172.81167,67.43149 -0.24734,-0.968927"
       id="path113" />
    <path
       style="fill:none;stroke:#000000;stroke-width:0.3"
       d="m 167.96704,68.668221 -0.24735,-0.968927"
       id="path112" />
    <path
       style="fill:none;stroke:#000000;stroke-width:0.3"
       d="m 163.1224,69.904952 -0.24734,-0.968928"
       id="path111" />
    <path
       style="fill:none;stroke:#000000;stroke-width:0.3"
       d="m 158.27777,71.141682 -0.24735,-0.968927"
       id="path110" />
    <path
       style="fill:none;stroke:#000000;stroke-width:0.3"
       d="m 153.43313,72.378413 -0.24735,-0.968928"
       id="path109" />
    <path
       style="fill:none;stroke:#000000;stroke-width:0.3"
       d="m 148.58849,73.615143 -0.24734,-0.968927"
       id="path108" />
    <path
       style="fill:none;stroke:#000000;stroke-width:0.3"
       d="m 143.74386,74.851874 -0.24735,-0.968927"
       id="path107" />
    <path
       style="fill:none;stroke:#000000;stroke-width:0.3"
       d="m 138.89922,76.088604 -0.24734,-0.968927"
       id="path106" />
    <path
       style="fill:none;stroke:#000000;stroke-width:0.3"
       d="m 134.05459,77.325335 -0.24735,-0.968927"
       id="path105" />
    <path
       style="fill:none;stroke:#000000;stroke-width:0.3"
       d="M 129.20995,78.562065 128.9626,77.593138"
       id="path104" />
    <path
       style="fill:none;stroke:#000000;stroke-width:0.3"
       d="m 124.36531,79.798796 -0.24734,-0.968927"
       id="path103" />
    <path
       style="fill:none;stroke:#000000;stroke-width:0.3"
       d="m 119.52068,81.035526 -0.24735,-0.968927"
       id="path102" />
    <path
       style="fill:none;stroke:#000000;stroke-width:0.3"
       d="M 114.67604,82.272257 114.4287,81.30333"
       id="path101" />
    <path
       style="fill:none;stroke:#000000;stroke-width:0.3"
       d="M 109.83141,83.508988 109.58406,82.54006"
       id="path100" />
    <path
       style="fill:none;stroke:#000000;stroke-width:0.3"
       d="m 104.98677,84.745718 -0.24735,-0.968927"
       id="path99" />
    <path
       style="fill:none;stroke:#000000;stroke-width:0.3"
       d="M 100.14213,85.982449 99.894789,85.013521"
       id="path98" />
    <path
       style="fill:none;stroke:#000000;stroke-width:0.3"
       d="M 95.297499,87.219179 95.050153,86.250252"
       id="path97" />
    <path
       style="fill:none;stroke:#000000;stroke-width:0.3"
       d="M 90.452863,88.45591 90.205517,87.486983"
       id="path96" />
    <path
       style="fill:none;stroke:#000000;stroke-width:0.3"
       d="m 93.745592,89.76444 -0.264405,0.964412"
       id="path95" />
    <path
       style="fill:none;stroke:#000000;stroke-width:0.3"
       d="m 98.567651,91.086464 -0.264405,0.964412"
       id="path94" />
    <path
       style="fill:none;stroke:#000000;stroke-width:0.3"
       d="m 103.38971,92.408488 -0.2644,0.964412"
       id="path93" />
    <path
       style="fill:none;stroke:#000000;stroke-width:0.3"
       d="m 108.21177,93.730512 -0.26441,0.964412"
       id="path92" />
    <path
       style="fill:none;stroke:#000000;stroke-width:0.3"
       d="m 113.03383,95.052536 -0.26441,0.964412"
       id="path91" />
    <path
       style="fill:none;stroke:#000000;stroke-width:0.3"
       d="m 117.85589,96.37456 -0.26441,0.964412"
       id="path90" />
    <path
       style="fill:none;stroke:#000000;stroke-width:0.3"
       d="m 122.67795,97.696584 -0.26441,0.964412"
       id="path89" />
    <path
       style="fill:none;stroke:#000000;stroke-width:0.3"
       d="m 127.5,99.018608 -0.2644,0.964412"
       id="path88" />
    <path
       style="fill:none;stroke:#000000;stroke-width:0.3"
       d="m 132.32206,100.34066 -0.2644,0.96441"
       id="path87" />
    <path
       style="fill:none;stroke:#000000;stroke-width:0.3"
       d="m 137.14412,101.66269 -0.2644,0.96441"
       id="path86" />
    <path
       style="fill:none;stroke:#000000;stroke-width:0.3"
       d="m 141.96618,102.98471 -0.2644,0.96441"
       id="path85" />
    <path
       style="fill:none;stroke:#000000;stroke-width:0.3"
       d="m 146.78824,104.30673 -0.2644,0.96442"
       id="path84" />
    <path
       style="fill:none;stroke:#000000;stroke-width:0.3"
       d="m 151.6103,105.62876 -0.26441,0.96441"
       id="path83" />
    <path
       style="fill:none;stroke:#000000;stroke-width:0.3"
       d="m 156.43236,106.95078 -0.26441,0.96441"
       id="path82" />
    <path
       style="fill:none;stroke:#000000;stroke-width:0.3"
       d="m 161.25442,108.27281 -0.26441,0.96441"
       id="path81" />
    <path
       style="fill:none;stroke:#000000;stroke-width:0.3"
       d="m 166.07648,109.59483 -0.26441,0.96441"
       id="path80" />
    <path
       style="fill:none;stroke:#000000;stroke-width:0.3"
       d="m 170.89854,110.91685 -0.26441,0.96442"
       id="path79" />
    <path
       style="fill:none;stroke:#000000;stroke-width:0.3"
       d="m 175.72059,112.23888 -0.2644,0.96441"
       id="path78" />
    <path
       style="fill:none;stroke:#000000;stroke-width:0.3"
       d="m 180.54265,113.5609 -0.2644,0.96441"
       id="path77" />
    <path
       style="fill:none;stroke:#000000;stroke-width:0.3"
       d="m 185.36471,114.88293 -0.2644,0.96441"
       id="path76" />
    <path
       style="fill:none;stroke:#000000;stroke-width:0.3"
       d="m 190.18677,116.20495 -0.2644,0.96441"
       id="path75" />
    <path
       style="fill:none;stroke:#000000;stroke-width:0.3"
       d="m 195.00883,117.52697 -0.2644,0.96442"
       id="path74" />
    <path
       style="fill:none;stroke:#000000;stroke-width:0.3"
       d="m 199.83089,118.849 -0.26441,0.96441"
       id="path73" />
    <path
       style="fill:none;stroke:#000000;stroke-width:0.3"
       d="m 204.65295,120.17102 -0.26441,0.96441"
       id="path72" />
    <path
       style="fill:none;stroke:#000000;stroke-width:0.3"
       d="m 209.47501,121.49305 -0.26441,0.96441"
       id="path71" />
    <path
       style="fill:none;stroke:#000000;stroke-width:0.3"
       d="m 214.29707,122.81507 -0.26441,0.96441"
       id="path70" />
    <path
       style="fill:none;stroke:#000000;stroke-width:0.3"
       d="m 219.11912,124.13709 -0.2644,0.96442"
       id="path69" />
    <path
       style="fill:none;stroke:#000000;stroke-width:0.3"
       d="m 223.94118,125.45912 -0.2644,0.96441"
       id="path68" />
    <path
       style="fill:none;stroke:#000000;stroke-width:0.3"
       d="m 228.76324,126.78114 -0.2644,0.96441"
       id="path67" />
    <path
       style="fill:none;stroke:#000000;stroke-width:0.3"
       d="m 233.5853,128.10317 -0.2644,0.96441"
       id="path66" />
    <path
       style="fill:none;stroke:#000000;stroke-width:0.3"
       d="m 238.40736,129.42519 -0.2644,0.96441"
       id="path65" />
    <path
       style="fill:none;stroke:#000000;stroke-width:0.3"
       d="m 243.22942,130.74721 -0.26441,0.96442"
       id="path64" />
    <path
       style="fill:none;stroke:#000000;stroke-width:0.3"
       d="m 248.05148,132.06924 -0.26441,0.96441"
       id="path63" />
    <path
       style="fill:none;stroke:#000000;stroke-width:0.3"
       d="m 252.87354,133.39126 -0.26441,0.96441"
       id="path62" />
    <path
       style="fill:none;stroke:#000000;stroke-width:0.3"
       d="m 257.6956,134.71329 -0.26441,0.96441"
       id="path61" />
    <path
       style="fill:none;stroke:#000000;stroke-width:0.3"
       d="m 262.51766,136.03531 -0.26441,0.96441"
       id="path60" />
    <path
       style="fill:none;stroke:#000000;stroke-width:0.3"
       d="m 261.73705,137.0058 -0.1418,-0.98989"
       id="path59" />
    <path
       style="fill:none;stroke:#000000;stroke-width:0.3"
       d="m 256.78757,137.71478 -0.1418,-0.98989"
       id="path58" />
    <path
       style="fill:none;stroke:#000000;stroke-width:0.3"
       d="m 251.83809,138.42376 -0.1418,-0.98989"
       id="path57" />
    <path
       style="fill:none;stroke:#000000;stroke-width:0.3"
       d="m 246.88861,139.13274 -0.1418,-0.98989"
       id="path56" />
    <path
       style="fill:none;stroke:#000000;stroke-width:0.3"
       d="m 241.93913,139.84172 -0.1418,-0.98989"
       id="path55" />
    <path
       style="fill:none;stroke:#000000;stroke-width:0.3"
       d="m 236.98965,140.5507 -0.1418,-0.98989"
       id="path54" />
    <path
       style="fill:none;stroke:#000000;stroke-width:0.3"
       d="m 232.04017,141.25968 -0.1418,-0.98989"
       id="path53" />
    <path
       style="fill:none;stroke:#000000;stroke-width:0.3"
       d="m 227.09069,141.96866 -0.1418,-0.98989"
       id="path52" />
    <path
       style="fill:none;stroke:#000000;stroke-width:0.3"
       d="m 222.14121,142.67764 -0.1418,-0.9899"
       id="path51" />
    <path
       style="fill:none;stroke:#000000;stroke-width:0.3"
       d="m 217.19173,143.38662 -0.1418,-0.9899"
       id="path50" />
    <path
       style="fill:none;stroke:#000000;stroke-width:0.3"
       d="m 212.24225,144.0956 -0.14179,-0.9899"
       id="path49" />
    <path
       style="fill:none;stroke:#000000;stroke-width:0.3"
       d="m 207.29277,144.80458 -0.14179,-0.9899"
       id="path48" />
    <path
       style="fill:none;stroke:#000000;stroke-width:0.3"
       d="m 202.34329,145.51356 -0.14179,-0.9899"
       id="path47" />
    <path
       style="fill:none;stroke:#000000;stroke-width:0.3"
       d="m 197.39381,146.22254 -0.14179,-0.9899"
       id="path46" />
    <path
       style="fill:none;stroke:#000000;stroke-width:0.3"
       d="m 192.44433,146.93152 -0.14179,-0.9899"
       id="path45" />
    <path
       style="fill:none;stroke:#000000;stroke-width:0.3"
       d="m 187.49485,147.6405 -0.14179,-0.9899"
       id="path44" />
    <path
       style="fill:none;stroke:#000000;stroke-width:0.3"
       d="m 182.54537,148.34948 -0.14179,-0.9899"
       id="path43" />
    <path
       style="fill:none;stroke:#000000;stroke-width:0.3"
       d="m 177.59589,149.05846 -0.14179,-0.9899"
       id="path42" />
    <path
       style="fill:none;stroke:#000000;stroke-width:0.3"
       d="m 172.64641,149.76744 -0.14179,-0.9899"
       id="path41" />
    <path
       style="fill:none;stroke:#000000;stroke-width:0.3"
       d="m 167.69694,150.47642 -0.1418,-0.9899"
       id="path40" />
    <path
       style="fill:none;stroke:#000000;stroke-width:0.3"
       d="m 162.74746,151.1854 -0.1418,-0.9899"
       id="path39" />
    <path
       style="fill:none;stroke:#000000;stroke-width:0.3"
       d="m 157.79798,151.89437 -0.1418,-0.98989"
       id="path38" />
    <path
       style="fill:none;stroke:#000000;stroke-width:0.3"
       d="m 152.8485,152.60335 -0.1418,-0.98989"
       id="path37" />
    <path
       style="fill:none;stroke:#000000;stroke-width:0.3"
       d="m 147.89902,153.31233 -0.1418,-0.98989"
       id="path36" />
    <path
       style="fill:none;stroke:#000000;stroke-width:0.3"
       d="m 142.94954,154.02131 -0.1418,-0.98989"
       id="path35" />
    <path
       style="fill:none;stroke:#000000;stroke-width:0.3"
       d="m 138.00006,154.73029 -0.1418,-0.98989"
       id="path34" />
    <path
       style="fill:none;stroke:#000000;stroke-width:0.3"
       d="m 133.05058,155.43927 -0.1418,-0.98989"
       id="path33" />
    <path
       style="fill:none;stroke:#000000;stroke-width:0.3"
       d="m 128.1011,156.14825 -0.1418,-0.98989"
       id="path32" />
    <path
       style="fill:none;stroke:#000000;stroke-width:0.3"
       d="m 123.15162,156.85723 -0.1418,-0.98989"
       id="path31" />
    <path
       style="fill:none;stroke:#000000;stroke-width:0.3"
       d="m 118.20214,157.56621 -0.1418,-0.9899"
       id="path30" />
    <path
       style="fill:none;stroke:#000000;stroke-width:0.3"
       d="m 113.25266,158.27519 -0.1418,-0.9899"
       id="path29" />
    <path
       style="fill:none;stroke:#000000;stroke-width:0.3"
       d="m 108.30318,158.98417 -0.1418,-0.9899"
       id="path28" />
    <path
       style="fill:none;stroke:#000000;stroke-width:0.3"
       d="m 103.3537,159.69315 -0.1418,-0.9899"
       id="path27" />
    <path
       style="fill:none;stroke:#000000;stroke-width:0.3"
       d="m 98.404221,160.40213 -0.141796,-0.9899"
       id="path26" />
    <path
       style="fill:none;stroke:#000000;stroke-width:0.3"
       d="m 93.454742,161.11111 -0.141796,-0.9899"
       id="path25" />
    <path
       style="fill:none;stroke:#000000;stroke-width:0.3"
       d="m 88.505262,161.82009 -0.141796,-0.9899"
       id="path24" />
    <path
       style="fill:none;stroke:#000000;stroke-width:0.3"
       d="m 83.555782,162.52907 -0.141796,-0.9899"
       id="path23" />
    <path
       style="fill:none;stroke:#000000;stroke-width:0.3"
       d="m 78.606303,163.23805 -0.141796,-0.9899"
       id="path22" />
    <path
       style="fill:none;stroke:#000000;stroke-width:0.3"
       d="m 73.656823,163.94703 -0.141796,-0.9899"
       id="path21" />
    <path
       style="fill:none;stroke:#000000;stroke-width:0.3"
       d="m 68.707344,164.65601 -0.141796,-0.9899"
       id="path20" />
    <path
       style="fill:none;stroke:#000000;stroke-width:0.3"
       d="m 63.757864,165.36499 -0.141796,-0.9899"
       id="path19" />
    <path
       style="fill:none;stroke:#000000;stroke-width:0.3"
       d="m 58.808385,166.07396 -0.141796,-0.98989"
       id="path18" />
    <path
       style="fill:none;stroke:#000000;stroke-width:0.3"
       d="m 53.858905,166.78294 -0.141796,-0.98989"
       id="path17" />
    <path
       style="fill:none;stroke:#000000;stroke-width:0.3"
       d="m 48.909425,167.49192 -0.141796,-0.98989"
       id="path16" />
    <path
       style="fill:none;stroke:#000000;stroke-width:0.3"
       d="M 43.959946,168.2009 43.81815,167.21101"
       id="path15" />
    <path
       style="fill:none;stroke:#000000;stroke-width:0.3"
       d="M 39.010466,168.90988 38.86867,167.91999"
       id="path14" />
    <path
       style="fill:none;stroke:#000000;stroke-width:0.3"
       d="m 34.060987,169.61886 -0.141796,-0.98989"
       id="path13" />
    <path
       style="fill:none;stroke:#000000;stroke-width:0.3"
       d="m 29.111507,170.32784 -0.141796,-0.98989"
       id="path12" />
    <path
       style="fill:none;stroke:#000000;stroke-width:0.3"
       d="m 24.162028,171.03682 -0.141796,-0.98989"
       id="path11" />
    <path
       style="fill:none;stroke:#000000;stroke-width:0.3"
       d="m 19.212548,171.7458 -0.141796,-0.98989"
       id="path10" />
    <path
       style="fill:none;stroke:#000000;stroke-width:0.3"
       d="m 14.263068,172.45478 -0.141796,-0.9899"
       id="path9" />
  </g>
</svg>
