<?xml version="1.0" encoding="UTF-8" standalone="no"?>
<!-- Created with Inkscape (http://www.inkscape.org/) -->

<svg
   width="265.2648mm"
   height="164.07426mm"
   viewBox="0 0 265.2648 164.07426"
   version="1.1"
   id="svg1"
   inkscape:version="1.3.1 (91b66b0783, 2023-11-16)"
   sodipodi:docname="SVG TEST2.svg"
   inkscape:export-filename="TestSVG2\Track1.svg"
   inkscape:export-xdpi="96"
   inkscape:export-ydpi="96"
   xmlns:inkscape="http://www.inkscape.org/namespaces/inkscape"
   xmlns:sodipodi="http://sodipodi.sourceforge.net/DTD/sodipodi-0.dtd"
   xmlns="http://www.w3.org/2000/svg"
   xmlns:svg="http://www.w3.org/2000/svg">
  <sodipodi:namedview
     id="namedview1"
     pagecolor="#ffffff"
     bordercolor="#000000"
     borderopacity="0.25"
     inkscape:showpageshadow="2"
     inkscape:pageopacity="0.0"
     inkscape:pagecheckerboard="0"
     inkscape:deskcolor="#d1d1d1"
     inkscape:document-units="mm"
     inkscape:zoom="0.3835122"
     inkscape:cx="535.83693"
     inkscape:cy="616.66878"
     inkscape:window-width="1920"
     inkscape:window-height="1057"
     inkscape:window-x="1912"
     inkscape:window-y="-8"
     inkscape:window-maximized="1"
     inkscape:current-layer="layer1"
     showgrid="false" />
  <defs
     id="defs1" />
  <g
     inkscape:groupmode="layer"
     id="g5"
     inkscape:label="Track2_HOLES"
     style="display:inline"
     transform="translate(-4.1393728,-9.0894757)">
    <path
       style="fill:none;stroke:#000000;stroke-width:0.3"
       d="M 264.91985,26.560935 Z"
       id="path250" />
    <path
       style="fill:none;stroke:#000000;stroke-width:0.3"
       d="m 261.02097,27.79216 -0.30113,-0.953583"
       id="path249" />
    <path
       style="fill:none;stroke:#000000;stroke-width:0.3"
       d="m 256.25306,29.297817 -0.30113,-0.953583"
       id="path248" />
    <path
       style="fill:none;stroke:#000000;stroke-width:0.3"
       d="m 251.48514,30.803474 -0.30113,-0.953583"
       id="path247" />
    <path
       style="fill:none;stroke:#000000;stroke-width:0.3"
       d="M 246.71723,32.309131 246.4161,31.355548"
       id="path246" />
    <path
       style="fill:none;stroke:#000000;stroke-width:0.3"
       d="m 241.94932,33.814788 -0.30113,-0.953583"
       id="path245" />
    <path
       style="fill:none;stroke:#000000;stroke-width:0.3"
       d="m 237.1814,35.320445 -0.30113,-0.953583"
       id="path244" />
    <path
       style="fill:none;stroke:#000000;stroke-width:0.3"
       d="m 232.41349,36.826102 -0.30113,-0.953583"
       id="path243" />
    <path
       style="fill:none;stroke:#000000;stroke-width:0.3"
       d="m 227.64558,38.331758 -0.30113,-0.953582"
       id="path242" />
    <path
       style="fill:none;stroke:#000000;stroke-width:0.3"
       d="m 222.87766,39.837415 -0.30113,-0.953582"
       id="path241" />
    <path
       style="fill:none;stroke:#000000;stroke-width:0.3"
       d="M 218.10975,41.343072 217.80862,40.38949"
       id="path240" />
    <path
       style="fill:none;stroke:#000000;stroke-width:0.3"
       d="m 213.34184,42.848729 -0.30113,-0.953583"
       id="path239" />
    <path
       style="fill:none;stroke:#000000;stroke-width:0.3"
       d="m 208.57392,44.354386 -0.30113,-0.953583"
       id="path238" />
    <path
       style="fill:none;stroke:#000000;stroke-width:0.3"
       d="M 203.80601,45.860043 203.50488,44.90646"
       id="path237" />
    <path
       style="fill:none;stroke:#000000;stroke-width:0.3"
       d="m 199.0381,47.3657 -0.30113,-0.953583"
       id="path236" />
    <path
       style="fill:none;stroke:#000000;stroke-width:0.3"
       d="m 194.27018,48.871357 -0.30113,-0.953583"
       id="path235" />
    <path
       style="fill:none;stroke:#000000;stroke-width:0.3"
       d="m 189.50227,50.377014 -0.30113,-0.953583"
       id="path234" />
    <path
       style="fill:none;stroke:#000000;stroke-width:0.3"
       d="m 184.73436,51.882671 -0.30113,-0.953583"
       id="path233" />
    <path
       style="fill:none;stroke:#000000;stroke-width:0.3"
       d="m 179.96644,53.388328 -0.30113,-0.953583"
       id="path232" />
    <path
       style="fill:none;stroke:#000000;stroke-width:0.3"
       d="M 175.19853,54.893984 174.8974,53.940402"
       id="path231" />
    <path
       style="fill:none;stroke:#000000;stroke-width:0.3"
       d="m 170.43062,56.399641 -0.30113,-0.953582"
       id="path230" />
    <path
       style="fill:none;stroke:#000000;stroke-width:0.3"
       d="m 165.6627,57.905298 -0.30113,-0.953582"
       id="path229" />
    <path
       style="fill:none;stroke:#000000;stroke-width:0.3"
       d="m 160.89479,59.410955 -0.30113,-0.953583"
       id="path228" />
    <path
       style="fill:none;stroke:#000000;stroke-width:0.3"
       d="m 156.12688,60.916612 -0.30113,-0.953583"
       id="path227" />
    <path
       style="fill:none;stroke:#000000;stroke-width:0.3"
       d="m 151.35896,62.422269 -0.30113,-0.953583"
       id="path226" />
    <path
       style="fill:none;stroke:#000000;stroke-width:0.3"
       d="m 146.59105,63.927926 -0.30113,-0.953583"
       id="path225" />
    <path
       style="fill:none;stroke:#000000;stroke-width:0.3"
       d="M 141.82314,65.433583 141.52201,64.48"
       id="path224" />
    <path
       style="fill:none;stroke:#000000;stroke-width:0.3"
       d="m 137.05522,66.93924 -0.30113,-0.953583"
       id="path223" />
    <path
       style="fill:none;stroke:#000000;stroke-width:0.3"
       d="m 132.28731,68.444897 -0.30113,-0.953583"
       id="path222" />
    <path
       style="fill:none;stroke:#000000;stroke-width:0.3"
       d="m 127.5194,69.950553 -0.30113,-0.953582"
       id="path221" />
    <path
       style="fill:none;stroke:#000000;stroke-width:0.3"
       d="m 122.75149,71.45621 -0.30114,-0.953582"
       id="path220" />
    <path
       style="fill:none;stroke:#000000;stroke-width:0.3"
       d="m 117.98357,72.961867 -0.30113,-0.953582"
       id="path219" />
    <path
       style="fill:none;stroke:#000000;stroke-width:0.3"
       d="m 113.21566,74.467524 -0.30113,-0.953582"
       id="path218" />
    <path
       style="fill:none;stroke:#000000;stroke-width:0.3"
       d="m 108.44775,75.973181 -0.30114,-0.953583"
       id="path217" />
    <path
       style="fill:none;stroke:#000000;stroke-width:0.3"
       d="M 103.67983,77.478838 103.3787,76.525255"
       id="path216" />
    <path
       style="fill:none;stroke:#000000;stroke-width:0.3"
       d="M 98.911918,78.984495 98.610787,78.030912"
       id="path215" />
    <path
       style="fill:none;stroke:#000000;stroke-width:0.3"
       d="M 94.144005,80.490152 93.842874,79.536569"
       id="path214" />
    <path
       style="fill:none;stroke:#000000;stroke-width:0.3"
       d="M 89.376092,81.995809 89.074961,81.042226"
       id="path213" />
    <path
       style="fill:none;stroke:#000000;stroke-width:0.3"
       d="M 84.608179,83.501466 84.307047,82.547883"
       id="path212" />
    <path
       style="fill:none;stroke:#000000;stroke-width:0.3"
       d="M 79.840265,85.007123 79.539134,84.05354"
       id="path211" />
    <path
       style="fill:none;stroke:#000000;stroke-width:0.3"
       d="M 75.072352,86.512779 74.771221,85.559197"
       id="path210" />
    <path
       style="fill:none;stroke:#000000;stroke-width:0.3"
       d="M 70.304439,88.018436 70.003307,87.064854"
       id="path209" />
    <path
       style="fill:none;stroke:#000000;stroke-width:0.3"
       d="M 65.536525,89.524093 65.235394,88.570511"
       id="path208" />
    <path
       style="fill:none;stroke:#000000;stroke-width:0.3"
       d="M 60.768612,91.02975 60.467481,90.076168"
       id="path207" />
    <path
       style="fill:none;stroke:#000000;stroke-width:0.3"
       d="M 56.000699,92.535407 55.699567,91.581824"
       id="path206" />
    <path
       style="fill:none;stroke:#000000;stroke-width:0.3"
       d="m 59.201501,93.866272 -0.259029,0.96587"
       id="path205" />
    <path
       style="fill:none;stroke:#000000;stroke-width:0.3"
       d="m 64.030849,95.161415 -0.259029,0.96587"
       id="path204" />
    <path
       style="fill:none;stroke:#000000;stroke-width:0.3"
       d="m 68.860197,96.456559 -0.259029,0.965869"
       id="path203" />
    <path
       style="fill:none;stroke:#000000;stroke-width:0.3"
       d="m 73.689545,97.751702 -0.259029,0.96587"
       id="path202" />
    <path
       style="fill:none;stroke:#000000;stroke-width:0.3"
       d="m 78.518893,99.046845 -0.259028,0.965875"
       id="path201" />
    <path
       style="fill:none;stroke:#000000;stroke-width:0.3"
       d="m 83.348242,100.34199 -0.259029,0.96587"
       id="path200" />
    <path
       style="fill:none;stroke:#000000;stroke-width:0.3"
       d="M 88.17759,101.63713 87.918561,102.603"
       id="path199" />
    <path
       style="fill:none;stroke:#000000;stroke-width:0.3"
       d="m 93.006938,102.93228 -0.259029,0.96586"
       id="path198" />
    <path
       style="fill:none;stroke:#000000;stroke-width:0.3"
       d="m 97.836286,104.22742 -0.259029,0.96587"
       id="path197" />
    <path
       style="fill:none;stroke:#000000;stroke-width:0.3"
       d="m 102.66563,105.52256 -0.25902,0.96587"
       id="path196" />
    <path
       style="fill:none;stroke:#000000;stroke-width:0.3"
       d="m 107.49498,106.81771 -0.25903,0.96586"
       id="path195" />
    <path
       style="fill:none;stroke:#000000;stroke-width:0.3"
       d="m 112.32433,108.11285 -0.25903,0.96587"
       id="path194" />
    <path
       style="fill:none;stroke:#000000;stroke-width:0.3"
       d="m 117.15368,109.40799 -0.25903,0.96587"
       id="path193" />
    <path
       style="fill:none;stroke:#000000;stroke-width:0.3"
       d="M 121.98303,110.70314 121.724,111.669"
       id="path192" />
    <path
       style="fill:none;stroke:#000000;stroke-width:0.3"
       d="m 126.81238,111.99828 -0.25903,0.96587"
       id="path191" />
    <path
       style="fill:none;stroke:#000000;stroke-width:0.3"
       d="m 131.64172,113.29342 -0.25903,0.96587"
       id="path190" />
    <path
       style="fill:none;stroke:#000000;stroke-width:0.3"
       d="m 136.47107,114.58856 -0.25903,0.96587"
       id="path189" />
    <path
       style="fill:none;stroke:#000000;stroke-width:0.3"
       d="m 141.30042,115.88371 -0.25903,0.96587"
       id="path188" />
    <path
       style="fill:none;stroke:#000000;stroke-width:0.3"
       d="m 146.12977,117.17885 -0.25903,0.96587"
       id="path187" />
    <path
       style="fill:none;stroke:#000000;stroke-width:0.3"
       d="m 150.95912,118.47399 -0.25903,0.96587"
       id="path186" />
    <path
       style="fill:none;stroke:#000000;stroke-width:0.3"
       d="m 155.78846,119.76914 -0.25902,0.96587"
       id="path185" />
    <path
       style="fill:none;stroke:#000000;stroke-width:0.3"
       d="m 160.61781,121.06428 -0.25903,0.96587"
       id="path184" />
    <path
       style="fill:none;stroke:#000000;stroke-width:0.3"
       d="m 165.44716,122.35942 -0.25903,0.96587"
       id="path183" />
    <path
       style="fill:none;stroke:#000000;stroke-width:0.3"
       d="m 170.27651,123.65457 -0.25903,0.96587"
       id="path182" />
    <path
       style="fill:none;stroke:#000000;stroke-width:0.3"
       d="m 175.10586,124.94971 -0.25903,0.96587"
       id="path181" />
    <path
       style="fill:none;stroke:#000000;stroke-width:0.3"
       d="m 179.93521,126.24485 -0.25903,0.96587"
       id="path180" />
    <path
       style="fill:none;stroke:#000000;stroke-width:0.3"
       d="m 184.76455,127.54 -0.25903,0.96587"
       id="path179" />
    <path
       style="fill:none;stroke:#000000;stroke-width:0.3"
       d="m 189.5939,128.83514 -0.25903,0.96587"
       id="path178" />
    <path
       style="fill:none;stroke:#000000;stroke-width:0.3"
       d="m 194.42325,130.13028 -0.25903,0.96587"
       id="path177" />
    <path
       style="fill:none;stroke:#000000;stroke-width:0.3"
       d="m 199.2526,131.42543 -0.25903,0.96587"
       id="path176" />
    <path
       style="fill:none;stroke:#000000;stroke-width:0.3"
       d="m 204.08195,132.72057 -0.25903,0.96587"
       id="path175" />
    <path
       style="fill:none;stroke:#000000;stroke-width:0.3"
       d="m 204.97667,133.77296 -0.13831,-0.99039"
       id="path174" />
    <path
       style="fill:none;stroke:#000000;stroke-width:0.3"
       d="m 200.02473,134.46452 -0.13831,-0.99039"
       id="path173" />
    <path
       style="fill:none;stroke:#000000;stroke-width:0.3"
       d="m 195.07279,135.15609 -0.13832,-0.99039"
       id="path172" />
    <path
       style="fill:none;stroke:#000000;stroke-width:0.3"
       d="m 190.12084,135.84765 -0.13831,-0.99039"
       id="path171" />
    <path
       style="fill:none;stroke:#000000;stroke-width:0.3"
       d="m 185.1689,136.53922 -0.13831,-0.99039"
       id="path170" />
    <path
       style="fill:none;stroke:#000000;stroke-width:0.3"
       d="m 180.21696,137.23078 -0.13832,-0.99039"
       id="path169" />
    <path
       style="fill:none;stroke:#000000;stroke-width:0.3"
       d="m 175.26501,137.92235 -0.13831,-0.99039"
       id="path168" />
    <path
       style="fill:none;stroke:#000000;stroke-width:0.3"
       d="m 170.31307,138.61391 -0.13831,-0.99039"
       id="path167" />
    <path
       style="fill:none;stroke:#000000;stroke-width:0.3"
       d="m 165.36113,139.30548 -0.13832,-0.99039"
       id="path166" />
    <path
       style="fill:none;stroke:#000000;stroke-width:0.3"
       d="m 160.40918,139.99704 -0.13831,-0.99039"
       id="path165" />
    <path
       style="fill:none;stroke:#000000;stroke-width:0.3"
       d="m 155.45724,140.6886 -0.13831,-0.99038"
       id="path164" />
    <path
       style="fill:none;stroke:#000000;stroke-width:0.3"
       d="m 150.5053,141.38017 -0.13831,-0.99039"
       id="path163" />
    <path
       style="fill:none;stroke:#000000;stroke-width:0.3"
       d="m 145.55336,142.07173 -0.13832,-0.99039"
       id="path162" />
    <path
       style="fill:none;stroke:#000000;stroke-width:0.3"
       d="m 140.60141,142.7633 -0.13831,-0.99039"
       id="path161" />
    <path
       style="fill:none;stroke:#000000;stroke-width:0.3"
       d="m 135.64947,143.45486 -0.13831,-0.99039"
       id="path160" />
    <path
       style="fill:none;stroke:#000000;stroke-width:0.3"
       d="m 130.69753,144.14643 -0.13832,-0.99039"
       id="path159" />
    <path
       style="fill:none;stroke:#000000;stroke-width:0.3"
       d="m 125.74558,144.83799 -0.13831,-0.99039"
       id="path158" />
    <path
       style="fill:none;stroke:#000000;stroke-width:0.3"
       d="m 120.79364,145.52956 -0.13831,-0.99039"
       id="path157" />
    <path
       style="fill:none;stroke:#000000;stroke-width:0.3"
       d="m 115.8417,146.22112 -0.13831,-0.99039"
       id="path156" />
    <path
       style="fill:none;stroke:#000000;stroke-width:0.3"
       d="m 110.88976,146.91268 -0.13832,-0.99038"
       id="path155" />
    <path
       style="fill:none;stroke:#000000;stroke-width:0.3"
       d="m 105.93781,147.60425 -0.13831,-0.99039"
       id="path154" />
    <path
       style="fill:none;stroke:#000000;stroke-width:0.3"
       d="m 100.98587,148.29581 -0.13831,-0.99038"
       id="path153" />
    <path
       style="fill:none;stroke:#000000;stroke-width:0.3"
       d="m 96.033927,148.98738 -0.138313,-0.99039"
       id="path152" />
    <path
       style="fill:none;stroke:#000000;stroke-width:0.3"
       d="m 91.081984,149.67894 -0.138313,-0.99039"
       id="path151" />
    <path
       style="fill:none;stroke:#000000;stroke-width:0.3"
       d="m 86.130041,150.37051 -0.138313,-0.99039"
       id="path150" />
    <path
       style="fill:none;stroke:#000000;stroke-width:0.3"
       d="m 81.178098,151.06207 -0.138313,-0.99039"
       id="path149" />
    <path
       style="fill:none;stroke:#000000;stroke-width:0.3"
       d="m 76.226155,151.75364 -0.138312,-0.99039"
       id="path148" />
    <path
       style="fill:none;stroke:#000000;stroke-width:0.3"
       d="M 71.274213,152.4452 71.1359,151.45481"
       id="path147" />
    <path
       style="fill:none;stroke:#000000;stroke-width:0.3"
       d="m 66.32227,153.13677 -0.138313,-0.99039"
       id="path146" />
    <path
       style="fill:none;stroke:#000000;stroke-width:0.3"
       d="m 61.370327,153.82833 -0.138313,-0.99039"
       id="path145" />
    <path
       style="fill:none;stroke:#000000;stroke-width:0.3"
       d="m 56.418384,154.51989 -0.138313,-0.99038"
       id="path144" />
    <path
       style="fill:none;stroke:#000000;stroke-width:0.3"
       d="m 51.466441,155.21146 -0.138313,-0.99039"
       id="path143" />
    <path
       style="fill:none;stroke:#000000;stroke-width:0.3"
       d="m 46.514498,155.90302 -0.138313,-0.99038"
       id="path142" />
    <path
       style="fill:none;stroke:#000000;stroke-width:0.3"
       d="M 41.562555,156.59459 41.424242,155.6042"
       id="path141" />
    <path
       style="fill:none;stroke:#000000;stroke-width:0.3"
       d="m 36.610612,157.28615 -0.138313,-0.99039"
       id="path140" />
    <path
       style="fill:none;stroke:#000000;stroke-width:0.3"
       d="m 31.658669,157.97772 -0.138313,-0.99039"
       id="path139" />
    <path
       style="fill:none;stroke:#000000;stroke-width:0.3"
       d="m 26.706726,158.66928 -0.138312,-0.99039"
       id="path138" />
    <path
       style="fill:none;stroke:#000000;stroke-width:0.3"
       d="m 21.754784,159.36085 -0.138313,-0.99039"
       id="path137" />
    <path
       style="fill:none;stroke:#000000;stroke-width:0.3"
       d="m 16.802841,160.05241 -0.138313,-0.99039"
       id="path136" />
    <path
       style="fill:none;stroke:#000000;stroke-width:0.3"
       d="m 11.850898,160.74398 -0.138313,-0.99039"
       id="path135" />
    <path
       style="fill:none;stroke:#000000;stroke-width:0.3"
       d="M 6.8989548,161.43554 Z"
       id="path134" />
  </g>
</svg>
