<?xml version="1.0" encoding="UTF-8" standalone="no"?>
<!-- Created with Inkscape (http://www.inkscape.org/) -->

<svg
   width="265.2648mm"
   height="164.07426mm"
   viewBox="0 0 265.2648 164.07426"
   version="1.1"
   id="svg1"
   inkscape:version="1.3.1 (91b66b0783, 2023-11-16)"
   sodipodi:docname="SVG TEST2.svg"
   inkscape:export-filename="TestSVG2\Track2.svg"
   inkscape:export-xdpi="96"
   inkscape:export-ydpi="96"
   xmlns:inkscape="http://www.inkscape.org/namespaces/inkscape"
   xmlns:sodipodi="http://sodipodi.sourceforge.net/DTD/sodipodi-0.dtd"
   xmlns="http://www.w3.org/2000/svg"
   xmlns:svg="http://www.w3.org/2000/svg">
  <sodipodi:namedview
     id="namedview1"
     pagecolor="#ffffff"
     bordercolor="#000000"
     borderopacity="0.25"
     inkscape:showpageshadow="2"
     inkscape:pageopacity="0.0"
     inkscape:pagecheckerboard="0"
     inkscape:deskcolor="#d1d1d1"
     inkscape:document-units="mm"
     inkscape:zoom="0.3835122"
     inkscape:cx="535.83693"
     inkscape:cy="616.66878"
     inkscape:window-width="1920"
     inkscape:window-height="1057"
     inkscape:window-x="1912"
     inkscape:window-y="-8"
     inkscape:window-maximized="1"
     inkscape:current-layer="layer1"
     showgrid="false" />
  <defs
     id="defs1" />
  <g
     inkscape:groupmode="layer"
     id="g7"
     inkscape:label="Track3_HOLES"
     style="display:inline"
     transform="translate(-4.1393728,-9.0894757)">
    <path
       style="fill:none;stroke:#000000;stroke-width:0.3"
       d="M 260.43554,10.003484 Z"
       id="path355" />
    <path
       style="fill:none;stroke:#000000;stroke-width:0.3"
       d="M 260.21254,10.082304 259.87929,9.1394635"
       id="path354" />
    <path
       style="fill:none;stroke:#000000;stroke-width:0.3"
       d="m 255.49834,11.74853 -0.33325,-0.94284"
       id="path353" />
    <path
       style="fill:none;stroke:#000000;stroke-width:0.3"
       d="m 250.78414,13.414756 -0.33325,-0.94284"
       id="path352" />
    <path
       style="fill:none;stroke:#000000;stroke-width:0.3"
       d="m 246.06994,15.080982 -0.33325,-0.94284"
       id="path351" />
    <path
       style="fill:none;stroke:#000000;stroke-width:0.3"
       d="m 241.35573,16.747208 -0.33324,-0.94284"
       id="path350" />
    <path
       style="fill:none;stroke:#000000;stroke-width:0.3"
       d="m 236.64153,18.413435 -0.33324,-0.942841"
       id="path349" />
    <path
       style="fill:none;stroke:#000000;stroke-width:0.3"
       d="m 231.92733,20.079661 -0.33324,-0.94284"
       id="path348" />
    <path
       style="fill:none;stroke:#000000;stroke-width:0.3"
       d="m 227.21313,21.745887 -0.33324,-0.94284"
       id="path347" />
    <path
       style="fill:none;stroke:#000000;stroke-width:0.3"
       d="m 222.49893,23.412113 -0.33324,-0.94284"
       id="path346" />
    <path
       style="fill:none;stroke:#000000;stroke-width:0.3"
       d="m 217.78473,25.078339 -0.33325,-0.94284"
       id="path345" />
    <path
       style="fill:none;stroke:#000000;stroke-width:0.3"
       d="m 213.07053,26.744566 -0.33325,-0.942841"
       id="path344" />
    <path
       style="fill:none;stroke:#000000;stroke-width:0.3"
       d="m 208.35633,28.410792 -0.33325,-0.94284"
       id="path343" />
    <path
       style="fill:none;stroke:#000000;stroke-width:0.3"
       d="m 203.64213,30.077018 -0.33325,-0.94284"
       id="path342" />
    <path
       style="fill:none;stroke:#000000;stroke-width:0.3"
       d="m 198.92793,31.743244 -0.33325,-0.94284"
       id="path341" />
    <path
       style="fill:none;stroke:#000000;stroke-width:0.3"
       d="m 194.21373,33.40947 -0.33325,-0.94284"
       id="path340" />
    <path
       style="fill:none;stroke:#000000;stroke-width:0.3"
       d="m 189.49952,35.075696 -0.33324,-0.94284"
       id="path339" />
    <path
       style="fill:none;stroke:#000000;stroke-width:0.3"
       d="m 184.78532,36.741923 -0.33324,-0.942841"
       id="path338" />
    <path
       style="fill:none;stroke:#000000;stroke-width:0.3"
       d="m 180.07112,38.408149 -0.33324,-0.94284"
       id="path337" />
    <path
       style="fill:none;stroke:#000000;stroke-width:0.3"
       d="m 175.35692,40.074375 -0.33324,-0.94284"
       id="path336" />
    <path
       style="fill:none;stroke:#000000;stroke-width:0.3"
       d="m 170.64272,41.740601 -0.33324,-0.94284"
       id="path335" />
    <path
       style="fill:none;stroke:#000000;stroke-width:0.3"
       d="m 165.92852,43.406827 -0.33325,-0.94284"
       id="path334" />
    <path
       style="fill:none;stroke:#000000;stroke-width:0.3"
       d="m 161.21432,45.073054 -0.33325,-0.942841"
       id="path333" />
    <path
       style="fill:none;stroke:#000000;stroke-width:0.3"
       d="m 156.50012,46.73928 -0.33325,-0.94284"
       id="path332" />
    <path
       style="fill:none;stroke:#000000;stroke-width:0.3"
       d="m 151.78592,48.405506 -0.33325,-0.94284"
       id="path331" />
    <path
       style="fill:none;stroke:#000000;stroke-width:0.3"
       d="m 147.07172,50.071732 -0.33325,-0.94284"
       id="path330" />
    <path
       style="fill:none;stroke:#000000;stroke-width:0.3"
       d="m 142.35752,51.737958 -0.33325,-0.94284"
       id="path329" />
    <path
       style="fill:none;stroke:#000000;stroke-width:0.3"
       d="m 137.64331,53.404185 -0.33324,-0.942841"
       id="path328" />
    <path
       style="fill:none;stroke:#000000;stroke-width:0.3"
       d="m 132.92911,55.070411 -0.33324,-0.94284"
       id="path327" />
    <path
       style="fill:none;stroke:#000000;stroke-width:0.3"
       d="m 128.21491,56.736637 -0.33324,-0.94284"
       id="path326" />
    <path
       style="fill:none;stroke:#000000;stroke-width:0.3"
       d="m 123.50071,58.402863 -0.33324,-0.94284"
       id="path325" />
    <path
       style="fill:none;stroke:#000000;stroke-width:0.3"
       d="m 118.78651,60.069089 -0.33324,-0.94284"
       id="path324" />
    <path
       style="fill:none;stroke:#000000;stroke-width:0.3"
       d="m 114.07231,61.735315 -0.33325,-0.94284"
       id="path323" />
    <path
       style="fill:none;stroke:#000000;stroke-width:0.3"
       d="m 109.35811,63.401542 -0.33325,-0.942841"
       id="path322" />
    <path
       style="fill:none;stroke:#000000;stroke-width:0.3"
       d="m 104.64391,65.067768 -0.33325,-0.94284"
       id="path321" />
    <path
       style="fill:none;stroke:#000000;stroke-width:0.3"
       d="m 99.929707,66.733994 -0.333245,-0.94284"
       id="path320" />
    <path
       style="fill:none;stroke:#000000;stroke-width:0.3"
       d="M 95.215506,68.40022 94.882261,67.45738"
       id="path319" />
    <path
       style="fill:none;stroke:#000000;stroke-width:0.3"
       d="M 90.501305,70.066446 90.16806,69.123606"
       id="path318" />
    <path
       style="fill:none;stroke:#000000;stroke-width:0.3"
       d="M 85.787104,71.732673 85.453859,70.789832"
       id="path317" />
    <path
       style="fill:none;stroke:#000000;stroke-width:0.3"
       d="m 81.072903,73.398899 -0.333245,-0.94284"
       id="path316" />
    <path
       style="fill:none;stroke:#000000;stroke-width:0.3"
       d="m 76.358702,75.065125 -0.333245,-0.94284"
       id="path315" />
    <path
       style="fill:none;stroke:#000000;stroke-width:0.3"
       d="m 71.644501,76.731351 -0.333245,-0.94284"
       id="path314" />
    <path
       style="fill:none;stroke:#000000;stroke-width:0.3"
       d="m 66.9303,78.397577 -0.333245,-0.94284"
       id="path313" />
    <path
       style="fill:none;stroke:#000000;stroke-width:0.3"
       d="M 62.216099,80.063804 61.882854,79.120963"
       id="path312" />
    <path
       style="fill:none;stroke:#000000;stroke-width:0.3"
       d="M 57.501899,81.73003 57.168653,80.78719"
       id="path311" />
    <path
       style="fill:none;stroke:#000000;stroke-width:0.3"
       d="m 52.787698,83.396256 -0.333246,-0.94284"
       id="path310" />
    <path
       style="fill:none;stroke:#000000;stroke-width:0.3"
       d="m 48.073497,85.062482 -0.333246,-0.94284"
       id="path309" />
    <path
       style="fill:none;stroke:#000000;stroke-width:0.3"
       d="m 43.359296,86.728708 -0.333245,-0.94284"
       id="path308" />
    <path
       style="fill:none;stroke:#000000;stroke-width:0.3"
       d="M 38.645095,88.394934 38.31185,87.452094"
       id="path307" />
    <path
       style="fill:none;stroke:#000000;stroke-width:0.3"
       d="M 33.930894,90.061161 33.597649,89.11832"
       id="path306" />
    <path
       style="fill:none;stroke:#000000;stroke-width:0.3"
       d="m 29.216693,91.727387 -0.333245,-0.94284"
       id="path305" />
    <path
       style="fill:none;stroke:#000000;stroke-width:0.3"
       d="m 24.502492,93.393613 -0.333245,-0.94284"
       id="path304" />
    <path
       style="fill:none;stroke:#000000;stroke-width:0.3"
       d="m 20.925762,95.028137 -0.280213,0.959938"
       id="path303" />
    <path
       style="fill:none;stroke:#000000;stroke-width:0.3"
       d="M 25.725451,96.429202 25.445238,97.38914"
       id="path302" />
    <path
       style="fill:none;stroke:#000000;stroke-width:0.3"
       d="m 30.52514,97.830268 -0.280213,0.959938"
       id="path301" />
    <path
       style="fill:none;stroke:#000000;stroke-width:0.3"
       d="m 35.324829,99.231333 -0.280213,0.959937"
       id="path300" />
    <path
       style="fill:none;stroke:#000000;stroke-width:0.3"
       d="m 40.124518,100.6324 -0.280213,0.95994"
       id="path299" />
    <path
       style="fill:none;stroke:#000000;stroke-width:0.3"
       d="m 44.924207,102.03346 -0.280213,0.95994"
       id="path298" />
    <path
       style="fill:none;stroke:#000000;stroke-width:0.3"
       d="m 49.723896,103.43453 -0.280213,0.95994"
       id="path297" />
    <path
       style="fill:none;stroke:#000000;stroke-width:0.3"
       d="m 54.523586,104.83559 -0.280214,0.95994"
       id="path296" />
    <path
       style="fill:none;stroke:#000000;stroke-width:0.3"
       d="m 59.323275,106.23666 -0.280213,0.95994"
       id="path295" />
    <path
       style="fill:none;stroke:#000000;stroke-width:0.3"
       d="m 64.122964,107.63773 -0.280213,0.95993"
       id="path294" />
    <path
       style="fill:none;stroke:#000000;stroke-width:0.3"
       d="m 68.922653,109.03879 -0.280213,0.95994"
       id="path293" />
    <path
       style="fill:none;stroke:#000000;stroke-width:0.3"
       d="m 73.722342,110.43986 -0.280213,0.95993"
       id="path292" />
    <path
       style="fill:none;stroke:#000000;stroke-width:0.3"
       d="m 78.522031,111.84092 -0.280213,0.95994"
       id="path291" />
    <path
       style="fill:none;stroke:#000000;stroke-width:0.3"
       d="m 83.32172,113.24199 -0.280213,0.95994"
       id="path290" />
    <path
       style="fill:none;stroke:#000000;stroke-width:0.3"
       d="m 88.121409,114.64305 -0.280213,0.95994"
       id="path289" />
    <path
       style="fill:none;stroke:#000000;stroke-width:0.3"
       d="m 92.921099,116.04412 -0.280214,0.95994"
       id="path288" />
    <path
       style="fill:none;stroke:#000000;stroke-width:0.3"
       d="m 97.720788,117.44518 -0.280213,0.95994"
       id="path287" />
    <path
       style="fill:none;stroke:#000000;stroke-width:0.3"
       d="m 102.52048,118.84625 -0.28022,0.95994"
       id="path286" />
    <path
       style="fill:none;stroke:#000000;stroke-width:0.3"
       d="m 107.32017,120.24731 -0.28022,0.95994"
       id="path285" />
    <path
       style="fill:none;stroke:#000000;stroke-width:0.3"
       d="m 112.11986,121.64838 -0.28022,0.95994"
       id="path284" />
    <path
       style="fill:none;stroke:#000000;stroke-width:0.3"
       d="m 116.91954,123.04945 -0.28021,0.95993"
       id="path283" />
    <path
       style="fill:none;stroke:#000000;stroke-width:0.3"
       d="m 121.71923,124.45051 -0.28021,0.95994"
       id="path282" />
    <path
       style="fill:none;stroke:#000000;stroke-width:0.3"
       d="m 126.51892,125.85158 -0.28021,0.95993"
       id="path281" />
    <path
       style="fill:none;stroke:#000000;stroke-width:0.3"
       d="m 131.31861,127.25264 -0.28021,0.95994"
       id="path280" />
    <path
       style="fill:none;stroke:#000000;stroke-width:0.3"
       d="m 136.1183,128.65371 -0.28021,0.95993"
       id="path279" />
    <path
       style="fill:none;stroke:#000000;stroke-width:0.3"
       d="m 138.4455,129.82842 -0.10126,-0.99486"
       id="path278" />
    <path
       style="fill:none;stroke:#000000;stroke-width:0.3"
       d="m 133.4712,130.33471 -0.10126,-0.99486"
       id="path277" />
    <path
       style="fill:none;stroke:#000000;stroke-width:0.3"
       d="m 128.4969,130.841 -0.10126,-0.99486"
       id="path276" />
    <path
       style="fill:none;stroke:#000000;stroke-width:0.3"
       d="m 123.5226,131.3473 -0.10126,-0.99487"
       id="path275" />
    <path
       style="fill:none;stroke:#000000;stroke-width:0.3"
       d="m 118.5483,131.85359 -0.10126,-0.99486"
       id="path274" />
    <path
       style="fill:none;stroke:#000000;stroke-width:0.3"
       d="m 113.57399,132.35988 -0.10125,-0.99486"
       id="path273" />
    <path
       style="fill:none;stroke:#000000;stroke-width:0.3"
       d="m 108.59969,132.86617 -0.10125,-0.99486"
       id="path272" />
    <path
       style="fill:none;stroke:#000000;stroke-width:0.3"
       d="m 103.62539,133.37246 -0.10126,-0.99486"
       id="path271" />
    <path
       style="fill:none;stroke:#000000;stroke-width:0.3"
       d="m 98.651091,133.87875 -0.101258,-0.99486"
       id="path270" />
    <path
       style="fill:none;stroke:#000000;stroke-width:0.3"
       d="m 93.676791,134.38504 -0.101259,-0.99486"
       id="path269" />
    <path
       style="fill:none;stroke:#000000;stroke-width:0.3"
       d="m 88.70249,134.89133 -0.101259,-0.99486"
       id="path268" />
    <path
       style="fill:none;stroke:#000000;stroke-width:0.3"
       d="m 83.728189,135.39762 -0.101258,-0.99486"
       id="path267" />
    <path
       style="fill:none;stroke:#000000;stroke-width:0.3"
       d="M 78.753888,135.90391 78.65263,134.90905"
       id="path266" />
    <path
       style="fill:none;stroke:#000000;stroke-width:0.3"
       d="m 73.779587,136.4102 -0.101258,-0.99486"
       id="path265" />
    <path
       style="fill:none;stroke:#000000;stroke-width:0.3"
       d="m 68.805286,136.91649 -0.101258,-0.99486"
       id="path264" />
    <path
       style="fill:none;stroke:#000000;stroke-width:0.3"
       d="m 63.830985,137.42278 -0.101258,-0.99486"
       id="path263" />
    <path
       style="fill:none;stroke:#000000;stroke-width:0.3"
       d="m 58.856684,137.92907 -0.101258,-0.99486"
       id="path262" />
    <path
       style="fill:none;stroke:#000000;stroke-width:0.3"
       d="M 53.882383,138.43536 53.781125,137.4405"
       id="path261" />
    <path
       style="fill:none;stroke:#000000;stroke-width:0.3"
       d="m 48.908082,138.94165 -0.101258,-0.99486"
       id="path260" />
    <path
       style="fill:none;stroke:#000000;stroke-width:0.3"
       d="m 43.933781,139.44794 -0.101258,-0.99486"
       id="path259" />
    <path
       style="fill:none;stroke:#000000;stroke-width:0.3"
       d="m 38.95948,139.95423 -0.101258,-0.99486"
       id="path258" />
    <path
       style="fill:none;stroke:#000000;stroke-width:0.3"
       d="m 33.985179,140.46052 -0.101258,-0.99486"
       id="path257" />
    <path
       style="fill:none;stroke:#000000;stroke-width:0.3"
       d="M 29.010878,140.96681 28.90962,139.97195"
       id="path256" />
    <path
       style="fill:none;stroke:#000000;stroke-width:0.3"
       d="m 24.036577,141.4731 -0.101258,-0.99486"
       id="path255" />
    <path
       style="fill:none;stroke:#000000;stroke-width:0.3"
       d="m 19.062276,141.97939 -0.101258,-0.99486"
       id="path254" />
    <path
       style="fill:none;stroke:#000000;stroke-width:0.3"
       d="m 14.087975,142.48568 -0.101258,-0.99486"
       id="path253" />
    <path
       style="fill:none;stroke:#000000;stroke-width:0.3"
       d="M 9.1136739,142.99197 9.0124158,141.99711"
       id="path252" />
    <path
       style="fill:none;stroke:#000000;stroke-width:0.3"
       d="M 4.1393729,143.49826 Z"
       id="path251" />
  </g>
</svg>
