<?xml version="1.0" encoding="UTF-8" standalone="no"?>
<!-- Created with Inkscape (http://www.inkscape.org/) -->

<svg
   width="210mm"
   height="297mm"
   viewBox="0 0 210 297"
   version="1.1"
   id="svg1"
   inkscape:version="1.3.1 (91b66b0783, 2023-11-16)"
   sodipodi:docname="eventspacingsdisthistcurve1.svg"
   xmlns:inkscape="http://www.inkscape.org/namespaces/inkscape"
   xmlns:sodipodi="http://sodipodi.sourceforge.net/DTD/sodipodi-0.dtd"
   xmlns="http://www.w3.org/2000/svg"
   xmlns:svg="http://www.w3.org/2000/svg">
  <sodipodi:namedview
     id="namedview1"
     pagecolor="#ffffff"
     bordercolor="#000000"
     borderopacity="0.25"
     inkscape:showpageshadow="2"
     inkscape:pageopacity="0.0"
     inkscape:pagecheckerboard="0"
     inkscape:deskcolor="#d1d1d1"
     inkscape:document-units="mm"
     inkscape:zoom="0.38351221"
     inkscape:cx="478.47239"
     inkscape:cy="734.00532"
     inkscape:window-width="1920"
     inkscape:window-height="1057"
     inkscape:window-x="1912"
     inkscape:window-y="-8"
     inkscape:window-maximized="1"
     inkscape:current-layer="layer1" />
  <defs
     id="defs1">
    <inkscape:path-effect
       effect="ruler"
       id="path-effect2"
       is_visible="true"
       lpeversion="1"
       unit="px"
       mark_distance="5"
       mark_length="0"
       minor_mark_length="1"
       major_mark_steps="1000"
       shift="0"
       offset="0"
       mark_dir="left"
       border_marks="both" />
    <inkscape:path-effect
       effect="bspline"
       id="path-effect1"
       is_visible="true"
       lpeversion="1.3"
       weight="33.333333"
       steps="2"
       helper_size="0"
       apply_no_weight="true"
       apply_with_weight="true"
       only_selected="false"
       uniform="false" />
  </defs>
  <g
     inkscape:label="Layer 1"
     inkscape:groupmode="layer"
     id="layer1">
    <path
       style="fill:none;stroke:#000000;stroke-width:0.3"
       d="M 186.27188,146.25794 Z"
       id="path147" />
    <path
       style="fill:none;stroke:#000000;stroke-width:0.3"
       d="m 185.30217,146.26673 -0.002,-0.26457"
       id="path146" />
    <path
       style="fill:none;stroke:#000000;stroke-width:0.3"
       d="m 183.97898,146.27855 -0.002,-0.26457"
       id="path145" />
    <path
       style="fill:none;stroke:#000000;stroke-width:0.3"
       d="m 182.6559,146.2899 -0.002,-0.26457"
       id="path144" />
    <path
       style="fill:none;stroke:#000000;stroke-width:0.3"
       d="m 181.33299,146.30054 -0.002,-0.26458"
       id="path143" />
    <path
       style="fill:none;stroke:#000000;stroke-width:0.3"
       d="m 180.0103,146.31018 -0.002,-0.26458"
       id="path142" />
    <path
       style="fill:none;stroke:#000000;stroke-width:0.3"
       d="m 178.68788,146.31857 -0.002,-0.26458"
       id="path141" />
    <path
       style="fill:none;stroke:#000000;stroke-width:0.3"
       d="m 177.36478,146.32544 -0.001,-0.26458"
       id="path140" />
    <path
       style="fill:none;stroke:#000000;stroke-width:0.3"
       d="m 176.04188,146.33052 -8.2e-4,-0.26458"
       id="path139" />
    <path
       style="fill:none;stroke:#000000;stroke-width:0.3"
       d="m 174.71896,146.33356 -3.8e-4,-0.26459"
       id="path138" />
    <path
       style="fill:none;stroke:#000000;stroke-width:0.3"
       d="m 173.39605,146.33427 1e-4,-0.26458"
       id="path137" />
    <path
       style="fill:none;stroke:#000000;stroke-width:0.3"
       d="m 172.07313,146.3324 6.5e-4,-0.26458"
       id="path136" />
    <path
       style="fill:none;stroke:#000000;stroke-width:0.3"
       d="m 170.75047,146.32768 0.001,-0.26458"
       id="path135" />
    <path
       style="fill:none;stroke:#000000;stroke-width:0.3"
       d="m 169.42747,146.31983 0.002,-0.26457"
       id="path134" />
    <path
       style="fill:none;stroke:#000000;stroke-width:0.3"
       d="m 168.10421,146.30859 0.003,-0.26457"
       id="path133" />
    <path
       style="fill:none;stroke:#000000;stroke-width:0.3"
       d="m 166.78175,146.29369 0.003,-0.26456"
       id="path132" />
    <path
       style="fill:none;stroke:#000000;stroke-width:0.3"
       d="m 165.45915,146.27486 0.004,-0.26455"
       id="path131" />
    <path
       style="fill:none;stroke:#000000;stroke-width:0.3"
       d="m 164.13648,146.25183 0.005,-0.26453"
       id="path130" />
    <path
       style="fill:none;stroke:#000000;stroke-width:0.3"
       d="m 162.81382,146.22432 0.006,-0.26451"
       id="path129" />
    <path
       style="fill:none;stroke:#000000;stroke-width:0.3"
       d="m 161.49125,146.19207 0.007,-0.2645"
       id="path128" />
    <path
       style="fill:none;stroke:#000000;stroke-width:0.3"
       d="m 160.16884,146.15479 0.008,-0.26446"
       id="path127" />
    <path
       style="fill:none;stroke:#000000;stroke-width:0.3"
       d="m 158.84667,146.11222 0.009,-0.26443"
       id="path126" />
    <path
       style="fill:none;stroke:#000000;stroke-width:0.3"
       d="m 157.52463,146.06408 0.0102,-0.26438"
       id="path125" />
    <path
       style="fill:none;stroke:#000000;stroke-width:0.3"
       d="m 156.20282,146.0101 0.0114,-0.26433"
       id="path124" />
    <path
       style="fill:none;stroke:#000000;stroke-width:0.3"
       d="m 154.88122,145.95001 0.0127,-0.26428"
       id="path123" />
    <path
       style="fill:none;stroke:#000000;stroke-width:0.3"
       d="m 153.55993,145.88352 0.014,-0.26422"
       id="path122" />
    <path
       style="fill:none;stroke:#000000;stroke-width:0.3"
       d="m 152.23906,145.81036 0.0153,-0.26414"
       id="path121" />
    <path
       style="fill:none;stroke:#000000;stroke-width:0.3"
       d="m 150.91861,145.73026 0.0167,-0.26405"
       id="path120" />
    <path
       style="fill:none;stroke:#000000;stroke-width:0.3"
       d="m 149.59859,145.64294 0.0182,-0.26395"
       id="path119" />
    <path
       style="fill:none;stroke:#000000;stroke-width:0.3"
       d="m 148.27911,145.54813 0.0197,-0.26384"
       id="path118" />
    <path
       style="fill:none;stroke:#000000;stroke-width:0.3"
       d="m 146.96019,145.44556 0.0213,-0.26373"
       id="path117" />
    <path
       style="fill:none;stroke:#000000;stroke-width:0.3"
       d="m 145.64195,145.33494 0.0229,-0.26359"
       id="path116" />
    <path
       style="fill:none;stroke:#000000;stroke-width:0.3"
       d="m 144.32443,145.21601 0.0246,-0.26343"
       id="path115" />
    <path
       style="fill:none;stroke:#000000;stroke-width:0.3"
       d="m 143.00765,145.0885 0.0264,-0.26327"
       id="path114" />
    <path
       style="fill:none;stroke:#000000;stroke-width:0.3"
       d="m 141.69175,144.95213 0.0282,-0.26308"
       id="path113" />
    <path
       style="fill:none;stroke:#000000;stroke-width:0.3"
       d="m 140.37689,144.80665 0.03,-0.26288"
       id="path112" />
    <path
       style="fill:none;stroke:#000000;stroke-width:0.3"
       d="m 139.0631,144.65177 0.0319,-0.26265"
       id="path111" />
    <path
       style="fill:none;stroke:#000000;stroke-width:0.3"
       d="m 137.75044,144.48725 0.0339,-0.2624"
       id="path110" />
    <path
       style="fill:none;stroke:#000000;stroke-width:0.3"
       d="m 136.43907,144.31282 0.0359,-0.26214"
       id="path109" />
    <path
       style="fill:none;stroke:#000000;stroke-width:0.3"
       d="m 135.12906,144.12822 0.038,-0.26185"
       id="path108" />
    <path
       style="fill:none;stroke:#000000;stroke-width:0.3"
       d="m 133.82057,143.93321 0.0401,-0.26154"
       id="path107" />
    <path
       style="fill:none;stroke:#000000;stroke-width:0.3"
       d="m 132.51377,143.72752 0.0422,-0.26119"
       id="path106" />
    <path
       style="fill:none;stroke:#000000;stroke-width:0.3"
       d="m 131.20873,143.51092 0.0444,-0.26082"
       id="path105" />
    <path
       style="fill:none;stroke:#000000;stroke-width:0.3"
       d="m 129.90555,143.28318 0.0467,-0.26044"
       id="path104" />
    <path
       style="fill:none;stroke:#000000;stroke-width:0.3"
       d="m 128.60441,143.04404 0.049,-0.26001"
       id="path103" />
    <path
       style="fill:none;stroke:#000000;stroke-width:0.3"
       d="m 127.3055,142.79329 0.0513,-0.25955"
       id="path102" />
    <path
       style="fill:none;stroke:#000000;stroke-width:0.3"
       d="m 126.00892,142.53071 0.0537,-0.25907"
       id="path101" />
    <path
       style="fill:none;stroke:#000000;stroke-width:0.3"
       d="m 124.71477,142.25608 0.0562,-0.25856"
       id="path100" />
    <path
       style="fill:none;stroke:#000000;stroke-width:0.3"
       d="m 123.42336,141.96919 0.0586,-0.258"
       id="path99" />
    <path
       style="fill:none;stroke:#000000;stroke-width:0.3"
       d="m 122.13479,141.66985 0.0611,-0.25742"
       id="path98" />
    <path
       style="fill:none;stroke:#000000;stroke-width:0.3"
       d="m 120.84917,141.35787 0.0637,-0.25681"
       id="path97" />
    <path
       style="fill:none;stroke:#000000;stroke-width:0.3"
       d="m 119.5668,141.03306 0.0662,-0.25615"
       id="path96" />
    <path
       style="fill:none;stroke:#000000;stroke-width:0.3"
       d="m 118.28772,140.69526 0.0689,-0.25546"
       id="path95" />
    <path
       style="fill:none;stroke:#000000;stroke-width:0.3"
       d="m 117.01223,140.3443 0.0715,-0.25474"
       id="path94" />
    <path
       style="fill:none;stroke:#000000;stroke-width:0.3"
       d="m 115.74045,139.98003 0.0742,-0.25397"
       id="path93" />
    <path
       style="fill:none;stroke:#000000;stroke-width:0.3"
       d="m 114.4726,139.60231 0.0769,-0.25316"
       id="path92" />
    <path
       style="fill:none;stroke:#000000;stroke-width:0.3"
       d="m 113.20891,139.21102 0.0796,-0.25232"
       id="path91" />
    <path
       style="fill:none;stroke:#000000;stroke-width:0.3"
       d="m 111.94948,138.80604 0.0824,-0.25144"
       id="path90" />
    <path
       style="fill:none;stroke:#000000;stroke-width:0.3"
       d="m 110.69462,138.38728 0.0851,-0.25052"
       id="path89" />
    <path
       style="fill:none;stroke:#000000;stroke-width:0.3"
       d="m 109.44435,137.95506 0.0877,-0.24961"
       id="path88" />
    <path
       style="fill:none;stroke:#000000;stroke-width:0.3"
       d="m 108.19857,137.51006 0.0902,-0.24872"
       id="path87" />
    <path
       style="fill:none;stroke:#000000;stroke-width:0.3"
       d="m 106.95715,137.05293 0.0926,-0.24785"
       id="path86" />
    <path
       style="fill:none;stroke:#000000;stroke-width:0.3"
       d="m 105.72007,136.58429 0.0948,-0.247"
       id="path85" />
    <path
       style="fill:none;stroke:#000000;stroke-width:0.3"
       d="m 104.48709,136.10475 0.097,-0.24618"
       id="path84" />
    <path
       style="fill:none;stroke:#000000;stroke-width:0.3"
       d="m 103.25818,135.61489 0.099,-0.24538"
       id="path83" />
    <path
       style="fill:none;stroke:#000000;stroke-width:0.3"
       d="m 102.03325,135.11527 0.10086,-0.24461"
       id="path82" />
    <path
       style="fill:none;stroke:#000000;stroke-width:0.3"
       d="m 100.81211,134.60642 0.10265,-0.24385"
       id="path81" />
    <path
       style="fill:none;stroke:#000000;stroke-width:0.3"
       d="m 99.594633,134.08888 0.104344,-0.24314"
       id="path80" />
    <path
       style="fill:none;stroke:#000000;stroke-width:0.3"
       d="m 98.380668,133.56315 0.105933,-0.24245"
       id="path79" />
    <path
       style="fill:none;stroke:#000000;stroke-width:0.3"
       d="m 97.170066,133.02972 0.107423,-0.24179"
       id="path78" />
    <path
       style="fill:none;stroke:#000000;stroke-width:0.3"
       d="m 95.962668,132.48908 0.108818,-0.24117"
       id="path77" />
    <path
       style="fill:none;stroke:#000000;stroke-width:0.3"
       d="m 94.758312,131.9417 0.11012,-0.24058"
       id="path76" />
    <path
       style="fill:none;stroke:#000000;stroke-width:0.3"
       d="m 93.55683,131.38803 0.111331,-0.24002"
       id="path75" />
    <path
       style="fill:none;stroke:#000000;stroke-width:0.3"
       d="m 92.35805,130.82854 0.112451,-0.2395"
       id="path74" />
    <path
       style="fill:none;stroke:#000000;stroke-width:0.3"
       d="m 91.161794,130.26367 0.113481,-0.23901"
       id="path73" />
    <path
       style="fill:none;stroke:#000000;stroke-width:0.3"
       d="m 89.967877,129.69387 0.114422,-0.23856"
       id="path72" />
    <path
       style="fill:none;stroke:#000000;stroke-width:0.3"
       d="m 88.776109,129.11959 0.115275,-0.23815"
       id="path71" />
    <path
       style="fill:none;stroke:#000000;stroke-width:0.3"
       d="m 87.586295,128.54128 0.116037,-0.23778"
       id="path70" />
    <path
       style="fill:none;stroke:#000000;stroke-width:0.3"
       d="m 86.398231,127.95937 0.116709,-0.23745"
       id="path69" />
    <path
       style="fill:none;stroke:#000000;stroke-width:0.3"
       d="m 85.211705,127.37434 0.11729,-0.23717"
       id="path68" />
    <path
       style="fill:none;stroke:#000000;stroke-width:0.3"
       d="m 84.026499,126.78664 0.117776,-0.23693"
       id="path67" />
    <path
       style="fill:none;stroke:#000000;stroke-width:0.3"
       d="m 82.842384,126.19674 0.118167,-0.23673"
       id="path66" />
    <path
       style="fill:none;stroke:#000000;stroke-width:0.3"
       d="m 81.65912,125.60514 0.118458,-0.23659"
       id="path65" />
    <path
       style="fill:none;stroke:#000000;stroke-width:0.3"
       d="m 80.476457,125.01233 0.118646,-0.23649"
       id="path64" />
    <path
       style="fill:none;stroke:#000000;stroke-width:0.3"
       d="m 79.294132,124.41886 0.118726,-0.23645"
       id="path63" />
    <path
       style="fill:none;stroke:#000000;stroke-width:0.3"
       d="m 78.111867,123.82526 0.118692,-0.23647"
       id="path62" />
    <path
       style="fill:none;stroke:#000000;stroke-width:0.3"
       d="m 76.929367,123.23213 0.118538,-0.23655"
       id="path61" />
    <path
       style="fill:none;stroke:#000000;stroke-width:0.3"
       d="m 75.746321,122.64009 0.118255,-0.23669"
       id="path60" />
    <path
       style="fill:none;stroke:#000000;stroke-width:0.3"
       d="m 74.562396,122.04981 0.117833,-0.2369"
       id="path59" />
    <path
       style="fill:none;stroke:#000000;stroke-width:0.3"
       d="m 73.377236,121.46201 0.11726,-0.23718"
       id="path58" />
    <path
       style="fill:none;stroke:#000000;stroke-width:0.3"
       d="m 72.190459,120.87749 0.116521,-0.23754"
       id="path57" />
    <path
       style="fill:none;stroke:#000000;stroke-width:0.3"
       d="m 71.001652,120.29711 0.115601,-0.238"
       id="path56" />
    <path
       style="fill:none;stroke:#000000;stroke-width:0.3"
       d="m 69.81037,119.72182 0.114478,-0.23853"
       id="path55" />
    <path
       style="fill:none;stroke:#000000;stroke-width:0.3"
       d="m 68.616128,119.15271 0.113128,-0.23918"
       id="path54" />
    <path
       style="fill:none;stroke:#000000;stroke-width:0.3"
       d="m 67.418398,118.59098 0.11152,-0.23994"
       id="path53" />
    <path
       style="fill:none;stroke:#000000;stroke-width:0.3"
       d="m 66.216601,118.038 0.109618,-0.24081"
       id="path52" />
    <path
       style="fill:none;stroke:#000000;stroke-width:0.3"
       d="m 65.010103,117.49536 0.107376,-0.24182"
       id="path51" />
    <path
       style="fill:none;stroke:#000000;stroke-width:0.3"
       d="m 63.798205,116.96489 0.104738,-0.24297"
       id="path50" />
    <path
       style="fill:none;stroke:#000000;stroke-width:0.3"
       d="m 62.580139,116.44875 0.101632,-0.24428"
       id="path49" />
    <path
       style="fill:none;stroke:#000000;stroke-width:0.3"
       d="m 61.355053,115.9495 0.09797,-0.24578"
       id="path48" />
    <path
       style="fill:none;stroke:#000000;stroke-width:0.3"
       d="m 60.12203,115.47022 0.09362,-0.24747"
       id="path47" />
    <path
       style="fill:none;stroke:#000000;stroke-width:0.3"
       d="m 58.880048,115.01466 0.08845,-0.24936"
       id="path46" />
    <path
       style="fill:none;stroke:#000000;stroke-width:0.3"
       d="m 57.628041,114.58748 0.08223,-0.25148"
       id="path45" />
    <path
       style="fill:none;stroke:#000000;stroke-width:0.3"
       d="m 56.364887,114.19451 0.07471,-0.25382"
       id="path44" />
    <path
       style="fill:none;stroke:#000000;stroke-width:0.3"
       d="m 55.089538,113.84321 0.06549,-0.25635"
       id="path43" />
    <path
       style="fill:none;stroke:#000000;stroke-width:0.3"
       d="m 53.801178,113.54331 0.05405,-0.25901"
       id="path42" />
    <path
       style="fill:none;stroke:#000000;stroke-width:0.3"
       d="m 52.499596,113.3076 0.03967,-0.2616"
       id="path41" />
    <path
       style="fill:none;stroke:#000000;stroke-width:0.3"
       d="m 51.185989,113.15323 0.02132,-0.26373"
       id="path40" />
    <path
       style="fill:none;stroke:#000000;stroke-width:0.3"
       d="m 49.864452,113.10163 -0.0012,-0.26458"
       id="path39" />
    <path
       style="fill:none;stroke:#000000;stroke-width:0.3"
       d="m 48.543873,113.1708 -0.02695,-0.26321"
       id="path38" />
    <path
       style="fill:none;stroke:#000000;stroke-width:0.3"
       d="m 47.237566,113.37563 -0.05535,-0.25873"
       id="path37" />
    <path
       style="fill:none;stroke:#000000;stroke-width:0.3"
       d="m 45.962932,113.72691 -0.08529,-0.25046"
       id="path36" />
    <path
       style="fill:none;stroke:#000000;stroke-width:0.3"
       d="M 44.739539,114.22817 44.624522,113.9899"
       id="path35" />
    <path
       style="fill:none;stroke:#000000;stroke-width:0.3"
       d="m 43.585622,114.87354 -0.142633,-0.22285"
       id="path34" />
    <path
       style="fill:none;stroke:#000000;stroke-width:0.3"
       d="m 42.514326,115.64852 -0.166687,-0.20548"
       id="path33" />
    <path
       style="fill:none;stroke:#000000;stroke-width:0.3"
       d="m 41.531637,116.53336 -0.186541,-0.18764"
       id="path32" />
    <path
       style="fill:none;stroke:#000000;stroke-width:0.3"
       d="m 40.63672,117.50707 -0.202296,-0.17053"
       id="path31" />
    <path
       style="fill:none;stroke:#000000;stroke-width:0.3"
       d="m 39.823825,118.55038 -0.214489,-0.15492"
       id="path30" />
    <path
       style="fill:none;stroke:#000000;stroke-width:0.3"
       d="m 39.084454,119.64713 -0.223785,-0.14115"
       id="path29" />
    <path
       style="fill:none;stroke:#000000;stroke-width:0.3"
       d="m 38.409046,120.78447 -0.230819,-0.12933"
       id="path28" />
    <path
       style="fill:none;stroke:#000000;stroke-width:0.3"
       d="m 37.787972,121.95242 -0.236108,-0.1194"
       id="path27" />
    <path
       style="fill:none;stroke:#000000;stroke-width:0.3"
       d="m 37.212019,123.14331 -0.240051,-0.11127"
       id="path26" />
    <path
       style="fill:none;stroke:#000000;stroke-width:0.3"
       d="m 36.67253,124.35118 -0.242942,-0.1048"
       id="path25" />
    <path
       style="fill:none;stroke:#000000;stroke-width:0.3"
       d="m 36.161335,125.57128 -0.244984,-0.0999"
       id="path24" />
    <path
       style="fill:none;stroke:#000000;stroke-width:0.3"
       d="m 35.670588,126.79977 -0.24631,-0.0966"
       id="path23" />
    <path
       style="fill:none;stroke:#000000;stroke-width:0.3"
       d="m 35.192517,128.03331 -0.246988,-0.0949"
       id="path22" />
    <path
       style="fill:none;stroke:#000000;stroke-width:0.3"
       d="m 34.719102,129.26864 -0.247024,-0.0948"
       id="path21" />
    <path
       style="fill:none;stroke:#000000;stroke-width:0.3"
       d="m 34.241665,130.50237 -0.246349,-0.0965"
       id="path20" />
    <path
       style="fill:none;stroke:#000000;stroke-width:0.3"
       d="m 33.750306,131.73063 -0.244788,-0.10041"
       id="path19" />
    <path
       style="fill:none;stroke:#000000;stroke-width:0.3"
       d="m 33.233108,132.94822 -0.241999,-0.10697"
       id="path18" />
    <path
       style="fill:none;stroke:#000000;stroke-width:0.3"
       d="m 32.674941,134.14751 -0.237326,-0.11696"
       id="path17" />
    <path
       style="fill:none;stroke:#000000;stroke-width:0.3"
       d="m 32.056737,135.31688 -0.23005,-0.13069"
       id="path16" />
    <path
       style="fill:none;stroke:#000000;stroke-width:0.3"
       d="m 31.365619,136.44462 -0.220676,-0.14597"
       id="path15" />
    <path
       style="fill:none;stroke:#000000;stroke-width:0.3"
       d="m 30.595142,137.51962 -0.208891,-0.16239"
       id="path14" />
    <path
       style="fill:none;stroke:#000000;stroke-width:0.3"
       d="M 29.74061,138.52899 29.546218,138.3495"
       id="path13" />
    <path
       style="fill:none;stroke:#000000;stroke-width:0.3"
       d="M 28.800337,139.45892 28.6232,139.26238"
       id="path12" />
    <path
       style="fill:none;stroke:#000000;stroke-width:0.3"
       d="m 27.776908,140.29639 -0.157517,-0.21258"
       id="path11" />
    <path
       style="fill:none;stroke:#000000;stroke-width:0.3"
       d="m 26.677726,141.03162 -0.136427,-0.2267"
       id="path10" />
    <path
       style="fill:none;stroke:#000000;stroke-width:0.3"
       d="m 25.514269,141.66031 -0.11513,-0.23822"
       id="path9" />
    <path
       style="fill:none;stroke:#000000;stroke-width:0.3"
       d="m 24.300185,142.18482 -0.09496,-0.24696"
       id="path8" />
    <path
       style="fill:none;stroke:#000000;stroke-width:0.3"
       d="m 23.048997,142.61365 -0.07701,-0.25313"
       id="path7" />
    <path
       style="fill:none;stroke:#000000;stroke-width:0.3"
       d="m 21.772385,142.95986 -0.062,-0.25721"
       id="path6" />
    <path
       style="fill:none;stroke:#000000;stroke-width:0.3"
       d="m 20.479401,143.23912 -0.05027,-0.25976"
       id="path5" />
    <path
       style="fill:none;stroke:#000000;stroke-width:0.3"
       d="m 19.176533,143.46816 -0.04193,-0.26124"
       id="path4" />
    <path
       style="fill:none;stroke:#000000;stroke-width:0.3"
       d="m 17.868206,143.66396 -0.03695,-0.262"
       id="path3" />
    <path
       style="fill:none;stroke:#000000;stroke-width:0.3"
       d="M 16.557491,143.8432 Z"
       id="path2" />
  </g>
</svg>
