  0
SECTION
  2
HEADER
  9
$ACADVER
  1
AC1024
  9
$ACADMAINTVER
 70
6
  9
$DWGCODEPAGE
  3
ANSI_1252
  9
$LASTSAVEDBY
  1
ezdxf
  9
$INSBASE
 10
0.0
 20
0.0
 30
0.0
  9
$EXTMIN
 10
1e+20
 20
1e+20
 30
1e+20
  9
$EXTMAX
 10
-1e+20
 20
-1e+20
 30
-1e+20
  9
$LIMMIN
 10
0.0
 20
0.0
  9
$LIMMAX
 10
420.0
 20
297.0
  9
$ORTHOMODE
 70
0
  9
$REGENMODE
 70
1
  9
$FILLMODE
 70
1
  9
$QTEXTMODE
 70
0
  9
$MIRRTEXT
 70
1
  9
$LTSCALE
 40
1.0
  9
$ATTMODE
 70
1
  9
$TEXTSIZE
 40
2.5
  9
$TRACEWID
 40
1.0
  9
$TEXTSTYLE
  7
Standard
  9
$CLAYER
  8
0
  9
$CELTYPE
  6
ByLayer
  9
$CECOLOR
 62
256
  9
$CELTSCALE
 40
1.0
  9
$DISPSILH
 70
0
  9
$DIMSCALE
 40
1.0
  9
$DIMASZ
 40
2.5
  9
$DIMEXO
 40
0.625
  9
$DIMDLI
 40
3.75
  9
$DIMRND
 40
0.0
  9
$DIMDLE
 40
0.0
  9
$DIMEXE
 40
1.25
  9
$DIMTP
 40
0.0
  9
$DIMTM
 40
0.0
  9
$DIMTXT
 40
2.5
  9
$DIMCEN
 40
2.5
  9
$DIMTSZ
 40
0.0
  9
$DIMTOL
 70
0
  9
$DIMLIM
 70
0
  9
$DIMTIH
 70
0
  9
$DIMTOH
 70
0
  9
$DIMSE1
 70
0
  9
$DIMSE2
 70
0
  9
$DIMTAD
 70
1
  9
$DIMZIN
 70
8
  9
$DIMBLK
  1

  9
$DIMASO
 70
1
  9
$DIMSHO
 70
1
  9
$DIMPOST
  1

  9
$DIMAPOST
  1

  9
$DIMALT
 70
0
  9
$DIMALTD
 70
3
  9
$DIMALTF
 40
0.03937007874
  9
$DIMLFAC
 40
1.0
  9
$DIMTOFL
 70
1
  9
$DIMTVP
 40
0.0
  9
$DIMTIX
 70
0
  9
$DIMSOXD
 70
0
  9
$DIMSAH
 70
0
  9
$DIMBLK1
  1

  9
$DIMBLK2
  1

  9
$DIMSTYLE
  2
ISO-25
  9
$DIMCLRD
 70
0
  9
$DIMCLRE
 70
0
  9
$DIMCLRT
 70
0
  9
$DIMTFAC
 40
1.0
  9
$DIMGAP
 40
0.625
  9
$DIMJUST
 70
0
  9
$DIMSD1
 70
0
  9
$DIMSD2
 70
0
  9
$DIMTOLJ
 70
0
  9
$DIMTZIN
 70
8
  9
$DIMALTZ
 70
0
  9
$DIMALTTZ
 70
0
  9
$DIMUPT
 70
0
  9
$DIMDEC
 70
2
  9
$DIMTDEC
 70
2
  9
$DIMALTU
 70
2
  9
$DIMALTTD
 70
3
  9
$DIMTXSTY
  7
Standard
  9
$DIMAUNIT
 70
0
  9
$DIMADEC
 70
0
  9
$DIMALTRND
 40
0.0
  9
$DIMAZIN
 70
0
  9
$DIMDSEP
 70
44
  9
$DIMATFIT
 70
3
  9
$DIMFRAC
 70
0
  9
$DIMLDRBLK
  1

  9
$DIMLUNIT
 70
1
  9
$DIMLWD
 70
-2
  9
$DIMLWE
 70
-2
  9
$DIMTMOVE
 70
0
  9
$DIMFXL
 40
1.0
  9
$DIMFXLON
 70
0
  9
$DIMJOGANG
 40
0.785398163397
  9
$DIMTFILL
 70
0
  9
$DIMTFILLCLR
 70
0
  9
$DIMARCSYM
 70
0
  9
$DIMLTYPE
  6

  9
$DIMLTEX1
  6

  9
$DIMLTEX2
  6

  9
$DIMTXTDIRECTION
 70
0
  9
$LUNITS
 70
2
  9
$LUPREC
 70
4
  9
$SKETCHINC
 40
1.0
  9
$FILLETRAD
 40
10.0
  9
$AUNITS
 70
0
  9
$AUPREC
 70
2
  9
$MENU
  1
.
  9
$ELEVATION
 40
0.0
  9
$PELEVATION
 40
0.0
  9
$THICKNESS
 40
0.0
  9
$LIMCHECK
 70
0
  9
$CHAMFERA
 40
0.0
  9
$CHAMFERB
 40
0.0
  9
$CHAMFERC
 40
0.0
  9
$CHAMFERD
 40
0.0
  9
$SKPOLY
 70
0
  9
$TDCREATE
 40
2460555.5585300927
  9
$TDUCREATE
 40
2458532.153996898
  9
$TDUPDATE
 40
2460555.5585300927
  9
$TDUUPDATE
 40
2458532.1544311
  9
$TDINDWG
 40
0.0
  9
$TDUSRTIMER
 40
0.0
  9
$USRTIMER
 70
1
  9
$ANGBASE
 50
0.0
  9
$ANGDIR
 70
0
  9
$PDMODE
 70
0
  9
$PDSIZE
 40
0.0
  9
$PLINEWID
 40
0.0
  9
$SPLFRAME
 70
0
  9
$SPLINETYPE
 70
6
  9
$SPLINESEGS
 70
8
  9
$HANDSEED
  5
1E0
  9
$SURFTAB1
 70
6
  9
$SURFTAB2
 70
6
  9
$SURFTYPE
 70
6
  9
$SURFU
 70
6
  9
$SURFV
 70
6
  9
$UCSBASE
  2

  9
$UCSNAME
  2

  9
$UCSORG
 10
0.0
 20
0.0
 30
0.0
  9
$UCSXDIR
 10
1.0
 20
0.0
 30
0.0
  9
$UCSYDIR
 10
0.0
 20
1.0
 30
0.0
  9
$UCSORTHOREF
  2

  9
$UCSORTHOVIEW
 70
0
  9
$UCSORGTOP
 10
0.0
 20
0.0
 30
0.0
  9
$UCSORGBOTTOM
 10
0.0
 20
0.0
 30
0.0
  9
$UCSORGLEFT
 10
0.0
 20
0.0
 30
0.0
  9
$UCSORGRIGHT
 10
0.0
 20
0.0
 30
0.0
  9
$UCSORGFRONT
 10
0.0
 20
0.0
 30
0.0
  9
$UCSORGBACK
 10
0.0
 20
0.0
 30
0.0
  9
$PUCSBASE
  2

  9
$PUCSNAME
  2

  9
$PUCSORG
 10
0.0
 20
0.0
 30
0.0
  9
$PUCSXDIR
 10
1.0
 20
0.0
 30
0.0
  9
$PUCSYDIR
 10
0.0
 20
1.0
 30
0.0
  9
$PUCSORTHOREF
  2

  9
$PUCSORTHOVIEW
 70
0
  9
$PUCSORGTOP
 10
0.0
 20
0.0
 30
0.0
  9
$PUCSORGBOTTOM
 10
0.0
 20
0.0
 30
0.0
  9
$PUCSORGLEFT
 10
0.0
 20
0.0
 30
0.0
  9
$PUCSORGRIGHT
 10
0.0
 20
0.0
 30
0.0
  9
$PUCSORGFRONT
 10
0.0
 20
0.0
 30
0.0
  9
$PUCSORGBACK
 10
0.0
 20
0.0
 30
0.0
  9
$USERI1
 70
0
  9
$USERI2
 70
0
  9
$USERI3
 70
0
  9
$USERI4
 70
0
  9
$USERI5
 70
0
  9
$USERR1
 40
0.0
  9
$USERR2
 40
0.0
  9
$USERR3
 40
0.0
  9
$USERR4
 40
0.0
  9
$USERR5
 40
0.0
  9
$WORLDVIEW
 70
1
  9
$SHADEDGE
 70
3
  9
$SHADEDIF
 70
70
  9
$TILEMODE
 70
1
  9
$MAXACTVP
 70
64
  9
$PINSBASE
 10
0.0
 20
0.0
 30
0.0
  9
$PLIMCHECK
 70
0
  9
$PEXTMIN
 10
1e+20
 20
1e+20
 30
1e+20
  9
$PEXTMAX
 10
-1e+20
 20
-1e+20
 30
-1e+20
  9
$PLIMMIN
 10
0.0
 20
0.0
  9
$PLIMMAX
 10
420.0
 20
297.0
  9
$UNITMODE
 70
0
  9
$VISRETAIN
 70
1
  9
$PLINEGEN
 70
0
  9
$PSLTSCALE
 70
1
  9
$TREEDEPTH
 70
3020
  9
$CMLSTYLE
  2
Standard
  9
$CMLJUST
 70
0
  9
$CMLSCALE
 40
20.0
  9
$PROXYGRAPHICS
 70
1
  9
$MEASUREMENT
 70
1
  9
$CELWEIGHT
370
-1
  9
$ENDCAPS
280
0
  9
$JOINSTYLE
280
0
  9
$LWDISPLAY
290
0
  9
$INSUNITS
 70
1
  9
$HYPERLINKBASE
  1

  9
$STYLESHEET
  1

  9
$XEDIT
290
1
  9
$CEPSNTYPE
380
0
  9
$PSTYLEMODE
290
1
  9
$FINGERPRINTGUID
  2
{5EB9E926-EC3A-4C78-ADAB-49DECC4DE18E}
  9
$VERSIONGUID
  2
{9E54AB08-5FCF-4A4E-8B67-6BB803D6F0FD}
  9
$EXTNAMES
290
1
  9
$PSVPSCALE
 40
0.0
  9
$OLESTARTUP
290
0
  9
$SORTENTS
280
127
  9
$INDEXCTL
280
0
  9
$HIDETEXT
280
1
  9
$XCLIPFRAME
280
1
  9
$HALOGAP
280
0
  9
$OBSCOLOR
 70
257
  9
$OBSLTYPE
280
0
  9
$INTERSECTIONDISPLAY
280
0
  9
$INTERSECTIONCOLOR
 70
257
  9
$DIMASSOC
280
2
  9
$PROJECTNAME
  1

  9
$CAMERADISPLAY
290
0
  9
$LENSLENGTH
 40
50.0
  9
$CAMERAHEIGHT
 40
0.0
  9
$STEPSPERSEC
 40
24.0
  9
$STEPSIZE
 40
100.0
  9
$3DDWFPREC
 40
2.0
  9
$PSOLWIDTH
 40
0.005
  9
$PSOLHEIGHT
 40
0.08
  9
$LOFTANG1
 40
1.570796326795
  9
$LOFTANG2
 40
1.570796326795
  9
$LOFTMAG1
 40
0.0
  9
$LOFTMAG2
 40
0.0
  9
$LOFTPARAM
 70
7
  9
$LOFTNORMALS
280
1
  9
$LATITUDE
 40
37.795
  9
$LONGITUDE
 40
-122.394
  9
$NORTHDIRECTION
 40
0.0
  9
$TIMEZONE
 70
-8000
  9
$LIGHTGLYPHDISPLAY
280
1
  9
$TILEMODELIGHTSYNCH
280
1
  9
$CMATERIAL
347
20
  9
$SOLIDHIST
280
0
  9
$SHOWHIST
280
1
  9
$DWFFRAME
280
2
  9
$DGNFRAME
280
2
  9
$REALWORLDSCALE
290
1
  9
$INTERFERECOLOR
 62
256
  9
$CSHADOW
280
0
  9
$SHADOWPLANELOCATION
 40
0.0
  0
ENDSEC
  0
SECTION
  2
CLASSES
  0
CLASS
  1
ACDBDICTIONARYWDFLT
  2
AcDbDictionaryWithDefault
  3
ObjectDBX Classes
 90
0
 91
0
280
0
281
0
  0
CLASS
  1
SUN
  2
AcDbSun
  3
SCENEOE
 90
1153
 91
0
280
0
281
0
  0
CLASS
  1
VISUALSTYLE
  2
AcDbVisualStyle
  3
ObjectDBX Classes
 90
4095
 91
0
280
0
281
0
  0
CLASS
  1
MATERIAL
  2
AcDbMaterial
  3
ObjectDBX Classes
 90
1153
 91
0
280
0
281
0
  0
CLASS
  1
SCALE
  2
AcDbScale
  3
ObjectDBX Classes
 90
1153
 91
0
280
0
281
0
  0
CLASS
  1
TABLESTYLE
  2
AcDbTableStyle
  3
ObjectDBX Classes
 90
4095
 91
0
280
0
281
0
  0
CLASS
  1
MLEADERSTYLE
  2
AcDbMLeaderStyle
  3
ACDB_MLEADERSTYLE_CLASS
 90
4095
 91
0
280
0
281
0
  0
CLASS
  1
DICTIONARYVAR
  2
AcDbDictionaryVar
  3
ObjectDBX Classes
 90
0
 91
0
280
0
281
0
  0
CLASS
  1
CELLSTYLEMAP
  2
AcDbCellStyleMap
  3
ObjectDBX Classes
 90
1152
 91
0
280
0
281
0
  0
CLASS
  1
MENTALRAYRENDERSETTINGS
  2
AcDbMentalRayRenderSettings
  3
SCENEOE
 90
1024
 91
0
280
0
281
0
  0
CLASS
  1
ACDBDETAILVIEWSTYLE
  2
AcDbDetailViewStyle
  3
ObjectDBX Classes
 90
1025
 91
0
280
0
281
0
  0
CLASS
  1
ACDBSECTIONVIEWSTYLE
  2
AcDbSectionViewStyle
  3
ObjectDBX Classes
 90
1025
 91
0
280
0
281
0
  0
CLASS
  1
RASTERVARIABLES
  2
AcDbRasterVariables
  3
ISM
 90
0
 91
0
280
0
281
0
  0
CLASS
  1
LAYOUT
  2
AcDbLayout
  3
ObjectDBX Classes
 90
0
 91
0
280
0
281
0
  0
CLASS
  1
ACDBPLACEHOLDER
  2
AcDbPlaceHolder
  3
ObjectDBX Classes
 90
0
 91
0
280
0
281
0
  0
ENDSEC
  0
SECTION
  2
TABLES
  0
TABLE
  2
VPORT
  5
8
330
0
100
AcDbSymbolTable
 70
1
  0
VPORT
  5
23
330
8
100
AcDbSymbolTableRecord
100
AcDbViewportTableRecord
  2
*Active
 70
0
 10
0.0
 20
0.0
 11
1.0
 21
1.0
 12
0.0
 22
0.0
 13
0.0
 23
0.0
 14
0.5
 24
0.5
 15
0.5
 25
0.5
 16
0.0
 26
0.0
 36
1.0
 17
0.0
 27
0.0
 37
0.0
 40
1000.0
 41
1.34
 42
50.0
 43
0.0
 44
0.0
 50
0.0
 51
0.0
 71
0
 72
1000
 73
1
 74
3
 75
0
 76
0
 77
0
 78
0
281
0
 65
0
146
0.0
  0
ENDTAB
  0
TABLE
  2
LTYPE
  5
2
330
0
100
AcDbSymbolTable
 70
3
  0
LTYPE
  5
24
330
2
100
AcDbSymbolTableRecord
100
AcDbLinetypeTableRecord
  2
ByBlock
 70
0
  3

 72
65
 73
0
 40
0.0
  0
LTYPE
  5
25
330
2
100
AcDbSymbolTableRecord
100
AcDbLinetypeTableRecord
  2
ByLayer
 70
0
  3

 72
65
 73
0
 40
0.0
  0
LTYPE
  5
26
330
2
100
AcDbSymbolTableRecord
100
AcDbLinetypeTableRecord
  2
Continuous
 70
0
  3

 72
65
 73
0
 40
0.0
  0
ENDTAB
  0
TABLE
  2
LAYER
  5
1
330
0
100
AcDbSymbolTable
 70
17
  0
LAYER
  5
27
330
1
100
AcDbSymbolTableRecord
100
AcDbLayerTableRecord
  2
0
 70
0
 62
7
  6
Continuous
370
-3
390
13
347
21
  0
LAYER
  5
28
330
1
100
AcDbSymbolTableRecord
100
AcDbLayerTableRecord
  2
Defpoints
 70
0
 62
7
  6
Continuous
290
0
370
-3
390
13
347
21
  0
LAYER
  5
2F
330
1
100
AcDbSymbolTableRecord
100
AcDbLayerTableRecord
  2
Holes_T23
 70
0
 62
98
  6
DASHED
370
-3
390
13
347
21
  0
LAYER
  5
91
330
1
100
AcDbSymbolTableRecord
100
AcDbLayerTableRecord
  2
TrackPath_T23
 70
0
 62
55
  6
DOTTED
370
-3
390
13
347
21
  0
LAYER
  5
93
330
1
100
AcDbSymbolTableRecord
100
AcDbLayerTableRecord
  2
NumMarks_T23
 70
0
 62
22
  6
DOTTED
370
-3
390
13
347
21
  0
LAYER
  5
B0
330
1
100
AcDbSymbolTableRecord
100
AcDbLayerTableRecord
  2
Holes_T24
 70
0
 62
166
  6
DASHED
370
-3
390
13
347
21
  0
LAYER
  5
113
330
1
100
AcDbSymbolTableRecord
100
AcDbLayerTableRecord
  2
TrackPath_T24
 70
0
 62
127
  6
DOTTED
370
-3
390
13
347
21
  0
LAYER
  5
115
330
1
100
AcDbSymbolTableRecord
100
AcDbLayerTableRecord
  2
NumMarks_T24
 70
0
 62
29
  6
DOTTED
370
-3
390
13
347
21
  0
LAYER
  5
132
330
1
100
AcDbSymbolTableRecord
100
AcDbLayerTableRecord
  2
Holes_T25
 70
0
 62
64
  6
DASHED
370
-3
390
13
347
21
  0
LAYER
  5
195
330
1
100
AcDbSymbolTableRecord
100
AcDbLayerTableRecord
  2
TrackPath_T25
 70
0
 62
244
  6
DOTTED
370
-3
390
13
347
21
  0
LAYER
  5
197
330
1
100
AcDbSymbolTableRecord
100
AcDbLayerTableRecord
  2
NumMarks_T25
 70
0
 62
15
  6
DOTTED
370
-3
390
13
347
21
  0
LAYER
  5
1B4
330
1
100
AcDbSymbolTableRecord
100
AcDbLayerTableRecord
  2
Events_T23
 70
0
 62
9
  6
DASHED
370
-3
390
13
347
21
  0
LAYER
  5
1BF
330
1
100
AcDbSymbolTableRecord
100
AcDbLayerTableRecord
  2
RampingMarks_T23
 70
0
 62
28
  6
DOTTED
370
-3
390
13
347
21
  0
LAYER
  5
1C1
330
1
100
AcDbSymbolTableRecord
100
AcDbLayerTableRecord
  2
Events_T24
 70
0
 62
22
  6
DASHED
370
-3
390
13
347
21
  0
LAYER
  5
1CD
330
1
100
AcDbSymbolTableRecord
100
AcDbLayerTableRecord
  2
RampingMarks_T24
 70
0
 62
17
  6
DOTTED
370
-3
390
13
347
21
  0
LAYER
  5
1CF
330
1
100
AcDbSymbolTableRecord
100
AcDbLayerTableRecord
  2
Events_T25
 70
0
 62
9
  6
DASHED
370
-3
390
13
347
21
  0
LAYER
  5
1DA
330
1
100
AcDbSymbolTableRecord
100
AcDbLayerTableRecord
  2
RampingMarks_T25
 70
0
 62
3
  6
DOTTED
370
-3
390
13
347
21
  0
ENDTAB
  0
TABLE
  2
STYLE
  5
5
330
0
100
AcDbSymbolTable
 70
1
  0
STYLE
  5
29
330
5
100
AcDbSymbolTableRecord
100
AcDbTextStyleTableRecord
  2
Standard
 70
0
 40
0.0
 41
1.0
 50
0.0
 71
0
 42
2.5
  3
txt
  4

  0
ENDTAB
  0
TABLE
  2
VIEW
  5
7
330
0
100
AcDbSymbolTable
 70
0
  0
ENDTAB
  0
TABLE
  2
UCS
  5
6
330
0
100
AcDbSymbolTable
 70
0
  0
ENDTAB
  0
TABLE
  2
APPID
  5
3
330
0
100
AcDbSymbolTable
 70
3
  0
APPID
  5
2A
330
3
100
AcDbSymbolTableRecord
100
AcDbRegAppTableRecord
  2
ACAD
 70
0
  0
APPID
  5
1DD
330
3
100
AcDbSymbolTableRecord
100
AcDbRegAppTableRecord
  2
HATCHBACKGROUNDCOLOR
 70
0
  0
APPID
  5
1DE
330
3
100
AcDbSymbolTableRecord
100
AcDbRegAppTableRecord
  2
EZDXF
 70
0
  0
ENDTAB
  0
TABLE
  2
DIMSTYLE
  5
4
330
0
100
AcDbSymbolTable
 70
1
100
AcDbDimStyleTable
  0
DIMSTYLE
105
2B
330
4
100
AcDbSymbolTableRecord
100
AcDbDimStyleTableRecord
  2
Standard
 70
0
 40
1.0
 41
2.5
 42
0.625
 43
3.75
 44
1.25
 45
0.0
 46
0.0
 47
0.0
 48
0.0
 49
2.5
140
2.5
141
2.5
142
0.0
143
0.03937007874
144
1.0
145
0.0
146
1.0
147
0.625
148
0.0
 69
0
 70
0
 71
0
 72
0
 73
0
 74
0
 75
0
 76
0
 77
1
 78
8
 79
3
170
0
171
3
172
1
173
0
174
0
175
0
176
0
177
0
178
0
179
2
271
2
272
2
273
2
274
3
275
0
276
0
277
2
278
44
279
0
280
0
281
0
282
0
283
0
284
8
285
0
286
0
288
0
289
3
290
0
371
-2
372
-2
  0
ENDTAB
  0
TABLE
  2
BLOCK_RECORD
  5
9
330
0
100
AcDbSymbolTable
 70
2
  0
BLOCK_RECORD
  5
17
330
9
100
AcDbSymbolTableRecord
100
AcDbBlockTableRecord
  2
*Model_Space
340
1A
 70
0
280
1
281
0
  0
BLOCK_RECORD
  5
1B
330
9
100
AcDbSymbolTableRecord
100
AcDbBlockTableRecord
  2
*Paper_Space
340
1E
 70
0
280
1
281
0
  0
ENDTAB
  0
ENDSEC
  0
SECTION
  2
BLOCKS
  0
BLOCK
  5
18
330
17
100
AcDbEntity
  8
0
100
AcDbBlockBegin
  2
*Model_Space
 70
0
 10
0.0
 20
0.0
 30
0.0
  3
*Model_Space
  1

  0
ENDBLK
  5
19
330
17
100
AcDbEntity
  8
0
100
AcDbBlockEnd
  0
BLOCK
  5
1C
330
1B
100
AcDbEntity
  8
0
100
AcDbBlockBegin
  2
*Paper_Space
 70
0
 10
0.0
 20
0.0
 30
0.0
  3
*Paper_Space
  1

  0
ENDBLK
  5
1D
330
1B
100
AcDbEntity
  8
0
100
AcDbBlockEnd
  0
ENDSEC
  0
SECTION
  2
ENTITIES
  0
CIRCLE
  5
30
330
17
100
AcDbEntity
  8
Holes_T23
100
AcDbCircle
 10
0.2976913937007874
 20
0.04781397637795249
 30
0.0
 40
0.0625
  0
CIRCLE
  5
31
330
17
100
AcDbEntity
  8
Holes_T23
100
AcDbCircle
 10
0.49448944881889767
 20
0.052353267716535555
 30
0.0
 40
0.0625
  0
CIRCLE
  5
32
330
17
100
AcDbEntity
  8
Holes_T23
100
AcDbCircle
 10
0.6912877559055118
 20
0.056879881889763846
 30
0.0
 40
0.0625
  0
CIRCLE
  5
33
330
17
100
AcDbEntity
  8
Holes_T23
100
AcDbCircle
 10
0.8880866929133858
 20
0.061383307086613985
 30
0.0
 40
0.0625
  0
CIRCLE
  5
34
330
17
100
AcDbEntity
  8
Holes_T23
100
AcDbCircle
 10
1.084886377952756
 20
0.06585645669291329
 30
0.0
 40
0.0625
  0
CIRCLE
  5
35
330
17
100
AcDbEntity
  8
Holes_T23
100
AcDbCircle
 10
1.2816866141732284
 20
0.07029570866141731
 30
0.0
 40
0.0625
  0
CIRCLE
  5
36
330
17
100
AcDbEntity
  8
Holes_T23
100
AcDbCircle
 10
1.4784877952755906
 20
0.07470027559055098
 30
0.0
 40
0.0625
  0
CIRCLE
  5
37
330
17
100
AcDbEntity
  8
Holes_T23
100
AcDbCircle
 10
1.6752898425196852
 20
0.07907118110236232
 30
0.0
 40
0.0625
  0
CIRCLE
  5
38
330
17
100
AcDbEntity
  8
Holes_T23
100
AcDbCircle
 10
1.872091850393701
 20
0.08343677165354317
 30
0.0
 40
0.0625
  0
CIRCLE
  5
39
330
17
100
AcDbEntity
  8
Holes_T23
100
AcDbCircle
 10
2.06888968503937
 20
0.08798724409448819
 30
0.0
 40
0.0625
  0
CIRCLE
  5
3A
330
17
100
AcDbEntity
  8
Holes_T23
100
AcDbCircle
 10
2.265677440944882
 20
0.09295220472440933
 30
0.0
 40
0.0625
  0
CIRCLE
  5
3B
330
17
100
AcDbEntity
  8
Holes_T23
100
AcDbCircle
 10
2.4624476377952758
 20
0.09856437007874014
 30
0.0
 40
0.0625
  0
CIRCLE
  5
3C
330
17
100
AcDbEntity
  8
Holes_T23
100
AcDbCircle
 10
2.6591890551181105
 20
0.10510370078740167
 30
0.0
 40
0.0625
  0
CIRCLE
  5
3D
330
17
100
AcDbEntity
  8
Holes_T23
100
AcDbCircle
 10
2.8558822440944884
 20
0.11295818897637822
 30
0.0
 40
0.0625
  0
CIRCLE
  5
3E
330
17
100
AcDbEntity
  8
Holes_T23
100
AcDbCircle
 10
3.052488070866142
 20
0.12274326771653526
 30
0.0
 40
0.0625
  0
CIRCLE
  5
3F
330
17
100
AcDbEntity
  8
Holes_T23
100
AcDbCircle
 10
3.2489141732283464
 20
0.13561157480314978
 30
0.0
 40
0.0625
  0
CIRCLE
  5
40
330
17
100
AcDbEntity
  8
Holes_T23
100
AcDbCircle
 10
3.4448499606299214
 20
0.15439779527559078
 30
0.0
 40
0.0625
  0
CIRCLE
  5
41
330
17
100
AcDbEntity
  8
Holes_T23
100
AcDbCircle
 10
3.638654803149606
 20
0.18813976377952765
 30
0.0
 40
0.0625
  0
CIRCLE
  5
42
330
17
100
AcDbEntity
  8
Holes_T23
100
AcDbCircle
 10
3.72279125984252
 20
0.3357842125984253
 30
0.0
 40
0.0625
  0
CIRCLE
  5
43
330
17
100
AcDbEntity
  8
Holes_T23
100
AcDbCircle
 10
3.5135511417322833
 20
0.33089834645669314
 30
0.0
 40
0.0625
  0
CIRCLE
  5
44
330
17
100
AcDbEntity
  8
Holes_T23
100
AcDbCircle
 10
3.317130433070866
 20
0.34327039370078716
 30
0.0
 40
0.0625
  0
CIRCLE
  5
45
330
17
100
AcDbEntity
  8
Holes_T23
100
AcDbCircle
 10
3.1203038582677167
 20
0.34528555118110227
 30
0.0
 40
0.0625
  0
CIRCLE
  5
46
330
17
100
AcDbEntity
  8
Holes_T23
100
AcDbCircle
 10
2.9234711023622046
 20
0.3448411811023623
 30
0.0
 40
0.0625
  0
CIRCLE
  5
47
330
17
100
AcDbEntity
  8
Holes_T23
100
AcDbCircle
 10
2.8448182677165357
 20
0.4585558267716535
 30
0.0
 40
0.0625
  0
CIRCLE
  5
48
330
17
100
AcDbEntity
  8
Holes_T23
100
AcDbCircle
 10
3.0454493307086614
 20
0.5061335826771656
 30
0.0
 40
0.0625
  0
CIRCLE
  5
49
330
17
100
AcDbEntity
  8
Holes_T23
100
AcDbCircle
 10
3.239796141732284
 20
0.5370857480314959
 30
0.0
 40
0.0625
  0
CIRCLE
  5
4A
330
17
100
AcDbEntity
  8
Holes_T23
100
AcDbCircle
 10
3.4349882677165353
 20
0.5625329133858269
 30
0.0
 40
0.0625
  0
CIRCLE
  5
4B
330
17
100
AcDbEntity
  8
Holes_T23
100
AcDbCircle
 10
3.5109637401574805
 20
0.6575675590551184
 30
0.0
 40
0.0625
  0
CIRCLE
  5
4C
330
17
100
AcDbEntity
  8
Holes_T23
100
AcDbCircle
 10
3.5390118110236224
 20
0.818306653543307
 30
0.0
 40
0.0625
  0
CIRCLE
  5
4D
330
17
100
AcDbEntity
  8
Holes_T23
100
AcDbCircle
 10
3.412627125984252
 20
0.9406392519685037
 30
0.0
 40
0.0625
  0
CIRCLE
  5
4E
330
17
100
AcDbEntity
  8
Holes_T23
100
AcDbCircle
 10
3.2242023622047244
 20
0.9971186220472442
 30
0.0
 40
0.0625
  0
CIRCLE
  5
4F
330
17
100
AcDbEntity
  8
Holes_T23
100
AcDbCircle
 10
3.0310124015748032
 20
1.0346299212598427
 30
0.0
 40
0.0625
  0
CIRCLE
  5
50
330
17
100
AcDbEntity
  8
Holes_T23
100
AcDbCircle
 10
2.8355522440944885
 20
1.0576377559055121
 30
0.0
 40
0.0625
  0
CIRCLE
  5
51
330
17
100
AcDbEntity
  8
Holes_T23
100
AcDbCircle
 10
2.638922677165355
 20
1.0651759055118113
 30
0.0
 40
0.0625
  0
CIRCLE
  5
52
330
17
100
AcDbEntity
  8
Holes_T23
100
AcDbCircle
 10
2.465135472440945
 20
1.0132908661417324
 30
0.0
 40
0.0625
  0
CIRCLE
  5
53
330
17
100
AcDbEntity
  8
Holes_T23
100
AcDbCircle
 10
2.6244300787401573
 20
0.9039191338582679
 30
0.0
 40
0.0625
  0
CIRCLE
  5
54
330
17
100
AcDbEntity
  8
Holes_T23
100
AcDbCircle
 10
2.81148720472441
 20
0.8436298425196849
 30
0.0
 40
0.0625
  0
CIRCLE
  5
55
330
17
100
AcDbEntity
  8
Holes_T23
100
AcDbCircle
 10
2.994788385826772
 20
0.7928847637795278
 30
0.0
 40
0.0625
  0
CIRCLE
  5
56
330
17
100
AcDbEntity
  8
Holes_T23
100
AcDbCircle
 10
2.8343270472440945
 20
0.6837642519685038
 30
0.0
 40
0.0625
  0
CIRCLE
  5
57
330
17
100
AcDbEntity
  8
Holes_T23
100
AcDbCircle
 10
2.651053149606299
 20
0.612438031496063
 30
0.0
 40
0.0625
  0
CIRCLE
  5
58
330
17
100
AcDbEntity
  8
Holes_T23
100
AcDbCircle
 10
2.457748070866142
 20
0.5780986220472443
 30
0.0
 40
0.0625
  0
CIRCLE
  5
59
330
17
100
AcDbEntity
  8
Holes_T23
100
AcDbCircle
 10
2.2652590157480317
 20
0.6099638976377952
 30
0.0
 40
0.0625
  0
CIRCLE
  5
5A
330
17
100
AcDbEntity
  8
Holes_T23
100
AcDbCircle
 10
2.134407913385827
 20
0.749800196850394
 30
0.0
 40
0.0625
  0
CIRCLE
  5
5B
330
17
100
AcDbEntity
  8
Holes_T23
100
AcDbCircle
 10
2.12773968503937
 20
0.9436549212598425
 30
0.0
 40
0.0625
  0
CIRCLE
  5
5C
330
17
100
AcDbEntity
  8
Holes_T23
100
AcDbCircle
 10
2.2160060629921263
 20
1.1177669685039373
 30
0.0
 40
0.0625
  0
CIRCLE
  5
5D
330
17
100
AcDbEntity
  8
Holes_T23
100
AcDbCircle
 10
2.371762086614173
 20
1.235205984251969
 30
0.0
 40
0.0625
  0
CIRCLE
  5
5E
330
17
100
AcDbEntity
  8
Holes_T23
100
AcDbCircle
 10
2.5631081496062995
 20
1.2768506692913386
 30
0.0
 40
0.0625
  0
CIRCLE
  5
5F
330
17
100
AcDbEntity
  8
Holes_T23
100
AcDbCircle
 10
2.7597652362204728
 20
1.2732629921259844
 30
0.0
 40
0.0625
  0
CIRCLE
  5
60
330
17
100
AcDbEntity
  8
Holes_T23
100
AcDbCircle
 10
2.955449291338583
 20
1.2520523228346454
 30
0.0
 40
0.0625
  0
CIRCLE
  5
61
330
17
100
AcDbEntity
  8
Holes_T23
100
AcDbCircle
 10
3.150696377952756
 20
1.2269840551181104
 30
0.0
 40
0.0625
  0
CIRCLE
  5
62
330
17
100
AcDbEntity
  8
Holes_T23
100
AcDbCircle
 10
3.3464442125984255
 20
1.2063124803149607
 30
0.0
 40
0.0625
  0
CIRCLE
  5
63
330
17
100
AcDbEntity
  8
Holes_T23
100
AcDbCircle
 10
3.543066850393701
 20
1.2018256692913385
 30
0.0
 40
0.0625
  0
CIRCLE
  5
64
330
17
100
AcDbEntity
  8
Holes_T23
100
AcDbCircle
 10
3.6976003543307088
 20
1.2906305511811025
 30
0.0
 40
0.0625
  0
CIRCLE
  5
65
330
17
100
AcDbEntity
  8
Holes_T23
100
AcDbCircle
 10
3.54845562992126
 20
1.4071633464566933
 30
0.0
 40
0.0625
  0
CIRCLE
  5
66
330
17
100
AcDbEntity
  8
Holes_T23
100
AcDbCircle
 10
3.358645039370079
 20
1.458468622047244
 30
0.0
 40
0.0625
  0
CIRCLE
  5
67
330
17
100
AcDbEntity
  8
Holes_T23
100
AcDbCircle
 10
3.163820590551181
 20
1.4861411023622049
 30
0.0
 40
0.0625
  0
CIRCLE
  5
68
330
17
100
AcDbEntity
  8
Holes_T23
100
AcDbCircle
 10
2.967539094488189
 20
1.500938346456693
 30
0.0
 40
0.0625
  0
CIRCLE
  5
69
330
17
100
AcDbEntity
  8
Holes_T23
100
AcDbCircle
 10
2.7710359842519687
 20
1.5126192913385827
 30
0.0
 40
0.0625
  0
CIRCLE
  5
6A
330
17
100
AcDbEntity
  8
Holes_T23
100
AcDbCircle
 10
2.5752881889763777
 20
1.5326147637795278
 30
0.0
 40
0.0625
  0
CIRCLE
  5
6B
330
17
100
AcDbEntity
  8
Holes_T23
100
AcDbCircle
 10
2.457798031496063
 20
1.6631524015748032
 30
0.0
 40
0.0625
  0
CIRCLE
  5
6C
330
17
100
AcDbEntity
  8
Holes_T23
100
AcDbCircle
 10
2.6688158267716533
 20
1.7037218897637796
 30
0.0
 40
0.0625
  0
CIRCLE
  5
6D
330
17
100
AcDbEntity
  8
Holes_T23
100
AcDbCircle
 10
2.861950511811024
 20
1.7415332677165356
 30
0.0
 40
0.0625
  0
CIRCLE
  5
6E
330
17
100
AcDbEntity
  8
Holes_T23
100
AcDbCircle
 10
3.057092007874016
 20
1.767238818897638
 30
0.0
 40
0.0625
  0
CIRCLE
  5
6F
330
17
100
AcDbEntity
  8
Holes_T23
100
AcDbCircle
 10
3.2533550393700787
 20
1.782030157480315
 30
0.0
 40
0.0625
  0
CIRCLE
  5
70
330
17
100
AcDbEntity
  8
Holes_T23
100
AcDbCircle
 10
3.4501211417322835
 20
1.7876453543307087
 30
0.0
 40
0.0625
  0
CIRCLE
  5
71
330
17
100
AcDbEntity
  8
Holes_T23
100
AcDbCircle
 10
3.641776220472441
 20
1.8203372047244095
 30
0.0
 40
0.0625
  0
CIRCLE
  5
72
330
17
100
AcDbEntity
  8
Holes_T23
100
AcDbCircle
 10
3.547169645669291
 20
1.9489940551181104
 30
0.0
 40
0.0625
  0
CIRCLE
  5
73
330
17
100
AcDbEntity
  8
Holes_T23
100
AcDbCircle
 10
3.3550257874015745
 20
1.9903879133858269
 30
0.0
 40
0.0625
  0
CIRCLE
  5
74
330
17
100
AcDbEntity
  8
Holes_T23
100
AcDbCircle
 10
3.159136968503937
 20
2.0093797637795277
 30
0.0
 40
0.0625
  0
CIRCLE
  5
75
330
17
100
AcDbEntity
  8
Holes_T23
100
AcDbCircle
 10
2.9624344094488193
 20
2.016329409448819
 30
0.0
 40
0.0625
  0
CIRCLE
  5
76
330
17
100
AcDbEntity
  8
Holes_T23
100
AcDbCircle
 10
2.7656357086614176
 20
2.012607598425197
 30
0.0
 40
0.0625
  0
CIRCLE
  5
77
330
17
100
AcDbEntity
  8
Holes_T23
100
AcDbCircle
 10
2.5723004330708665
 20
1.909062322834646
 30
0.0
 40
0.0625
  0
CIRCLE
  5
78
330
17
100
AcDbEntity
  8
Holes_T23
100
AcDbCircle
 10
2.5041869685039373
 20
2.0471031496062992
 30
0.0
 40
0.0625
  0
CIRCLE
  5
79
330
17
100
AcDbEntity
  8
Holes_T23
100
AcDbCircle
 10
2.686196929133858
 20
2.186784094488189
 30
0.0
 40
0.0625
  0
CIRCLE
  5
7A
330
17
100
AcDbEntity
  8
Holes_T23
100
AcDbCircle
 10
2.8817134251968506
 20
2.2088748031496066
 30
0.0
 40
0.0625
  0
CIRCLE
  5
7B
330
17
100
AcDbEntity
  8
Holes_T23
100
AcDbCircle
 10
3.0784354330708665
 20
2.2148711811023625
 30
0.0
 40
0.0625
  0
CIRCLE
  5
7C
330
17
100
AcDbEntity
  8
Holes_T23
100
AcDbCircle
 10
3.2752281889763784
 20
2.2104737795275593
 30
0.0
 40
0.0625
  0
CIRCLE
  5
7D
330
17
100
AcDbEntity
  8
Holes_T23
100
AcDbCircle
 10
3.4720262992125988
 20
2.2067288188976377
 30
0.0
 40
0.0625
  0
CIRCLE
  5
7E
330
17
100
AcDbEntity
  8
Holes_T23
100
AcDbCircle
 10
3.664679527559055
 20
2.237708070866142
 30
0.0
 40
0.0625
  0
CIRCLE
  5
7F
330
17
100
AcDbEntity
  8
Holes_T23
100
AcDbCircle
 10
3.6521087401574803
 20
2.3923514173228346
 30
0.0
 40
0.0625
  0
CIRCLE
  5
80
330
17
100
AcDbEntity
  8
Holes_T23
100
AcDbCircle
 10
3.4616116535433075
 20
2.434670511811024
 30
0.0
 40
0.0625
  0
CIRCLE
  5
81
330
17
100
AcDbEntity
  8
Holes_T23
100
AcDbCircle
 10
3.2003101574803154
 20
2.4261085826771653
 30
0.0
 40
0.0625
  0
CIRCLE
  5
82
330
17
100
AcDbEntity
  8
Holes_T23
100
AcDbCircle
 10
3.3434754724409452
 20
2.529129921259843
 30
0.0
 40
0.0625
  0
CIRCLE
  5
83
330
17
100
AcDbEntity
  8
Holes_T23
100
AcDbCircle
 10
3.526662362204725
 20
2.600475118110236
 30
0.0
 40
0.0625
  0
CIRCLE
  5
84
330
17
100
AcDbEntity
  8
Holes_T23
100
AcDbCircle
 10
3.7028628740157483
 20
2.697876653543307
 30
0.0
 40
0.0625
  0
CIRCLE
  5
85
330
17
100
AcDbEntity
  8
Holes_T23
100
AcDbCircle
 10
3.4834374803149606
 20
2.7725251574803154
 30
0.0
 40
0.0625
  0
CIRCLE
  5
86
330
17
100
AcDbEntity
  8
Holes_T23
100
AcDbCircle
 10
3.311043070866142
 20
2.8603535826771656
 30
0.0
 40
0.0625
  0
CIRCLE
  5
87
330
17
100
AcDbEntity
  8
Holes_T23
100
AcDbCircle
 10
3.4585672047244094
 20
2.977068464566929
 30
0.0
 40
0.0625
  0
CIRCLE
  5
88
330
17
100
AcDbEntity
  8
Holes_T23
100
AcDbCircle
 10
3.63464594488189
 20
3.065019291338583
 30
0.0
 40
0.0625
  0
CIRCLE
  5
89
330
17
100
AcDbEntity
  8
Holes_T23
100
AcDbCircle
 10
3.64468188976378
 20
3.2519565748031494
 30
0.0
 40
0.0625
  0
CIRCLE
  5
8A
330
17
100
AcDbEntity
  8
Holes_T23
100
AcDbCircle
 10
3.4236802755905513
 20
3.2107007480314964
 30
0.0
 40
0.0625
  0
CIRCLE
  5
8B
330
17
100
AcDbEntity
  8
Holes_T23
100
AcDbCircle
 10
3.210561062992126
 20
3.1454633070866143
 30
0.0
 40
0.0625
  0
CIRCLE
  5
8C
330
17
100
AcDbEntity
  8
Holes_T23
100
AcDbCircle
 10
3.0915472440944884
 20
3.262663110236221
 30
0.0
 40
0.0625
  0
CIRCLE
  5
8D
330
17
100
AcDbEntity
  8
Holes_T23
100
AcDbCircle
 10
3.280572125984252
 20
3.316777952755906
 30
0.0
 40
0.0625
  0
CIRCLE
  5
8E
330
17
100
AcDbEntity
  8
Holes_T23
100
AcDbCircle
 10
3.474398267716536
 20
3.3509934645669293
 30
0.0
 40
0.0625
  0
CIRCLE
  5
8F
330
17
100
AcDbEntity
  8
Holes_T23
100
AcDbCircle
 10
3.662460472440945
 20
3.4056626771653544
 30
0.0
 40
0.0625
  0
CIRCLE
  5
90
330
17
100
AcDbEntity
  8
Holes_T23
100
AcDbCircle
 10
3.774028110236221
 20
3.562155854330709
 30
0.0
 40
0.0625
  0
SPLINE
  5
92
330
17
100
AcDbEntity
  8
TrackPath_T23
100
AcDbSpline
 70
0
 71
3
 72
0
 73
0
 74
97
 11
0.2976913937007874
 21
0.04781397637795249
 31
0.0
 11
0.49448944881889767
 21
0.052353267716535555
 31
0.0
 11
0.6912877559055118
 21
0.056879881889763846
 31
0.0
 11
0.8880866929133858
 21
0.061383307086613985
 31
0.0
 11
1.084886377952756
 21
0.06585645669291329
 31
0.0
 11
1.2816866141732284
 21
0.07029570866141731
 31
0.0
 11
1.4784877952755906
 21
0.07470027559055098
 31
0.0
 11
1.6752898425196852
 21
0.07907118110236232
 31
0.0
 11
1.872091850393701
 21
0.08343677165354317
 31
0.0
 11
2.06888968503937
 21
0.08798724409448819
 31
0.0
 11
2.265677440944882
 21
0.09295220472440933
 31
0.0
 11
2.4624476377952758
 21
0.09856437007874014
 31
0.0
 11
2.6591890551181105
 21
0.10510370078740167
 31
0.0
 11
2.8558822440944884
 21
0.11295818897637822
 31
0.0
 11
3.052488070866142
 21
0.12274326771653526
 31
0.0
 11
3.2489141732283464
 21
0.13561157480314978
 31
0.0
 11
3.4448499606299214
 21
0.15439779527559078
 31
0.0
 11
3.638654803149606
 21
0.18813976377952765
 31
0.0
 11
3.72279125984252
 21
0.3357842125984253
 31
0.0
 11
3.5135511417322833
 21
0.33089834645669314
 31
0.0
 11
3.317130433070866
 21
0.34327039370078716
 31
0.0
 11
3.1203038582677167
 21
0.34528555118110227
 31
0.0
 11
2.9234711023622046
 21
0.3448411811023623
 31
0.0
 11
2.8448182677165357
 21
0.4585558267716535
 31
0.0
 11
3.0454493307086614
 21
0.5061335826771656
 31
0.0
 11
3.239796141732284
 21
0.5370857480314959
 31
0.0
 11
3.4349882677165353
 21
0.5625329133858269
 31
0.0
 11
3.5109637401574805
 21
0.6575675590551184
 31
0.0
 11
3.5390118110236224
 21
0.818306653543307
 31
0.0
 11
3.412627125984252
 21
0.9406392519685037
 31
0.0
 11
3.2242023622047244
 21
0.9971186220472442
 31
0.0
 11
3.0310124015748032
 21
1.0346299212598427
 31
0.0
 11
2.8355522440944885
 21
1.0576377559055121
 31
0.0
 11
2.638922677165355
 21
1.0651759055118113
 31
0.0
 11
2.465135472440945
 21
1.0132908661417324
 31
0.0
 11
2.6244300787401573
 21
0.9039191338582679
 31
0.0
 11
2.81148720472441
 21
0.8436298425196849
 31
0.0
 11
2.994788385826772
 21
0.7928847637795278
 31
0.0
 11
2.8343270472440945
 21
0.6837642519685038
 31
0.0
 11
2.651053149606299
 21
0.612438031496063
 31
0.0
 11
2.457748070866142
 21
0.5780986220472443
 31
0.0
 11
2.2652590157480317
 21
0.6099638976377952
 31
0.0
 11
2.134407913385827
 21
0.749800196850394
 31
0.0
 11
2.12773968503937
 21
0.9436549212598425
 31
0.0
 11
2.2160060629921263
 21
1.1177669685039373
 31
0.0
 11
2.371762086614173
 21
1.235205984251969
 31
0.0
 11
2.5631081496062995
 21
1.2768506692913386
 31
0.0
 11
2.7597652362204728
 21
1.2732629921259844
 31
0.0
 11
2.955449291338583
 21
1.2520523228346454
 31
0.0
 11
3.150696377952756
 21
1.2269840551181104
 31
0.0
 11
3.3464442125984255
 21
1.2063124803149607
 31
0.0
 11
3.543066850393701
 21
1.2018256692913385
 31
0.0
 11
3.6976003543307088
 21
1.2906305511811025
 31
0.0
 11
3.54845562992126
 21
1.4071633464566933
 31
0.0
 11
3.358645039370079
 21
1.458468622047244
 31
0.0
 11
3.163820590551181
 21
1.4861411023622049
 31
0.0
 11
2.967539094488189
 21
1.500938346456693
 31
0.0
 11
2.7710359842519687
 21
1.5126192913385827
 31
0.0
 11
2.5752881889763777
 21
1.5326147637795278
 31
0.0
 11
2.457798031496063
 21
1.6631524015748032
 31
0.0
 11
2.6688158267716533
 21
1.7037218897637796
 31
0.0
 11
2.861950511811024
 21
1.7415332677165356
 31
0.0
 11
3.057092007874016
 21
1.767238818897638
 31
0.0
 11
3.2533550393700787
 21
1.782030157480315
 31
0.0
 11
3.4501211417322835
 21
1.7876453543307087
 31
0.0
 11
3.641776220472441
 21
1.8203372047244095
 31
0.0
 11
3.547169645669291
 21
1.9489940551181104
 31
0.0
 11
3.3550257874015745
 21
1.9903879133858269
 31
0.0
 11
3.159136968503937
 21
2.0093797637795277
 31
0.0
 11
2.9624344094488193
 21
2.016329409448819
 31
0.0
 11
2.7656357086614176
 21
2.012607598425197
 31
0.0
 11
2.5723004330708665
 21
1.909062322834646
 31
0.0
 11
2.5041869685039373
 21
2.0471031496062992
 31
0.0
 11
2.686196929133858
 21
2.186784094488189
 31
0.0
 11
2.8817134251968506
 21
2.2088748031496066
 31
0.0
 11
3.0784354330708665
 21
2.2148711811023625
 31
0.0
 11
3.2752281889763784
 21
2.2104737795275593
 31
0.0
 11
3.4720262992125988
 21
2.2067288188976377
 31
0.0
 11
3.664679527559055
 21
2.237708070866142
 31
0.0
 11
3.6521087401574803
 21
2.3923514173228346
 31
0.0
 11
3.4616116535433075
 21
2.434670511811024
 31
0.0
 11
3.2003101574803154
 21
2.4261085826771653
 31
0.0
 11
3.3434754724409452
 21
2.529129921259843
 31
0.0
 11
3.526662362204725
 21
2.600475118110236
 31
0.0
 11
3.7028628740157483
 21
2.697876653543307
 31
0.0
 11
3.4834374803149606
 21
2.7725251574803154
 31
0.0
 11
3.311043070866142
 21
2.8603535826771656
 31
0.0
 11
3.4585672047244094
 21
2.977068464566929
 31
0.0
 11
3.63464594488189
 21
3.065019291338583
 31
0.0
 11
3.64468188976378
 21
3.2519565748031494
 31
0.0
 11
3.4236802755905513
 21
3.2107007480314964
 31
0.0
 11
3.210561062992126
 21
3.1454633070866143
 31
0.0
 11
3.0915472440944884
 21
3.262663110236221
 31
0.0
 11
3.280572125984252
 21
3.316777952755906
 31
0.0
 11
3.474398267716536
 21
3.3509934645669293
 31
0.0
 11
3.662460472440945
 21
3.4056626771653544
 31
0.0
 11
3.774028110236221
 21
3.562155854330709
 31
0.0
  0
LWPOLYLINE
  5
94
330
17
100
AcDbEntity
  8
NumMarks_T23
100
AcDbPolyline
 90
2
 70
0
 10
1.08205669062543
 20
0.19082442406707512
 10
1.087716065280082
 20
-0.059111510681248536
  0
LWPOLYLINE
  5
95
330
17
100
AcDbEntity
  8
NumMarks_T23
100
AcDbPolyline
 90
2
 70
0
 10
2.081488969238213
 20
0.21332837326874124
 10
2.0875312721510766
 20
-0.03659859721565688
  0
LWPOLYLINE
  5
96
330
17
100
AcDbEntity
  8
NumMarks_T23
100
AcDbPolyline
 90
2
 70
0
 10
2.0502480979276636
 20
0.21257308540463324
 10
2.056290400840527
 20
-0.03735388507976485
  0
LWPOLYLINE
  5
97
330
17
100
AcDbEntity
  8
NumMarks_T23
100
AcDbPolyline
 90
2
 70
0
 10
3.0452953183751545
 20
0.2475361533775512
 10
3.0596808233571298
 20
-0.002049617944480664
  0
LWPOLYLINE
  5
98
330
17
100
AcDbEntity
  8
NumMarks_T23
100
AcDbPolyline
 90
2
 70
0
 10
3.4956224085759064
 20
0.20620792520306422
 10
3.5002351947906476
 20
0.4561653659871647
  0
LWPOLYLINE
  5
99
330
17
100
AcDbEntity
  8
NumMarks_T23
100
AcDbPolyline
 90
2
 70
0
 10
3.526867088673919
 20
0.20563132692622163
 10
3.53147987488866
 20
0.45558876771032203
  0
LWPOLYLINE
  5
9A
330
17
100
AcDbEntity
  8
NumMarks_T23
100
AcDbPolyline
 90
2
 70
0
 10
3.021073808305751
 20
0.628733884094353
 10
3.0698248531115717
 20
0.3835332812599781
  0
LWPOLYLINE
  5
9B
330
17
100
AcDbEntity
  8
NumMarks_T23
100
AcDbPolyline
 90
2
 70
0
 10
3.337304521251549
 20
0.8396657611836398
 10
3.4607770989935203
 20
1.057046814971114
  0
LWPOLYLINE
  5
9C
330
17
100
AcDbEntity
  8
NumMarks_T23
100
AcDbPolyline
 90
2
 70
0
 10
3.3644771529749837
 20
0.8242316889658934
 10
3.487949730716955
 20
1.0416127427533677
  0
LWPOLYLINE
  5
9D
330
17
100
AcDbEntity
  8
NumMarks_T23
100
AcDbPolyline
 90
2
 70
0
 10
2.589633690051401
 20
1.0021018620833
 10
2.3406372548304892
 20
1.0244798702001647
  0
LWPOLYLINE
  5
9E
330
17
100
AcDbEntity
  8
NumMarks_T23
100
AcDbPolyline
 90
2
 70
0
 10
2.6697791340840684
 20
0.48786484766287075
 10
2.6022391809381364
 20
0.7285687211860138
  0
LWPOLYLINE
  5
9F
330
17
100
AcDbEntity
  8
NumMarks_T23
100
AcDbPolyline
 90
2
 70
0
 10
2.6998671182744616
 20
0.49630734180611225
 10
2.6323271651285296
 20
0.7370112153292553
  0
LWPOLYLINE
  5
A0
330
17
100
AcDbEntity
  8
NumMarks_T23
100
AcDbPolyline
 90
2
 70
0
 10
2.120150534864517
 20
1.1979961260925414
 10
2.3118615911197358
 20
1.0375378109153333
  0
LWPOLYLINE
  5
A1
330
17
100
AcDbEntity
  8
NumMarks_T23
100
AcDbPolyline
 90
2
 70
0
 10
3.1807394077164814
 20
1.3493219355461117
 10
3.1516916889024995
 20
1.1010152098383614
  0
LWPOLYLINE
  5
A2
330
17
100
AcDbEntity
  8
NumMarks_T23
100
AcDbPolyline
 90
2
 70
0
 10
3.1497010670030128
 20
1.3529529003978593
 10
3.120653348189031
 20
1.104646174690109
  0
LWPOLYLINE
  5
A3
330
17
100
AcDbEntity
  8
NumMarks_T23
100
AcDbPolyline
 90
2
 70
0
 10
3.3335031142199463
 20
1.3360231909371159
 10
3.3837869645202114
 20
1.5809140531573722
  0
LWPOLYLINE
  5
A4
330
17
100
AcDbEntity
  8
NumMarks_T23
100
AcDbPolyline
 90
2
 70
0
 10
2.355608268951819
 20
1.7368164569624278
 10
2.574976184211284
 20
1.6169093355946116
  0
LWPOLYLINE
  5
A5
330
17
100
AcDbEntity
  8
NumMarks_T23
100
AcDbPolyline
 90
2
 70
0
 10
2.340619878780842
 20
1.7093954675549947
 10
2.559987794040307
 20
1.5894883461871785
  0
LWPOLYLINE
  5
A6
330
17
100
AcDbEntity
  8
NumMarks_T23
100
AcDbPolyline
 90
2
 70
0
 10
3.4378528545695546
 20
1.9120418540004858
 10
3.4623894288950123
 20
1.6632488546609316
  0
LWPOLYLINE
  5
A7
330
17
100
AcDbEntity
  8
NumMarks_T23
100
AcDbPolyline
 90
2
 70
0
 10
2.945784612444726
 20
1.891461779997778
 10
2.947835257757146
 20
2.1414533695639126
  0
LWPOLYLINE
  5
A8
330
17
100
AcDbEntity
  8
NumMarks_T23
100
AcDbPolyline
 90
2
 70
0
 10
2.977033561140493
 20
1.8912054493337256
 10
2.979084206452913
 20
2.14119703889986
  0
LWPOLYLINE
  5
A9
330
17
100
AcDbEntity
  8
NumMarks_T23
100
AcDbPolyline
 90
2
 70
0
 10
2.8727853901469933
 20
2.333555556235833
 10
2.890641460246708
 20
2.08419405006338
  0
LWPOLYLINE
  5
AA
330
17
100
AcDbEntity
  8
NumMarks_T23
100
AcDbPolyline
 90
2
 70
0
 10
3.553863684106003
 20
2.31350314792875
 10
3.7279220666334454
 20
2.4929569845328494
  0
LWPOLYLINE
  5
AB
330
17
100
AcDbEntity
  8
NumMarks_T23
100
AcDbPolyline
 90
2
 70
0
 10
3.5762954136815153
 20
2.29174585011282
 10
3.7503537962089575
 20
2.4711996867169193
  0
LWPOLYLINE
  5
AC
330
17
100
AcDbEntity
  8
NumMarks_T23
100
AcDbPolyline
 90
2
 70
0
 10
3.5816303538333907
 20
2.6674188786699804
 10
3.824095394198106
 20
2.7283344284166335
  0
LWPOLYLINE
  5
AD
330
17
100
AcDbEntity
  8
NumMarks_T23
100
AcDbPolyline
 90
2
 70
0
 10
3.560795856242976
 20
3.1579763960144995
 10
3.702853232089814
 20
3.363693925572654
  0
LWPOLYLINE
  5
AE
330
17
100
AcDbEntity
  8
NumMarks_T23
100
AcDbPolyline
 90
2
 70
0
 10
3.5865105474377454
 20
3.1402192240336446
 10
3.728567923284584
 20
3.345936753591799
  0
LWPOLYLINE
  5
AF
330
17
100
AcDbEntity
  8
NumMarks_T23
100
AcDbPolyline
 90
2
 70
0
 10
3.4460618575664426
 20
3.4727392975954388
 10
3.5027346778666293
 20
3.2292476315384198
  0
CIRCLE
  5
B1
330
17
100
AcDbEntity
  8
Holes_T24
100
AcDbCircle
 10
0.17285305905511814
 20
0.1534463779527558
 30
0.0
 40
0.0625
  0
CIRCLE
  5
B2
330
17
100
AcDbEntity
  8
Holes_T24
100
AcDbCircle
 10
0.3684468228346457
 20
0.17565311023622063
 30
0.0
 40
0.0625
  0
CIRCLE
  5
B3
330
17
100
AcDbEntity
  8
Holes_T24
100
AcDbCircle
 10
0.5641362598425197
 20
0.19699763779527535
 30
0.0
 40
0.0625
  0
CIRCLE
  5
B4
330
17
100
AcDbEntity
  8
Holes_T24
100
AcDbCircle
 10
0.7600017716535433
 20
0.21665299212598454
 30
0.0
 40
0.0625
  0
CIRCLE
  5
B5
330
17
100
AcDbEntity
  8
Holes_T24
100
AcDbCircle
 10
0.9560962598425198
 20
0.23386692913385815
 30
0.0
 40
0.0625
  0
CIRCLE
  5
B6
330
17
100
AcDbEntity
  8
Holes_T24
100
AcDbCircle
 10
1.1524376771653544
 20
0.24798011811023604
 30
0.0
 40
0.0625
  0
CIRCLE
  5
B7
330
17
100
AcDbEntity
  8
Holes_T24
100
AcDbCircle
 10
1.3489959448818898
 20
0.25865937007874
 30
0.0
 40
0.0625
  0
CIRCLE
  5
B8
330
17
100
AcDbEntity
  8
Holes_T24
100
AcDbCircle
 10
1.5456495275590552
 20
0.26745484251968493
 30
0.0
 40
0.0625
  0
CIRCLE
  5
B9
330
17
100
AcDbEntity
  8
Holes_T24
100
AcDbCircle
 10
1.7422672047244097
 20
0.2769978346456695
 30
0.0
 40
0.0625
  0
CIRCLE
  5
BA
330
17
100
AcDbEntity
  8
Holes_T24
100
AcDbCircle
 10
1.9385414960629923
 20
0.29180157480314967
 30
0.0
 40
0.0625
  0
CIRCLE
  5
BB
330
17
100
AcDbEntity
  8
Holes_T24
100
AcDbCircle
 10
2.1298009055118112
 20
0.3336680314960629
 30
0.0
 40
0.0625
  0
CIRCLE
  5
BC
330
17
100
AcDbEntity
  8
Holes_T24
100
AcDbCircle
 10
2.055043700787402
 20
0.465611062992126
 30
0.0
 40
0.0625
  0
CIRCLE
  5
BD
330
17
100
AcDbEntity
  8
Holes_T24
100
AcDbCircle
 10
1.8678788582677166
 20
0.5253658267716534
 30
0.0
 40
0.0625
  0
CIRCLE
  5
BE
330
17
100
AcDbEntity
  8
Holes_T24
100
AcDbCircle
 10
1.6746072440944884
 20
0.5626422047244094
 30
0.0
 40
0.0625
  0
CIRCLE
  5
BF
330
17
100
AcDbEntity
  8
Holes_T24
100
AcDbCircle
 10
1.49232031496063
 20
0.5492880708661415
 30
0.0
 40
0.0625
  0
CIRCLE
  5
C0
330
17
100
AcDbEntity
  8
Holes_T24
100
AcDbCircle
 10
1.3319695669291338
 20
0.6922322047244093
 30
0.0
 40
0.0625
  0
CIRCLE
  5
C1
330
17
100
AcDbEntity
  8
Holes_T24
100
AcDbCircle
 10
1.5258818897637796
 20
0.7205740551181105
 30
0.0
 40
0.0625
  0
CIRCLE
  5
C2
330
17
100
AcDbEntity
  8
Holes_T24
100
AcDbCircle
 10
1.721752283464567
 20
0.739775511811024
 30
0.0
 40
0.0625
  0
CIRCLE
  5
C3
330
17
100
AcDbEntity
  8
Holes_T24
100
AcDbCircle
 10
1.887778307086614
 20
0.8234638976377953
 30
0.0
 40
0.0625
  0
CIRCLE
  5
C4
330
17
100
AcDbEntity
  8
Holes_T24
100
AcDbCircle
 10
1.7355727952755906
 20
0.9348876771653541
 30
0.0
 40
0.0625
  0
CIRCLE
  5
C5
330
17
100
AcDbEntity
  8
Holes_T24
100
AcDbCircle
 10
1.5623981102362205
 20
1.0270528346456693
 30
0.0
 40
0.0625
  0
CIRCLE
  5
C6
330
17
100
AcDbEntity
  8
Holes_T24
100
AcDbCircle
 10
1.5681131102362205
 20
1.2118346850393704
 30
0.0
 40
0.0625
  0
CIRCLE
  5
C7
330
17
100
AcDbEntity
  8
Holes_T24
100
AcDbCircle
 10
1.7775881102362205
 20
1.187236062992126
 30
0.0
 40
0.0625
  0
CIRCLE
  5
C8
330
17
100
AcDbEntity
  8
Holes_T24
100
AcDbCircle
 10
1.9727682677165355
 20
1.2104253543307089
 30
0.0
 40
0.0625
  0
CIRCLE
  5
C9
330
17
100
AcDbEntity
  8
Holes_T24
100
AcDbCircle
 10
2.1602968110236223
 20
1.2696552755905515
 30
0.0
 40
0.0625
  0
CIRCLE
  5
CA
330
17
100
AcDbEntity
  8
Holes_T24
100
AcDbCircle
 10
2.335016968503937
 20
1.3581243700787402
 30
0.0
 40
0.0625
  0
CIRCLE
  5
CB
330
17
100
AcDbEntity
  8
Holes_T24
100
AcDbCircle
 10
2.2599043307086615
 20
1.5349411023622048
 30
0.0
 40
0.0625
  0
CIRCLE
  5
CC
330
17
100
AcDbEntity
  8
Holes_T24
100
AcDbCircle
 10
2.0736911023622047
 20
1.514037913385827
 30
0.0
 40
0.0625
  0
CIRCLE
  5
CD
330
17
100
AcDbEntity
  8
Holes_T24
100
AcDbCircle
 10
1.8876882677165356
 20
1.450009094488189
 30
0.0
 40
0.0625
  0
CIRCLE
  5
CE
330
17
100
AcDbEntity
  8
Holes_T24
100
AcDbCircle
 10
1.6974590157480316
 20
1.4047712992125985
 30
0.0
 40
0.0625
  0
CIRCLE
  5
CF
330
17
100
AcDbEntity
  8
Holes_T24
100
AcDbCircle
 10
1.532161377952756
 20
1.4967001574803152
 30
0.0
 40
0.0625
  0
CIRCLE
  5
D0
330
17
100
AcDbEntity
  8
Holes_T24
100
AcDbCircle
 10
1.5873108661417323
 20
1.6464049212598426
 30
0.0
 40
0.0625
  0
CIRCLE
  5
D1
330
17
100
AcDbEntity
  8
Holes_T24
100
AcDbCircle
 10
1.781343661417323
 20
1.678638976377953
 30
0.0
 40
0.0625
  0
CIRCLE
  5
D2
330
17
100
AcDbEntity
  8
Holes_T24
100
AcDbCircle
 10
1.9705386220472443
 20
1.729579527559055
 30
0.0
 40
0.0625
  0
CIRCLE
  5
D3
330
17
100
AcDbEntity
  8
Holes_T24
100
AcDbCircle
 10
2.021510196850394
 20
1.8752285039370078
 30
0.0
 40
0.0625
  0
CIRCLE
  5
D4
330
17
100
AcDbEntity
  8
Holes_T24
100
AcDbCircle
 10
1.8327176771653544
 20
1.9263633070866144
 30
0.0
 40
0.0625
  0
CIRCLE
  5
D5
330
17
100
AcDbEntity
  8
Holes_T24
100
AcDbCircle
 10
1.6363421653543309
 20
1.9380873622047243
 30
0.0
 40
0.0625
  0
CIRCLE
  5
D6
330
17
100
AcDbEntity
  8
Holes_T24
100
AcDbCircle
 10
1.4396653543307087
 20
1.9305406692913387
 30
0.0
 40
0.0625
  0
CIRCLE
  5
D7
330
17
100
AcDbEntity
  8
Holes_T24
100
AcDbCircle
 10
1.2429813385826773
 20
1.9293986220472443
 30
0.0
 40
0.0625
  0
CIRCLE
  5
D8
330
17
100
AcDbEntity
  8
Holes_T24
100
AcDbCircle
 10
1.0507450787401575
 20
1.9695079527559058
 30
0.0
 40
0.0625
  0
CIRCLE
  5
D9
330
17
100
AcDbEntity
  8
Holes_T24
100
AcDbCircle
 10
0.8727038582677166
 20
2.0524858267716537
 30
0.0
 40
0.0625
  0
CIRCLE
  5
DA
330
17
100
AcDbEntity
  8
Holes_T24
100
AcDbCircle
 10
0.7989556299212598
 20
2.206437322834646
 30
0.0
 40
0.0625
  0
CIRCLE
  5
DB
330
17
100
AcDbEntity
  8
Holes_T24
100
AcDbCircle
 10
0.9687903543307088
 20
2.3016109842519685
 30
0.0
 40
0.0625
  0
CIRCLE
  5
DC
330
17
100
AcDbEntity
  8
Holes_T24
100
AcDbCircle
 10
1.1612711417322834
 20
2.340663464566929
 30
0.0
 40
0.0625
  0
CIRCLE
  5
DD
330
17
100
AcDbEntity
  8
Holes_T24
100
AcDbCircle
 10
1.3569571259842519
 20
2.328176535433071
 30
0.0
 40
0.0625
  0
CIRCLE
  5
DE
330
17
100
AcDbEntity
  8
Holes_T24
100
AcDbCircle
 10
1.542933188976378
 20
2.2646536614173227
 30
0.0
 40
0.0625
  0
CIRCLE
  5
DF
330
17
100
AcDbEntity
  8
Holes_T24
100
AcDbCircle
 10
1.721032440944882
 20
2.1808245275590554
 30
0.0
 40
0.0625
  0
CIRCLE
  5
E0
330
17
100
AcDbEntity
  8
Holes_T24
100
AcDbCircle
 10
1.9047280708661418
 20
2.1106648031496063
 30
0.0
 40
0.0625
  0
CIRCLE
  5
E1
330
17
100
AcDbEntity
  8
Holes_T24
100
AcDbCircle
 10
2.0987909842519685
 20
2.082179212598425
 30
0.0
 40
0.0625
  0
CIRCLE
  5
E2
330
17
100
AcDbEntity
  8
Holes_T24
100
AcDbCircle
 10
2.2864080314960633
 20
2.1341661417322837
 30
0.0
 40
0.0625
  0
CIRCLE
  5
E3
330
17
100
AcDbEntity
  8
Holes_T24
100
AcDbCircle
 10
2.4225420472440944
 20
2.2659657480314963
 30
0.0
 40
0.0625
  0
CIRCLE
  5
E4
330
17
100
AcDbEntity
  8
Holes_T24
100
AcDbCircle
 10
2.63228625984252
 20
2.3195160629921263
 30
0.0
 40
0.0625
  0
CIRCLE
  5
E5
330
17
100
AcDbEntity
  8
Holes_T24
100
AcDbCircle
 10
2.8017839370078743
 20
2.405019409448819
 30
0.0
 40
0.0625
  0
CIRCLE
  5
E6
330
17
100
AcDbEntity
  8
Holes_T24
100
AcDbCircle
 10
2.6168622834645667
 20
2.47043562992126
 30
0.0
 40
0.0625
  0
CIRCLE
  5
E7
330
17
100
AcDbEntity
  8
Holes_T24
100
AcDbCircle
 10
2.421232322834646
 20
2.4414487795275592
 30
0.0
 40
0.0625
  0
CIRCLE
  5
E8
330
17
100
AcDbEntity
  8
Holes_T24
100
AcDbCircle
 10
2.2292235433070866
 20
2.3981672440944886
 30
0.0
 40
0.0625
  0
CIRCLE
  5
E9
330
17
100
AcDbEntity
  8
Holes_T24
100
AcDbCircle
 10
2.033355787401575
 20
2.382727125984252
 30
0.0
 40
0.0625
  0
CIRCLE
  5
EA
330
17
100
AcDbEntity
  8
Holes_T24
100
AcDbCircle
 10
1.8381909055118113
 20
2.406636220472441
 30
0.0
 40
0.0625
  0
CIRCLE
  5
EB
330
17
100
AcDbEntity
  8
Holes_T24
100
AcDbCircle
 10
1.6479481496062993
 20
2.4567010236220472
 30
0.0
 40
0.0625
  0
CIRCLE
  5
EC
330
17
100
AcDbEntity
  8
Holes_T24
100
AcDbCircle
 10
1.496924291338583
 20
2.557904094488189
 30
0.0
 40
0.0625
  0
CIRCLE
  5
ED
330
17
100
AcDbEntity
  8
Holes_T24
100
AcDbCircle
 10
1.6877801181102365
 20
2.594272519685039
 30
0.0
 40
0.0625
  0
CIRCLE
  5
EE
330
17
100
AcDbEntity
  8
Holes_T24
100
AcDbCircle
 10
1.8845633464566929
 20
2.5984189370078745
 30
0.0
 40
0.0625
  0
CIRCLE
  5
EF
330
17
100
AcDbEntity
  8
Holes_T24
100
AcDbCircle
 10
2.081383346456693
 20
2.5952871653543306
 30
0.0
 40
0.0625
  0
CIRCLE
  5
F0
330
17
100
AcDbEntity
  8
Holes_T24
100
AcDbCircle
 10
2.2780946850393704
 20
2.5879536220472446
 30
0.0
 40
0.0625
  0
CIRCLE
  5
F1
330
17
100
AcDbEntity
  8
Holes_T24
100
AcDbCircle
 10
2.474652913385827
 20
2.6214120866141735
 30
0.0
 40
0.0625
  0
CIRCLE
  5
F2
330
17
100
AcDbEntity
  8
Holes_T24
100
AcDbCircle
 10
2.664215
 20
2.6040471653543307
 30
0.0
 40
0.0625
  0
CIRCLE
  5
F3
330
17
100
AcDbEntity
  8
Holes_T24
100
AcDbCircle
 10
2.8673048425196854
 20
2.5486258661417325
 30
0.0
 40
0.0625
  0
CIRCLE
  5
F4
330
17
100
AcDbEntity
  8
Holes_T24
100
AcDbCircle
 10
3.0630579527559054
 20
2.5574751968503935
 30
0.0
 40
0.0625
  0
CIRCLE
  5
F5
330
17
100
AcDbEntity
  8
Holes_T24
100
AcDbCircle
 10
3.125803425196851
 20
2.7025664566929137
 30
0.0
 40
0.0625
  0
CIRCLE
  5
F6
330
17
100
AcDbEntity
  8
Holes_T24
100
AcDbCircle
 10
2.954851968503937
 20
2.7961132677165357
 30
0.0
 40
0.0625
  0
CIRCLE
  5
F7
330
17
100
AcDbEntity
  8
Holes_T24
100
AcDbCircle
 10
2.759879881889764
 20
2.7758533464566932
 30
0.0
 40
0.0625
  0
CIRCLE
  5
F8
330
17
100
AcDbEntity
  8
Holes_T24
100
AcDbCircle
 10
2.57745094488189
 20
2.7928949212598426
 30
0.0
 40
0.0625
  0
CIRCLE
  5
F9
330
17
100
AcDbEntity
  8
Holes_T24
100
AcDbCircle
 10
2.353477283464567
 20
2.8098764566929137
 30
0.0
 40
0.0625
  0
CIRCLE
  5
FA
330
17
100
AcDbEntity
  8
Holes_T24
100
AcDbCircle
 10
2.088894251968504
 20
2.8335433464566933
 30
0.0
 40
0.0625
  0
CIRCLE
  5
FB
330
17
100
AcDbEntity
  8
Holes_T24
100
AcDbCircle
 10
2.0119717322834645
 20
3.012494448818898
 30
0.0
 40
0.0625
  0
CIRCLE
  5
FC
330
17
100
AcDbEntity
  8
Holes_T24
100
AcDbCircle
 10
2.235088622047244
 20
2.9930572834645672
 30
0.0
 40
0.0625
  0
CIRCLE
  5
FD
330
17
100
AcDbEntity
  8
Holes_T24
100
AcDbCircle
 10
2.5267754724409452
 20
2.9515603937007877
 30
0.0
 40
0.0625
  0
CIRCLE
  5
FE
330
17
100
AcDbEntity
  8
Holes_T24
100
AcDbCircle
 10
2.7234404330708664
 20
2.960103346456693
 30
0.0
 40
0.0625
  0
CIRCLE
  5
FF
330
17
100
AcDbEntity
  8
Holes_T24
100
AcDbCircle
 10
2.919949212598425
 20
2.9715610236220473
 30
0.0
 40
0.0625
  0
CIRCLE
  5
100
330
17
100
AcDbEntity
  8
Holes_T24
100
AcDbCircle
 10
3.098081850393701
 20
3.0261302362204727
 30
0.0
 40
0.0625
  0
CIRCLE
  5
101
330
17
100
AcDbEntity
  8
Holes_T24
100
AcDbCircle
 10
2.894905826771654
 20
3.1053748031496062
 30
0.0
 40
0.0625
  0
CIRCLE
  5
102
330
17
100
AcDbEntity
  8
Holes_T24
100
AcDbCircle
 10
2.6225970078740155
 20
3.0899114960629923
 30
0.0
 40
0.0625
  0
CIRCLE
  5
103
330
17
100
AcDbEntity
  8
Holes_T24
100
AcDbCircle
 10
2.387850748031496
 20
3.0791003543307087
 30
0.0
 40
0.0625
  0
CIRCLE
  5
104
330
17
100
AcDbEntity
  8
Holes_T24
100
AcDbCircle
 10
2.2509045275590553
 20
3.185491732283465
 30
0.0
 40
0.0625
  0
CIRCLE
  5
105
330
17
100
AcDbEntity
  8
Holes_T24
100
AcDbCircle
 10
2.502396968503937
 20
3.1811833464566934
 30
0.0
 40
0.0625
  0
CIRCLE
  5
106
330
17
100
AcDbEntity
  8
Holes_T24
100
AcDbCircle
 10
2.778848858267717
 20
3.167787047244095
 30
0.0
 40
0.0625
  0
CIRCLE
  5
107
330
17
100
AcDbEntity
  8
Holes_T24
100
AcDbCircle
 10
2.6684026771653544
 20
3.278517637795276
 30
0.0
 40
0.0625
  0
CIRCLE
  5
108
330
17
100
AcDbEntity
  8
Holes_T24
100
AcDbCircle
 10
2.5132883858267716
 20
3.3986123622047244
 30
0.0
 40
0.0625
  0
CIRCLE
  5
109
330
17
100
AcDbEntity
  8
Holes_T24
100
AcDbCircle
 10
2.3383779527559057
 20
3.488697637795276
 30
0.0
 40
0.0625
  0
CIRCLE
  5
10A
330
17
100
AcDbEntity
  8
Holes_T24
100
AcDbCircle
 10
2.4566192125984254
 20
3.5676924291338588
 30
0.0
 40
0.0625
  0
CIRCLE
  5
10B
330
17
100
AcDbEntity
  8
Holes_T24
100
AcDbCircle
 10
2.6309208661417323
 20
3.486050551181102
 30
0.0
 40
0.0625
  0
CIRCLE
  5
10C
330
17
100
AcDbEntity
  8
Holes_T24
100
AcDbCircle
 10
2.770428937007874
 20
3.401646220472441
 30
0.0
 40
0.0625
  0
CIRCLE
  5
10D
330
17
100
AcDbEntity
  8
Holes_T24
100
AcDbCircle
 10
2.935194251968504
 20
3.343949251968504
 30
0.0
 40
0.0625
  0
CIRCLE
  5
10E
330
17
100
AcDbEntity
  8
Holes_T24
100
AcDbCircle
 10
3.0069063385826773
 20
3.52371594488189
 30
0.0
 40
0.0625
  0
CIRCLE
  5
10F
330
17
100
AcDbEntity
  8
Holes_T24
100
AcDbCircle
 10
3.073308110236221
 20
3.6721625748031497
 30
0.0
 40
0.0625
  0
CIRCLE
  5
110
330
17
100
AcDbEntity
  8
Holes_T24
100
AcDbCircle
 10
3.2697660629921264
 20
3.6616304645669295
 30
0.0
 40
0.0625
  0
CIRCLE
  5
111
330
17
100
AcDbEntity
  8
Holes_T24
100
AcDbCircle
 10
3.4662099212598427
 20
3.6619742047244097
 30
0.0
 40
0.0625
  0
CIRCLE
  5
112
330
17
100
AcDbEntity
  8
Holes_T24
100
AcDbCircle
 10
3.6585111417322835
 20
3.678314527559055
 30
0.0
 40
0.0625
  0
SPLINE
  5
114
330
17
100
AcDbEntity
  8
TrackPath_T24
100
AcDbSpline
 70
0
 71
3
 72
0
 73
0
 74
98
 11
0.17285305905511814
 21
0.1534463779527558
 31
0.0
 11
0.3684468228346457
 21
0.17565311023622063
 31
0.0
 11
0.5641362598425197
 21
0.19699763779527535
 31
0.0
 11
0.7600017716535433
 21
0.21665299212598454
 31
0.0
 11
0.9560962598425198
 21
0.23386692913385815
 31
0.0
 11
1.1524376771653544
 21
0.24798011811023604
 31
0.0
 11
1.3489959448818898
 21
0.25865937007874
 31
0.0
 11
1.5456495275590552
 21
0.26745484251968493
 31
0.0
 11
1.7422672047244097
 21
0.2769978346456695
 31
0.0
 11
1.9385414960629923
 21
0.29180157480314967
 31
0.0
 11
2.1298009055118112
 21
0.3336680314960629
 31
0.0
 11
2.055043700787402
 21
0.465611062992126
 31
0.0
 11
1.8678788582677166
 21
0.5253658267716534
 31
0.0
 11
1.6746072440944884
 21
0.5626422047244094
 31
0.0
 11
1.49232031496063
 21
0.5492880708661415
 31
0.0
 11
1.3319695669291338
 21
0.6922322047244093
 31
0.0
 11
1.5258818897637796
 21
0.7205740551181105
 31
0.0
 11
1.721752283464567
 21
0.739775511811024
 31
0.0
 11
1.887778307086614
 21
0.8234638976377953
 31
0.0
 11
1.7355727952755906
 21
0.9348876771653541
 31
0.0
 11
1.5623981102362205
 21
1.0270528346456693
 31
0.0
 11
1.5681131102362205
 21
1.2118346850393704
 31
0.0
 11
1.7775881102362205
 21
1.187236062992126
 31
0.0
 11
1.9727682677165355
 21
1.2104253543307089
 31
0.0
 11
2.1602968110236223
 21
1.2696552755905515
 31
0.0
 11
2.335016968503937
 21
1.3581243700787402
 31
0.0
 11
2.2599043307086615
 21
1.5349411023622048
 31
0.0
 11
2.0736911023622047
 21
1.514037913385827
 31
0.0
 11
1.8876882677165356
 21
1.450009094488189
 31
0.0
 11
1.6974590157480316
 21
1.4047712992125985
 31
0.0
 11
1.532161377952756
 21
1.4967001574803152
 31
0.0
 11
1.5873108661417323
 21
1.6464049212598426
 31
0.0
 11
1.781343661417323
 21
1.678638976377953
 31
0.0
 11
1.9705386220472443
 21
1.729579527559055
 31
0.0
 11
2.021510196850394
 21
1.8752285039370078
 31
0.0
 11
1.8327176771653544
 21
1.9263633070866144
 31
0.0
 11
1.6363421653543309
 21
1.9380873622047243
 31
0.0
 11
1.4396653543307087
 21
1.9305406692913387
 31
0.0
 11
1.2429813385826773
 21
1.9293986220472443
 31
0.0
 11
1.0507450787401575
 21
1.9695079527559058
 31
0.0
 11
0.8727038582677166
 21
2.0524858267716537
 31
0.0
 11
0.7989556299212598
 21
2.206437322834646
 31
0.0
 11
0.9687903543307088
 21
2.3016109842519685
 31
0.0
 11
1.1612711417322834
 21
2.340663464566929
 31
0.0
 11
1.3569571259842519
 21
2.328176535433071
 31
0.0
 11
1.542933188976378
 21
2.2646536614173227
 31
0.0
 11
1.721032440944882
 21
2.1808245275590554
 31
0.0
 11
1.9047280708661418
 21
2.1106648031496063
 31
0.0
 11
2.0987909842519685
 21
2.082179212598425
 31
0.0
 11
2.2864080314960633
 21
2.1341661417322837
 31
0.0
 11
2.4225420472440944
 21
2.2659657480314963
 31
0.0
 11
2.63228625984252
 21
2.3195160629921263
 31
0.0
 11
2.8017839370078743
 21
2.405019409448819
 31
0.0
 11
2.6168622834645667
 21
2.47043562992126
 31
0.0
 11
2.421232322834646
 21
2.4414487795275592
 31
0.0
 11
2.2292235433070866
 21
2.3981672440944886
 31
0.0
 11
2.033355787401575
 21
2.382727125984252
 31
0.0
 11
1.8381909055118113
 21
2.406636220472441
 31
0.0
 11
1.6479481496062993
 21
2.4567010236220472
 31
0.0
 11
1.496924291338583
 21
2.557904094488189
 31
0.0
 11
1.6877801181102365
 21
2.594272519685039
 31
0.0
 11
1.8845633464566929
 21
2.5984189370078745
 31
0.0
 11
2.081383346456693
 21
2.5952871653543306
 31
0.0
 11
2.2780946850393704
 21
2.5879536220472446
 31
0.0
 11
2.474652913385827
 21
2.6214120866141735
 31
0.0
 11
2.664215
 21
2.6040471653543307
 31
0.0
 11
2.8673048425196854
 21
2.5486258661417325
 31
0.0
 11
3.0630579527559054
 21
2.5574751968503935
 31
0.0
 11
3.125803425196851
 21
2.7025664566929137
 31
0.0
 11
2.954851968503937
 21
2.7961132677165357
 31
0.0
 11
2.759879881889764
 21
2.7758533464566932
 31
0.0
 11
2.57745094488189
 21
2.7928949212598426
 31
0.0
 11
2.353477283464567
 21
2.8098764566929137
 31
0.0
 11
2.088894251968504
 21
2.8335433464566933
 31
0.0
 11
2.0119717322834645
 21
3.012494448818898
 31
0.0
 11
2.235088622047244
 21
2.9930572834645672
 31
0.0
 11
2.5267754724409452
 21
2.9515603937007877
 31
0.0
 11
2.7234404330708664
 21
2.960103346456693
 31
0.0
 11
2.919949212598425
 21
2.9715610236220473
 31
0.0
 11
3.098081850393701
 21
3.0261302362204727
 31
0.0
 11
2.894905826771654
 21
3.1053748031496062
 31
0.0
 11
2.6225970078740155
 21
3.0899114960629923
 31
0.0
 11
2.387850748031496
 21
3.0791003543307087
 31
0.0
 11
2.2509045275590553
 21
3.185491732283465
 31
0.0
 11
2.502396968503937
 21
3.1811833464566934
 31
0.0
 11
2.778848858267717
 21
3.167787047244095
 31
0.0
 11
2.6684026771653544
 21
3.278517637795276
 31
0.0
 11
2.5132883858267716
 21
3.3986123622047244
 31
0.0
 11
2.3383779527559057
 21
3.488697637795276
 31
0.0
 11
2.4566192125984254
 21
3.5676924291338588
 31
0.0
 11
2.6309208661417323
 21
3.486050551181102
 31
0.0
 11
2.770428937007874
 21
3.401646220472441
 31
0.0
 11
2.935194251968504
 21
3.343949251968504
 31
0.0
 11
3.0069063385826773
 21
3.52371594488189
 31
0.0
 11
3.073308110236221
 21
3.6721625748031497
 31
0.0
 11
3.2697660629921264
 21
3.6616304645669295
 31
0.0
 11
3.4662099212598427
 21
3.6619742047244097
 31
0.0
 11
3.6585111417322835
 21
3.678314527559055
 31
0.0
  0
LWPOLYLINE
  5
116
330
17
100
AcDbEntity
  8
NumMarks_T24
100
AcDbPolyline
 90
2
 70
0
 10
0.9461494808134745
 20
0.35847054700648395
 10
0.9660430388715651
 20
0.10926331126123237
  0
LWPOLYLINE
  5
117
330
17
100
AcDbEntity
  8
NumMarks_T24
100
AcDbPolyline
 90
2
 70
0
 10
1.9359153079074682
 20
0.417746974722209
 10
1.9720888230245766
 20
0.1703778642737289
  0
LWPOLYLINE
  5
118
330
17
100
AcDbEntity
  8
NumMarks_T24
100
AcDbPolyline
 90
2
 70
0
 10
1.904994169101408
 20
0.4132252853325704
 10
1.9411676842185164
 20
0.16585617488409035
  0
LWPOLYLINE
  5
119
330
17
100
AcDbEntity
  8
NumMarks_T24
100
AcDbPolyline
 90
2
 70
0
 10
1.448100724343533
 20
0.43237088733157136
 10
1.5365399055777267
 20
0.6662052544007117
  0
LWPOLYLINE
  5
11A
330
17
100
AcDbEntity
  8
NumMarks_T24
100
AcDbPolyline
 90
2
 70
0
 10
1.656024104437481
 20
0.8372088851430175
 10
1.7886298237439522
 20
1.0491421841009998
  0
LWPOLYLINE
  5
11B
330
17
100
AcDbEntity
  8
NumMarks_T24
100
AcDbPolyline
 90
2
 70
0
 10
1.682515766807229
 20
0.8206331702297087
 10
1.8151214861137002
 20
1.0325664691876908
  0
LWPOLYLINE
  5
11C
330
17
100
AcDbEntity
  8
NumMarks_T24
100
AcDbPolyline
 90
2
 70
0
 10
2.1131028549821878
 20
1.3854038415132408
 10
2.2074907670650568
 20
1.1539067096678621
  0
LWPOLYLINE
  5
11D
330
17
100
AcDbEntity
  8
NumMarks_T24
100
AcDbPolyline
 90
2
 70
0
 10
1.6656906543836896
 20
1.2828700611498758
 10
1.698243430470339
 20
1.5307416342861524
  0
LWPOLYLINE
  5
11E
330
17
100
AcDbEntity
  8
NumMarks_T24
100
AcDbPolyline
 90
2
 70
0
 10
1.696674601025724
 20
1.2788009641390445
 10
1.7292273771123736
 20
1.5266725372753212
  0
LWPOLYLINE
  5
11F
330
17
100
AcDbEntity
  8
NumMarks_T24
100
AcDbPolyline
 90
2
 70
0
 10
1.9191238823960375
 20
1.8035204666437334
 10
2.1238965113047503
 20
1.9469365412302821
  0
LWPOLYLINE
  5
120
330
17
100
AcDbEntity
  8
NumMarks_T24
100
AcDbPolyline
 90
2
 70
0
 10
0.9964870114071039
 20
1.8558188910380702
 10
1.0753486672708807
 20
2.0930547214567135
  0
LWPOLYLINE
  5
121
330
17
100
AcDbEntity
  8
NumMarks_T24
100
AcDbPolyline
 90
2
 70
0
 10
1.0261414902094343
 20
1.8459611840550982
 10
1.1050031460732113
 20
2.0831970144737415
  0
LWPOLYLINE
  5
122
330
17
100
AcDbEntity
  8
NumMarks_T24
100
AcDbPolyline
 90
2
 70
0
 10
1.381371996931345
 20
2.4507690069663455
 10
1.3325422550371588
 20
2.205584063899796
  0
LWPOLYLINE
  5
123
330
17
100
AcDbEntity
  8
NumMarks_T24
100
AcDbPolyline
 90
2
 70
0
 10
2.2382864114324943
 20
2.2505854283967253
 10
2.361706041505847
 20
2.033174308827011
  0
LWPOLYLINE
  5
124
330
17
100
AcDbEntity
  8
NumMarks_T24
100
AcDbPolyline
 90
2
 70
0
 10
2.2111100214862796
 20
2.2351579746375565
 10
2.3345296515596323
 20
2.017746855067842
  0
LWPOLYLINE
  5
125
330
17
100
AcDbEntity
  8
NumMarks_T24
100
AcDbPolyline
 90
2
 70
0
 10
2.4441416326913794
 20
2.318566056893789
 10
2.3983230129779125
 20
2.5643315021613295
  0
LWPOLYLINE
  5
126
330
17
100
AcDbEntity
  8
NumMarks_T24
100
AcDbPolyline
 90
2
 70
0
 10
1.3812012999535161
 20
2.6076768771097356
 10
1.62133833717249
 20
2.538148441519014
  0
LWPOLYLINE
  5
127
330
17
100
AcDbEntity
  8
NumMarks_T24
100
AcDbPolyline
 90
2
 70
0
 10
1.3725102455046758
 20
2.577659747457364
 10
1.6126472827236498
 20
2.5081313118666424
  0
LWPOLYLINE
  5
128
330
17
100
AcDbEntity
  8
NumMarks_T24
100
AcDbPolyline
 90
2
 70
0
 10
2.469447417276481
 20
2.7463036508219116
 10
2.4798584094951726
 20
2.4965205224064353
  0
LWPOLYLINE
  5
129
330
17
100
AcDbEntity
  8
NumMarks_T24
100
AcDbPolyline
 90
2
 70
0
 10
2.9149837935513188
 20
2.676615697653595
 10
2.964078643904059
 20
2.9217476940735687
  0
LWPOLYLINE
  5
12A
330
17
100
AcDbEntity
  8
NumMarks_T24
100
AcDbPolyline
 90
2
 70
0
 10
2.945625293103815
 20
2.6704788413595026
 10
2.9947201434565556
 20
2.9156108377794765
  0
LWPOLYLINE
  5
12B
330
17
100
AcDbEntity
  8
NumMarks_T24
100
AcDbPolyline
 90
2
 70
0
 10
1.9198197707071456
 20
3.096951633105592
 10
2.1041236938597834
 20
2.9280372645322035
  0
LWPOLYLINE
  5
12C
330
17
100
AcDbEntity
  8
NumMarks_T24
100
AcDbPolyline
 90
2
 70
0
 10
2.9723407369771455
 20
3.0184939398822594
 10
3.2180743027603405
 20
3.0644832282815857
  0
LWPOLYLINE
  5
12D
330
17
100
AcDbEntity
  8
NumMarks_T24
100
AcDbPolyline
 90
2
 70
0
 10
2.9780893980270613
 20
2.9877772441593597
 10
3.2238229638102562
 20
3.033766532558686
  0
LWPOLYLINE
  5
12E
330
17
100
AcDbEntity
  8
NumMarks_T24
100
AcDbPolyline
 90
2
 70
0
 10
2.5065865054037895
 20
3.306113117850724
 10
2.4982074316040848
 20
3.0562535750626627
  0
LWPOLYLINE
  5
12F
330
17
100
AcDbEntity
  8
NumMarks_T24
100
AcDbPolyline
 90
2
 70
0
 10
2.4733745943339396
 20
3.692545934522763
 10
2.4711125516274266
 20
3.4425561684066404
  0
LWPOLYLINE
  5
130
330
17
100
AcDbEntity
  8
NumMarks_T24
100
AcDbPolyline
 90
2
 70
0
 10
2.4421258735694242
 20
3.692828689861077
 10
2.4398638308629113
 20
3.4428389237449544
  0
LWPOLYLINE
  5
131
330
17
100
AcDbEntity
  8
NumMarks_T24
100
AcDbPolyline
 90
2
 70
0
 10
3.015232540239167
 20
3.782852358295201
 10
3.131383680233275
 20
3.561472791311098
  0
CIRCLE
  5
133
330
17
100
AcDbEntity
  8
Holes_T25
100
AcDbCircle
 10
0.13580619685039372
 20
0.3449340551181102
 30
0.0
 40
0.0625
  0
CIRCLE
  5
134
330
17
100
AcDbEntity
  8
Holes_T25
100
AcDbCircle
 10
0.3324347480314961
 20
0.3542766141732284
 30
0.0
 40
0.0625
  0
CIRCLE
  5
135
330
17
100
AcDbEntity
  8
Holes_T25
100
AcDbCircle
 10
0.5290353543307087
 20
0.3641872047244094
 30
0.0
 40
0.0625
  0
CIRCLE
  5
136
330
17
100
AcDbEntity
  8
Holes_T25
100
AcDbCircle
 10
0.7255637795275591
 20
0.3754313779527558
 30
0.0
 40
0.0625
  0
CIRCLE
  5
137
330
17
100
AcDbEntity
  8
Holes_T25
100
AcDbCircle
 10
0.9219133070866142
 20
0.389422755905512
 30
0.0
 40
0.0625
  0
CIRCLE
  5
138
330
17
100
AcDbEntity
  8
Holes_T25
100
AcDbCircle
 10
1.1176217322834647
 20
0.4103194094488188
 30
0.0
 40
0.0625
  0
CIRCLE
  5
139
330
17
100
AcDbEntity
  8
Holes_T25
100
AcDbCircle
 10
1.2873928346456693
 20
0.4813833464566929
 30
0.0
 40
0.0625
  0
CIRCLE
  5
13A
330
17
100
AcDbEntity
  8
Holes_T25
100
AcDbCircle
 10
1.1185488976377953
 20
0.5739579133858267
 30
0.0
 40
0.0625
  0
CIRCLE
  5
13B
330
17
100
AcDbEntity
  8
Holes_T25
100
AcDbCircle
 10
0.925039094488189
 20
0.6077842519685039
 30
0.0
 40
0.0625
  0
CIRCLE
  5
13C
330
17
100
AcDbEntity
  8
Holes_T25
100
AcDbCircle
 10
0.7283377165354331
 20
0.6057562204724408
 30
0.0
 40
0.0625
  0
CIRCLE
  5
13D
330
17
100
AcDbEntity
  8
Holes_T25
100
AcDbCircle
 10
0.5320850787401575
 20
0.5904982283464567
 30
0.0
 40
0.0625
  0
CIRCLE
  5
13E
330
17
100
AcDbEntity
  8
Holes_T25
100
AcDbCircle
 10
0.342034937007874
 20
0.6206510629921261
 30
0.0
 40
0.0625
  0
CIRCLE
  5
13F
330
17
100
AcDbEntity
  8
Holes_T25
100
AcDbCircle
 10
0.4062048425196851
 20
0.7766660629921259
 30
0.0
 40
0.0625
  0
CIRCLE
  5
140
330
17
100
AcDbEntity
  8
Holes_T25
100
AcDbCircle
 10
0.5937926771653543
 20
0.8332870472440946
 30
0.0
 40
0.0625
  0
CIRCLE
  5
141
330
17
100
AcDbEntity
  8
Holes_T25
100
AcDbCircle
 10
0.7893173228346457
 20
0.8554501574803147
 30
0.0
 40
0.0625
  0
CIRCLE
  5
142
330
17
100
AcDbEntity
  8
Holes_T25
100
AcDbCircle
 10
0.9859544488188977
 20
0.8641660236220471
 30
0.0
 40
0.0625
  0
CIRCLE
  5
143
330
17
100
AcDbEntity
  8
Holes_T25
100
AcDbCircle
 10
1.1827494881889764
 20
0.8683039370078739
 30
0.0
 40
0.0625
  0
CIRCLE
  5
144
330
17
100
AcDbEntity
  8
Holes_T25
100
AcDbCircle
 10
1.3565467322834648
 20
0.9401491732283466
 30
0.0
 40
0.0625
  0
CIRCLE
  5
145
330
17
100
AcDbEntity
  8
Holes_T25
100
AcDbCircle
 10
1.2835820866141732
 20
1.0936880314960629
 30
0.0
 40
0.0625
  0
CIRCLE
  5
146
330
17
100
AcDbEntity
  8
Holes_T25
100
AcDbCircle
 10
1.088794409448819
 20
1.1134077952755905
 30
0.0
 40
0.0625
  0
CIRCLE
  5
147
330
17
100
AcDbEntity
  8
Holes_T25
100
AcDbCircle
 10
0.8926196062992127
 20
1.0978440157480316
 30
0.0
 40
0.0625
  0
CIRCLE
  5
148
330
17
100
AcDbEntity
  8
Holes_T25
100
AcDbCircle
 10
0.6975717322834646
 20
1.071334527559055
 30
0.0
 40
0.0625
  0
CIRCLE
  5
149
330
17
100
AcDbEntity
  8
Holes_T25
100
AcDbCircle
 10
0.502976811023622
 20
1.041622992125984
 30
0.0
 40
0.0625
  0
CIRCLE
  5
14A
330
17
100
AcDbEntity
  8
Holes_T25
100
AcDbCircle
 10
0.3072507283464567
 20
1.0223828740157481
 30
0.0
 40
0.0625
  0
CIRCLE
  5
14B
330
17
100
AcDbEntity
  8
Holes_T25
100
AcDbCircle
 10
0.1619475472440945
 20
1.1353594881889766
 30
0.0
 40
0.0625
  0
CIRCLE
  5
14C
330
17
100
AcDbEntity
  8
Holes_T25
100
AcDbCircle
 10
0.36041176771653544
 20
1.2493716535433068
 30
0.0
 40
0.0625
  0
CIRCLE
  5
14D
330
17
100
AcDbEntity
  8
Holes_T25
100
AcDbCircle
 10
0.5450338582677166
 20
1.317180196850394
 30
0.0
 40
0.0625
  0
CIRCLE
  5
14E
330
17
100
AcDbEntity
  8
Holes_T25
100
AcDbCircle
 10
0.7366426771653544
 20
1.3618328346456692
 30
0.0
 40
0.0625
  0
CIRCLE
  5
14F
330
17
100
AcDbEntity
  8
Holes_T25
100
AcDbCircle
 10
0.9323553937007873
 20
1.3810122834645673
 30
0.0
 40
0.0625
  0
CIRCLE
  5
150
330
17
100
AcDbEntity
  8
Holes_T25
100
AcDbCircle
 10
1.1289125590551181
 20
1.3721760629921262
 30
0.0
 40
0.0625
  0
CIRCLE
  5
151
330
17
100
AcDbEntity
  8
Holes_T25
100
AcDbCircle
 10
1.3235912992125984
 20
1.3774012598425196
 30
0.0
 40
0.0625
  0
CIRCLE
  5
152
330
17
100
AcDbEntity
  8
Holes_T25
100
AcDbCircle
 10
1.271803818897638
 20
1.5257570078740157
 30
0.0
 40
0.0625
  0
CIRCLE
  5
153
330
17
100
AcDbEntity
  8
Holes_T25
100
AcDbCircle
 10
1.0799351181102363
 20
1.5643731496062994
 30
0.0
 40
0.0625
  0
CIRCLE
  5
154
330
17
100
AcDbEntity
  8
Holes_T25
100
AcDbCircle
 10
0.8832031496062993
 20
1.562574881889764
 30
0.0
 40
0.0625
  0
CIRCLE
  5
155
330
17
100
AcDbEntity
  8
Holes_T25
100
AcDbCircle
 10
0.6873325196850394
 20
1.543356220472441
 30
0.0
 40
0.0625
  0
CIRCLE
  5
156
330
17
100
AcDbEntity
  8
Holes_T25
100
AcDbCircle
 10
0.49237460629921265
 20
1.5161380708661418
 30
0.0
 40
0.0625
  0
CIRCLE
  5
157
330
17
100
AcDbEntity
  8
Holes_T25
100
AcDbCircle
 10
0.2369281496062992
 20
1.4990251574803153
 30
0.0
 40
0.0625
  0
CIRCLE
  5
158
330
17
100
AcDbEntity
  8
Holes_T25
100
AcDbCircle
 10
0.38429324803149606
 20
1.6212145275590553
 30
0.0
 40
0.0625
  0
CIRCLE
  5
159
330
17
100
AcDbEntity
  8
Holes_T25
100
AcDbCircle
 10
0.5756468503937008
 20
1.6671317716535432
 30
0.0
 40
0.0625
  0
CIRCLE
  5
15A
330
17
100
AcDbEntity
  8
Holes_T25
100
AcDbCircle
 10
0.7687059448818897
 20
1.705577125984252
 30
0.0
 40
0.0625
  0
CIRCLE
  5
15B
330
17
100
AcDbEntity
  8
Holes_T25
100
AcDbCircle
 10
0.9578946456692914
 20
1.7580693307086614
 30
0.0
 40
0.0625
  0
CIRCLE
  5
15C
330
17
100
AcDbEntity
  8
Holes_T25
100
AcDbCircle
 10
0.8343227952755906
 20
1.8526282677165355
 30
0.0
 40
0.0625
  0
CIRCLE
  5
15D
330
17
100
AcDbEntity
  8
Holes_T25
100
AcDbCircle
 10
0.6430893307086614
 20
1.8990650787401575
 30
0.0
 40
0.0625
  0
CIRCLE
  5
15E
330
17
100
AcDbEntity
  8
Holes_T25
100
AcDbCircle
 10
0.3387107007874016
 20
1.8558579921259843
 30
0.0
 40
0.0625
  0
CIRCLE
  5
15F
330
17
100
AcDbEntity
  8
Holes_T25
100
AcDbCircle
 10
0.43105405511811024
 20
1.998796102362205
 30
0.0
 40
0.0625
  0
CIRCLE
  5
160
330
17
100
AcDbEntity
  8
Holes_T25
100
AcDbCircle
 10
0.5969283070866143
 20
2.0997713385826775
 30
0.0
 40
0.0625
  0
CIRCLE
  5
161
330
17
100
AcDbEntity
  8
Holes_T25
100
AcDbCircle
 10
0.5774944488188977
 20
2.2722986220472445
 30
0.0
 40
0.0625
  0
CIRCLE
  5
162
330
17
100
AcDbEntity
  8
Holes_T25
100
AcDbCircle
 10
0.39775696850393705
 20
2.3508544488188976
 30
0.0
 40
0.0625
  0
CIRCLE
  5
163
330
17
100
AcDbEntity
  8
Holes_T25
100
AcDbCircle
 10
0.23340218897637796
 20
2.4506639370078744
 30
0.0
 40
0.0625
  0
CIRCLE
  5
164
330
17
100
AcDbEntity
  8
Holes_T25
100
AcDbCircle
 10
0.24462228346456694
 20
2.641881299212599
 30
0.0
 40
0.0625
  0
CIRCLE
  5
165
330
17
100
AcDbEntity
  8
Holes_T25
100
AcDbCircle
 10
0.3396135984251969
 20
2.813158976377953
 30
0.0
 40
0.0625
  0
CIRCLE
  5
166
330
17
100
AcDbEntity
  8
Holes_T25
100
AcDbCircle
 10
0.5114022440944882
 20
2.861149173228347
 30
0.0
 40
0.0625
  0
CIRCLE
  5
167
330
17
100
AcDbEntity
  8
Holes_T25
100
AcDbCircle
 10
0.6471731102362205
 20
2.721094606299213
 30
0.0
 40
0.0625
  0
CIRCLE
  5
168
330
17
100
AcDbEntity
  8
Holes_T25
100
AcDbCircle
 10
0.7406999212598425
 20
2.548222007874016
 30
0.0
 40
0.0625
  0
CIRCLE
  5
169
330
17
100
AcDbEntity
  8
Holes_T25
100
AcDbCircle
 10
0.9272371653543308
 20
2.5208222834645673
 30
0.0
 40
0.0625
  0
CIRCLE
  5
16A
330
17
100
AcDbEntity
  8
Holes_T25
100
AcDbCircle
 10
1.148137125984252
 20
2.5388441338582677
 30
0.0
 40
0.0625
  0
CIRCLE
  5
16B
330
17
100
AcDbEntity
  8
Holes_T25
100
AcDbCircle
 10
1.1826241732283467
 20
2.745507992125985
 30
0.0
 40
0.0625
  0
CIRCLE
  5
16C
330
17
100
AcDbEntity
  8
Holes_T25
100
AcDbCircle
 10
0.9849541338582678
 20
2.7266722440944884
 30
0.0
 40
0.0625
  0
CIRCLE
  5
16D
330
17
100
AcDbEntity
  8
Holes_T25
100
AcDbCircle
 10
0.8380242913385828
 20
2.8333440551181104
 30
0.0
 40
0.0625
  0
CIRCLE
  5
16E
330
17
100
AcDbEntity
  8
Holes_T25
100
AcDbCircle
 10
1.0229073622047244
 20
2.887309330708662
 30
0.0
 40
0.0625
  0
CIRCLE
  5
16F
330
17
100
AcDbEntity
  8
Holes_T25
100
AcDbCircle
 10
1.2195079921259844
 20
2.8951947244094494
 30
0.0
 40
0.0625
  0
CIRCLE
  5
170
330
17
100
AcDbEntity
  8
Holes_T25
100
AcDbCircle
 10
1.4158993700787403
 20
2.8832190157480313
 30
0.0
 40
0.0625
  0
CIRCLE
  5
171
330
17
100
AcDbEntity
  8
Holes_T25
100
AcDbCircle
 10
1.6104143307086616
 20
2.8531860629921257
 30
0.0
 40
0.0625
  0
CIRCLE
  5
172
330
17
100
AcDbEntity
  8
Holes_T25
100
AcDbCircle
 10
1.8582465354330708
 20
2.8118502362204727
 30
0.0
 40
0.0625
  0
CIRCLE
  5
173
330
17
100
AcDbEntity
  8
Holes_T25
100
AcDbCircle
 10
1.7202279921259842
 20
2.950503188976378
 30
0.0
 40
0.0625
  0
CIRCLE
  5
174
330
17
100
AcDbEntity
  8
Holes_T25
100
AcDbCircle
 10
1.5287060629921263
 20
2.9951217322834647
 30
0.0
 40
0.0625
  0
CIRCLE
  5
175
330
17
100
AcDbEntity
  8
Holes_T25
100
AcDbCircle
 10
1.3341235039370078
 20
3.0248634251968505
 30
0.0
 40
0.0625
  0
CIRCLE
  5
176
330
17
100
AcDbEntity
  8
Holes_T25
100
AcDbCircle
 10
1.139343503937008
 20
3.053323385826772
 30
0.0
 40
0.0625
  0
CIRCLE
  5
177
330
17
100
AcDbEntity
  8
Holes_T25
100
AcDbCircle
 10
0.9474136220472441
 20
3.0960135039370082
 30
0.0
 40
0.0625
  0
CIRCLE
  5
178
330
17
100
AcDbEntity
  8
Holes_T25
100
AcDbCircle
 10
0.8701059448818899
 20
3.2931248818897636
 30
0.0
 40
0.0625
  0
CIRCLE
  5
179
330
17
100
AcDbEntity
  8
Holes_T25
100
AcDbCircle
 10
1.067278031496063
 20
3.2780058661417324
 30
0.0
 40
0.0625
  0
CIRCLE
  5
17A
330
17
100
AcDbEntity
  8
Holes_T25
100
AcDbCircle
 10
1.2634891732283464
 20
3.264086811023622
 30
0.0
 40
0.0625
  0
CIRCLE
  5
17B
330
17
100
AcDbEntity
  8
Holes_T25
100
AcDbCircle
 10
1.4584072047244094
 20
3.2366139763779525
 30
0.0
 40
0.0625
  0
CIRCLE
  5
17C
330
17
100
AcDbEntity
  8
Holes_T25
100
AcDbCircle
 10
1.6531649212598427
 20
3.207999448818898
 30
0.0
 40
0.0625
  0
CIRCLE
  5
17D
330
17
100
AcDbEntity
  8
Holes_T25
100
AcDbCircle
 10
1.853861535433071
 20
3.13685531496063
 30
0.0
 40
0.0625
  0
CIRCLE
  5
17E
330
17
100
AcDbEntity
  8
Holes_T25
100
AcDbCircle
 10
1.9737383858267719
 20
3.253538385826772
 30
0.0
 40
0.0625
  0
CIRCLE
  5
17F
330
17
100
AcDbEntity
  8
Holes_T25
100
AcDbCircle
 10
1.7917788188976378
 20
3.327034133858268
 30
0.0
 40
0.0625
  0
CIRCLE
  5
180
330
17
100
AcDbEntity
  8
Holes_T25
100
AcDbCircle
 10
1.6019921259842522
 20
3.37921031496063
 30
0.0
 40
0.0625
  0
CIRCLE
  5
181
330
17
100
AcDbEntity
  8
Holes_T25
100
AcDbCircle
 10
1.41017094488189
 20
3.423370196850394
 30
0.0
 40
0.0625
  0
CIRCLE
  5
182
330
17
100
AcDbEntity
  8
Holes_T25
100
AcDbCircle
 10
1.2177362992125986
 20
3.4647333070866146
 30
0.0
 40
0.0625
  0
CIRCLE
  5
183
330
17
100
AcDbEntity
  8
Holes_T25
100
AcDbCircle
 10
1.037154842519685
 20
3.5410325590551186
 30
0.0
 40
0.0625
  0
CIRCLE
  5
184
330
17
100
AcDbEntity
  8
Holes_T25
100
AcDbCircle
 10
0.9995541338582677
 20
3.7166493543307086
 30
0.0
 40
0.0625
  0
CIRCLE
  5
185
330
17
100
AcDbEntity
  8
Holes_T25
100
AcDbCircle
 10
1.191664094488189
 20
3.7216599960629924
 30
0.0
 40
0.0625
  0
CIRCLE
  5
186
330
17
100
AcDbEntity
  8
Holes_T25
100
AcDbCircle
 10
1.3883003543307089
 20
3.7197227440944887
 30
0.0
 40
0.0625
  0
CIRCLE
  5
187
330
17
100
AcDbEntity
  8
Holes_T25
100
AcDbCircle
 10
1.5814266141732285
 20
3.683425610236221
 30
0.0
 40
0.0625
  0
CIRCLE
  5
188
330
17
100
AcDbEntity
  8
Holes_T25
100
AcDbCircle
 10
1.765104724409449
 20
3.613037169291339
 30
0.0
 40
0.0625
  0
CIRCLE
  5
189
330
17
100
AcDbEntity
  8
Holes_T25
100
AcDbCircle
 10
1.9491476771653544
 20
3.5460932165354335
 30
0.0
 40
0.0625
  0
CIRCLE
  5
18A
330
17
100
AcDbEntity
  8
Holes_T25
100
AcDbCircle
 10
2.0916033070866145
 20
3.6294948385826773
 30
0.0
 40
0.0625
  0
CIRCLE
  5
18B
330
17
100
AcDbEntity
  8
Holes_T25
100
AcDbCircle
 10
1.9283462204724409
 20
3.7964378622047246
 30
0.0
 40
0.0625
  0
CIRCLE
  5
18C
330
17
100
AcDbEntity
  8
Holes_T25
100
AcDbCircle
 10
2.1247597637795277
 20
3.80823688976378
 30
0.0
 40
0.0625
  0
CIRCLE
  5
18D
330
17
100
AcDbEntity
  8
Holes_T25
100
AcDbCircle
 10
2.321551614173228
 20
3.8065440275590556
 30
0.0
 40
0.0625
  0
CIRCLE
  5
18E
330
17
100
AcDbEntity
  8
Holes_T25
100
AcDbCircle
 10
2.5071269291338583
 20
3.7525825157480317
 30
0.0
 40
0.0625
  0
CIRCLE
  5
18F
330
17
100
AcDbEntity
  8
Holes_T25
100
AcDbCircle
 10
2.6821138976377954
 20
3.688459401574803
 30
0.0
 40
0.0625
  0
CIRCLE
  5
190
330
17
100
AcDbEntity
  8
Holes_T25
100
AcDbCircle
 10
2.799730511811024
 20
3.8330542559055116
 30
0.0
 40
0.0625
  0
CIRCLE
  5
191
330
17
100
AcDbEntity
  8
Holes_T25
100
AcDbCircle
 10
2.991444409448819
 20
3.8668477165354336
 30
0.0
 40
0.0625
  0
CIRCLE
  5
192
330
17
100
AcDbEntity
  8
Holes_T25
100
AcDbCircle
 10
3.1877335826771658
 20
3.854800787401575
 30
0.0
 40
0.0625
  0
CIRCLE
  5
193
330
17
100
AcDbEntity
  8
Holes_T25
100
AcDbCircle
 10
3.381879842519685
 20
3.822346637795276
 30
0.0
 40
0.0625
  0
CIRCLE
  5
194
330
17
100
AcDbEntity
  8
Holes_T25
100
AcDbCircle
 10
3.5773479921259845
 20
3.8201800472440945
 30
0.0
 40
0.0625
  0
SPLINE
  5
196
330
17
100
AcDbEntity
  8
TrackPath_T25
100
AcDbSpline
 70
0
 71
3
 72
0
 73
0
 74
98
 11
0.13580619685039372
 21
0.3449340551181102
 31
0.0
 11
0.3324347480314961
 21
0.3542766141732284
 31
0.0
 11
0.5290353543307087
 21
0.3641872047244094
 31
0.0
 11
0.7255637795275591
 21
0.3754313779527558
 31
0.0
 11
0.9219133070866142
 21
0.389422755905512
 31
0.0
 11
1.1176217322834647
 21
0.4103194094488188
 31
0.0
 11
1.2873928346456693
 21
0.4813833464566929
 31
0.0
 11
1.1185488976377953
 21
0.5739579133858267
 31
0.0
 11
0.925039094488189
 21
0.6077842519685039
 31
0.0
 11
0.7283377165354331
 21
0.6057562204724408
 31
0.0
 11
0.5320850787401575
 21
0.5904982283464567
 31
0.0
 11
0.342034937007874
 21
0.6206510629921261
 31
0.0
 11
0.4062048425196851
 21
0.7766660629921259
 31
0.0
 11
0.5937926771653543
 21
0.8332870472440946
 31
0.0
 11
0.7893173228346457
 21
0.8554501574803147
 31
0.0
 11
0.9859544488188977
 21
0.8641660236220471
 31
0.0
 11
1.1827494881889764
 21
0.8683039370078739
 31
0.0
 11
1.3565467322834648
 21
0.9401491732283466
 31
0.0
 11
1.2835820866141732
 21
1.0936880314960629
 31
0.0
 11
1.088794409448819
 21
1.1134077952755905
 31
0.0
 11
0.8926196062992127
 21
1.0978440157480316
 31
0.0
 11
0.6975717322834646
 21
1.071334527559055
 31
0.0
 11
0.502976811023622
 21
1.041622992125984
 31
0.0
 11
0.3072507283464567
 21
1.0223828740157481
 31
0.0
 11
0.1619475472440945
 21
1.1353594881889766
 31
0.0
 11
0.36041176771653544
 21
1.2493716535433068
 31
0.0
 11
0.5450338582677166
 21
1.317180196850394
 31
0.0
 11
0.7366426771653544
 21
1.3618328346456692
 31
0.0
 11
0.9323553937007873
 21
1.3810122834645673
 31
0.0
 11
1.1289125590551181
 21
1.3721760629921262
 31
0.0
 11
1.3235912992125984
 21
1.3774012598425196
 31
0.0
 11
1.271803818897638
 21
1.5257570078740157
 31
0.0
 11
1.0799351181102363
 21
1.5643731496062994
 31
0.0
 11
0.8832031496062993
 21
1.562574881889764
 31
0.0
 11
0.6873325196850394
 21
1.543356220472441
 31
0.0
 11
0.49237460629921265
 21
1.5161380708661418
 31
0.0
 11
0.2369281496062992
 21
1.4990251574803153
 31
0.0
 11
0.38429324803149606
 21
1.6212145275590553
 31
0.0
 11
0.5756468503937008
 21
1.6671317716535432
 31
0.0
 11
0.7687059448818897
 21
1.705577125984252
 31
0.0
 11
0.9578946456692914
 21
1.7580693307086614
 31
0.0
 11
0.8343227952755906
 21
1.8526282677165355
 31
0.0
 11
0.6430893307086614
 21
1.8990650787401575
 31
0.0
 11
0.3387107007874016
 21
1.8558579921259843
 31
0.0
 11
0.43105405511811024
 21
1.998796102362205
 31
0.0
 11
0.5969283070866143
 21
2.0997713385826775
 31
0.0
 11
0.5774944488188977
 21
2.2722986220472445
 31
0.0
 11
0.39775696850393705
 21
2.3508544488188976
 31
0.0
 11
0.23340218897637796
 21
2.4506639370078744
 31
0.0
 11
0.24462228346456694
 21
2.641881299212599
 31
0.0
 11
0.3396135984251969
 21
2.813158976377953
 31
0.0
 11
0.5114022440944882
 21
2.861149173228347
 31
0.0
 11
0.6471731102362205
 21
2.721094606299213
 31
0.0
 11
0.7406999212598425
 21
2.548222007874016
 31
0.0
 11
0.9272371653543308
 21
2.5208222834645673
 31
0.0
 11
1.148137125984252
 21
2.5388441338582677
 31
0.0
 11
1.1826241732283467
 21
2.745507992125985
 31
0.0
 11
0.9849541338582678
 21
2.7266722440944884
 31
0.0
 11
0.8380242913385828
 21
2.8333440551181104
 31
0.0
 11
1.0229073622047244
 21
2.887309330708662
 31
0.0
 11
1.2195079921259844
 21
2.8951947244094494
 31
0.0
 11
1.4158993700787403
 21
2.8832190157480313
 31
0.0
 11
1.6104143307086616
 21
2.8531860629921257
 31
0.0
 11
1.8582465354330708
 21
2.8118502362204727
 31
0.0
 11
1.7202279921259842
 21
2.950503188976378
 31
0.0
 11
1.5287060629921263
 21
2.9951217322834647
 31
0.0
 11
1.3341235039370078
 21
3.0248634251968505
 31
0.0
 11
1.139343503937008
 21
3.053323385826772
 31
0.0
 11
0.9474136220472441
 21
3.0960135039370082
 31
0.0
 11
0.8701059448818899
 21
3.2931248818897636
 31
0.0
 11
1.067278031496063
 21
3.2780058661417324
 31
0.0
 11
1.2634891732283464
 21
3.264086811023622
 31
0.0
 11
1.4584072047244094
 21
3.2366139763779525
 31
0.0
 11
1.6531649212598427
 21
3.207999448818898
 31
0.0
 11
1.853861535433071
 21
3.13685531496063
 31
0.0
 11
1.9737383858267719
 21
3.253538385826772
 31
0.0
 11
1.7917788188976378
 21
3.327034133858268
 31
0.0
 11
1.6019921259842522
 21
3.37921031496063
 31
0.0
 11
1.41017094488189
 21
3.423370196850394
 31
0.0
 11
1.2177362992125986
 21
3.4647333070866146
 31
0.0
 11
1.037154842519685
 21
3.5410325590551186
 31
0.0
 11
0.9995541338582677
 21
3.7166493543307086
 31
0.0
 11
1.191664094488189
 21
3.7216599960629924
 31
0.0
 11
1.3883003543307089
 21
3.7197227440944887
 31
0.0
 11
1.5814266141732285
 21
3.683425610236221
 31
0.0
 11
1.765104724409449
 21
3.613037169291339
 31
0.0
 11
1.9491476771653544
 21
3.5460932165354335
 31
0.0
 11
2.0916033070866145
 21
3.6294948385826773
 31
0.0
 11
1.9283462204724409
 21
3.7964378622047246
 31
0.0
 11
2.1247597637795277
 21
3.80823688976378
 31
0.0
 11
2.321551614173228
 21
3.8065440275590556
 31
0.0
 11
2.5071269291338583
 21
3.7525825157480317
 31
0.0
 11
2.6821138976377954
 21
3.688459401574803
 31
0.0
 11
2.799730511811024
 21
3.8330542559055116
 31
0.0
 11
2.991444409448819
 21
3.8668477165354336
 31
0.0
 11
3.1877335826771658
 21
3.854800787401575
 31
0.0
 11
3.381879842519685
 21
3.822346637795276
 31
0.0
 11
3.5773479921259845
 21
3.8201800472440945
 31
0.0
  0
LWPOLYLINE
  5
198
330
17
100
AcDbEntity
  8
NumMarks_T25
100
AcDbPolyline
 90
2
 70
0
 10
0.9108337228062814
 20
0.5139307589100378
 10
0.9329928913669471
 20
0.2649147529009862
  0
LWPOLYLINE
  5
199
330
17
100
AcDbEntity
  8
NumMarks_T25
100
AcDbPolyline
 90
2
 70
0
 10
0.718221242588844
 20
0.4801903111662602
 10
0.7072343828390674
 20
0.7299487723098994
  0
LWPOLYLINE
  5
19A
330
17
100
AcDbEntity
  8
NumMarks_T25
100
AcDbPolyline
 90
2
 70
0
 10
0.7494410502317989
 20
0.48156366863498223
 10
0.7384541904820222
 20
0.7313221297786214
  0
LWPOLYLINE
  5
19B
330
17
100
AcDbEntity
  8
NumMarks_T25
100
AcDbPolyline
 90
2
 70
0
 10
0.779505143325592
 20
0.9800644469229067
 10
0.7991295023436995
 20
0.7308358680377227
  0
LWPOLYLINE
  5
19C
330
17
100
AcDbEntity
  8
NumMarks_T25
100
AcDbPolyline
 90
2
 70
0
 10
1.0718416002807454
 20
0.9885809436517877
 10
1.0744989840889387
 20
1.2385668198754174
  0
LWPOLYLINE
  5
19D
330
17
100
AcDbEntity
  8
NumMarks_T25
100
AcDbPolyline
 90
2
 70
0
 10
1.103089834808699
 20
0.9882487706757636
 10
1.1057472186168924
 20
1.2382346468993934
  0
LWPOLYLINE
  5
19E
330
17
100
AcDbEntity
  8
NumMarks_T25
100
AcDbPolyline
 90
2
 70
0
 10
0.04024080996125179
 20
1.163863349330322
 10
0.2836542845269372
 20
1.106855627047631
  0
LWPOLYLINE
  5
19F
330
17
100
AcDbEntity
  8
NumMarks_T25
100
AcDbPolyline
 90
2
 70
0
 10
1.1456905676502984
 20
1.4970265297616985
 10
1.143383219467684
 20
1.247037177699727
  0
LWPOLYLINE
  5
1A0
330
17
100
AcDbEntity
  8
NumMarks_T25
100
AcDbPolyline
 90
2
 70
0
 10
1.1144418986425522
 20
1.4973149482845254
 10
1.1121345504599378
 20
1.247325596222554
  0
LWPOLYLINE
  5
1A1
330
17
100
AcDbEntity
  8
NumMarks_T25
100
AcDbPolyline
 90
2
 70
0
 10
0.70208082184791
 20
1.4192293193457606
 10
0.6725842175221688
 20
1.6674831215991213
  0
LWPOLYLINE
  5
1A2
330
17
100
AcDbEntity
  8
NumMarks_T25
100
AcDbPolyline
 90
2
 70
0
 10
0.7549763627474126
 20
1.8307994850077614
 10
0.8128370436334005
 20
1.5875873520714912
  0
LWPOLYLINE
  5
1A3
330
17
100
AcDbEntity
  8
NumMarks_T25
100
AcDbPolyline
 90
2
 70
0
 10
0.7245748461303789
 20
1.823566899897013
 10
0.7824355270163668
 20
1.5803547669607427
  0
LWPOLYLINE
  5
1A4
330
17
100
AcDbEntity
  8
NumMarks_T25
100
AcDbPolyline
 90
2
 70
0
 10
0.34521845747349844
 20
2.089665515131257
 10
0.516889652762722
 20
1.907926689593153
  0
LWPOLYLINE
  5
1A5
330
17
100
AcDbEntity
  8
NumMarks_T25
100
AcDbPolyline
 90
2
 70
0
 10
0.12905883486835143
 20
2.6920233970301997
 10
0.36897260387446223
 20
2.6217284225207615
  0
LWPOLYLINE
  5
1A6
330
17
100
AcDbEntity
  8
NumMarks_T25
100
AcDbPolyline
 90
2
 70
0
 10
0.12027196305467168
 20
2.662034175904436
 10
0.36018573206078247
 20
2.591739201394998
  0
LWPOLYLINE
  5
1A7
330
17
100
AcDbEntity
  8
NumMarks_T25
100
AcDbPolyline
 90
2
 70
0
 10
0.9301134953860163
 20
2.64578918598499
 10
0.9243608353226452
 20
2.3958553809441447
  0
LWPOLYLINE
  5
1A8
330
17
100
AcDbEntity
  8
NumMarks_T25
100
AcDbPolyline
 90
2
 70
0
 10
1.0183257051146475
 20
3.0131987625260663
 10
1.0583362130624678
 20
2.766421212384735
  0
LWPOLYLINE
  5
1A9
330
17
100
AcDbEntity
  8
NumMarks_T25
100
AcDbPolyline
 90
2
 70
0
 10
0.9874785113469811
 20
3.008197449032589
 10
1.0274890192948014
 20
2.7614198988912575
  0
LWPOLYLINE
  5
1AA
330
17
100
AcDbEntity
  8
NumMarks_T25
100
AcDbPolyline
 90
2
 70
0
 10
1.659473626481482
 20
2.841260765645814
 10
1.7809823577704864
 20
3.059745612306942
  0
LWPOLYLINE
  5
1AB
330
17
100
AcDbEntity
  8
NumMarks_T25
100
AcDbPolyline
 90
2
 70
0
 10
0.7743081367016879
 20
3.374929041764853
 10
0.9830925367796463
 20
3.237418772024419
  0
LWPOLYLINE
  5
1AC
330
17
100
AcDbEntity
  8
NumMarks_T25
100
AcDbPolyline
 90
2
 70
0
 10
0.7571193529841335
 20
3.3488309917551082
 10
0.9659037530620919
 20
3.211320722014674
  0
LWPOLYLINE
  5
1AD
330
17
100
AcDbEntity
  8
NumMarks_T25
100
AcDbPolyline
 90
2
 70
0
 10
1.8362812050437254
 20
3.2606128681984083
 10
1.8714418658224166
 20
3.013097761722852
  0
LWPOLYLINE
  5
1AE
330
17
100
AcDbEntity
  8
NumMarks_T25
100
AcDbPolyline
 90
2
 70
0
 10
1.1652320521719814
 20
3.350223723785924
 10
1.2404380566087192
 20
3.5886436409418976
  0
LWPOLYLINE
  5
1AF
330
17
100
AcDbEntity
  8
NumMarks_T25
100
AcDbPolyline
 90
2
 70
0
 10
1.195034541816478
 20
3.3408229732313317
 10
1.2702405462532158
 20
3.5792428903873055
  0
LWPOLYLINE
  5
1B0
330
17
100
AcDbEntity
  8
NumMarks_T25
100
AcDbPolyline
 90
2
 70
0
 10
1.6154795788606997
 20
3.8036977832272907
 10
1.5473736494857573
 20
3.563153437245151
  0
LWPOLYLINE
  5
1B1
330
17
100
AcDbEntity
  8
NumMarks_T25
100
AcDbPolyline
 90
2
 70
0
 10
2.1371679159843944
 20
3.9335970843386963
 10
2.1435912949224822
 20
3.6836796175561246
  0
LWPOLYLINE
  5
1B2
330
17
100
AcDbEntity
  8
NumMarks_T25
100
AcDbPolyline
 90
2
 70
0
 10
2.105928232636573
 20
3.9327941619714353
 10
2.112351611574661
 20
3.6828766951888636
  0
LWPOLYLINE
  5
1B3
330
17
100
AcDbEntity
  8
NumMarks_T25
100
AcDbPolyline
 90
2
 70
0
 10
2.9844494726887554
 20
3.9916518465140634
 10
2.9984393462088823
 20
3.742043586556804
  0
LWPOLYLINE
  5
1B5
330
17
100
AcDbEntity
  8
Events_T23
100
AcDbPolyline
 90
2
 70
0
 10
3.4448499606299214
 20
0.15439779527559078
 10
3.5135511417322833
 20
0.33089834645669314
  0
LWPOLYLINE
  5
1B6
330
17
100
AcDbEntity
  8
Events_T23
100
AcDbPolyline
 90
2
 70
0
 10
3.2489141732283464
 20
0.13561157480314978
 10
3.317130433070866
 20
0.34327039370078716
  0
LWPOLYLINE
  5
1B7
330
17
100
AcDbEntity
  8
Events_T23
100
AcDbPolyline
 90
2
 70
0
 10
2.8558822440944884
 20
0.11295818897637822
 10
2.9234711023622046
 20
0.3448411811023623
  0
LWPOLYLINE
  5
1B8
330
17
100
AcDbEntity
  8
Events_T23
100
AcDbPolyline
 90
2
 70
0
 10
3.1203038582677167
 20
0.34528555118110227
 10
3.239796141732284
 20
0.5370857480314959
  0
LWPOLYLINE
  5
1B9
330
17
100
AcDbEntity
  8
Events_T23
100
AcDbPolyline
 90
2
 70
0
 10
3.72279125984252
 20
0.3357842125984253
 10
3.4349882677165353
 20
0.5625329133858269
  0
LWPOLYLINE
  5
1BA
330
17
100
AcDbEntity
  8
Events_T23
100
AcDbPolyline
 90
2
 70
0
 10
3.0454493307086614
 20
0.5061335826771656
 10
3.2242023622047244
 20
0.9971186220472442
  0
LWPOLYLINE
  5
1BB
330
17
100
AcDbEntity
  8
Events_T23
100
AcDbPolyline
 90
2
 70
0
 10
2.8448182677165357
 20
0.4585558267716535
 10
2.8343270472440945
 20
0.6837642519685038
  0
LWPOLYLINE
  5
1BC
330
17
100
AcDbEntity
  8
Events_T23
100
AcDbPolyline
 90
2
 70
0
 10
2.371762086614173
 20
1.235205984251969
 10
2.457798031496063
 20
1.6631524015748032
  0
LWPOLYLINE
  5
1BD
330
17
100
AcDbEntity
  8
Events_T23
100
AcDbPolyline
 90
2
 70
0
 10
3.4720262992125988
 20
2.2067288188976377
 10
3.4616116535433075
 20
2.434670511811024
  0
LWPOLYLINE
  5
1BE
330
17
100
AcDbEntity
  8
Events_T23
100
AcDbPolyline
 90
2
 70
0
 10
3.3434754724409452
 20
2.529129921259843
 10
3.311043070866142
 20
2.8603535826771656
  0
CIRCLE
  5
1C0
330
17
100
AcDbEntity
  8
RampingMarks_T23
100
AcDbCircle
 10
3.092678846620712
 20
0.63585997408675
 30
0.0
 40
0.03125
  0
LWPOLYLINE
  5
1C2
330
17
100
AcDbEntity
  8
Events_T24
100
AcDbPolyline
 90
2
 70
0
 10
1.6746072440944884
 20
0.5626422047244094
 10
1.5258818897637796
 20
0.7205740551181105
  0
LWPOLYLINE
  5
1C3
330
17
100
AcDbEntity
  8
Events_T24
100
AcDbPolyline
 90
2
 70
0
 10
1.8678788582677166
 20
0.5253658267716534
 10
1.721752283464567
 20
0.739775511811024
  0
LWPOLYLINE
  5
1C4
330
17
100
AcDbEntity
  8
Events_T24
100
AcDbPolyline
 90
2
 70
0
 10
1.3319695669291338
 20
0.6922322047244093
 10
1.5623981102362205
 20
1.0270528346456693
  0
LWPOLYLINE
  5
1C5
330
17
100
AcDbEntity
  8
Events_T24
100
AcDbPolyline
 90
2
 70
0
 10
1.887778307086614
 20
0.8234638976377953
 10
1.7775881102362205
 20
1.187236062992126
  0
LWPOLYLINE
  5
1C6
330
17
100
AcDbEntity
  8
Events_T24
100
AcDbPolyline
 90
2
 70
0
 10
2.055043700787402
 20
0.465611062992126
 10
1.9727682677165355
 20
1.2104253543307089
  0
LWPOLYLINE
  5
1C7
330
17
100
AcDbEntity
  8
Events_T24
100
AcDbPolyline
 90
2
 70
0
 10
2.335016968503937
 20
1.3581243700787402
 10
1.8876882677165356
 20
1.450009094488189
  0
LWPOLYLINE
  5
1C8
330
17
100
AcDbEntity
  8
Events_T24
100
AcDbPolyline
 90
2
 70
0
 10
2.0736911023622047
 20
1.514037913385827
 10
1.9705386220472443
 20
1.729579527559055
  0
LWPOLYLINE
  5
1C9
330
17
100
AcDbEntity
  8
Events_T24
100
AcDbPolyline
 90
2
 70
0
 10
1.0507450787401575
 20
1.9695079527559058
 10
0.9687903543307088
 20
2.3016109842519685
  0
LWPOLYLINE
  5
1CA
330
17
100
AcDbEntity
  8
Events_T24
100
AcDbPolyline
 90
2
 70
0
 10
1.6363421653543309
 20
1.9380873622047243
 10
1.721032440944882
 20
2.1808245275590554
  0
LWPOLYLINE
  5
1CB
330
17
100
AcDbEntity
  8
Events_T24
100
AcDbPolyline
 90
2
 70
0
 10
1.542933188976378
 20
2.2646536614173227
 10
1.496924291338583
 20
2.557904094488189
  0
LWPOLYLINE
  5
1CC
330
17
100
AcDbEntity
  8
Events_T24
100
AcDbPolyline
 90
2
 70
0
 10
1.4396653543307087
 20
1.9305406692913387
 10
1.3569571259842519
 20
2.328176535433071
  0
CIRCLE
  5
1CE
330
17
100
AcDbEntity
  8
RampingMarks_T24
100
AcDbCircle
 10
1.4126486776647775
 20
2.060428587834681
 30
0.0
 40
0.03125
  0
LWPOLYLINE
  5
1D0
330
17
100
AcDbEntity
  8
Events_T25
100
AcDbPolyline
 90
2
 70
0
 10
0.9859544488188977
 20
0.8641660236220471
 10
1.088794409448819
 20
1.1134077952755905
  0
LWPOLYLINE
  5
1D1
330
17
100
AcDbEntity
  8
Events_T25
100
AcDbPolyline
 90
2
 70
0
 10
0.7893173228346457
 20
0.8554501574803147
 10
0.8926196062992127
 20
1.0978440157480316
  0
LWPOLYLINE
  5
1D2
330
17
100
AcDbEntity
  8
Events_T25
100
AcDbPolyline
 90
2
 70
0
 10
0.4062048425196851
 20
0.7766660629921259
 10
0.502976811023622
 20
1.041622992125984
  0
LWPOLYLINE
  5
1D3
330
17
100
AcDbEntity
  8
Events_T25
100
AcDbPolyline
 90
2
 70
0
 10
0.6975717322834646
 20
1.071334527559055
 10
0.36041176771653544
 20
1.2493716535433068
  0
LWPOLYLINE
  5
1D4
330
17
100
AcDbEntity
  8
Events_T25
100
AcDbPolyline
 90
2
 70
0
 10
1.2835820866141732
 20
1.0936880314960629
 10
1.1289125590551181
 20
1.3721760629921262
  0
LWPOLYLINE
  5
1D5
330
17
100
AcDbEntity
  8
Events_T25
100
AcDbPolyline
 90
2
 70
0
 10
0.6873325196850394
 20
1.543356220472441
 10
0.7687059448818897
 20
1.705577125984252
  0
LWPOLYLINE
  5
1D6
330
17
100
AcDbEntity
  8
Events_T25
100
AcDbPolyline
 90
2
 70
0
 10
0.43105405511811024
 20
1.998796102362205
 10
0.39775696850393705
 20
2.3508544488188976
  0
LWPOLYLINE
  5
1D7
330
17
100
AcDbEntity
  8
Events_T25
100
AcDbPolyline
 90
2
 70
0
 10
0.23340218897637796
 20
2.4506639370078744
 10
0.6471731102362205
 20
2.721094606299213
  0
LWPOLYLINE
  5
1D8
330
17
100
AcDbEntity
  8
Events_T25
100
AcDbPolyline
 90
2
 70
0
 10
0.7406999212598425
 20
2.548222007874016
 10
0.9849541338582678
 20
2.7266722440944884
  0
LWPOLYLINE
  5
1D9
330
17
100
AcDbEntity
  8
Events_T25
100
AcDbPolyline
 90
2
 70
0
 10
1.271803818897638
 20
1.5257570078740157
 10
1.4158993700787403
 20
2.8832190157480313
  0
CIRCLE
  5
1DB
330
17
100
AcDbEntity
  8
RampingMarks_T25
100
AcDbCircle
 10
0.3478465991324066
 20
2.5254620362578493
 30
0.0
 40
0.03125
  0
CIRCLE
  5
1DC
330
17
100
AcDbEntity
  8
RampingMarks_T25
100
AcDbCircle
 10
1.2912645116415495
 20
1.7090877965780178
 30
0.0
 40
0.03125
  0
ENDSEC
  0
SECTION
  2
OBJECTS
  0
DICTIONARY
  5
A
330
0
100
AcDbDictionary
280
0
281
1
  3
ACAD_COLOR
350
B
  3
ACAD_GROUP
350
C
  3
ACAD_LAYOUT
350
D
  3
ACAD_MATERIAL
350
E
  3
ACAD_MLEADERSTYLE
350
F
  3
ACAD_MLINESTYLE
350
10
  3
ACAD_PLOTSETTINGS
350
11
  3
ACAD_PLOTSTYLENAME
350
12
  3
ACAD_SCALELIST
350
14
  3
ACAD_TABLESTYLE
350
15
  3
ACAD_VISUALSTYLE
350
16
  3
EZDXF_META
350
2D
  0
DICTIONARY
  5
B
330
A
100
AcDbDictionary
280
0
281
1
  0
DICTIONARY
  5
C
330
A
100
AcDbDictionary
280
0
281
1
  0
DICTIONARY
  5
D
330
A
100
AcDbDictionary
280
0
281
1
  3
Model
350
1A
  3
Layout1
350
1E
  0
DICTIONARY
  5
E
330
A
100
AcDbDictionary
280
0
281
1
  3
ByBlock
350
1F
  3
ByLayer
350
20
  3
Global
350
21
  0
DICTIONARY
  5
F
330
A
100
AcDbDictionary
280
0
281
1
  3
Standard
350
2C
  0
DICTIONARY
  5
10
330
A
100
AcDbDictionary
280
0
281
1
  3
Standard
350
22
  0
DICTIONARY
  5
11
330
A
100
AcDbDictionary
280
0
281
1
  0
ACDBDICTIONARYWDFLT
  5
12
330
A
100
AcDbDictionary
280
0
281
1
  3
Normal
350
13
100
AcDbDictionaryWithDefault
340
13
  0
ACDBPLACEHOLDER
  5
13
330
12
  0
DICTIONARY
  5
14
330
A
100
AcDbDictionary
280
0
281
1
  0
DICTIONARY
  5
15
330
A
100
AcDbDictionary
280
0
281
1
  0
DICTIONARY
  5
16
330
A
100
AcDbDictionary
280
0
281
1
  0
LAYOUT
  5
1A
330
D
100
AcDbPlotSettings
  1

  4
A3
  6

 40
7.5
 41
20.0
 42
7.5
 43
20.0
 44
420.0
 45
297.0
 46
0.0
 47
0.0
 48
0.0
 49
0.0
140
0.0
141
0.0
142
1.0
143
1.0
 70
1024
 72
1
 73
0
 74
5
  7

 75
16
 76
0
 77
2
 78
300
147
1.0
148
0.0
149
0.0
100
AcDbLayout
  1
Model
 70
1
 71
0
 10
0.0
 20
0.0
 11
420.0
 21
297.0
 12
0.0
 22
0.0
 32
0.0
 14
1e+20
 24
1e+20
 34
1e+20
 15
-1e+20
 25
-1e+20
 35
-1e+20
146
0.0
 13
0.0
 23
0.0
 33
0.0
 16
1.0
 26
0.0
 36
0.0
 17
0.0
 27
1.0
 37
0.0
 76
1
330
17
  0
LAYOUT
  5
1E
330
D
100
AcDbPlotSettings
  1

  4
A3
  6

 40
7.5
 41
20.0
 42
7.5
 43
20.0
 44
420.0
 45
297.0
 46
0.0
 47
0.0
 48
0.0
 49
0.0
140
0.0
141
0.0
142
1.0
143
1.0
 70
0
 72
1
 73
0
 74
5
  7

 75
16
 76
0
 77
2
 78
300
147
1.0
148
0.0
149
0.0
100
AcDbLayout
  1
Layout1
 70
1
 71
1
 10
0.0
 20
0.0
 11
420.0
 21
297.0
 12
0.0
 22
0.0
 32
0.0
 14
1e+20
 24
1e+20
 34
1e+20
 15
-1e+20
 25
-1e+20
 35
-1e+20
146
0.0
 13
0.0
 23
0.0
 33
0.0
 16
1.0
 26
0.0
 36
0.0
 17
0.0
 27
1.0
 37
0.0
 76
1
330
1B
  0
MATERIAL
  5
1F
102
{ACAD_REACTORS
330
E
102
}
330
E
100
AcDbMaterial
  1
ByBlock
  2

 70
0
 40
1.0
 71
1
 41
1.0
 91
-1023410177
 42
1.0
 72
1
  3

 73
1
 74
1
 75
1
 44
0.5
 73
0
 45
1.0
 46
1.0
 77
1
  4

 78
1
 79
1
170
1
 48
1.0
171
1
  6

172
1
173
1
174
1
140
1.0
141
1.0
175
1
  7

176
1
177
1
178
1
143
1.0
179
1
  8

270
1
271
1
272
1
145
1.0
146
1.0
273
1
  9

274
1
275
1
276
1
 42
1.0
 72
1
  3

 73
1
 74
1
 75
1
 94
63
  0
MATERIAL
  5
20
102
{ACAD_REACTORS
330
E
102
}
330
E
100
AcDbMaterial
  1
ByLayer
  2

 70
0
 40
1.0
 71
1
 41
1.0
 91
-1023410177
 42
1.0
 72
1
  3

 73
1
 74
1
 75
1
 44
0.5
 73
0
 45
1.0
 46
1.0
 77
1
  4

 78
1
 79
1
170
1
 48
1.0
171
1
  6

172
1
173
1
174
1
140
1.0
141
1.0
175
1
  7

176
1
177
1
178
1
143
1.0
179
1
  8

270
1
271
1
272
1
145
1.0
146
1.0
273
1
  9

274
1
275
1
276
1
 42
1.0
 72
1
  3

 73
1
 74
1
 75
1
 94
63
  0
MATERIAL
  5
21
102
{ACAD_REACTORS
330
E
102
}
330
E
100
AcDbMaterial
  1
Global
  2

 70
0
 40
1.0
 71
1
 41
1.0
 91
-1023410177
 42
1.0
 72
1
  3

 73
1
 74
1
 75
1
 44
0.5
 73
0
 45
1.0
 46
1.0
 77
1
  4

 78
1
 79
1
170
1
 48
1.0
171
1
  6

172
1
173
1
174
1
140
1.0
141
1.0
175
1
  7

176
1
177
1
178
1
143
1.0
179
1
  8

270
1
271
1
272
1
145
1.0
146
1.0
273
1
  9

274
1
275
1
276
1
 42
1.0
 72
1
  3

 73
1
 74
1
 75
1
 94
63
  0
MLINESTYLE
  5
22
102
{ACAD_REACTORS
330
10
102
}
330
10
100
AcDbMlineStyle
  2
Standard
 70
0
  3

 62
256
 51
90.0
 52
90.0
 71
2
 49
0.5
 62
256
  6
BYLAYER
 49
-0.5
 62
256
  6
BYLAYER
  0
MLEADERSTYLE
  5
2C
102
{ACAD_REACTORS
330
F
102
}
330
F
100
AcDbMLeaderStyle
179
2
170
2
171
1
172
0
 90
2
 40
0.0
 41
0.0
173
1
 91
-1056964608
 92
-2
290
1
 42
2.0
291
1
 43
8.0
  3
Standard
 44
4.0
300

342
29
174
1
175
1
176
0
178
1
 93
-1056964608
 45
4.0
292
0
297
0
 46
4.0
 94
-1056964608
 47
1.0
 49
1.0
140
1.0
294
1
141
0.0
177
0
142
1.0
295
0
296
0
143
3.75
271
0
272
9
273
9
  0
DICTIONARY
  5
2D
330
A
100
AcDbDictionary
281
1
  3
CREATED_BY_EZDXF
350
2E
  3
WRITTEN_BY_EZDXF
350
1DF
  0
DICTIONARYVAR
  5
2E
330
2D
100
DictionaryVariables
280
0
  1
1.3.3 @ 2024-09-01T20:24:17.396206+00:00
  0
DICTIONARYVAR
  5
1DF
330
2D
100
DictionaryVariables
280
0
  1
1.3.3 @ 2024-09-01T20:24:17.416824+00:00
  0
ENDSEC
  0
EOF
