  0
SECTION
  2
HEADER
  9
$ACADVER
  1
AC1024
  9
$ACADMAINTVER
 70
6
  9
$DWGCODEPAGE
  3
ANSI_1252
  9
$LASTSAVEDBY
  1
ezdxf
  9
$INSBASE
 10
0.0
 20
0.0
 30
0.0
  9
$EXTMIN
 10
1e+20
 20
1e+20
 30
1e+20
  9
$EXTMAX
 10
-1e+20
 20
-1e+20
 30
-1e+20
  9
$LIMMIN
 10
0.0
 20
0.0
  9
$LIMMAX
 10
420.0
 20
297.0
  9
$ORTHOMODE
 70
0
  9
$REGENMODE
 70
1
  9
$FILLMODE
 70
1
  9
$QTEXTMODE
 70
0
  9
$MIRRTEXT
 70
1
  9
$LTSCALE
 40
1.0
  9
$ATTMODE
 70
1
  9
$TEXTSIZE
 40
2.5
  9
$TRACEWID
 40
1.0
  9
$TEXTSTYLE
  7
Standard
  9
$CLAYER
  8
0
  9
$CELTYPE
  6
ByLayer
  9
$CECOLOR
 62
256
  9
$CELTSCALE
 40
1.0
  9
$DISPSILH
 70
0
  9
$DIMSCALE
 40
1.0
  9
$DIMASZ
 40
2.5
  9
$DIMEXO
 40
0.625
  9
$DIMDLI
 40
3.75
  9
$DIMRND
 40
0.0
  9
$DIMDLE
 40
0.0
  9
$DIMEXE
 40
1.25
  9
$DIMTP
 40
0.0
  9
$DIMTM
 40
0.0
  9
$DIMTXT
 40
2.5
  9
$DIMCEN
 40
2.5
  9
$DIMTSZ
 40
0.0
  9
$DIMTOL
 70
0
  9
$DIMLIM
 70
0
  9
$DIMTIH
 70
0
  9
$DIMTOH
 70
0
  9
$DIMSE1
 70
0
  9
$DIMSE2
 70
0
  9
$DIMTAD
 70
1
  9
$DIMZIN
 70
8
  9
$DIMBLK
  1

  9
$DIMASO
 70
1
  9
$DIMSHO
 70
1
  9
$DIMPOST
  1

  9
$DIMAPOST
  1

  9
$DIMALT
 70
0
  9
$DIMALTD
 70
3
  9
$DIMALTF
 40
0.03937007874
  9
$DIMLFAC
 40
1.0
  9
$DIMTOFL
 70
1
  9
$DIMTVP
 40
0.0
  9
$DIMTIX
 70
0
  9
$DIMSOXD
 70
0
  9
$DIMSAH
 70
0
  9
$DIMBLK1
  1

  9
$DIMBLK2
  1

  9
$DIMSTYLE
  2
ISO-25
  9
$DIMCLRD
 70
0
  9
$DIMCLRE
 70
0
  9
$DIMCLRT
 70
0
  9
$DIMTFAC
 40
1.0
  9
$DIMGAP
 40
0.625
  9
$DIMJUST
 70
0
  9
$DIMSD1
 70
0
  9
$DIMSD2
 70
0
  9
$DIMTOLJ
 70
0
  9
$DIMTZIN
 70
8
  9
$DIMALTZ
 70
0
  9
$DIMALTTZ
 70
0
  9
$DIMUPT
 70
0
  9
$DIMDEC
 70
2
  9
$DIMTDEC
 70
2
  9
$DIMALTU
 70
2
  9
$DIMALTTD
 70
3
  9
$DIMTXSTY
  7
Standard
  9
$DIMAUNIT
 70
0
  9
$DIMADEC
 70
0
  9
$DIMALTRND
 40
0.0
  9
$DIMAZIN
 70
0
  9
$DIMDSEP
 70
44
  9
$DIMATFIT
 70
3
  9
$DIMFRAC
 70
0
  9
$DIMLDRBLK
  1

  9
$DIMLUNIT
 70
1
  9
$DIMLWD
 70
-2
  9
$DIMLWE
 70
-2
  9
$DIMTMOVE
 70
0
  9
$DIMFXL
 40
1.0
  9
$DIMFXLON
 70
0
  9
$DIMJOGANG
 40
0.785398163397
  9
$DIMTFILL
 70
0
  9
$DIMTFILLCLR
 70
0
  9
$DIMARCSYM
 70
0
  9
$DIMLTYPE
  6

  9
$DIMLTEX1
  6

  9
$DIMLTEX2
  6

  9
$DIMTXTDIRECTION
 70
0
  9
$LUNITS
 70
2
  9
$LUPREC
 70
4
  9
$SKETCHINC
 40
1.0
  9
$FILLETRAD
 40
10.0
  9
$AUNITS
 70
0
  9
$AUPREC
 70
2
  9
$MENU
  1
.
  9
$ELEVATION
 40
0.0
  9
$PELEVATION
 40
0.0
  9
$THICKNESS
 40
0.0
  9
$LIMCHECK
 70
0
  9
$CHAMFERA
 40
0.0
  9
$CHAMFERB
 40
0.0
  9
$CHAMFERC
 40
0.0
  9
$CHAMFERD
 40
0.0
  9
$SKPOLY
 70
0
  9
$TDCREATE
 40
2460558.646689815
  9
$TDUCREATE
 40
2458532.153996898
  9
$TDUPDATE
 40
2460558.646689815
  9
$TDUUPDATE
 40
2458532.1544311
  9
$TDINDWG
 40
0.0
  9
$TDUSRTIMER
 40
0.0
  9
$USRTIMER
 70
1
  9
$ANGBASE
 50
0.0
  9
$ANGDIR
 70
0
  9
$PDMODE
 70
0
  9
$PDSIZE
 40
0.0
  9
$PLINEWID
 40
0.0
  9
$SPLFRAME
 70
0
  9
$SPLINETYPE
 70
6
  9
$SPLINESEGS
 70
8
  9
$HANDSEED
  5
250
  9
$SURFTAB1
 70
6
  9
$SURFTAB2
 70
6
  9
$SURFTYPE
 70
6
  9
$SURFU
 70
6
  9
$SURFV
 70
6
  9
$UCSBASE
  2

  9
$UCSNAME
  2

  9
$UCSORG
 10
0.0
 20
0.0
 30
0.0
  9
$UCSXDIR
 10
1.0
 20
0.0
 30
0.0
  9
$UCSYDIR
 10
0.0
 20
1.0
 30
0.0
  9
$UCSORTHOREF
  2

  9
$UCSORTHOVIEW
 70
0
  9
$UCSORGTOP
 10
0.0
 20
0.0
 30
0.0
  9
$UCSORGBOTTOM
 10
0.0
 20
0.0
 30
0.0
  9
$UCSORGLEFT
 10
0.0
 20
0.0
 30
0.0
  9
$UCSORGRIGHT
 10
0.0
 20
0.0
 30
0.0
  9
$UCSORGFRONT
 10
0.0
 20
0.0
 30
0.0
  9
$UCSORGBACK
 10
0.0
 20
0.0
 30
0.0
  9
$PUCSBASE
  2

  9
$PUCSNAME
  2

  9
$PUCSORG
 10
0.0
 20
0.0
 30
0.0
  9
$PUCSXDIR
 10
1.0
 20
0.0
 30
0.0
  9
$PUCSYDIR
 10
0.0
 20
1.0
 30
0.0
  9
$PUCSORTHOREF
  2

  9
$PUCSORTHOVIEW
 70
0
  9
$PUCSORGTOP
 10
0.0
 20
0.0
 30
0.0
  9
$PUCSORGBOTTOM
 10
0.0
 20
0.0
 30
0.0
  9
$PUCSORGLEFT
 10
0.0
 20
0.0
 30
0.0
  9
$PUCSORGRIGHT
 10
0.0
 20
0.0
 30
0.0
  9
$PUCSORGFRONT
 10
0.0
 20
0.0
 30
0.0
  9
$PUCSORGBACK
 10
0.0
 20
0.0
 30
0.0
  9
$USERI1
 70
0
  9
$USERI2
 70
0
  9
$USERI3
 70
0
  9
$USERI4
 70
0
  9
$USERI5
 70
0
  9
$USERR1
 40
0.0
  9
$USERR2
 40
0.0
  9
$USERR3
 40
0.0
  9
$USERR4
 40
0.0
  9
$USERR5
 40
0.0
  9
$WORLDVIEW
 70
1
  9
$SHADEDGE
 70
3
  9
$SHADEDIF
 70
70
  9
$TILEMODE
 70
1
  9
$MAXACTVP
 70
64
  9
$PINSBASE
 10
0.0
 20
0.0
 30
0.0
  9
$PLIMCHECK
 70
0
  9
$PEXTMIN
 10
1e+20
 20
1e+20
 30
1e+20
  9
$PEXTMAX
 10
-1e+20
 20
-1e+20
 30
-1e+20
  9
$PLIMMIN
 10
0.0
 20
0.0
  9
$PLIMMAX
 10
420.0
 20
297.0
  9
$UNITMODE
 70
0
  9
$VISRETAIN
 70
1
  9
$PLINEGEN
 70
0
  9
$PSLTSCALE
 70
1
  9
$TREEDEPTH
 70
3020
  9
$CMLSTYLE
  2
Standard
  9
$CMLJUST
 70
0
  9
$CMLSCALE
 40
20.0
  9
$PROXYGRAPHICS
 70
1
  9
$MEASUREMENT
 70
1
  9
$CELWEIGHT
370
-1
  9
$ENDCAPS
280
0
  9
$JOINSTYLE
280
0
  9
$LWDISPLAY
290
0
  9
$INSUNITS
 70
1
  9
$HYPERLINKBASE
  1

  9
$STYLESHEET
  1

  9
$XEDIT
290
1
  9
$CEPSNTYPE
380
0
  9
$PSTYLEMODE
290
1
  9
$FINGERPRINTGUID
  2
{E3BD242B-A6FA-4992-AE76-730FBCB9AA63}
  9
$VERSIONGUID
  2
{D68A1DAB-2186-4171-92A4-C7E3FA46E4FE}
  9
$EXTNAMES
290
1
  9
$PSVPSCALE
 40
0.0
  9
$OLESTARTUP
290
0
  9
$SORTENTS
280
127
  9
$INDEXCTL
280
0
  9
$HIDETEXT
280
1
  9
$XCLIPFRAME
280
1
  9
$HALOGAP
280
0
  9
$OBSCOLOR
 70
257
  9
$OBSLTYPE
280
0
  9
$INTERSECTIONDISPLAY
280
0
  9
$INTERSECTIONCOLOR
 70
257
  9
$DIMASSOC
280
2
  9
$PROJECTNAME
  1

  9
$CAMERADISPLAY
290
0
  9
$LENSLENGTH
 40
50.0
  9
$CAMERAHEIGHT
 40
0.0
  9
$STEPSPERSEC
 40
24.0
  9
$STEPSIZE
 40
100.0
  9
$3DDWFPREC
 40
2.0
  9
$PSOLWIDTH
 40
0.005
  9
$PSOLHEIGHT
 40
0.08
  9
$LOFTANG1
 40
1.570796326795
  9
$LOFTANG2
 40
1.570796326795
  9
$LOFTMAG1
 40
0.0
  9
$LOFTMAG2
 40
0.0
  9
$LOFTPARAM
 70
7
  9
$LOFTNORMALS
280
1
  9
$LATITUDE
 40
37.795
  9
$LONGITUDE
 40
-122.394
  9
$NORTHDIRECTION
 40
0.0
  9
$TIMEZONE
 70
-8000
  9
$LIGHTGLYPHDISPLAY
280
1
  9
$TILEMODELIGHTSYNCH
280
1
  9
$CMATERIAL
347
20
  9
$SOLIDHIST
280
0
  9
$SHOWHIST
280
1
  9
$DWFFRAME
280
2
  9
$DGNFRAME
280
2
  9
$REALWORLDSCALE
290
1
  9
$INTERFERECOLOR
 62
256
  9
$CSHADOW
280
0
  9
$SHADOWPLANELOCATION
 40
0.0
  0
ENDSEC
  0
SECTION
  2
CLASSES
  0
CLASS
  1
ACDBDICTIONARYWDFLT
  2
AcDbDictionaryWithDefault
  3
ObjectDBX Classes
 90
0
 91
0
280
0
281
0
  0
CLASS
  1
SUN
  2
AcDbSun
  3
SCENEOE
 90
1153
 91
0
280
0
281
0
  0
CLASS
  1
VISUALSTYLE
  2
AcDbVisualStyle
  3
ObjectDBX Classes
 90
4095
 91
0
280
0
281
0
  0
CLASS
  1
MATERIAL
  2
AcDbMaterial
  3
ObjectDBX Classes
 90
1153
 91
0
280
0
281
0
  0
CLASS
  1
SCALE
  2
AcDbScale
  3
ObjectDBX Classes
 90
1153
 91
0
280
0
281
0
  0
CLASS
  1
TABLESTYLE
  2
AcDbTableStyle
  3
ObjectDBX Classes
 90
4095
 91
0
280
0
281
0
  0
CLASS
  1
MLEADERSTYLE
  2
AcDbMLeaderStyle
  3
ACDB_MLEADERSTYLE_CLASS
 90
4095
 91
0
280
0
281
0
  0
CLASS
  1
DICTIONARYVAR
  2
AcDbDictionaryVar
  3
ObjectDBX Classes
 90
0
 91
0
280
0
281
0
  0
CLASS
  1
CELLSTYLEMAP
  2
AcDbCellStyleMap
  3
ObjectDBX Classes
 90
1152
 91
0
280
0
281
0
  0
CLASS
  1
MENTALRAYRENDERSETTINGS
  2
AcDbMentalRayRenderSettings
  3
SCENEOE
 90
1024
 91
0
280
0
281
0
  0
CLASS
  1
ACDBDETAILVIEWSTYLE
  2
AcDbDetailViewStyle
  3
ObjectDBX Classes
 90
1025
 91
0
280
0
281
0
  0
CLASS
  1
ACDBSECTIONVIEWSTYLE
  2
AcDbSectionViewStyle
  3
ObjectDBX Classes
 90
1025
 91
0
280
0
281
0
  0
CLASS
  1
RASTERVARIABLES
  2
AcDbRasterVariables
  3
ISM
 90
0
 91
0
280
0
281
0
  0
CLASS
  1
ACDBPLACEHOLDER
  2
AcDbPlaceHolder
  3
ObjectDBX Classes
 90
0
 91
0
280
0
281
0
  0
CLASS
  1
LAYOUT
  2
AcDbLayout
  3
ObjectDBX Classes
 90
0
 91
0
280
0
281
0
  0
ENDSEC
  0
SECTION
  2
TABLES
  0
TABLE
  2
VPORT
  5
8
330
0
100
AcDbSymbolTable
 70
1
  0
VPORT
  5
23
330
8
100
AcDbSymbolTableRecord
100
AcDbViewportTableRecord
  2
*Active
 70
0
 10
0.0
 20
0.0
 11
1.0
 21
1.0
 12
0.0
 22
0.0
 13
0.0
 23
0.0
 14
0.5
 24
0.5
 15
0.5
 25
0.5
 16
0.0
 26
0.0
 36
1.0
 17
0.0
 27
0.0
 37
0.0
 40
1000.0
 41
1.34
 42
50.0
 43
0.0
 44
0.0
 50
0.0
 51
0.0
 71
0
 72
1000
 73
1
 74
3
 75
0
 76
0
 77
0
 78
0
281
0
 65
0
146
0.0
  0
ENDTAB
  0
TABLE
  2
LTYPE
  5
2
330
0
100
AcDbSymbolTable
 70
3
  0
LTYPE
  5
24
330
2
100
AcDbSymbolTableRecord
100
AcDbLinetypeTableRecord
  2
ByBlock
 70
0
  3

 72
65
 73
0
 40
0.0
  0
LTYPE
  5
25
330
2
100
AcDbSymbolTableRecord
100
AcDbLinetypeTableRecord
  2
ByLayer
 70
0
  3

 72
65
 73
0
 40
0.0
  0
LTYPE
  5
26
330
2
100
AcDbSymbolTableRecord
100
AcDbLinetypeTableRecord
  2
Continuous
 70
0
  3

 72
65
 73
0
 40
0.0
  0
ENDTAB
  0
TABLE
  2
LAYER
  5
1
330
0
100
AcDbSymbolTable
 70
17
  0
LAYER
  5
27
330
1
100
AcDbSymbolTableRecord
100
AcDbLayerTableRecord
  2
0
 70
0
 62
7
  6
Continuous
370
-3
390
13
347
21
  0
LAYER
  5
28
330
1
100
AcDbSymbolTableRecord
100
AcDbLayerTableRecord
  2
Defpoints
 70
0
 62
7
  6
Continuous
290
0
370
-3
390
13
347
21
  0
LAYER
  5
2F
330
1
100
AcDbSymbolTableRecord
100
AcDbLayerTableRecord
  2
Holes_T26
 70
0
 62
158
  6
DASHED
370
-3
390
13
347
21
  0
LAYER
  5
A5
330
1
100
AcDbSymbolTableRecord
100
AcDbLayerTableRecord
  2
TrackPath_T26
 70
0
 62
235
  6
DOTTED
370
-3
390
13
347
21
  0
LAYER
  5
A7
330
1
100
AcDbSymbolTableRecord
100
AcDbLayerTableRecord
  2
NumMarks_T26
 70
0
 62
13
  6
DOTTED
370
-3
390
13
347
21
  0
LAYER
  5
CA
330
1
100
AcDbSymbolTableRecord
100
AcDbLayerTableRecord
  2
Holes_T27
 70
0
 62
186
  6
DASHED
370
-3
390
13
347
21
  0
LAYER
  5
13F
330
1
100
AcDbSymbolTableRecord
100
AcDbLayerTableRecord
  2
TrackPath_T27
 70
0
 62
58
  6
DOTTED
370
-3
390
13
347
21
  0
LAYER
  5
141
330
1
100
AcDbSymbolTableRecord
100
AcDbLayerTableRecord
  2
NumMarks_T27
 70
0
 62
10
  6
DOTTED
370
-3
390
13
347
21
  0
LAYER
  5
164
330
1
100
AcDbSymbolTableRecord
100
AcDbLayerTableRecord
  2
Holes_T28
 70
0
 62
1
  6
DASHED
370
-3
390
13
347
21
  0
LAYER
  5
1DE
330
1
100
AcDbSymbolTableRecord
100
AcDbLayerTableRecord
  2
TrackPath_T28
 70
0
 62
100
  6
DOTTED
370
-3
390
13
347
21
  0
LAYER
  5
1E0
330
1
100
AcDbSymbolTableRecord
100
AcDbLayerTableRecord
  2
NumMarks_T28
 70
0
 62
21
  6
DOTTED
370
-3
390
13
347
21
  0
LAYER
  5
205
330
1
100
AcDbSymbolTableRecord
100
AcDbLayerTableRecord
  2
Events_T26
 70
0
 62
22
  6
DASHED
370
-3
390
13
347
21
  0
LAYER
  5
214
330
1
100
AcDbSymbolTableRecord
100
AcDbLayerTableRecord
  2
RampingMarks_T26
 70
0
 62
26
  6
DOTTED
370
-3
390
13
347
21
  0
LAYER
  5
219
330
1
100
AcDbSymbolTableRecord
100
AcDbLayerTableRecord
  2
Events_T27
 70
0
 62
19
  6
DASHED
370
-3
390
13
347
21
  0
LAYER
  5
22A
330
1
100
AcDbSymbolTableRecord
100
AcDbLayerTableRecord
  2
RampingMarks_T27
 70
0
 62
19
  6
DOTTED
370
-3
390
13
347
21
  0
LAYER
  5
232
330
1
100
AcDbSymbolTableRecord
100
AcDbLayerTableRecord
  2
Events_T28
 70
0
 62
29
  6
DASHED
370
-3
390
13
347
21
  0
LAYER
  5
243
330
1
100
AcDbSymbolTableRecord
100
AcDbLayerTableRecord
  2
RampingMarks_T28
 70
0
 62
1
  6
DOTTED
370
-3
390
13
347
21
  0
ENDTAB
  0
TABLE
  2
STYLE
  5
5
330
0
100
AcDbSymbolTable
 70
1
  0
STYLE
  5
29
330
5
100
AcDbSymbolTableRecord
100
AcDbTextStyleTableRecord
  2
Standard
 70
0
 40
0.0
 41
1.0
 50
0.0
 71
0
 42
2.5
  3
txt
  4

  0
ENDTAB
  0
TABLE
  2
VIEW
  5
7
330
0
100
AcDbSymbolTable
 70
0
  0
ENDTAB
  0
TABLE
  2
UCS
  5
6
330
0
100
AcDbSymbolTable
 70
0
  0
ENDTAB
  0
TABLE
  2
APPID
  5
3
330
0
100
AcDbSymbolTable
 70
3
  0
APPID
  5
2A
330
3
100
AcDbSymbolTableRecord
100
AcDbRegAppTableRecord
  2
ACAD
 70
0
  0
APPID
  5
24D
330
3
100
AcDbSymbolTableRecord
100
AcDbRegAppTableRecord
  2
HATCHBACKGROUNDCOLOR
 70
0
  0
APPID
  5
24E
330
3
100
AcDbSymbolTableRecord
100
AcDbRegAppTableRecord
  2
EZDXF
 70
0
  0
ENDTAB
  0
TABLE
  2
DIMSTYLE
  5
4
330
0
100
AcDbSymbolTable
 70
1
100
AcDbDimStyleTable
  0
DIMSTYLE
105
2B
330
4
100
AcDbSymbolTableRecord
100
AcDbDimStyleTableRecord
  2
Standard
 70
0
 40
1.0
 41
2.5
 42
0.625
 43
3.75
 44
1.25
 45
0.0
 46
0.0
 47
0.0
 48
0.0
 49
2.5
140
2.5
141
2.5
142
0.0
143
0.03937007874
144
1.0
145
0.0
146
1.0
147
0.625
148
0.0
 69
0
 70
0
 71
0
 72
0
 73
0
 74
0
 75
0
 76
0
 77
1
 78
8
 79
3
170
0
171
3
172
1
173
0
174
0
175
0
176
0
177
0
178
0
179
2
271
2
272
2
273
2
274
3
275
0
276
0
277
2
278
44
279
0
280
0
281
0
282
0
283
0
284
8
285
0
286
0
288
0
289
3
290
0
371
-2
372
-2
  0
ENDTAB
  0
TABLE
  2
BLOCK_RECORD
  5
9
330
0
100
AcDbSymbolTable
 70
2
  0
BLOCK_RECORD
  5
17
330
9
100
AcDbSymbolTableRecord
100
AcDbBlockTableRecord
  2
*Model_Space
340
1A
 70
0
280
1
281
0
  0
BLOCK_RECORD
  5
1B
330
9
100
AcDbSymbolTableRecord
100
AcDbBlockTableRecord
  2
*Paper_Space
340
1E
 70
0
280
1
281
0
  0
ENDTAB
  0
ENDSEC
  0
SECTION
  2
BLOCKS
  0
BLOCK
  5
18
330
17
100
AcDbEntity
  8
0
100
AcDbBlockBegin
  2
*Model_Space
 70
0
 10
0.0
 20
0.0
 30
0.0
  3
*Model_Space
  1

  0
ENDBLK
  5
19
330
17
100
AcDbEntity
  8
0
100
AcDbBlockEnd
  0
BLOCK
  5
1C
330
1B
100
AcDbEntity
  8
0
100
AcDbBlockBegin
  2
*Paper_Space
 70
0
 10
0.0
 20
0.0
 30
0.0
  3
*Paper_Space
  1

  0
ENDBLK
  5
1D
330
1B
100
AcDbEntity
  8
0
100
AcDbBlockEnd
  0
ENDSEC
  0
SECTION
  2
ENTITIES
  0
CIRCLE
  5
30
330
17
100
AcDbEntity
  8
Holes_T26
100
AcDbCircle
 10
0.3841179212598425
 20
0.32805551181102316
 30
0.0
 40
0.0625
  0
CIRCLE
  5
31
330
17
100
AcDbEntity
  8
Holes_T26
100
AcDbCircle
 10
0.5178024803149607
 20
0.5227988188976377
 30
0.0
 40
0.0625
  0
CIRCLE
  5
32
330
17
100
AcDbEntity
  8
Holes_T26
100
AcDbCircle
 10
0.641906968503937
 20
0.7237417322834644
 30
0.0
 40
0.0625
  0
CIRCLE
  5
33
330
17
100
AcDbEntity
  8
Holes_T26
100
AcDbCircle
 10
0.7510842125984253
 20
0.9331535433070868
 30
0.0
 40
0.0625
  0
CIRCLE
  5
34
330
17
100
AcDbEntity
  8
Holes_T26
100
AcDbCircle
 10
0.8446386220472442
 20
1.1500074803149611
 30
0.0
 40
0.0625
  0
CIRCLE
  5
35
330
17
100
AcDbEntity
  8
Holes_T26
100
AcDbCircle
 10
0.9243710236220473
 20
1.3723311023622051
 30
0.0
 40
0.0625
  0
CIRCLE
  5
36
330
17
100
AcDbEntity
  8
Holes_T26
100
AcDbCircle
 10
0.993409409448819
 20
1.5982224409448822
 30
0.0
 40
0.0625
  0
CIRCLE
  5
37
330
17
100
AcDbEntity
  8
Holes_T26
100
AcDbCircle
 10
1.0550402362204725
 20
1.8262539370078745
 30
0.0
 40
0.0625
  0
CIRCLE
  5
38
330
17
100
AcDbEntity
  8
Holes_T26
100
AcDbCircle
 10
1.111111811023622
 20
2.0557181102362203
 30
0.0
 40
0.0625
  0
CIRCLE
  5
39
330
17
100
AcDbEntity
  8
Holes_T26
100
AcDbCircle
 10
1.1626763385826773
 20
2.2862389763779527
 30
0.0
 40
0.0625
  0
CIRCLE
  5
3A
330
17
100
AcDbEntity
  8
Holes_T26
100
AcDbCircle
 10
1.2103511417322836
 20
2.5175956692913384
 30
0.0
 40
0.0625
  0
CIRCLE
  5
3B
330
17
100
AcDbEntity
  8
Holes_T26
100
AcDbCircle
 10
1.2544693307086614
 20
2.749657480314961
 30
0.0
 40
0.0625
  0
CIRCLE
  5
3C
330
17
100
AcDbEntity
  8
Holes_T26
100
AcDbCircle
 10
1.295132755905512
 20
2.9823496062992123
 30
0.0
 40
0.0625
  0
CIRCLE
  5
3D
330
17
100
AcDbEntity
  8
Holes_T26
100
AcDbCircle
 10
1.3321507480314962
 20
3.2156484251968505
 30
0.0
 40
0.0625
  0
CIRCLE
  5
3E
330
17
100
AcDbEntity
  8
Holes_T26
100
AcDbCircle
 10
1.3643805118110237
 20
3.4496540157480315
 30
0.0
 40
0.0625
  0
CIRCLE
  5
3F
330
17
100
AcDbEntity
  8
Holes_T26
100
AcDbCircle
 10
1.3893770472440945
 20
3.6845338582677165
 30
0.0
 40
0.0625
  0
CIRCLE
  5
40
330
17
100
AcDbEntity
  8
Holes_T26
100
AcDbCircle
 10
1.4025828740157482
 20
3.9203432283464568
 30
0.0
 40
0.0625
  0
CIRCLE
  5
41
330
17
100
AcDbEntity
  8
Holes_T26
100
AcDbCircle
 10
1.3935430708661418
 20
4.1562127559055115
 30
0.0
 40
0.0625
  0
CIRCLE
  5
42
330
17
100
AcDbEntity
  8
Holes_T26
100
AcDbCircle
 10
1.3275714566929135
 20
4.381168582677166
 30
0.0
 40
0.0625
  0
CIRCLE
  5
43
330
17
100
AcDbEntity
  8
Holes_T26
100
AcDbCircle
 10
1.1325114173228348
 20
4.487657244094488
 30
0.0
 40
0.0625
  0
CIRCLE
  5
44
330
17
100
AcDbEntity
  8
Holes_T26
100
AcDbCircle
 10
0.9866675196850394
 20
4.32275188976378
 30
0.0
 40
0.0625
  0
CIRCLE
  5
45
330
17
100
AcDbEntity
  8
Holes_T26
100
AcDbCircle
 10
1.0179603543307087
 20
4.091130039370079
 30
0.0
 40
0.0625
  0
CIRCLE
  5
46
330
17
100
AcDbEntity
  8
Holes_T26
100
AcDbCircle
 10
1.1456567716535435
 20
3.8946479921259844
 30
0.0
 40
0.0625
  0
CIRCLE
  5
47
330
17
100
AcDbEntity
  8
Holes_T26
100
AcDbCircle
 10
1.5856114173228346
 20
3.767840551181102
 30
0.0
 40
0.0625
  0
CIRCLE
  5
48
330
17
100
AcDbEntity
  8
Holes_T26
100
AcDbCircle
 10
1.8118069291338585
 20
3.8312617322834646
 30
0.0
 40
0.0625
  0
CIRCLE
  5
49
330
17
100
AcDbEntity
  8
Holes_T26
100
AcDbCircle
 10
1.992438346456693
 20
3.9812015354330708
 30
0.0
 40
0.0625
  0
CIRCLE
  5
4A
330
17
100
AcDbEntity
  8
Holes_T26
100
AcDbCircle
 10
2.1843979527559054
 20
4.101399015748032
 30
0.0
 40
0.0625
  0
CIRCLE
  5
4B
330
17
100
AcDbEntity
  8
Holes_T26
100
AcDbCircle
 10
2.388046535433071
 20
3.9901059842519686
 30
0.0
 40
0.0625
  0
CIRCLE
  5
4C
330
17
100
AcDbEntity
  8
Holes_T26
100
AcDbCircle
 10
2.5258800000000003
 20
3.7996509842519686
 30
0.0
 40
0.0625
  0
CIRCLE
  5
4D
330
17
100
AcDbEntity
  8
Holes_T26
100
AcDbCircle
 10
2.62393625984252
 20
3.3411762992125986
 30
0.0
 40
0.0625
  0
CIRCLE
  5
4E
330
17
100
AcDbEntity
  8
Holes_T26
100
AcDbCircle
 10
2.617708228346457
 20
3.1051574803149604
 30
0.0
 40
0.0625
  0
CIRCLE
  5
4F
330
17
100
AcDbEntity
  8
Holes_T26
100
AcDbCircle
 10
2.587822952755906
 20
2.870925590551181
 30
0.0
 40
0.0625
  0
CIRCLE
  5
50
330
17
100
AcDbEntity
  8
Holes_T26
100
AcDbCircle
 10
2.5298419685039373
 20
2.642237795275591
 30
0.0
 40
0.0625
  0
CIRCLE
  5
51
330
17
100
AcDbEntity
  8
Holes_T26
100
AcDbCircle
 10
2.3781067716535436
 20
2.5659964566929134
 30
0.0
 40
0.0625
  0
CIRCLE
  5
52
330
17
100
AcDbEntity
  8
Holes_T26
100
AcDbCircle
 10
2.306240472440945
 20
2.7892562992125987
 30
0.0
 40
0.0625
  0
CIRCLE
  5
53
330
17
100
AcDbEntity
  8
Holes_T26
100
AcDbCircle
 10
2.3086059055118113
 20
3.0245740157480316
 30
0.0
 40
0.0625
  0
CIRCLE
  5
54
330
17
100
AcDbEntity
  8
Holes_T26
100
AcDbCircle
 10
2.39017405511811
 20
3.244837401574803
 30
0.0
 40
0.0625
  0
CIRCLE
  5
55
330
17
100
AcDbEntity
  8
Holes_T26
100
AcDbCircle
 10
2.480172755905512
 20
3.467872559055118
 30
0.0
 40
0.0625
  0
CIRCLE
  5
56
330
17
100
AcDbEntity
  8
Holes_T26
100
AcDbCircle
 10
2.736728267716536
 20
3.6641134645669293
 30
0.0
 40
0.0625
  0
CIRCLE
  5
57
330
17
100
AcDbEntity
  8
Holes_T26
100
AcDbCircle
 10
2.864029842519685
 20
3.769001102362205
 30
0.0
 40
0.0625
  0
CIRCLE
  5
58
330
17
100
AcDbEntity
  8
Holes_T26
100
AcDbCircle
 10
3.0351070472440944
 20
3.931617755905512
 30
0.0
 40
0.0625
  0
CIRCLE
  5
59
330
17
100
AcDbEntity
  8
Holes_T26
100
AcDbCircle
 10
3.250819566929134
 20
3.9645513779527564
 30
0.0
 40
0.0625
  0
CIRCLE
  5
5A
330
17
100
AcDbEntity
  8
Holes_T26
100
AcDbCircle
 10
3.39054594488189
 20
3.776803779527559
 30
0.0
 40
0.0625
  0
CIRCLE
  5
5B
330
17
100
AcDbEntity
  8
Holes_T26
100
AcDbCircle
 10
3.477977637795276
 20
3.557614409448819
 30
0.0
 40
0.0625
  0
CIRCLE
  5
5C
330
17
100
AcDbEntity
  8
Holes_T26
100
AcDbCircle
 10
3.535111692913386
 20
3.3285673622047245
 30
0.0
 40
0.0625
  0
CIRCLE
  5
5D
330
17
100
AcDbEntity
  8
Holes_T26
100
AcDbCircle
 10
3.56016188976378
 20
3.0939287401574807
 30
0.0
 40
0.0625
  0
CIRCLE
  5
5E
330
17
100
AcDbEntity
  8
Holes_T26
100
AcDbCircle
 10
3.5403131102362204
 20
2.858963779527559
 30
0.0
 40
0.0625
  0
CIRCLE
  5
5F
330
17
100
AcDbEntity
  8
Holes_T26
100
AcDbCircle
 10
3.481347755905512
 20
2.6303653543307086
 30
0.0
 40
0.0625
  0
CIRCLE
  5
60
330
17
100
AcDbEntity
  8
Holes_T26
100
AcDbCircle
 10
3.4115181496063
 20
2.4047122047244094
 30
0.0
 40
0.0625
  0
CIRCLE
  5
61
330
17
100
AcDbEntity
  8
Holes_T26
100
AcDbCircle
 10
3.3624917716535436
 20
2.1738610236220475
 30
0.0
 40
0.0625
  0
CIRCLE
  5
62
330
17
100
AcDbEntity
  8
Holes_T26
100
AcDbCircle
 10
3.3530949606299214
 20
1.938145669291339
 30
0.0
 40
0.0625
  0
CIRCLE
  5
63
330
17
100
AcDbEntity
  8
Holes_T26
100
AcDbCircle
 10
3.3921507086614175
 20
1.7057775590551183
 30
0.0
 40
0.0625
  0
CIRCLE
  5
64
330
17
100
AcDbEntity
  8
Holes_T26
100
AcDbCircle
 10
3.503884015748032
 20
1.4998133858267715
 30
0.0
 40
0.0625
  0
CIRCLE
  5
65
330
17
100
AcDbEntity
  8
Holes_T26
100
AcDbCircle
 10
3.706183779527559
 20
1.385707874015748
 30
0.0
 40
0.0625
  0
CIRCLE
  5
66
330
17
100
AcDbEntity
  8
Holes_T26
100
AcDbCircle
 10
3.988625196850394
 20
1.396189763779528
 30
0.0
 40
0.0625
  0
CIRCLE
  5
67
330
17
100
AcDbEntity
  8
Holes_T26
100
AcDbCircle
 10
4.3332216535433075
 20
1.5662874015748036
 30
0.0
 40
0.0625
  0
CIRCLE
  5
68
330
17
100
AcDbEntity
  8
Holes_T26
100
AcDbCircle
 10
4.509775196850394
 20
1.7588787401574806
 30
0.0
 40
0.0625
  0
CIRCLE
  5
69
330
17
100
AcDbEntity
  8
Holes_T26
100
AcDbCircle
 10
4.554837007874016
 20
1.9889866141732289
 30
0.0
 40
0.0625
  0
CIRCLE
  5
6A
330
17
100
AcDbEntity
  8
Holes_T26
100
AcDbCircle
 10
4.5151523622047245
 20
2.220826377952756
 30
0.0
 40
0.0625
  0
CIRCLE
  5
6B
330
17
100
AcDbEntity
  8
Holes_T26
100
AcDbCircle
 10
4.397561811023622
 20
2.4233527559055124
 30
0.0
 40
0.0625
  0
CIRCLE
  5
6C
330
17
100
AcDbEntity
  8
Holes_T26
100
AcDbCircle
 10
4.186342125984252
 20
2.427889763779528
 30
0.0
 40
0.0625
  0
CIRCLE
  5
6D
330
17
100
AcDbEntity
  8
Holes_T26
100
AcDbCircle
 10
4.051877165354331
 20
2.2359236220472445
 30
0.0
 40
0.0625
  0
CIRCLE
  5
6E
330
17
100
AcDbEntity
  8
Holes_T26
100
AcDbCircle
 10
3.9800562992125985
 20
2.0114500000000004
 30
0.0
 40
0.0625
  0
CIRCLE
  5
6F
330
17
100
AcDbEntity
  8
Holes_T26
100
AcDbCircle
 10
3.965972047244095
 20
1.7764511811023622
 30
0.0
 40
0.0625
  0
CIRCLE
  5
70
330
17
100
AcDbEntity
  8
Holes_T26
100
AcDbCircle
 10
4.0544299212598425
 20
1.5688086614173224
 30
0.0
 40
0.0625
  0
CIRCLE
  5
71
330
17
100
AcDbEntity
  8
Holes_T26
100
AcDbCircle
 10
4.46327874015748
 20
1.3823287401574809
 30
0.0
 40
0.0625
  0
CIRCLE
  5
72
330
17
100
AcDbEntity
  8
Holes_T26
100
AcDbCircle
 10
4.698953149606299
 20
1.3930078740157477
 30
0.0
 40
0.0625
  0
CIRCLE
  5
73
330
17
100
AcDbEntity
  8
Holes_T26
100
AcDbCircle
 10
4.92706062992126
 20
1.4512543307086618
 30
0.0
 40
0.0625
  0
CIRCLE
  5
74
330
17
100
AcDbEntity
  8
Holes_T26
100
AcDbCircle
 10
5.125667716535433
 20
1.5670381889763785
 30
0.0
 40
0.0625
  0
CIRCLE
  5
75
330
17
100
AcDbEntity
  8
Holes_T26
100
AcDbCircle
 10
5.24774094488189
 20
2.0519413385826777
 30
0.0
 40
0.0625
  0
CIRCLE
  5
76
330
17
100
AcDbEntity
  8
Holes_T26
100
AcDbCircle
 10
5.314032283464567
 20
2.2785433070866143
 30
0.0
 40
0.0625
  0
CIRCLE
  5
77
330
17
100
AcDbEntity
  8
Holes_T26
100
AcDbCircle
 10
5.429729527559056
 20
2.482807480314961
 30
0.0
 40
0.0625
  0
CIRCLE
  5
78
330
17
100
AcDbEntity
  8
Holes_T26
100
AcDbCircle
 10
5.633570866141733
 20
2.5932433070866145
 30
0.0
 40
0.0625
  0
CIRCLE
  5
79
330
17
100
AcDbEntity
  8
Holes_T26
100
AcDbCircle
 10
5.86769409448819
 20
2.581547244094488
 30
0.0
 40
0.0625
  0
CIRCLE
  5
7A
330
17
100
AcDbEntity
  8
Holes_T26
100
AcDbCircle
 10
6.079200393700788
 20
2.479703149606299
 30
0.0
 40
0.0625
  0
CIRCLE
  5
7B
330
17
100
AcDbEntity
  8
Holes_T26
100
AcDbCircle
 10
6.237325196850394
 20
2.305994094488189
 30
0.0
 40
0.0625
  0
CIRCLE
  5
7C
330
17
100
AcDbEntity
  8
Holes_T26
100
AcDbCircle
 10
6.330561811023622
 20
2.0900224409448818
 30
0.0
 40
0.0625
  0
CIRCLE
  5
7D
330
17
100
AcDbEntity
  8
Holes_T26
100
AcDbCircle
 10
6.353376771653544
 20
1.9170779527559059
 30
0.0
 40
0.0625
  0
CIRCLE
  5
7E
330
17
100
AcDbEntity
  8
Holes_T26
100
AcDbCircle
 10
6.288537007874016
 20
1.7455338582677162
 30
0.0
 40
0.0625
  0
CIRCLE
  5
7F
330
17
100
AcDbEntity
  8
Holes_T26
100
AcDbCircle
 10
6.012366141732284
 20
1.5494125984251965
 30
0.0
 40
0.0625
  0
CIRCLE
  5
80
330
17
100
AcDbEntity
  8
Holes_T26
100
AcDbCircle
 10
5.7792342519685045
 20
1.5167279527559057
 30
0.0
 40
0.0625
  0
CIRCLE
  5
81
330
17
100
AcDbEntity
  8
Holes_T26
100
AcDbCircle
 10
5.546011417322834
 20
1.5490948818897643
 30
0.0
 40
0.0625
  0
CIRCLE
  5
82
330
17
100
AcDbEntity
  8
Holes_T26
100
AcDbCircle
 10
5.330070866141733
 20
1.6433078740157476
 30
0.0
 40
0.0625
  0
CIRCLE
  5
83
330
17
100
AcDbEntity
  8
Holes_T26
100
AcDbCircle
 10
5.014757086614174
 20
1.7874102362204722
 30
0.0
 40
0.0625
  0
CIRCLE
  5
84
330
17
100
AcDbEntity
  8
Holes_T26
100
AcDbCircle
 10
4.938712992125985
 20
1.911752362204725
 30
0.0
 40
0.0625
  0
CIRCLE
  5
85
330
17
100
AcDbEntity
  8
Holes_T26
100
AcDbCircle
 10
5.345747637795276
 20
1.8799708661417325
 30
0.0
 40
0.0625
  0
CIRCLE
  5
86
330
17
100
AcDbEntity
  8
Holes_T26
100
AcDbCircle
 10
5.572964173228347
 20
1.890457874015748
 30
0.0
 40
0.0625
  0
CIRCLE
  5
87
330
17
100
AcDbEntity
  8
Holes_T26
100
AcDbCircle
 10
5.793619685039371
 20
1.806318897637796
 30
0.0
 40
0.0625
  0
CIRCLE
  5
88
330
17
100
AcDbEntity
  8
Holes_T26
100
AcDbCircle
 10
6.003826771653543
 20
1.698997244094488
 30
0.0
 40
0.0625
  0
CIRCLE
  5
89
330
17
100
AcDbEntity
  8
Holes_T26
100
AcDbCircle
 10
6.241103937007875
 20
1.4506767716535438
 30
0.0
 40
0.0625
  0
CIRCLE
  5
8A
330
17
100
AcDbEntity
  8
Holes_T26
100
AcDbCircle
 10
6.370033858267717
 20
1.0567602362204727
 30
0.0
 40
0.0625
  0
CIRCLE
  5
8B
330
17
100
AcDbEntity
  8
Holes_T26
100
AcDbCircle
 10
6.34005905511811
 20
0.88981062992126
 30
0.0
 40
0.0625
  0
CIRCLE
  5
8C
330
17
100
AcDbEntity
  8
Holes_T26
100
AcDbCircle
 10
6.2615673228346465
 20
0.6680413385826777
 30
0.0
 40
0.0625
  0
CIRCLE
  5
8D
330
17
100
AcDbEntity
  8
Holes_T26
100
AcDbCircle
 10
6.073437401574804
 20
0.557352362204724
 30
0.0
 40
0.0625
  0
CIRCLE
  5
8E
330
17
100
AcDbEntity
  8
Holes_T26
100
AcDbCircle
 10
5.95035472440945
 20
0.7396992125984256
 30
0.0
 40
0.0625
  0
CIRCLE
  5
8F
330
17
100
AcDbEntity
  8
Holes_T26
100
AcDbCircle
 10
6.040526377952756
 20
0.9533216535433072
 30
0.0
 40
0.0625
  0
CIRCLE
  5
90
330
17
100
AcDbEntity
  8
Holes_T26
100
AcDbCircle
 10
6.2027787401574805
 20
1.124625196850394
 30
0.0
 40
0.0625
  0
CIRCLE
  5
91
330
17
100
AcDbEntity
  8
Holes_T26
100
AcDbCircle
 10
6.5652244094488195
 20
1.4275527559055117
 30
0.0
 40
0.0625
  0
CIRCLE
  5
92
330
17
100
AcDbEntity
  8
Holes_T26
100
AcDbCircle
 10
6.744236614173229
 20
1.5816700787401574
 30
0.0
 40
0.0625
  0
CIRCLE
  5
93
330
17
100
AcDbEntity
  8
Holes_T26
100
AcDbCircle
 10
6.928770866141733
 20
1.7289669291338585
 30
0.0
 40
0.0625
  0
CIRCLE
  5
94
330
17
100
AcDbEntity
  8
Holes_T26
100
AcDbCircle
 10
7.130703149606299
 20
1.8512177165354329
 30
0.0
 40
0.0625
  0
CIRCLE
  5
95
330
17
100
AcDbEntity
  8
Holes_T26
100
AcDbCircle
 10
7.341102755905513
 20
1.9585984251968507
 30
0.0
 40
0.0625
  0
CIRCLE
  5
96
330
17
100
AcDbEntity
  8
Holes_T26
100
AcDbCircle
 10
7.549431102362205
 20
2.0699019685039373
 30
0.0
 40
0.0625
  0
CIRCLE
  5
97
330
17
100
AcDbEntity
  8
Holes_T26
100
AcDbCircle
 10
7.749007086614174
 20
2.1960937007874013
 30
0.0
 40
0.0625
  0
CIRCLE
  5
98
330
17
100
AcDbEntity
  8
Holes_T26
100
AcDbCircle
 10
7.930918503937009
 20
2.3464129921259844
 30
0.0
 40
0.0625
  0
CIRCLE
  5
99
330
17
100
AcDbEntity
  8
Holes_T26
100
AcDbCircle
 10
8.09325472440945
 20
2.517956692913386
 30
0.0
 40
0.0625
  0
CIRCLE
  5
9A
330
17
100
AcDbEntity
  8
Holes_T26
100
AcDbCircle
 10
8.257950787401574
 20
2.687183464566929
 30
0.0
 40
0.0625
  0
CIRCLE
  5
9B
330
17
100
AcDbEntity
  8
Holes_T26
100
AcDbCircle
 10
8.445983070866143
 20
2.8294625984251973
 30
0.0
 40
0.0625
  0
CIRCLE
  5
9C
330
17
100
AcDbEntity
  8
Holes_T26
100
AcDbCircle
 10
8.661654330708663
 20
2.9243688976377955
 30
0.0
 40
0.0625
  0
CIRCLE
  5
9D
330
17
100
AcDbEntity
  8
Holes_T26
100
AcDbCircle
 10
8.893148818897638
 20
2.9697070866141733
 30
0.0
 40
0.0625
  0
CIRCLE
  5
9E
330
17
100
AcDbEntity
  8
Holes_T26
100
AcDbCircle
 10
9.128845275590551
 20
2.984103937007874
 30
0.0
 40
0.0625
  0
CIRCLE
  5
9F
330
17
100
AcDbEntity
  8
Holes_T26
100
AcDbCircle
 10
9.365030708661418
 20
2.9819267716535434
 30
0.0
 40
0.0625
  0
CIRCLE
  5
A0
330
17
100
AcDbEntity
  8
Holes_T26
100
AcDbCircle
 10
9.600972440944883
 20
2.970604724409449
 30
0.0
 40
0.0625
  0
CIRCLE
  5
A1
330
17
100
AcDbEntity
  8
Holes_T26
100
AcDbCircle
 10
9.83669251968504
 20
2.955249606299213
 30
0.0
 40
0.0625
  0
CIRCLE
  5
A2
330
17
100
AcDbEntity
  8
Holes_T26
100
AcDbCircle
 10
10.07248937007874
 20
2.9411661417322836
 30
0.0
 40
0.0625
  0
CIRCLE
  5
A3
330
17
100
AcDbEntity
  8
Holes_T26
100
AcDbCircle
 10
10.308617322834646
 20
2.9382960629921264
 30
0.0
 40
0.0625
  0
CIRCLE
  5
A4
330
17
100
AcDbEntity
  8
Holes_T26
100
AcDbCircle
 10
10.541896062992127
 20
2.9716464566929135
 30
0.0
 40
0.0625
  0
SPLINE
  5
A6
330
17
100
AcDbEntity
  8
TrackPath_T26
100
AcDbSpline
 70
0
 71
3
 72
0
 73
0
 74
117
 11
0.3841179212598425
 21
0.32805551181102316
 31
0.0
 11
0.5178024803149607
 21
0.5227988188976377
 31
0.0
 11
0.641906968503937
 21
0.7237417322834644
 31
0.0
 11
0.7510842125984253
 21
0.9331535433070868
 31
0.0
 11
0.8446386220472442
 21
1.1500074803149611
 31
0.0
 11
0.9243710236220473
 21
1.3723311023622051
 31
0.0
 11
0.993409409448819
 21
1.5982224409448822
 31
0.0
 11
1.0550402362204725
 21
1.8262539370078745
 31
0.0
 11
1.111111811023622
 21
2.0557181102362203
 31
0.0
 11
1.1626763385826773
 21
2.2862389763779527
 31
0.0
 11
1.2103511417322836
 21
2.5175956692913384
 31
0.0
 11
1.2544693307086614
 21
2.749657480314961
 31
0.0
 11
1.295132755905512
 21
2.9823496062992123
 31
0.0
 11
1.3321507480314962
 21
3.2156484251968505
 31
0.0
 11
1.3643805118110237
 21
3.4496540157480315
 31
0.0
 11
1.3893770472440945
 21
3.6845338582677165
 31
0.0
 11
1.4025828740157482
 21
3.9203432283464568
 31
0.0
 11
1.3935430708661418
 21
4.1562127559055115
 31
0.0
 11
1.3275714566929135
 21
4.381168582677166
 31
0.0
 11
1.1325114173228348
 21
4.487657244094488
 31
0.0
 11
0.9866675196850394
 21
4.32275188976378
 31
0.0
 11
1.0179603543307087
 21
4.091130039370079
 31
0.0
 11
1.1456567716535435
 21
3.8946479921259844
 31
0.0
 11
1.5856114173228346
 21
3.767840551181102
 31
0.0
 11
1.8118069291338585
 21
3.8312617322834646
 31
0.0
 11
1.992438346456693
 21
3.9812015354330708
 31
0.0
 11
2.1843979527559054
 21
4.101399015748032
 31
0.0
 11
2.388046535433071
 21
3.9901059842519686
 31
0.0
 11
2.5258800000000003
 21
3.7996509842519686
 31
0.0
 11
2.62393625984252
 21
3.3411762992125986
 31
0.0
 11
2.617708228346457
 21
3.1051574803149604
 31
0.0
 11
2.587822952755906
 21
2.870925590551181
 31
0.0
 11
2.5298419685039373
 21
2.642237795275591
 31
0.0
 11
2.3781067716535436
 21
2.5659964566929134
 31
0.0
 11
2.306240472440945
 21
2.7892562992125987
 31
0.0
 11
2.3086059055118113
 21
3.0245740157480316
 31
0.0
 11
2.39017405511811
 21
3.244837401574803
 31
0.0
 11
2.480172755905512
 21
3.467872559055118
 31
0.0
 11
2.736728267716536
 21
3.6641134645669293
 31
0.0
 11
2.864029842519685
 21
3.769001102362205
 31
0.0
 11
3.0351070472440944
 21
3.931617755905512
 31
0.0
 11
3.250819566929134
 21
3.9645513779527564
 31
0.0
 11
3.39054594488189
 21
3.776803779527559
 31
0.0
 11
3.477977637795276
 21
3.557614409448819
 31
0.0
 11
3.535111692913386
 21
3.3285673622047245
 31
0.0
 11
3.56016188976378
 21
3.0939287401574807
 31
0.0
 11
3.5403131102362204
 21
2.858963779527559
 31
0.0
 11
3.481347755905512
 21
2.6303653543307086
 31
0.0
 11
3.4115181496063
 21
2.4047122047244094
 31
0.0
 11
3.3624917716535436
 21
2.1738610236220475
 31
0.0
 11
3.3530949606299214
 21
1.938145669291339
 31
0.0
 11
3.3921507086614175
 21
1.7057775590551183
 31
0.0
 11
3.503884015748032
 21
1.4998133858267715
 31
0.0
 11
3.706183779527559
 21
1.385707874015748
 31
0.0
 11
3.988625196850394
 21
1.396189763779528
 31
0.0
 11
4.3332216535433075
 21
1.5662874015748036
 31
0.0
 11
4.509775196850394
 21
1.7588787401574806
 31
0.0
 11
4.554837007874016
 21
1.9889866141732289
 31
0.0
 11
4.5151523622047245
 21
2.220826377952756
 31
0.0
 11
4.397561811023622
 21
2.4233527559055124
 31
0.0
 11
4.186342125984252
 21
2.427889763779528
 31
0.0
 11
4.051877165354331
 21
2.2359236220472445
 31
0.0
 11
3.9800562992125985
 21
2.0114500000000004
 31
0.0
 11
3.965972047244095
 21
1.7764511811023622
 31
0.0
 11
4.0544299212598425
 21
1.5688086614173224
 31
0.0
 11
4.46327874015748
 21
1.3823287401574809
 31
0.0
 11
4.698953149606299
 21
1.3930078740157477
 31
0.0
 11
4.92706062992126
 21
1.4512543307086618
 31
0.0
 11
5.125667716535433
 21
1.5670381889763785
 31
0.0
 11
5.24774094488189
 21
2.0519413385826777
 31
0.0
 11
5.314032283464567
 21
2.2785433070866143
 31
0.0
 11
5.429729527559056
 21
2.482807480314961
 31
0.0
 11
5.633570866141733
 21
2.5932433070866145
 31
0.0
 11
5.86769409448819
 21
2.581547244094488
 31
0.0
 11
6.079200393700788
 21
2.479703149606299
 31
0.0
 11
6.237325196850394
 21
2.305994094488189
 31
0.0
 11
6.330561811023622
 21
2.0900224409448818
 31
0.0
 11
6.353376771653544
 21
1.9170779527559059
 31
0.0
 11
6.288537007874016
 21
1.7455338582677162
 31
0.0
 11
6.012366141732284
 21
1.5494125984251965
 31
0.0
 11
5.7792342519685045
 21
1.5167279527559057
 31
0.0
 11
5.546011417322834
 21
1.5490948818897643
 31
0.0
 11
5.330070866141733
 21
1.6433078740157476
 31
0.0
 11
5.014757086614174
 21
1.7874102362204722
 31
0.0
 11
4.938712992125985
 21
1.911752362204725
 31
0.0
 11
5.345747637795276
 21
1.8799708661417325
 31
0.0
 11
5.572964173228347
 21
1.890457874015748
 31
0.0
 11
5.793619685039371
 21
1.806318897637796
 31
0.0
 11
6.003826771653543
 21
1.698997244094488
 31
0.0
 11
6.241103937007875
 21
1.4506767716535438
 31
0.0
 11
6.370033858267717
 21
1.0567602362204727
 31
0.0
 11
6.34005905511811
 21
0.88981062992126
 31
0.0
 11
6.2615673228346465
 21
0.6680413385826777
 31
0.0
 11
6.073437401574804
 21
0.557352362204724
 31
0.0
 11
5.95035472440945
 21
0.7396992125984256
 31
0.0
 11
6.040526377952756
 21
0.9533216535433072
 31
0.0
 11
6.2027787401574805
 21
1.124625196850394
 31
0.0
 11
6.5652244094488195
 21
1.4275527559055117
 31
0.0
 11
6.744236614173229
 21
1.5816700787401574
 31
0.0
 11
6.928770866141733
 21
1.7289669291338585
 31
0.0
 11
7.130703149606299
 21
1.8512177165354329
 31
0.0
 11
7.341102755905513
 21
1.9585984251968507
 31
0.0
 11
7.549431102362205
 21
2.0699019685039373
 31
0.0
 11
7.749007086614174
 21
2.1960937007874013
 31
0.0
 11
7.930918503937009
 21
2.3464129921259844
 31
0.0
 11
8.09325472440945
 21
2.517956692913386
 31
0.0
 11
8.257950787401574
 21
2.687183464566929
 31
0.0
 11
8.445983070866143
 21
2.8294625984251973
 31
0.0
 11
8.661654330708663
 21
2.9243688976377955
 31
0.0
 11
8.893148818897638
 21
2.9697070866141733
 31
0.0
 11
9.128845275590551
 21
2.984103937007874
 31
0.0
 11
9.365030708661418
 21
2.9819267716535434
 31
0.0
 11
9.600972440944883
 21
2.970604724409449
 31
0.0
 11
9.83669251968504
 21
2.955249606299213
 31
0.0
 11
10.07248937007874
 21
2.9411661417322836
 31
0.0
 11
10.308617322834646
 21
2.9382960629921264
 31
0.0
 11
10.541896062992127
 21
2.9716464566929135
 31
0.0
  0
LWPOLYLINE
  5
A8
330
17
100
AcDbEntity
  8
NumMarks_T26
100
AcDbPolyline
 90
2
 70
0
 10
0.7283626423020515
 20
1.1958866317270735
 10
0.9609146017924368
 20
1.1041283289028487
  0
LWPOLYLINE
  5
A9
330
17
100
AcDbEntity
  8
NumMarks_T26
100
AcDbPolyline
 90
2
 70
0
 10
1.0437477411245084
 20
2.327773652633256
 10
1.2881695148895924
 20
2.275257021843285
  0
LWPOLYLINE
  5
AA
330
17
100
AcDbEntity
  8
NumMarks_T26
100
AcDbPolyline
 90
2
 70
0
 10
1.0371831622757621
 20
2.2972209309126206
 10
1.2816049360408461
 20
2.2447043001226494
  0
LWPOLYLINE
  5
AB
330
17
100
AcDbEntity
  8
NumMarks_T26
100
AcDbPolyline
 90
2
 70
0
 10
1.2403012133436166
 20
3.464797585070886
 10
1.4884598102784308
 20
3.434510446425177
  0
LWPOLYLINE
  5
AC
330
17
100
AcDbEntity
  8
NumMarks_T26
100
AcDbPolyline
 90
2
 70
0
 10
1.1382229462772415
 20
4.361814012007883
 10
1.0959988321303225
 20
4.608222461912728
  0
LWPOLYLINE
  5
AD
330
17
100
AcDbEntity
  8
NumMarks_T26
100
AcDbPolyline
 90
2
 70
0
 10
1.169024002515347
 20
4.367092026276248
 10
1.126799888368428
 20
4.613500476181093
  0
LWPOLYLINE
  5
AE
330
17
100
AcDbEntity
  8
NumMarks_T26
100
AcDbPolyline
 90
2
 70
0
 10
1.7537502983000182
 20
3.941961450513563
 10
1.869863559967699
 20
3.720562014053366
  0
LWPOLYLINE
  5
AF
330
17
100
AcDbEntity
  8
NumMarks_T26
100
AcDbPolyline
 90
2
 70
0
 10
2.7499058568904386
 20
3.3420714218774292
 10
2.5020629882828036
 20
3.3093008179718137
  0
LWPOLYLINE
  5
B0
330
17
100
AcDbEntity
  8
NumMarks_T26
100
AcDbPolyline
 90
2
 70
0
 10
2.7458095314022364
 20
3.3730517804533835
 10
2.4979666627946013
 20
3.340281176547768
  0
LWPOLYLINE
  5
B1
330
17
100
AcDbEntity
  8
NumMarks_T26
100
AcDbPolyline
 90
2
 70
0
 10
2.1826518096309995
 20
2.770525511059144
 10
2.4298291352508903
 20
2.8079870873660533
  0
LWPOLYLINE
  5
B2
330
17
100
AcDbEntity
  8
NumMarks_T26
100
AcDbPolyline
 90
2
 70
0
 10
2.7922220972727256
 20
3.872503703042322
 10
2.9591056819264594
 20
3.6863589497638047
  0
LWPOLYLINE
  5
B3
330
17
100
AcDbEntity
  8
NumMarks_T26
100
AcDbPolyline
 90
2
 70
0
 10
2.7689540031129107
 20
3.8516432549606057
 10
2.9358375877666445
 20
3.6654985016820882
  0
LWPOLYLINE
  5
B4
330
17
100
AcDbEntity
  8
NumMarks_T26
100
AcDbPolyline
 90
2
 70
0
 10
3.6581933688228907
 20
3.3503825187548766
 10
3.412030017003881
 20
3.3067522056545724
  0
LWPOLYLINE
  5
B5
330
17
100
AcDbEntity
  8
NumMarks_T26
100
AcDbPolyline
 90
2
 70
0
 10
3.4845817617267874
 20
2.1428259636266933
 10
3.2365189972760047
 20
2.1738882380610542
  0
LWPOLYLINE
  5
B6
330
17
100
AcDbEntity
  8
NumMarks_T26
100
AcDbPolyline
 90
2
 70
0
 10
3.4884645460310826
 20
2.1738338091830407
 10
3.2404017815803
 20
2.2048960836174016
  0
LWPOLYLINE
  5
B7
330
17
100
AcDbEntity
  8
NumMarks_T26
100
AcDbPolyline
 90
2
 70
0
 10
3.954032604306602
 20
1.516307841274546
 10
4.023217789394186
 20
1.2760716862845098
  0
LWPOLYLINE
  5
B8
330
17
100
AcDbEntity
  8
NumMarks_T26
100
AcDbPolyline
 90
2
 70
0
 10
4.31773039598614
 20
2.3259048939581444
 10
4.450949708811367
 20
2.5374530319560336
  0
LWPOLYLINE
  5
B9
330
17
100
AcDbEntity
  8
NumMarks_T26
100
AcDbPolyline
 90
2
 70
0
 10
4.344173913235877
 20
2.309252479854991
 10
4.477393226061104
 20
2.5208006178528803
  0
LWPOLYLINE
  5
BA
330
17
100
AcDbEntity
  8
NumMarks_T26
100
AcDbPolyline
 90
2
 70
0
 10
4.1320687977717245
 20
1.6667739861703839
 10
3.976791044747961
 20
1.470843336664261
  0
LWPOLYLINE
  5
BB
330
17
100
AcDbEntity
  8
NumMarks_T26
100
AcDbPolyline
 90
2
 70
0
 10
5.130902657561928
 20
2.0990365107464766
 10
5.37257686574002
 20
2.03505544244114
  0
LWPOLYLINE
  5
BC
330
17
100
AcDbEntity
  8
NumMarks_T26
100
AcDbPolyline
 90
2
 70
0
 10
5.122905024023761
 20
2.0688272347242154
 10
5.364579232201852
 20
2.004846166418879
  0
LWPOLYLINE
  5
BD
330
17
100
AcDbEntity
  8
NumMarks_T26
100
AcDbPolyline
 90
2
 70
0
 10
6.153910267552862
 20
2.579920088039915
 10
6.004490519848713
 20
2.3794862111726833
  0
LWPOLYLINE
  5
BE
330
17
100
AcDbEntity
  8
NumMarks_T26
100
AcDbPolyline
 90
2
 70
0
 10
6.049338152849935
 20
1.428987472230883
 10
5.946888622970422
 20
1.6570315333845707
  0
LWPOLYLINE
  5
BF
330
17
100
AcDbEntity
  8
NumMarks_T26
100
AcDbPolyline
 90
2
 70
0
 10
6.077843660494145
 20
1.4417936634658224
 10
5.9753941306146325
 20
1.66983772461951
  0
LWPOLYLINE
  5
C0
330
17
100
AcDbEntity
  8
NumMarks_T26
100
AcDbPolyline
 90
2
 70
0
 10
4.905048619668043
 20
2.0321338808320166
 10
4.972377364583926
 20
1.7913708435774334
  0
LWPOLYLINE
  5
C1
330
17
100
AcDbEntity
  8
NumMarks_T26
100
AcDbPolyline
 90
2
 70
0
 10
6.357431146288866
 20
1.4990205510454815
 10
6.140256033708929
 20
1.375186103189114
  0
LWPOLYLINE
  5
C2
330
17
100
AcDbEntity
  8
NumMarks_T26
100
AcDbPolyline
 90
2
 70
0
 10
6.3419518403068205
 20
1.5261674401179737
 10
6.124776727726883
 20
1.4023329922616061
  0
LWPOLYLINE
  5
C3
330
17
100
AcDbEntity
  8
NumMarks_T26
100
AcDbPolyline
 90
2
 70
0
 10
5.825784257631841
 20
0.7293455269354083
 10
6.0749251911870585
 20
0.750052898261443
  0
LWPOLYLINE
  5
C4
330
17
100
AcDbEntity
  8
NumMarks_T26
100
AcDbPolyline
 90
2
 70
0
 10
6.870078205154199
 20
1.8404313278053732
 10
7.0130949895411
 20
1.6353796285107065
  0
LWPOLYLINE
  5
C5
330
17
100
AcDbEntity
  8
NumMarks_T26
100
AcDbPolyline
 90
2
 70
0
 10
6.844446742742365
 20
1.8225542297570105
 10
6.987463527129266
 20
1.6175025304623438
  0
LWPOLYLINE
  5
C6
330
17
100
AcDbEntity
  8
NumMarks_T26
100
AcDbPolyline
 90
2
 70
0
 10
7.84554863675506
 20
2.4377200881116545
 10
8.016288371118957
 20
2.2551058961403143
  0
LWPOLYLINE
  5
C7
330
17
100
AcDbEntity
  8
NumMarks_T26
100
AcDbPolyline
 90
2
 70
0
 10
8.892794204417765
 20
3.0956793648089045
 10
8.924501082949142
 20
2.8476981682358646
  0
LWPOLYLINE
  5
C8
330
17
100
AcDbEntity
  8
NumMarks_T26
100
AcDbPolyline
 90
2
 70
0
 10
8.861796554846133
 20
3.091716004992482
 10
8.89350343337751
 20
2.843734808419442
  0
LWPOLYLINE
  5
C9
330
17
100
AcDbEntity
  8
NumMarks_T26
100
AcDbPolyline
 90
2
 70
0
 10
10.07697700615461
 20
3.0660855602485837
 10
10.06800173400287
 20
2.8162467232159836
  0
CIRCLE
  5
CB
330
17
100
AcDbEntity
  8
Holes_T27
100
AcDbCircle
 10
0.25088678740157483
 20
2.416989763779528
 30
0.0
 40
0.0625
  0
CIRCLE
  5
CC
330
17
100
AcDbEntity
  8
Holes_T27
100
AcDbCircle
 10
0.31117331889763783
 20
2.649572440944882
 30
0.0
 40
0.0625
  0
CIRCLE
  5
CD
330
17
100
AcDbEntity
  8
Holes_T27
100
AcDbCircle
 10
0.36863967716535434
 20
2.878688976377953
 30
0.0
 40
0.0625
  0
CIRCLE
  5
CE
330
17
100
AcDbEntity
  8
Holes_T27
100
AcDbCircle
 10
0.4175955511811024
 20
3.109757874015748
 30
0.0
 40
0.0625
  0
CIRCLE
  5
CF
330
17
100
AcDbEntity
  8
Holes_T27
100
AcDbCircle
 10
0.45273590551181103
 20
3.3433000787401577
 30
0.0
 40
0.0625
  0
CIRCLE
  5
D0
330
17
100
AcDbEntity
  8
Holes_T27
100
AcDbCircle
 10
0.4730092913385827
 20
3.57862437007874
 30
0.0
 40
0.0625
  0
CIRCLE
  5
D1
330
17
100
AcDbEntity
  8
Holes_T27
100
AcDbCircle
 10
0.48572070866141737
 20
3.8145012598425203
 30
0.0
 40
0.0625
  0
CIRCLE
  5
D2
330
17
100
AcDbEntity
  8
Holes_T27
100
AcDbCircle
 10
0.49864862204724414
 20
4.050365708661418
 30
0.0
 40
0.0625
  0
CIRCLE
  5
D3
330
17
100
AcDbEntity
  8
Holes_T27
100
AcDbCircle
 10
0.5172574803149607
 20
4.285841850393701
 30
0.0
 40
0.0625
  0
CIRCLE
  5
D4
330
17
100
AcDbEntity
  8
Holes_T27
100
AcDbCircle
 10
0.5451475590551181
 20
4.520387362204725
 30
0.0
 40
0.0625
  0
CIRCLE
  5
D5
330
17
100
AcDbEntity
  8
Holes_T27
100
AcDbCircle
 10
0.5870648818897638
 20
4.752802716535434
 30
0.0
 40
0.0625
  0
CIRCLE
  5
D6
330
17
100
AcDbEntity
  8
Holes_T27
100
AcDbCircle
 10
0.6523129527559056
 20
4.9796424409448825
 30
0.0
 40
0.0625
  0
CIRCLE
  5
D7
330
17
100
AcDbEntity
  8
Holes_T27
100
AcDbCircle
 10
0.7615698818897638
 20
5.188229606299213
 30
0.0
 40
0.0625
  0
CIRCLE
  5
D8
330
17
100
AcDbEntity
  8
Holes_T27
100
AcDbCircle
 10
0.9424265748031496
 20
5.333885
 30
0.0
 40
0.0625
  0
CIRCLE
  5
D9
330
17
100
AcDbEntity
  8
Holes_T27
100
AcDbCircle
 10
1.118891377952756
 20
5.216377086614174
 30
0.0
 40
0.0625
  0
CIRCLE
  5
DA
330
17
100
AcDbEntity
  8
Holes_T27
100
AcDbCircle
 10
1.2072501181102362
 20
4.997407165354331
 30
0.0
 40
0.0625
  0
CIRCLE
  5
DB
330
17
100
AcDbEntity
  8
Holes_T27
100
AcDbCircle
 10
1.3952775984251968
 20
4.890710078740158
 30
0.0
 40
0.0625
  0
CIRCLE
  5
DC
330
17
100
AcDbEntity
  8
Holes_T27
100
AcDbCircle
 10
1.5852652755905512
 20
5.022321181102362
 30
0.0
 40
0.0625
  0
CIRCLE
  5
DD
330
17
100
AcDbEntity
  8
Holes_T27
100
AcDbCircle
 10
1.706141220472441
 20
5.224870354330709
 30
0.0
 40
0.0625
  0
CIRCLE
  5
DE
330
17
100
AcDbEntity
  8
Holes_T27
100
AcDbCircle
 10
1.9139117716535434
 20
5.202567007874015
 30
0.0
 40
0.0625
  0
CIRCLE
  5
DF
330
17
100
AcDbEntity
  8
Holes_T27
100
AcDbCircle
 10
2.0695645275590553
 20
5.02641374015748
 30
0.0
 40
0.0625
  0
CIRCLE
  5
E0
330
17
100
AcDbEntity
  8
Holes_T27
100
AcDbCircle
 10
2.153376850393701
 20
4.807014330708662
 30
0.0
 40
0.0625
  0
CIRCLE
  5
E1
330
17
100
AcDbEntity
  8
Holes_T27
100
AcDbCircle
 10
2.211984921259843
 20
4.579112244094488
 30
0.0
 40
0.0625
  0
CIRCLE
  5
E2
330
17
100
AcDbEntity
  8
Holes_T27
100
AcDbCircle
 10
2.417628070866142
 20
4.496245196850394
 30
0.0
 40
0.0625
  0
CIRCLE
  5
E3
330
17
100
AcDbEntity
  8
Holes_T27
100
AcDbCircle
 10
2.6214515748031495
 20
4.603854212598426
 30
0.0
 40
0.0625
  0
CIRCLE
  5
E4
330
17
100
AcDbEntity
  8
Holes_T27
100
AcDbCircle
 10
2.686906102362205
 20
4.826468070866142
 30
0.0
 40
0.0625
  0
CIRCLE
  5
E5
330
17
100
AcDbEntity
  8
Holes_T27
100
AcDbCircle
 10
2.6836903937007874
 20
5.062623543307088
 30
0.0
 40
0.0625
  0
CIRCLE
  5
E6
330
17
100
AcDbEntity
  8
Holes_T27
100
AcDbCircle
 10
2.7435965354330714
 20
5.283538385826772
 30
0.0
 40
0.0625
  0
CIRCLE
  5
E7
330
17
100
AcDbEntity
  8
Holes_T27
100
AcDbCircle
 10
2.964662007874016
 20
5.283552559055119
 30
0.0
 40
0.0625
  0
CIRCLE
  5
E8
330
17
100
AcDbEntity
  8
Holes_T27
100
AcDbCircle
 10
3.0915995275590555
 20
5.091498110236221
 30
0.0
 40
0.0625
  0
CIRCLE
  5
E9
330
17
100
AcDbEntity
  8
Holes_T27
100
AcDbCircle
 10
3.1305158661417325
 20
4.858707322834646
 30
0.0
 40
0.0625
  0
CIRCLE
  5
EA
330
17
100
AcDbEntity
  8
Holes_T27
100
AcDbCircle
 10
3.17336531496063
 20
4.626701377952756
 30
0.0
 40
0.0625
  0
CIRCLE
  5
EB
330
17
100
AcDbEntity
  8
Holes_T27
100
AcDbCircle
 10
3.288257007874016
 20
4.424389685039371
 30
0.0
 40
0.0625
  0
CIRCLE
  5
EC
330
17
100
AcDbEntity
  8
Holes_T27
100
AcDbCircle
 10
3.470648976377953
 20
4.518783503937009
 30
0.0
 40
0.0625
  0
CIRCLE
  5
ED
330
17
100
AcDbEntity
  8
Holes_T27
100
AcDbCircle
 10
3.561262480314961
 20
4.736324881889764
 30
0.0
 40
0.0625
  0
CIRCLE
  5
EE
330
17
100
AcDbEntity
  8
Holes_T27
100
AcDbCircle
 10
3.6103965748031497
 20
4.967224488188976
 30
0.0
 40
0.0625
  0
CIRCLE
  5
EF
330
17
100
AcDbEntity
  8
Holes_T27
100
AcDbCircle
 10
3.720172755905512
 20
5.162428346456693
 30
0.0
 40
0.0625
  0
CIRCLE
  5
F0
330
17
100
AcDbEntity
  8
Holes_T27
100
AcDbCircle
 10
3.9451921259842524
 20
5.107723149606299
 30
0.0
 40
0.0625
  0
CIRCLE
  5
F1
330
17
100
AcDbEntity
  8
Holes_T27
100
AcDbCircle
 10
4.14096968503937
 20
4.976391181102363
 30
0.0
 40
0.0625
  0
CIRCLE
  5
F2
330
17
100
AcDbEntity
  8
Holes_T27
100
AcDbCircle
 10
4.300724015748032
 20
4.803397401574803
 30
0.0
 40
0.0625
  0
CIRCLE
  5
F3
330
17
100
AcDbEntity
  8
Holes_T27
100
AcDbCircle
 10
4.380208267716536
 20
4.583864055118111
 30
0.0
 40
0.0625
  0
CIRCLE
  5
F4
330
17
100
AcDbEntity
  8
Holes_T27
100
AcDbCircle
 10
4.355372834645669
 20
4.35000968503937
 30
0.0
 40
0.0625
  0
CIRCLE
  5
F5
330
17
100
AcDbEntity
  8
Holes_T27
100
AcDbCircle
 10
4.291263779527559
 20
4.122676496062992
 30
0.0
 40
0.0625
  0
CIRCLE
  5
F6
330
17
100
AcDbEntity
  8
Holes_T27
100
AcDbCircle
 10
4.280646850393701
 20
3.889361102362205
 30
0.0
 40
0.0625
  0
CIRCLE
  5
F7
330
17
100
AcDbEntity
  8
Holes_T27
100
AcDbCircle
 10
4.4515015748031495
 20
3.7484689370078743
 30
0.0
 40
0.0625
  0
CIRCLE
  5
F8
330
17
100
AcDbEntity
  8
Holes_T27
100
AcDbCircle
 10
4.686305118110236
 20
3.7658738976377957
 30
0.0
 40
0.0625
  0
CIRCLE
  5
F9
330
17
100
AcDbEntity
  8
Holes_T27
100
AcDbCircle
 10
4.920755118110236
 20
3.789462716535433
 30
0.0
 40
0.0625
  0
CIRCLE
  5
FA
330
17
100
AcDbEntity
  8
Holes_T27
100
AcDbCircle
 10
4.8397834645669295
 20
3.5955147244094494
 30
0.0
 40
0.0625
  0
CIRCLE
  5
FB
330
17
100
AcDbEntity
  8
Holes_T27
100
AcDbCircle
 10
4.747743700787402
 20
3.372745275590552
 30
0.0
 40
0.0625
  0
CIRCLE
  5
FC
330
17
100
AcDbEntity
  8
Holes_T27
100
AcDbCircle
 10
4.829705905511812
 20
3.1230405511811026
 30
0.0
 40
0.0625
  0
CIRCLE
  5
FD
330
17
100
AcDbEntity
  8
Holes_T27
100
AcDbCircle
 10
5.083384251968504
 20
3.272097913385827
 30
0.0
 40
0.0625
  0
CIRCLE
  5
FE
330
17
100
AcDbEntity
  8
Holes_T27
100
AcDbCircle
 10
5.151274409448819
 20
3.4982168897637798
 30
0.0
 40
0.0625
  0
CIRCLE
  5
FF
330
17
100
AcDbEntity
  8
Holes_T27
100
AcDbCircle
 10
5.206644881889765
 20
3.727852322834646
 30
0.0
 40
0.0625
  0
CIRCLE
  5
100
330
17
100
AcDbEntity
  8
Holes_T27
100
AcDbCircle
 10
5.26129842519685
 20
3.9576620472440944
 30
0.0
 40
0.0625
  0
CIRCLE
  5
101
330
17
100
AcDbEntity
  8
Holes_T27
100
AcDbCircle
 10
5.321508661417323
 20
4.186064409448819
 30
0.0
 40
0.0625
  0
CIRCLE
  5
102
330
17
100
AcDbEntity
  8
Holes_T27
100
AcDbCircle
 10
5.39635157480315
 20
4.410012322834646
 30
0.0
 40
0.0625
  0
CIRCLE
  5
103
330
17
100
AcDbEntity
  8
Holes_T27
100
AcDbCircle
 10
5.509844881889764
 20
4.61626125984252
 30
0.0
 40
0.0625
  0
CIRCLE
  5
104
330
17
100
AcDbEntity
  8
Holes_T27
100
AcDbCircle
 10
5.706515354330709
 20
4.68449594488189
 30
0.0
 40
0.0625
  0
CIRCLE
  5
105
330
17
100
AcDbEntity
  8
Holes_T27
100
AcDbCircle
 10
5.757057086614174
 20
4.459734251968504
 30
0.0
 40
0.0625
  0
CIRCLE
  5
106
330
17
100
AcDbEntity
  8
Holes_T27
100
AcDbCircle
 10
5.7296464566929135
 20
4.225262047244095
 30
0.0
 40
0.0625
  0
CIRCLE
  5
107
330
17
100
AcDbEntity
  8
Holes_T27
100
AcDbCircle
 10
5.684308267716536
 20
3.9934534251968508
 30
0.0
 40
0.0625
  0
CIRCLE
  5
108
330
17
100
AcDbEntity
  8
Holes_T27
100
AcDbCircle
 10
5.632443700787402
 20
3.762998622047244
 30
0.0
 40
0.0625
  0
CIRCLE
  5
109
330
17
100
AcDbEntity
  8
Holes_T27
100
AcDbCircle
 10
5.580765748031497
 20
3.5325036220472446
 30
0.0
 40
0.0625
  0
CIRCLE
  5
10A
330
17
100
AcDbEntity
  8
Holes_T27
100
AcDbCircle
 10
5.5428594488188985
 20
3.2994877952755908
 30
0.0
 40
0.0625
  0
CIRCLE
  5
10B
330
17
100
AcDbEntity
  8
Holes_T27
100
AcDbCircle
 10
5.585779921259842
 20
3.0726362204724413
 30
0.0
 40
0.0625
  0
CIRCLE
  5
10C
330
17
100
AcDbEntity
  8
Holes_T27
100
AcDbCircle
 10
5.786046850393701
 20
2.958664566929134
 30
0.0
 40
0.0625
  0
CIRCLE
  5
10D
330
17
100
AcDbEntity
  8
Holes_T27
100
AcDbCircle
 10
5.988044094488189
 20
3.0578925196850393
 30
0.0
 40
0.0625
  0
CIRCLE
  5
10E
330
17
100
AcDbEntity
  8
Holes_T27
100
AcDbCircle
 10
6.084169685039371
 20
3.272237480314961
 30
0.0
 40
0.0625
  0
CIRCLE
  5
10F
330
17
100
AcDbEntity
  8
Holes_T27
100
AcDbCircle
 10
6.134922047244095
 20
3.5028428346456693
 30
0.0
 40
0.0625
  0
CIRCLE
  5
110
330
17
100
AcDbEntity
  8
Holes_T27
100
AcDbCircle
 10
6.170996456692914
 20
3.7362785826771656
 30
0.0
 40
0.0625
  0
CIRCLE
  5
111
330
17
100
AcDbEntity
  8
Holes_T27
100
AcDbCircle
 10
6.202415354330709
 20
3.9703999606299214
 30
0.0
 40
0.0625
  0
CIRCLE
  5
112
330
17
100
AcDbEntity
  8
Holes_T27
100
AcDbCircle
 10
6.245498425196851
 20
4.202332362204725
 30
0.0
 40
0.0625
  0
CIRCLE
  5
113
330
17
100
AcDbEntity
  8
Holes_T27
100
AcDbCircle
 10
6.374802755905512
 20
4.079767874015748
 30
0.0
 40
0.0625
  0
CIRCLE
  5
114
330
17
100
AcDbEntity
  8
Holes_T27
100
AcDbCircle
 10
6.377224015748032
 20
3.804794881889764
 30
0.0
 40
0.0625
  0
CIRCLE
  5
115
330
17
100
AcDbEntity
  8
Holes_T27
100
AcDbCircle
 10
6.419561023622047
 20
3.5723998425196855
 30
0.0
 40
0.0625
  0
CIRCLE
  5
116
330
17
100
AcDbEntity
  8
Holes_T27
100
AcDbCircle
 10
6.465251181102362
 20
3.3406514173228348
 30
0.0
 40
0.0625
  0
CIRCLE
  5
117
330
17
100
AcDbEntity
  8
Holes_T27
100
AcDbCircle
 10
6.53315157480315
 20
3.1149078740157483
 30
0.0
 40
0.0625
  0
CIRCLE
  5
118
330
17
100
AcDbEntity
  8
Holes_T27
100
AcDbCircle
 10
6.787992913385827
 20
3.253069566929134
 30
0.0
 40
0.0625
  0
CIRCLE
  5
119
330
17
100
AcDbEntity
  8
Holes_T27
100
AcDbCircle
 10
6.7786287401574805
 20
3.4628234251968504
 30
0.0
 40
0.0625
  0
CIRCLE
  5
11A
330
17
100
AcDbEntity
  8
Holes_T27
100
AcDbCircle
 10
6.708099606299212
 20
3.6964035039370082
 30
0.0
 40
0.0625
  0
CIRCLE
  5
11B
330
17
100
AcDbEntity
  8
Holes_T27
100
AcDbCircle
 10
6.760519291338583
 20
3.926602716535433
 30
0.0
 40
0.0625
  0
CIRCLE
  5
11C
330
17
100
AcDbEntity
  8
Holes_T27
100
AcDbCircle
 10
6.857077952755906
 20
4.14105220472441
 30
0.0
 40
0.0625
  0
CIRCLE
  5
11D
330
17
100
AcDbEntity
  8
Holes_T27
100
AcDbCircle
 10
7.044476771653544
 20
4.275000433070866
 30
0.0
 40
0.0625
  0
CIRCLE
  5
11E
330
17
100
AcDbEntity
  8
Holes_T27
100
AcDbCircle
 10
7.220703149606299
 20
4.153704803149607
 30
0.0
 40
0.0625
  0
CIRCLE
  5
11F
330
17
100
AcDbEntity
  8
Holes_T27
100
AcDbCircle
 10
7.228297637795276
 20
3.9191034251968504
 30
0.0
 40
0.0625
  0
CIRCLE
  5
120
330
17
100
AcDbEntity
  8
Holes_T27
100
AcDbCircle
 10
7.193420866141732
 20
3.685508385826772
 30
0.0
 40
0.0625
  0
CIRCLE
  5
121
330
17
100
AcDbEntity
  8
Holes_T27
100
AcDbCircle
 10
7.167604330708662
 20
3.45116031496063
 30
0.0
 40
0.0625
  0
CIRCLE
  5
122
330
17
100
AcDbEntity
  8
Holes_T27
100
AcDbCircle
 10
7.3632803149606305
 20
3.3106886220472447
 30
0.0
 40
0.0625
  0
CIRCLE
  5
123
330
17
100
AcDbEntity
  8
Holes_T27
100
AcDbCircle
 10
7.514355905511811
 20
3.482896968503937
 30
0.0
 40
0.0625
  0
CIRCLE
  5
124
330
17
100
AcDbEntity
  8
Holes_T27
100
AcDbCircle
 10
7.672117322834646
 20
3.295427480314961
 30
0.0
 40
0.0625
  0
CIRCLE
  5
125
330
17
100
AcDbEntity
  8
Holes_T27
100
AcDbCircle
 10
7.863436220472441
 20
3.364478385826772
 30
0.0
 40
0.0625
  0
CIRCLE
  5
126
330
17
100
AcDbEntity
  8
Holes_T27
100
AcDbCircle
 10
7.985456299212599
 20
3.5659844488188974
 30
0.0
 40
0.0625
  0
CIRCLE
  5
127
330
17
100
AcDbEntity
  8
Holes_T27
100
AcDbCircle
 10
8.056183858267717
 20
3.7910777165354332
 30
0.0
 40
0.0625
  0
CIRCLE
  5
128
330
17
100
AcDbEntity
  8
Holes_T27
100
AcDbCircle
 10
8.218693307086614
 20
3.9381270472440946
 30
0.0
 40
0.0625
  0
CIRCLE
  5
129
330
17
100
AcDbEntity
  8
Holes_T27
100
AcDbCircle
 10
8.399005118110237
 20
3.8259882283464566
 30
0.0
 40
0.0625
  0
CIRCLE
  5
12A
330
17
100
AcDbEntity
  8
Holes_T27
100
AcDbCircle
 10
8.439061811023622
 20
3.5983940551181104
 30
0.0
 40
0.0625
  0
CIRCLE
  5
12B
330
17
100
AcDbEntity
  8
Holes_T27
100
AcDbCircle
 10
8.666717716535434
 20
3.633700669291339
 30
0.0
 40
0.0625
  0
CIRCLE
  5
12C
330
17
100
AcDbEntity
  8
Holes_T27
100
AcDbCircle
 10
8.876818897637795
 20
3.612444291338583
 30
0.0
 40
0.0625
  0
CIRCLE
  5
12D
330
17
100
AcDbEntity
  8
Holes_T27
100
AcDbCircle
 10
8.911720472440946
 20
3.381693070866142
 30
0.0
 40
0.0625
  0
CIRCLE
  5
12E
330
17
100
AcDbEntity
  8
Holes_T27
100
AcDbCircle
 10
9.172776377952756
 20
3.474641614173229
 30
0.0
 40
0.0625
  0
CIRCLE
  5
12F
330
17
100
AcDbEntity
  8
Holes_T27
100
AcDbCircle
 10
9.193223622047245
 20
3.7083291338582676
 30
0.0
 40
0.0625
  0
CIRCLE
  5
130
330
17
100
AcDbEntity
  8
Holes_T27
100
AcDbCircle
 10
9.170266141732284
 20
3.942090354330709
 30
0.0
 40
0.0625
  0
CIRCLE
  5
131
330
17
100
AcDbEntity
  8
Holes_T27
100
AcDbCircle
 10
9.107886220472441
 20
4.169912047244095
 30
0.0
 40
0.0625
  0
CIRCLE
  5
132
330
17
100
AcDbEntity
  8
Holes_T27
100
AcDbCircle
 10
9.078728346456694
 20
4.403337165354331
 30
0.0
 40
0.0625
  0
CIRCLE
  5
133
330
17
100
AcDbEntity
  8
Holes_T27
100
AcDbCircle
 10
9.145673228346457
 20
4.627481377952756
 30
0.0
 40
0.0625
  0
CIRCLE
  5
134
330
17
100
AcDbEntity
  8
Holes_T27
100
AcDbCircle
 10
9.334285826771653
 20
4.678358267716535
 30
0.0
 40
0.0625
  0
CIRCLE
  5
135
330
17
100
AcDbEntity
  8
Holes_T27
100
AcDbCircle
 10
9.433573622047245
 20
4.465946023622047
 30
0.0
 40
0.0625
  0
CIRCLE
  5
136
330
17
100
AcDbEntity
  8
Holes_T27
100
AcDbCircle
 10
9.478768503937008
 20
4.23435031496063
 30
0.0
 40
0.0625
  0
CIRCLE
  5
137
330
17
100
AcDbEntity
  8
Holes_T27
100
AcDbCircle
 10
9.48739724409449
 20
3.9984910236220474
 30
0.0
 40
0.0625
  0
CIRCLE
  5
138
330
17
100
AcDbEntity
  8
Holes_T27
100
AcDbCircle
 10
9.484992125984252
 20
3.7623896850393708
 30
0.0
 40
0.0625
  0
CIRCLE
  5
139
330
17
100
AcDbEntity
  8
Holes_T27
100
AcDbCircle
 10
9.589561023622048
 20
3.5615450787401577
 30
0.0
 40
0.0625
  0
CIRCLE
  5
13A
330
17
100
AcDbEntity
  8
Holes_T27
100
AcDbCircle
 10
9.810698031496063
 20
3.575664960629921
 30
0.0
 40
0.0625
  0
CIRCLE
  5
13B
330
17
100
AcDbEntity
  8
Holes_T27
100
AcDbCircle
 10
9.939577952755906
 20
3.7710346456692916
 30
0.0
 40
0.0625
  0
CIRCLE
  5
13C
330
17
100
AcDbEntity
  8
Holes_T27
100
AcDbCircle
 10
10.038122440944882
 20
3.9856677559055123
 30
0.0
 40
0.0625
  0
CIRCLE
  5
13D
330
17
100
AcDbEntity
  8
Holes_T27
100
AcDbCircle
 10
10.192778740157479
 20
4.158604921259842
 30
0.0
 40
0.0625
  0
CIRCLE
  5
13E
330
17
100
AcDbEntity
  8
Holes_T27
100
AcDbCircle
 10
10.424522047244096
 20
4.180978070866142
 30
0.0
 40
0.0625
  0
SPLINE
  5
140
330
17
100
AcDbEntity
  8
TrackPath_T27
100
AcDbSpline
 70
0
 71
3
 72
0
 73
0
 74
116
 11
0.25088678740157483
 21
2.416989763779528
 31
0.0
 11
0.31117331889763783
 21
2.649572440944882
 31
0.0
 11
0.36863967716535434
 21
2.878688976377953
 31
0.0
 11
0.4175955511811024
 21
3.109757874015748
 31
0.0
 11
0.45273590551181103
 21
3.3433000787401577
 31
0.0
 11
0.4730092913385827
 21
3.57862437007874
 31
0.0
 11
0.48572070866141737
 21
3.8145012598425203
 31
0.0
 11
0.49864862204724414
 21
4.050365708661418
 31
0.0
 11
0.5172574803149607
 21
4.285841850393701
 31
0.0
 11
0.5451475590551181
 21
4.520387362204725
 31
0.0
 11
0.5870648818897638
 21
4.752802716535434
 31
0.0
 11
0.6523129527559056
 21
4.9796424409448825
 31
0.0
 11
0.7615698818897638
 21
5.188229606299213
 31
0.0
 11
0.9424265748031496
 21
5.333885
 31
0.0
 11
1.118891377952756
 21
5.216377086614174
 31
0.0
 11
1.2072501181102362
 21
4.997407165354331
 31
0.0
 11
1.3952775984251968
 21
4.890710078740158
 31
0.0
 11
1.5852652755905512
 21
5.022321181102362
 31
0.0
 11
1.706141220472441
 21
5.224870354330709
 31
0.0
 11
1.9139117716535434
 21
5.202567007874015
 31
0.0
 11
2.0695645275590553
 21
5.02641374015748
 31
0.0
 11
2.153376850393701
 21
4.807014330708662
 31
0.0
 11
2.211984921259843
 21
4.579112244094488
 31
0.0
 11
2.417628070866142
 21
4.496245196850394
 31
0.0
 11
2.6214515748031495
 21
4.603854212598426
 31
0.0
 11
2.686906102362205
 21
4.826468070866142
 31
0.0
 11
2.6836903937007874
 21
5.062623543307088
 31
0.0
 11
2.7435965354330714
 21
5.283538385826772
 31
0.0
 11
2.964662007874016
 21
5.283552559055119
 31
0.0
 11
3.0915995275590555
 21
5.091498110236221
 31
0.0
 11
3.1305158661417325
 21
4.858707322834646
 31
0.0
 11
3.17336531496063
 21
4.626701377952756
 31
0.0
 11
3.288257007874016
 21
4.424389685039371
 31
0.0
 11
3.470648976377953
 21
4.518783503937009
 31
0.0
 11
3.561262480314961
 21
4.736324881889764
 31
0.0
 11
3.6103965748031497
 21
4.967224488188976
 31
0.0
 11
3.720172755905512
 21
5.162428346456693
 31
0.0
 11
3.9451921259842524
 21
5.107723149606299
 31
0.0
 11
4.14096968503937
 21
4.976391181102363
 31
0.0
 11
4.300724015748032
 21
4.803397401574803
 31
0.0
 11
4.380208267716536
 21
4.583864055118111
 31
0.0
 11
4.355372834645669
 21
4.35000968503937
 31
0.0
 11
4.291263779527559
 21
4.122676496062992
 31
0.0
 11
4.280646850393701
 21
3.889361102362205
 31
0.0
 11
4.4515015748031495
 21
3.7484689370078743
 31
0.0
 11
4.686305118110236
 21
3.7658738976377957
 31
0.0
 11
4.920755118110236
 21
3.789462716535433
 31
0.0
 11
4.8397834645669295
 21
3.5955147244094494
 31
0.0
 11
4.747743700787402
 21
3.372745275590552
 31
0.0
 11
4.829705905511812
 21
3.1230405511811026
 31
0.0
 11
5.083384251968504
 21
3.272097913385827
 31
0.0
 11
5.151274409448819
 21
3.4982168897637798
 31
0.0
 11
5.206644881889765
 21
3.727852322834646
 31
0.0
 11
5.26129842519685
 21
3.9576620472440944
 31
0.0
 11
5.321508661417323
 21
4.186064409448819
 31
0.0
 11
5.39635157480315
 21
4.410012322834646
 31
0.0
 11
5.509844881889764
 21
4.61626125984252
 31
0.0
 11
5.706515354330709
 21
4.68449594488189
 31
0.0
 11
5.757057086614174
 21
4.459734251968504
 31
0.0
 11
5.7296464566929135
 21
4.225262047244095
 31
0.0
 11
5.684308267716536
 21
3.9934534251968508
 31
0.0
 11
5.632443700787402
 21
3.762998622047244
 31
0.0
 11
5.580765748031497
 21
3.5325036220472446
 31
0.0
 11
5.5428594488188985
 21
3.2994877952755908
 31
0.0
 11
5.585779921259842
 21
3.0726362204724413
 31
0.0
 11
5.786046850393701
 21
2.958664566929134
 31
0.0
 11
5.988044094488189
 21
3.0578925196850393
 31
0.0
 11
6.084169685039371
 21
3.272237480314961
 31
0.0
 11
6.134922047244095
 21
3.5028428346456693
 31
0.0
 11
6.170996456692914
 21
3.7362785826771656
 31
0.0
 11
6.202415354330709
 21
3.9703999606299214
 31
0.0
 11
6.245498425196851
 21
4.202332362204725
 31
0.0
 11
6.374802755905512
 21
4.079767874015748
 31
0.0
 11
6.377224015748032
 21
3.804794881889764
 31
0.0
 11
6.419561023622047
 21
3.5723998425196855
 31
0.0
 11
6.465251181102362
 21
3.3406514173228348
 31
0.0
 11
6.53315157480315
 21
3.1149078740157483
 31
0.0
 11
6.787992913385827
 21
3.253069566929134
 31
0.0
 11
6.7786287401574805
 21
3.4628234251968504
 31
0.0
 11
6.708099606299212
 21
3.6964035039370082
 31
0.0
 11
6.760519291338583
 21
3.926602716535433
 31
0.0
 11
6.857077952755906
 21
4.14105220472441
 31
0.0
 11
7.044476771653544
 21
4.275000433070866
 31
0.0
 11
7.220703149606299
 21
4.153704803149607
 31
0.0
 11
7.228297637795276
 21
3.9191034251968504
 31
0.0
 11
7.193420866141732
 21
3.685508385826772
 31
0.0
 11
7.167604330708662
 21
3.45116031496063
 31
0.0
 11
7.3632803149606305
 21
3.3106886220472447
 31
0.0
 11
7.514355905511811
 21
3.482896968503937
 31
0.0
 11
7.672117322834646
 21
3.295427480314961
 31
0.0
 11
7.863436220472441
 21
3.364478385826772
 31
0.0
 11
7.985456299212599
 21
3.5659844488188974
 31
0.0
 11
8.056183858267717
 21
3.7910777165354332
 31
0.0
 11
8.218693307086614
 21
3.9381270472440946
 31
0.0
 11
8.399005118110237
 21
3.8259882283464566
 31
0.0
 11
8.439061811023622
 21
3.5983940551181104
 31
0.0
 11
8.666717716535434
 21
3.633700669291339
 31
0.0
 11
8.876818897637795
 21
3.612444291338583
 31
0.0
 11
8.911720472440946
 21
3.381693070866142
 31
0.0
 11
9.172776377952756
 21
3.474641614173229
 31
0.0
 11
9.193223622047245
 21
3.7083291338582676
 31
0.0
 11
9.170266141732284
 21
3.942090354330709
 31
0.0
 11
9.107886220472441
 21
4.169912047244095
 31
0.0
 11
9.078728346456694
 21
4.403337165354331
 31
0.0
 11
9.145673228346457
 21
4.627481377952756
 31
0.0
 11
9.334285826771653
 21
4.678358267716535
 31
0.0
 11
9.433573622047245
 21
4.465946023622047
 31
0.0
 11
9.478768503937008
 21
4.23435031496063
 31
0.0
 11
9.48739724409449
 21
3.9984910236220474
 31
0.0
 11
9.484992125984252
 21
3.7623896850393708
 31
0.0
 11
9.589561023622048
 21
3.5615450787401577
 31
0.0
 11
9.810698031496063
 21
3.575664960629921
 31
0.0
 11
9.939577952755906
 21
3.7710346456692916
 31
0.0
 11
10.038122440944882
 21
3.9856677559055123
 31
0.0
 11
10.192778740157479
 21
4.158604921259842
 31
0.0
 11
10.424522047244096
 21
4.180978070866142
 31
0.0
  0
LWPOLYLINE
  5
142
330
17
100
AcDbEntity
  8
NumMarks_T27
100
AcDbPolyline
 90
2
 70
0
 10
0.32859986966278515
 20
3.3579712955843517
 10
0.576871941360837
 20
3.3286288618959636
  0
LWPOLYLINE
  5
143
330
17
100
AcDbEntity
  8
NumMarks_T27
100
AcDbPolyline
 90
2
 70
0
 10
0.42383149361954126
 20
4.554321900542986
 10
0.6710839396067105
 20
4.517359379614861
  0
LWPOLYLINE
  5
144
330
17
100
AcDbEntity
  8
NumMarks_T27
100
AcDbPolyline
 90
2
 70
0
 10
0.4192111785035258
 20
4.523415344794589
 10
0.666463624490695
 20
4.486452823866465
  0
LWPOLYLINE
  5
145
330
17
100
AcDbEntity
  8
NumMarks_T27
100
AcDbPolyline
 90
2
 70
0
 10
1.217117587976436
 20
5.29368563507024
 10
1.0206651679290761
 20
5.139068538158108
  0
LWPOLYLINE
  5
146
330
17
100
AcDbEntity
  8
NumMarks_T27
100
AcDbPolyline
 90
2
 70
0
 10
1.9875343320861365
 20
5.304786669487372
 10
1.867716283631395
 20
5.085370090203815
  0
LWPOLYLINE
  5
147
330
17
100
AcDbEntity
  8
NumMarks_T27
100
AcDbPolyline
 90
2
 70
0
 10
1.9601072596756919
 20
5.3197639255442155
 10
1.8402892112209503
 20
5.1003473462606586
  0
LWPOLYLINE
  5
148
330
17
100
AcDbEntity
  8
NumMarks_T27
100
AcDbPolyline
 90
2
 70
0
 10
2.524577023415658
 20
4.6828499168706985
 10
2.718326126190641
 20
4.524858508326154
  0
LWPOLYLINE
  5
149
330
17
100
AcDbEntity
  8
NumMarks_T27
100
AcDbPolyline
 90
2
 70
0
 10
3.2137232574341086
 20
5.122400136487021
 10
2.980840103526509
 20
5.0314856897469715
  0
LWPOLYLINE
  5
14A
330
17
100
AcDbEntity
  8
NumMarks_T27
100
AcDbPolyline
 90
2
 70
0
 10
3.202358951591602
 20
5.15151053072547
 10
2.9694757976840025
 20
5.060596083985421
  0
LWPOLYLINE
  5
14B
330
17
100
AcDbEntity
  8
NumMarks_T27
100
AcDbPolyline
 90
2
 70
0
 10
3.4419229567767413
 20
4.773514640179792
 10
3.6806020038531804
 20
4.699135123599735
  0
LWPOLYLINE
  5
14C
330
17
100
AcDbEntity
  8
NumMarks_T27
100
AcDbPolyline
 90
2
 70
0
 10
4.4155933297987575
 20
4.855109888601784
 10
4.2021183697055084
 20
4.725000544536166
  0
LWPOLYLINE
  5
14D
330
17
100
AcDbEntity
  8
NumMarks_T27
100
AcDbPolyline
 90
2
 70
0
 10
4.3993296617905555
 20
4.88179425861344
 10
4.1858547016973064
 20
4.751684914547822
  0
LWPOLYLINE
  5
14E
330
17
100
AcDbEntity
  8
NumMarks_T27
100
AcDbPolyline
 90
2
 70
0
 10
4.487903789440257
 20
3.868051037547687
 10
4.4150993601660415
 20
3.6288868364680615
  0
LWPOLYLINE
  5
14F
330
17
100
AcDbEntity
  8
NumMarks_T27
100
AcDbPolyline
 90
2
 70
0
 10
4.880576313476203
 20
3.2382852569967557
 10
4.808768668454794
 20
2.9988198897377734
  0
LWPOLYLINE
  5
150
330
17
100
AcDbEntity
  8
NumMarks_T27
100
AcDbPolyline
 90
2
 70
0
 10
4.8506431425688294
 20
3.247261212624432
 10
4.778835497547421
 20
3.0077958453654494
  0
LWPOLYLINE
  5
151
330
17
100
AcDbEntity
  8
NumMarks_T27
100
AcDbPolyline
 90
2
 70
0
 10
5.201732969786681
 20
4.221824494661264
 10
5.4412843530479655
 20
4.150304324236374
  0
LWPOLYLINE
  5
152
330
17
100
AcDbEntity
  8
NumMarks_T27
100
AcDbPolyline
 90
2
 70
0
 10
5.850743640926922
 20
4.190554517865087
 10
5.603731947818964
 20
4.229093114984608
  0
LWPOLYLINE
  5
153
330
17
100
AcDbEntity
  8
NumMarks_T27
100
AcDbPolyline
 90
2
 70
0
 10
5.855560965566863
 20
4.221430979503581
 10
5.608549272458905
 20
4.259969576623102
  0
LWPOLYLINE
  5
154
330
17
100
AcDbEntity
  8
NumMarks_T27
100
AcDbPolyline
 90
2
 70
0
 10
5.687532989997513
 20
3.1452400289294826
 10
5.484026852522171
 20
3.0000324120154
  0
LWPOLYLINE
  5
155
330
17
100
AcDbEntity
  8
NumMarks_T27
100
AcDbPolyline
 90
2
 70
0
 10
6.049511190811833
 20
3.7696023099417277
 10
6.296946478027394
 20
3.7338842663145484
  0
LWPOLYLINE
  5
156
330
17
100
AcDbEntity
  8
NumMarks_T27
100
AcDbPolyline
 90
2
 70
0
 10
6.045046435358435
 20
3.738672899039783
 10
6.292481722573996
 20
3.7029548554126035
  0
LWPOLYLINE
  5
157
330
17
100
AcDbEntity
  8
NumMarks_T27
100
AcDbPolyline
 90
2
 70
0
 10
6.542371841264779
 20
3.595691537819164
 10
6.296750205979316
 20
3.549108147220207
  0
LWPOLYLINE
  5
158
330
17
100
AcDbEntity
  8
NumMarks_T27
100
AcDbPolyline
 90
2
 70
0
 10
6.5825851384528375
 20
3.707139377736619
 10
6.832394767147142
 20
3.716893833724186
  0
LWPOLYLINE
  5
159
330
17
100
AcDbEntity
  8
NumMarks_T27
100
AcDbPolyline
 90
2
 70
0
 10
6.583804445451283
 20
3.6759131741498305
 10
6.833614074145587
 20
3.6856676301373974
  0
LWPOLYLINE
  5
15A
330
17
100
AcDbEntity
  8
NumMarks_T27
100
AcDbPolyline
 90
2
 70
0
 10
7.353085957219825
 20
3.911831882362169
 10
7.103509318370726
 20
3.926374968031532
  0
LWPOLYLINE
  5
15B
330
17
100
AcDbEntity
  8
NumMarks_T27
100
AcDbPolyline
 90
2
 70
0
 10
7.727070264203259
 20
3.40878229873896
 10
7.646757965735591
 20
3.172033624582503
  0
LWPOLYLINE
  5
15C
330
17
100
AcDbEntity
  8
NumMarks_T27
100
AcDbPolyline
 90
2
 70
0
 10
7.697476679933701
 20
3.4188213360474187
 10
7.617164381466034
 20
3.1820726618909614
  0
LWPOLYLINE
  5
15D
330
17
100
AcDbEntity
  8
NumMarks_T27
100
AcDbPolyline
 90
2
 70
0
 10
8.503875115833408
 20
3.8940123680142413
 10
8.294135120387066
 20
3.757964088678672
  0
LWPOLYLINE
  5
15E
330
17
100
AcDbEntity
  8
NumMarks_T27
100
AcDbPolyline
 90
2
 70
0
 10
9.08828923850381
 20
3.5680817762703394
 10
9.277664568396409
 20
3.404873368312693
  0
LWPOLYLINE
  5
15F
330
17
100
AcDbEntity
  8
NumMarks_T27
100
AcDbPolyline
 90
2
 70
0
 10
9.067888187509103
 20
3.5444098600337646
 10
9.257263517401702
 20
3.381201452076118
  0
LWPOLYLINE
  5
160
330
17
100
AcDbEntity
  8
NumMarks_T27
100
AcDbPolyline
 90
2
 70
0
 10
9.054104054543954
 20
4.712570075258138
 10
9.23724240214896
 20
4.542392680647374
  0
LWPOLYLINE
  5
161
330
17
100
AcDbEntity
  8
NumMarks_T27
100
AcDbPolyline
 90
2
 70
0
 10
9.61026672471506
 20
3.775634138136233
 10
9.366832303361313
 20
3.7187159292732903
  0
LWPOLYLINE
  5
162
330
17
100
AcDbEntity
  8
NumMarks_T27
100
AcDbPolyline
 90
2
 70
0
 10
9.603151948607191
 20
3.8060634408054512
 10
9.359717527253444
 20
3.7491452319425087
  0
LWPOLYLINE
  5
163
330
17
100
AcDbEntity
  8
NumMarks_T27
100
AcDbPolyline
 90
2
 70
0
 10
10.136390106246258
 20
4.270163524539133
 10
10.2491673740687
 20
4.047046317980551
  0
CIRCLE
  5
165
330
17
100
AcDbEntity
  8
Holes_T28
100
AcDbCircle
 10
1.0220205118110237
 20
0.18990354330708709
 30
0.0
 40
0.0625
  0
CIRCLE
  5
166
330
17
100
AcDbEntity
  8
Holes_T28
100
AcDbCircle
 10
1.1927046062992126
 20
0.3525082677165355
 30
0.0
 40
0.0625
  0
CIRCLE
  5
167
330
17
100
AcDbEntity
  8
Holes_T28
100
AcDbCircle
 10
1.3642192125984252
 20
0.5149216535433075
 30
0.0
 40
0.0625
  0
CIRCLE
  5
168
330
17
100
AcDbEntity
  8
Holes_T28
100
AcDbCircle
 10
1.5277635433070866
 20
0.685312204724409
 30
0.0
 40
0.0625
  0
CIRCLE
  5
169
330
17
100
AcDbEntity
  8
Holes_T28
100
AcDbCircle
 10
1.6740099606299212
 20
0.8705870078740158
 30
0.0
 40
0.0625
  0
CIRCLE
  5
16A
330
17
100
AcDbEntity
  8
Holes_T28
100
AcDbCircle
 10
1.7784264173228346
 20
1.081508267716536
 30
0.0
 40
0.0625
  0
CIRCLE
  5
16B
330
17
100
AcDbEntity
  8
Holes_T28
100
AcDbCircle
 10
1.8021457480314962
 20
1.3148838582677171
 30
0.0
 40
0.0625
  0
CIRCLE
  5
16C
330
17
100
AcDbEntity
  8
Holes_T28
100
AcDbCircle
 10
1.7233548031496064
 20
1.5351370078740159
 30
0.0
 40
0.0625
  0
CIRCLE
  5
16D
330
17
100
AcDbEntity
  8
Holes_T28
100
AcDbCircle
 10
1.5464364566929134
 20
1.68864094488189
 30
0.0
 40
0.0625
  0
CIRCLE
  5
16E
330
17
100
AcDbEntity
  8
Holes_T28
100
AcDbCircle
 10
1.4207717322834645
 20
1.8723586614173227
 30
0.0
 40
0.0625
  0
CIRCLE
  5
16F
330
17
100
AcDbEntity
  8
Holes_T28
100
AcDbCircle
 10
1.449142283464567
 20
2.1065370078740164
 30
0.0
 40
0.0625
  0
CIRCLE
  5
170
330
17
100
AcDbEntity
  8
Holes_T28
100
AcDbCircle
 10
1.4926302755905514
 20
2.338719291338583
 30
0.0
 40
0.0625
  0
CIRCLE
  5
171
330
17
100
AcDbEntity
  8
Holes_T28
100
AcDbCircle
 10
1.5363911811023623
 20
2.570850787401575
 30
0.0
 40
0.0625
  0
CIRCLE
  5
172
330
17
100
AcDbEntity
  8
Holes_T28
100
AcDbCircle
 10
1.5836186220472444
 20
2.8022952755905512
 30
0.0
 40
0.0625
  0
CIRCLE
  5
173
330
17
100
AcDbEntity
  8
Holes_T28
100
AcDbCircle
 10
1.6403740944881888
 20
3.0315559055118113
 30
0.0
 40
0.0625
  0
CIRCLE
  5
174
330
17
100
AcDbEntity
  8
Holes_T28
100
AcDbCircle
 10
1.7292172047244097
 20
3.249349291338583
 30
0.0
 40
0.0625
  0
CIRCLE
  5
175
330
17
100
AcDbEntity
  8
Holes_T28
100
AcDbCircle
 10
1.876911968503937
 20
3.146193307086614
 30
0.0
 40
0.0625
  0
CIRCLE
  5
176
330
17
100
AcDbEntity
  8
Holes_T28
100
AcDbCircle
 10
1.9448188188976379
 20
2.9200988188976376
 30
0.0
 40
0.0625
  0
CIRCLE
  5
177
330
17
100
AcDbEntity
  8
Holes_T28
100
AcDbCircle
 10
1.994745
 20
2.6892413385826774
 30
0.0
 40
0.0625
  0
CIRCLE
  5
178
330
17
100
AcDbEntity
  8
Holes_T28
100
AcDbCircle
 10
2.0350895275590553
 20
2.4565027559055115
 30
0.0
 40
0.0625
  0
CIRCLE
  5
179
330
17
100
AcDbEntity
  8
Holes_T28
100
AcDbCircle
 10
2.0682761811023624
 20
2.222633070866142
 30
0.0
 40
0.0625
  0
CIRCLE
  5
17A
330
17
100
AcDbEntity
  8
Holes_T28
100
AcDbCircle
 10
2.0948689370078744
 20
1.9879220472440948
 30
0.0
 40
0.0625
  0
CIRCLE
  5
17B
330
17
100
AcDbEntity
  8
Holes_T28
100
AcDbCircle
 10
2.114703503937008
 20
1.7525440944881894
 30
0.0
 40
0.0625
  0
CIRCLE
  5
17C
330
17
100
AcDbEntity
  8
Holes_T28
100
AcDbCircle
 10
2.1292542519685043
 20
1.5167759842519681
 30
0.0
 40
0.0625
  0
CIRCLE
  5
17D
330
17
100
AcDbEntity
  8
Holes_T28
100
AcDbCircle
 10
2.14142531496063
 20
1.280868897637796
 30
0.0
 40
0.0625
  0
CIRCLE
  5
17E
330
17
100
AcDbEntity
  8
Holes_T28
100
AcDbCircle
 10
2.1561807480314963
 20
1.0451181102362201
 30
0.0
 40
0.0625
  0
CIRCLE
  5
17F
330
17
100
AcDbEntity
  8
Holes_T28
100
AcDbCircle
 10
2.1836191732283465
 20
0.8105775590551184
 30
0.0
 40
0.0625
  0
CIRCLE
  5
180
330
17
100
AcDbEntity
  8
Holes_T28
100
AcDbCircle
 10
2.249547322834646
 20
0.5845110236220469
 30
0.0
 40
0.0625
  0
CIRCLE
  5
181
330
17
100
AcDbEntity
  8
Holes_T28
100
AcDbCircle
 10
2.424164763779528
 20
0.4703649606299214
 30
0.0
 40
0.0625
  0
CIRCLE
  5
182
330
17
100
AcDbEntity
  8
Holes_T28
100
AcDbCircle
 10
2.540442952755906
 20
0.6708196850393696
 30
0.0
 40
0.0625
  0
CIRCLE
  5
183
330
17
100
AcDbEntity
  8
Holes_T28
100
AcDbCircle
 10
2.5904757480314964
 20
0.9014917322834642
 30
0.0
 40
0.0625
  0
CIRCLE
  5
184
330
17
100
AcDbEntity
  8
Holes_T28
100
AcDbCircle
 10
2.6211835826771654
 20
1.135686220472441
 30
0.0
 40
0.0625
  0
CIRCLE
  5
185
330
17
100
AcDbEntity
  8
Holes_T28
100
AcDbCircle
 10
2.644318425196851
 20
1.3707665354330705
 30
0.0
 40
0.0625
  0
CIRCLE
  5
186
330
17
100
AcDbEntity
  8
Holes_T28
100
AcDbCircle
 10
2.664092952755906
 20
1.6061555118110233
 30
0.0
 40
0.0625
  0
CIRCLE
  5
187
330
17
100
AcDbEntity
  8
Holes_T28
100
AcDbCircle
 10
2.6831520866141734
 20
1.8416078740157478
 30
0.0
 40
0.0625
  0
CIRCLE
  5
188
330
17
100
AcDbEntity
  8
Holes_T28
100
AcDbCircle
 10
2.704488307086614
 20
2.076861023622048
 30
0.0
 40
0.0625
  0
CIRCLE
  5
189
330
17
100
AcDbEntity
  8
Holes_T28
100
AcDbCircle
 10
2.735386653543307
 20
2.3109929133858267
 30
0.0
 40
0.0625
  0
CIRCLE
  5
18A
330
17
100
AcDbEntity
  8
Holes_T28
100
AcDbCircle
 10
2.8480275590551183
 20
2.3860377952755907
 30
0.0
 40
0.0625
  0
CIRCLE
  5
18B
330
17
100
AcDbEntity
  8
Holes_T28
100
AcDbCircle
 10
2.931164409448819
 20
2.1652003937007875
 30
0.0
 40
0.0625
  0
CIRCLE
  5
18C
330
17
100
AcDbEntity
  8
Holes_T28
100
AcDbCircle
 10
2.9976171259842523
 20
1.9385295275590555
 30
0.0
 40
0.0625
  0
CIRCLE
  5
18D
330
17
100
AcDbEntity
  8
Holes_T28
100
AcDbCircle
 10
3.0605380314960633
 20
1.7108433070866145
 30
0.0
 40
0.0625
  0
CIRCLE
  5
18E
330
17
100
AcDbEntity
  8
Holes_T28
100
AcDbCircle
 10
3.1251312598425196
 20
1.4836295275590552
 30
0.0
 40
0.0625
  0
CIRCLE
  5
18F
330
17
100
AcDbEntity
  8
Holes_T28
100
AcDbCircle
 10
3.197661614173229
 20
1.2588452755905515
 30
0.0
 40
0.0625
  0
CIRCLE
  5
190
330
17
100
AcDbEntity
  8
Holes_T28
100
AcDbCircle
 10
3.284530433070866
 20
1.0392496062992127
 30
0.0
 40
0.0625
  0
CIRCLE
  5
191
330
17
100
AcDbEntity
  8
Holes_T28
100
AcDbCircle
 10
3.394342598425197
 20
0.8303011811023625
 30
0.0
 40
0.0625
  0
CIRCLE
  5
192
330
17
100
AcDbEntity
  8
Holes_T28
100
AcDbCircle
 10
3.5312248031496067
 20
0.6379551181102362
 30
0.0
 40
0.0625
  0
CIRCLE
  5
193
330
17
100
AcDbEntity
  8
Holes_T28
100
AcDbCircle
 10
3.702937480314961
 20
0.4780988188976378
 30
0.0
 40
0.0625
  0
CIRCLE
  5
194
330
17
100
AcDbEntity
  8
Holes_T28
100
AcDbCircle
 10
3.8842363779527562
 20
0.5763078740157477
 30
0.0
 40
0.0625
  0
CIRCLE
  5
195
330
17
100
AcDbEntity
  8
Holes_T28
100
AcDbCircle
 10
3.991400787401575
 20
0.7867661417322832
 30
0.0
 40
0.0625
  0
CIRCLE
  5
196
330
17
100
AcDbEntity
  8
Holes_T28
100
AcDbCircle
 10
4.161993700787402
 20
0.9406279527559059
 30
0.0
 40
0.0625
  0
CIRCLE
  5
197
330
17
100
AcDbEntity
  8
Holes_T28
100
AcDbCircle
 10
4.390377952755906
 20
0.9064874015748029
 30
0.0
 40
0.0625
  0
CIRCLE
  5
198
330
17
100
AcDbEntity
  8
Holes_T28
100
AcDbCircle
 10
4.570970472440945
 20
0.7565594488188978
 30
0.0
 40
0.0625
  0
CIRCLE
  5
199
330
17
100
AcDbEntity
  8
Holes_T28
100
AcDbCircle
 10
4.751447244094488
 20
0.6130582677165349
 30
0.0
 40
0.0625
  0
CIRCLE
  5
19A
330
17
100
AcDbEntity
  8
Holes_T28
100
AcDbCircle
 10
4.93230905511811
 20
0.7537212598425197
 30
0.0
 40
0.0625
  0
CIRCLE
  5
19B
330
17
100
AcDbEntity
  8
Holes_T28
100
AcDbCircle
 10
5.084789763779528
 20
0.93401062992126
 30
0.0
 40
0.0625
  0
CIRCLE
  5
19C
330
17
100
AcDbEntity
  8
Holes_T28
100
AcDbCircle
 10
5.291412992125985
 20
1.0240137795275592
 30
0.0
 40
0.0625
  0
CIRCLE
  5
19D
330
17
100
AcDbEntity
  8
Holes_T28
100
AcDbCircle
 10
5.475266929133858
 20
0.8838515748031494
 30
0.0
 40
0.0625
  0
CIRCLE
  5
19E
330
17
100
AcDbEntity
  8
Holes_T28
100
AcDbCircle
 10
5.582729133858268
 20
0.6742917322834651
 30
0.0
 40
0.0625
  0
CIRCLE
  5
19F
330
17
100
AcDbEntity
  8
Holes_T28
100
AcDbCircle
 10
5.692155905511811
 20
0.4661622047244094
 30
0.0
 40
0.0625
  0
CIRCLE
  5
1A0
330
17
100
AcDbEntity
  8
Holes_T28
100
AcDbCircle
 10
5.8604917322834655
 20
0.3051228346456697
 30
0.0
 40
0.0625
  0
CIRCLE
  5
1A1
330
17
100
AcDbEntity
  8
Holes_T28
100
AcDbCircle
 10
6.11122125984252
 20
0.24125826771653552
 30
0.0
 40
0.0625
  0
CIRCLE
  5
1A2
330
17
100
AcDbEntity
  8
Holes_T28
100
AcDbCircle
 10
6.353700000000001
 20
0.2752889763779533
 30
0.0
 40
0.0625
  0
CIRCLE
  5
1A3
330
17
100
AcDbEntity
  8
Holes_T28
100
AcDbCircle
 10
6.589495275590552
 20
0.2876114173228346
 30
0.0
 40
0.0625
  0
CIRCLE
  5
1A4
330
17
100
AcDbEntity
  8
Holes_T28
100
AcDbCircle
 10
6.822273228346457
 20
0.3267303149606296
 30
0.0
 40
0.0625
  0
CIRCLE
  5
1A5
330
17
100
AcDbEntity
  8
Holes_T28
100
AcDbCircle
 10
7.043893700787401
 20
0.4068818897637796
 30
0.0
 40
0.0625
  0
CIRCLE
  5
1A6
330
17
100
AcDbEntity
  8
Holes_T28
100
AcDbCircle
 10
7.226658661417323
 20
0.5535606299212599
 30
0.0
 40
0.0625
  0
CIRCLE
  5
1A7
330
17
100
AcDbEntity
  8
Holes_T28
100
AcDbCircle
 10
7.321422834645669
 20
0.7679870078740155
 30
0.0
 40
0.0625
  0
CIRCLE
  5
1A8
330
17
100
AcDbEntity
  8
Holes_T28
100
AcDbCircle
 10
7.3606803149606295
 20
1.0008125984251965
 30
0.0
 40
0.0625
  0
CIRCLE
  5
1A9
330
17
100
AcDbEntity
  8
Holes_T28
100
AcDbCircle
 10
7.399521259842521
 20
1.2337299212598423
 30
0.0
 40
0.0625
  0
CIRCLE
  5
1AA
330
17
100
AcDbEntity
  8
Holes_T28
100
AcDbCircle
 10
7.478658267716536
 20
1.4556531496062994
 30
0.0
 40
0.0625
  0
CIRCLE
  5
1AB
330
17
100
AcDbEntity
  8
Holes_T28
100
AcDbCircle
 10
7.613062598425198
 20
1.648883858267717
 30
0.0
 40
0.0625
  0
CIRCLE
  5
1AC
330
17
100
AcDbEntity
  8
Holes_T28
100
AcDbCircle
 10
7.812549606299213
 20
1.7671952755905516
 30
0.0
 40
0.0625
  0
CIRCLE
  5
1AD
330
17
100
AcDbEntity
  8
Holes_T28
100
AcDbCircle
 10
8.01114251968504
 20
1.6625283464566927
 30
0.0
 40
0.0625
  0
CIRCLE
  5
1AE
330
17
100
AcDbEntity
  8
Holes_T28
100
AcDbCircle
 10
8.100894488188978
 20
1.4458484251968502
 30
0.0
 40
0.0625
  0
CIRCLE
  5
1AF
330
17
100
AcDbEntity
  8
Holes_T28
100
AcDbCircle
 10
8.115277952755907
 20
1.2108200787401575
 30
0.0
 40
0.0625
  0
CIRCLE
  5
1B0
330
17
100
AcDbEntity
  8
Holes_T28
100
AcDbCircle
 10
8.081920472440945
 20
0.9771212598425201
 30
0.0
 40
0.0625
  0
CIRCLE
  5
1B1
330
17
100
AcDbEntity
  8
Holes_T28
100
AcDbCircle
 10
8.036629527559056
 20
0.745307480314961
 30
0.0
 40
0.0625
  0
CIRCLE
  5
1B2
330
17
100
AcDbEntity
  8
Holes_T28
100
AcDbCircle
 10
8.258612992125984
 20
0.6432633858267713
 30
0.0
 40
0.0625
  0
CIRCLE
  5
1B3
330
17
100
AcDbEntity
  8
Holes_T28
100
AcDbCircle
 10
8.30083779527559
 20
0.8440559055118111
 30
0.0
 40
0.0625
  0
CIRCLE
  5
1B4
330
17
100
AcDbEntity
  8
Holes_T28
100
AcDbCircle
 10
8.401367716535434
 20
1.057272834645669
 30
0.0
 40
0.0625
  0
CIRCLE
  5
1B5
330
17
100
AcDbEntity
  8
Holes_T28
100
AcDbCircle
 10
8.458374015748033
 20
1.2862874015748027
 30
0.0
 40
0.0625
  0
CIRCLE
  5
1B6
330
17
100
AcDbEntity
  8
Holes_T28
100
AcDbCircle
 10
8.492924803149608
 20
1.5199381889763777
 30
0.0
 40
0.0625
  0
CIRCLE
  5
1B7
330
17
100
AcDbEntity
  8
Holes_T28
100
AcDbCircle
 10
8.523050787401575
 20
1.754226771653543
 30
0.0
 40
0.0625
  0
CIRCLE
  5
1B8
330
17
100
AcDbEntity
  8
Holes_T28
100
AcDbCircle
 10
8.566407086614173
 20
1.9863208661417324
 30
0.0
 40
0.0625
  0
CIRCLE
  5
1B9
330
17
100
AcDbEntity
  8
Holes_T28
100
AcDbCircle
 10
8.65013661417323
 20
2.206541338582677
 30
0.0
 40
0.0625
  0
CIRCLE
  5
1BA
330
17
100
AcDbEntity
  8
Holes_T28
100
AcDbCircle
 10
8.795007086614174
 20
2.391648031496063
 30
0.0
 40
0.0625
  0
CIRCLE
  5
1BB
330
17
100
AcDbEntity
  8
Holes_T28
100
AcDbCircle
 10
8.994166141732284
 20
2.51668031496063
 30
0.0
 40
0.0625
  0
CIRCLE
  5
1BC
330
17
100
AcDbEntity
  8
Holes_T28
100
AcDbCircle
 10
9.220579133858267
 20
2.5822858267716535
 30
0.0
 40
0.0625
  0
CIRCLE
  5
1BD
330
17
100
AcDbEntity
  8
Holes_T28
100
AcDbCircle
 10
9.455286614173229
 20
2.607306299212598
 30
0.0
 40
0.0625
  0
CIRCLE
  5
1BE
330
17
100
AcDbEntity
  8
Holes_T28
100
AcDbCircle
 10
9.691410236220474
 20
2.6055287401574807
 30
0.0
 40
0.0625
  0
CIRCLE
  5
1BF
330
17
100
AcDbEntity
  8
Holes_T28
100
AcDbCircle
 10
9.926559448818898
 20
2.5836712598425198
 30
0.0
 40
0.0625
  0
CIRCLE
  5
1C0
330
17
100
AcDbEntity
  8
Holes_T28
100
AcDbCircle
 10
10.159205905511811
 20
2.5431964566929133
 30
0.0
 40
0.0625
  0
CIRCLE
  5
1C1
330
17
100
AcDbEntity
  8
Holes_T28
100
AcDbCircle
 10
10.385111811023622
 20
2.4750429133858267
 30
0.0
 40
0.0625
  0
CIRCLE
  5
1C2
330
17
100
AcDbEntity
  8
Holes_T28
100
AcDbCircle
 10
10.58484094488189
 20
2.3519370078740156
 30
0.0
 40
0.0625
  0
CIRCLE
  5
1C3
330
17
100
AcDbEntity
  8
Holes_T28
100
AcDbCircle
 10
10.663424803149608
 20
2.13843031496063
 30
0.0
 40
0.0625
  0
CIRCLE
  5
1C4
330
17
100
AcDbEntity
  8
Holes_T28
100
AcDbCircle
 10
10.515973622047245
 20
1.9663271653543304
 30
0.0
 40
0.0625
  0
CIRCLE
  5
1C5
330
17
100
AcDbEntity
  8
Holes_T28
100
AcDbCircle
 10
10.288452755905514
 20
1.9058744094488191
 30
0.0
 40
0.0625
  0
CIRCLE
  5
1C6
330
17
100
AcDbEntity
  8
Holes_T28
100
AcDbCircle
 10
10.053154724409449
 20
1.8862956692913389
 30
0.0
 40
0.0625
  0
CIRCLE
  5
1C7
330
17
100
AcDbEntity
  8
Holes_T28
100
AcDbCircle
 10
9.816968503937009
 20
1.8843338582677163
 30
0.0
 40
0.0625
  0
CIRCLE
  5
1C8
330
17
100
AcDbEntity
  8
Holes_T28
100
AcDbCircle
 10
9.580762598425197
 20
1.8851303149606295
 30
0.0
 40
0.0625
  0
CIRCLE
  5
1C9
330
17
100
AcDbEntity
  8
Holes_T28
100
AcDbCircle
 10
9.346209055118111
 20
1.8607874015748036
 30
0.0
 40
0.0625
  0
CIRCLE
  5
1CA
330
17
100
AcDbEntity
  8
Holes_T28
100
AcDbCircle
 10
9.140658267716535
 20
1.7515614173228342
 30
0.0
 40
0.0625
  0
CIRCLE
  5
1CB
330
17
100
AcDbEntity
  8
Holes_T28
100
AcDbCircle
 10
9.07566377952756
 20
1.5355263779527566
 30
0.0
 40
0.0625
  0
CIRCLE
  5
1CC
330
17
100
AcDbEntity
  8
Holes_T28
100
AcDbCircle
 10
9.233783858267717
 20
1.368632283464567
 30
0.0
 40
0.0625
  0
CIRCLE
  5
1CD
330
17
100
AcDbEntity
  8
Holes_T28
100
AcDbCircle
 10
9.453750393700787
 20
1.2839543307086612
 30
0.0
 40
0.0625
  0
CIRCLE
  5
1CE
330
17
100
AcDbEntity
  8
Holes_T28
100
AcDbCircle
 10
9.685433070866141
 20
1.2389090551181101
 30
0.0
 40
0.0625
  0
CIRCLE
  5
1CF
330
17
100
AcDbEntity
  8
Holes_T28
100
AcDbCircle
 10
9.921140551181104
 20
1.2269381889763782
 30
0.0
 40
0.0625
  0
CIRCLE
  5
1D0
330
17
100
AcDbEntity
  8
Holes_T28
100
AcDbCircle
 10
10.156782283464569
 20
1.242649212598425
 30
0.0
 40
0.0625
  0
CIRCLE
  5
1D1
330
17
100
AcDbEntity
  8
Holes_T28
100
AcDbCircle
 10
10.362498818897638
 20
1.1599381889763785
 30
0.0
 40
0.0625
  0
CIRCLE
  5
1D2
330
17
100
AcDbEntity
  8
Holes_T28
100
AcDbCircle
 10
10.137705511811024
 20
1.025726377952756
 30
0.0
 40
0.0625
  0
CIRCLE
  5
1D3
330
17
100
AcDbEntity
  8
Holes_T28
100
AcDbCircle
 10
9.932346062992126
 20
0.9094350393700786
 30
0.0
 40
0.0625
  0
CIRCLE
  5
1D4
330
17
100
AcDbEntity
  8
Holes_T28
100
AcDbCircle
 10
9.712760236220472
 20
0.8227374015748028
 30
0.0
 40
0.0625
  0
CIRCLE
  5
1D5
330
17
100
AcDbEntity
  8
Holes_T28
100
AcDbCircle
 10
9.487275196850394
 20
0.7523696850393696
 30
0.0
 40
0.0625
  0
CIRCLE
  5
1D6
330
17
100
AcDbEntity
  8
Holes_T28
100
AcDbCircle
 10
9.263144881889765
 20
0.6779901574803145
 30
0.0
 40
0.0625
  0
CIRCLE
  5
1D7
330
17
100
AcDbEntity
  8
Holes_T28
100
AcDbCircle
 10
9.089347637795276
 20
0.5330653543307089
 30
0.0
 40
0.0625
  0
CIRCLE
  5
1D8
330
17
100
AcDbEntity
  8
Holes_T28
100
AcDbCircle
 10
9.246536220472441
 20
0.3848677165354335
 30
0.0
 40
0.0625
  0
CIRCLE
  5
1D9
330
17
100
AcDbEntity
  8
Holes_T28
100
AcDbCircle
 10
9.481473228346458
 20
0.3792901574803152
 30
0.0
 40
0.0625
  0
CIRCLE
  5
1DA
330
17
100
AcDbEntity
  8
Holes_T28
100
AcDbCircle
 10
9.713162204724409
 20
0.4244830708661417
 30
0.0
 40
0.0625
  0
CIRCLE
  5
1DB
330
17
100
AcDbEntity
  8
Holes_T28
100
AcDbCircle
 10
9.939233070866143
 20
0.4927606299212599
 30
0.0
 40
0.0625
  0
CIRCLE
  5
1DC
330
17
100
AcDbEntity
  8
Holes_T28
100
AcDbCircle
 10
10.15945905511811
 20
0.5780444881889767
 30
0.0
 40
0.0625
  0
CIRCLE
  5
1DD
330
17
100
AcDbEntity
  8
Holes_T28
100
AcDbCircle
 10
10.370849606299213
 20
0.6831992125984254
 30
0.0
 40
0.0625
  0
SPLINE
  5
1DF
330
17
100
AcDbEntity
  8
TrackPath_T28
100
AcDbSpline
 70
0
 71
3
 72
0
 73
0
 74
121
 11
1.0220205118110237
 21
0.18990354330708709
 31
0.0
 11
1.1927046062992126
 21
0.3525082677165355
 31
0.0
 11
1.3642192125984252
 21
0.5149216535433075
 31
0.0
 11
1.5277635433070866
 21
0.685312204724409
 31
0.0
 11
1.6740099606299212
 21
0.8705870078740158
 31
0.0
 11
1.7784264173228346
 21
1.081508267716536
 31
0.0
 11
1.8021457480314962
 21
1.3148838582677171
 31
0.0
 11
1.7233548031496064
 21
1.5351370078740159
 31
0.0
 11
1.5464364566929134
 21
1.68864094488189
 31
0.0
 11
1.4207717322834645
 21
1.8723586614173227
 31
0.0
 11
1.449142283464567
 21
2.1065370078740164
 31
0.0
 11
1.4926302755905514
 21
2.338719291338583
 31
0.0
 11
1.5363911811023623
 21
2.570850787401575
 31
0.0
 11
1.5836186220472444
 21
2.8022952755905512
 31
0.0
 11
1.6403740944881888
 21
3.0315559055118113
 31
0.0
 11
1.7292172047244097
 21
3.249349291338583
 31
0.0
 11
1.876911968503937
 21
3.146193307086614
 31
0.0
 11
1.9448188188976379
 21
2.9200988188976376
 31
0.0
 11
1.994745
 21
2.6892413385826774
 31
0.0
 11
2.0350895275590553
 21
2.4565027559055115
 31
0.0
 11
2.0682761811023624
 21
2.222633070866142
 31
0.0
 11
2.0948689370078744
 21
1.9879220472440948
 31
0.0
 11
2.114703503937008
 21
1.7525440944881894
 31
0.0
 11
2.1292542519685043
 21
1.5167759842519681
 31
0.0
 11
2.14142531496063
 21
1.280868897637796
 31
0.0
 11
2.1561807480314963
 21
1.0451181102362201
 31
0.0
 11
2.1836191732283465
 21
0.8105775590551184
 31
0.0
 11
2.249547322834646
 21
0.5845110236220469
 31
0.0
 11
2.424164763779528
 21
0.4703649606299214
 31
0.0
 11
2.540442952755906
 21
0.6708196850393696
 31
0.0
 11
2.5904757480314964
 21
0.9014917322834642
 31
0.0
 11
2.6211835826771654
 21
1.135686220472441
 31
0.0
 11
2.644318425196851
 21
1.3707665354330705
 31
0.0
 11
2.664092952755906
 21
1.6061555118110233
 31
0.0
 11
2.6831520866141734
 21
1.8416078740157478
 31
0.0
 11
2.704488307086614
 21
2.076861023622048
 31
0.0
 11
2.735386653543307
 21
2.3109929133858267
 31
0.0
 11
2.8480275590551183
 21
2.3860377952755907
 31
0.0
 11
2.931164409448819
 21
2.1652003937007875
 31
0.0
 11
2.9976171259842523
 21
1.9385295275590555
 31
0.0
 11
3.0605380314960633
 21
1.7108433070866145
 31
0.0
 11
3.1251312598425196
 21
1.4836295275590552
 31
0.0
 11
3.197661614173229
 21
1.2588452755905515
 31
0.0
 11
3.284530433070866
 21
1.0392496062992127
 31
0.0
 11
3.394342598425197
 21
0.8303011811023625
 31
0.0
 11
3.5312248031496067
 21
0.6379551181102362
 31
0.0
 11
3.702937480314961
 21
0.4780988188976378
 31
0.0
 11
3.8842363779527562
 21
0.5763078740157477
 31
0.0
 11
3.991400787401575
 21
0.7867661417322832
 31
0.0
 11
4.161993700787402
 21
0.9406279527559059
 31
0.0
 11
4.390377952755906
 21
0.9064874015748029
 31
0.0
 11
4.570970472440945
 21
0.7565594488188978
 31
0.0
 11
4.751447244094488
 21
0.6130582677165349
 31
0.0
 11
4.93230905511811
 21
0.7537212598425197
 31
0.0
 11
5.084789763779528
 21
0.93401062992126
 31
0.0
 11
5.291412992125985
 21
1.0240137795275592
 31
0.0
 11
5.475266929133858
 21
0.8838515748031494
 31
0.0
 11
5.582729133858268
 21
0.6742917322834651
 31
0.0
 11
5.692155905511811
 21
0.4661622047244094
 31
0.0
 11
5.8604917322834655
 21
0.3051228346456697
 31
0.0
 11
6.11122125984252
 21
0.24125826771653552
 31
0.0
 11
6.353700000000001
 21
0.2752889763779533
 31
0.0
 11
6.589495275590552
 21
0.2876114173228346
 31
0.0
 11
6.822273228346457
 21
0.3267303149606296
 31
0.0
 11
7.043893700787401
 21
0.4068818897637796
 31
0.0
 11
7.226658661417323
 21
0.5535606299212599
 31
0.0
 11
7.321422834645669
 21
0.7679870078740155
 31
0.0
 11
7.3606803149606295
 21
1.0008125984251965
 31
0.0
 11
7.399521259842521
 21
1.2337299212598423
 31
0.0
 11
7.478658267716536
 21
1.4556531496062994
 31
0.0
 11
7.613062598425198
 21
1.648883858267717
 31
0.0
 11
7.812549606299213
 21
1.7671952755905516
 31
0.0
 11
8.01114251968504
 21
1.6625283464566927
 31
0.0
 11
8.100894488188978
 21
1.4458484251968502
 31
0.0
 11
8.115277952755907
 21
1.2108200787401575
 31
0.0
 11
8.081920472440945
 21
0.9771212598425201
 31
0.0
 11
8.036629527559056
 21
0.745307480314961
 31
0.0
 11
8.258612992125984
 21
0.6432633858267713
 31
0.0
 11
8.30083779527559
 21
0.8440559055118111
 31
0.0
 11
8.401367716535434
 21
1.057272834645669
 31
0.0
 11
8.458374015748033
 21
1.2862874015748027
 31
0.0
 11
8.492924803149608
 21
1.5199381889763777
 31
0.0
 11
8.523050787401575
 21
1.754226771653543
 31
0.0
 11
8.566407086614173
 21
1.9863208661417324
 31
0.0
 11
8.65013661417323
 21
2.206541338582677
 31
0.0
 11
8.795007086614174
 21
2.391648031496063
 31
0.0
 11
8.994166141732284
 21
2.51668031496063
 31
0.0
 11
9.220579133858267
 21
2.5822858267716535
 31
0.0
 11
9.455286614173229
 21
2.607306299212598
 31
0.0
 11
9.691410236220474
 21
2.6055287401574807
 31
0.0
 11
9.926559448818898
 21
2.5836712598425198
 31
0.0
 11
10.159205905511811
 21
2.5431964566929133
 31
0.0
 11
10.385111811023622
 21
2.4750429133858267
 31
0.0
 11
10.58484094488189
 21
2.3519370078740156
 31
0.0
 11
10.663424803149608
 21
2.13843031496063
 31
0.0
 11
10.515973622047245
 21
1.9663271653543304
 31
0.0
 11
10.288452755905514
 21
1.9058744094488191
 31
0.0
 11
10.053154724409449
 21
1.8862956692913389
 31
0.0
 11
9.816968503937009
 21
1.8843338582677163
 31
0.0
 11
9.580762598425197
 21
1.8851303149606295
 31
0.0
 11
9.346209055118111
 21
1.8607874015748036
 31
0.0
 11
9.140658267716535
 21
1.7515614173228342
 31
0.0
 11
9.07566377952756
 21
1.5355263779527566
 31
0.0
 11
9.233783858267717
 21
1.368632283464567
 31
0.0
 11
9.453750393700787
 21
1.2839543307086612
 31
0.0
 11
9.685433070866141
 21
1.2389090551181101
 31
0.0
 11
9.921140551181104
 21
1.2269381889763782
 31
0.0
 11
10.156782283464569
 21
1.242649212598425
 31
0.0
 11
10.362498818897638
 21
1.1599381889763785
 31
0.0
 11
10.137705511811024
 21
1.025726377952756
 31
0.0
 11
9.932346062992126
 21
0.9094350393700786
 31
0.0
 11
9.712760236220472
 21
0.8227374015748028
 31
0.0
 11
9.487275196850394
 21
0.7523696850393696
 31
0.0
 11
9.263144881889765
 21
0.6779901574803145
 31
0.0
 11
9.089347637795276
 21
0.5330653543307089
 31
0.0
 11
9.246536220472441
 21
0.3848677165354335
 31
0.0
 11
9.481473228346458
 21
0.3792901574803152
 31
0.0
 11
9.713162204724409
 21
0.4244830708661417
 31
0.0
 11
9.939233070866143
 21
0.4927606299212599
 31
0.0
 11
10.15945905511811
 21
0.5780444881889767
 31
0.0
 11
10.370849606299213
 21
0.6831992125984254
 31
0.0
  0
LWPOLYLINE
  5
1E1
330
17
100
AcDbEntity
  8
NumMarks_T28
100
AcDbPolyline
 90
2
 70
0
 10
1.56837609657062
 20
0.9374187874695123
 10
1.7796438246892226
 20
0.8037552282785192
  0
LWPOLYLINE
  5
1E2
330
17
100
AcDbEntity
  8
NumMarks_T28
100
AcDbPolyline
 90
2
 70
0
 10
1.2954847008623342
 20
1.8592323373819841
 10
1.5389726829752461
 20
1.915920983216775
  0
LWPOLYLINE
  5
1E3
330
17
100
AcDbEntity
  8
NumMarks_T28
100
AcDbPolyline
 90
2
 70
0
 10
1.302570781591683
 20
1.8287963396178704
 10
1.5460587637045948
 20
1.8854849854526612
  0
LWPOLYLINE
  5
1E4
330
17
100
AcDbEntity
  8
NumMarks_T28
100
AcDbPolyline
 90
2
 70
0
 10
1.5215187750107408
 20
3.0702652458822413
 10
1.7592294139656368
 20
2.9928465651413814
  0
LWPOLYLINE
  5
1E5
330
17
100
AcDbEntity
  8
NumMarks_T28
100
AcDbPolyline
 90
2
 70
0
 10
2.1609980291134203
 20
2.4605264185820332
 10
1.9140455737882758
 20
2.421610036313347
  0
LWPOLYLINE
  5
1E6
330
17
100
AcDbEntity
  8
NumMarks_T28
100
AcDbPolyline
 90
2
 70
0
 10
2.1561334813298343
 20
2.491395475497676
 10
1.9091810260046902
 20
2.4524790932289897
  0
LWPOLYLINE
  5
1E7
330
17
100
AcDbEntity
  8
NumMarks_T28
100
AcDbPolyline
 90
2
 70
0
 10
2.2662221141058017
 20
1.2879934273148819
 10
2.016628515815458
 20
1.27374436796071
  0
LWPOLYLINE
  5
1E8
330
17
100
AcDbEntity
  8
NumMarks_T28
100
AcDbPolyline
 90
2
 70
0
 10
2.429443059159973
 20
0.7303861541867986
 10
2.6626899804928694
 20
0.6404090810585525
  0
LWPOLYLINE
  5
1E9
330
17
100
AcDbEntity
  8
NumMarks_T28
100
AcDbPolyline
 90
2
 70
0
 10
2.418195925018942
 20
0.7012302890201867
 10
2.6514428463518387
 20
0.6112532158919406
  0
LWPOLYLINE
  5
1EA
330
17
100
AcDbEntity
  8
NumMarks_T28
100
AcDbPolyline
 90
2
 70
0
 10
2.5586098630844196
 20
1.852295930820654
 10
2.807694310143927
 20
1.8309198172108416
  0
LWPOLYLINE
  5
1EB
330
17
100
AcDbEntity
  8
NumMarks_T28
100
AcDbPolyline
 90
2
 70
0
 10
3.122117490861694
 20
1.957733687795416
 10
2.8816747194689127
 20
1.8892700208985973
  0
LWPOLYLINE
  5
1EC
330
17
100
AcDbEntity
  8
NumMarks_T28
100
AcDbPolyline
 90
2
 70
0
 10
3.113559532499592
 20
1.9877890342195137
 10
2.8731167611068105
 20
1.919325367322695
  0
LWPOLYLINE
  5
1ED
330
17
100
AcDbEntity
  8
NumMarks_T28
100
AcDbPolyline
 90
2
 70
0
 10
3.5008302082555853
 20
0.8957640633533828
 10
3.2878549885948085
 20
0.7648382988513422
  0
LWPOLYLINE
  5
1EE
330
17
100
AcDbEntity
  8
NumMarks_T28
100
AcDbPolyline
 90
2
 70
0
 10
4.141033221750522
 20
1.0648446945564558
 10
4.212885670758668
 20
0.8253927670813741
  0
LWPOLYLINE
  5
1EF
330
17
100
AcDbEntity
  8
NumMarks_T28
100
AcDbPolyline
 90
2
 70
0
 10
4.111101730816136
 20
1.0558631384304378
 10
4.182954179824282
 20
0.8164112109553558
  0
LWPOLYLINE
  5
1F0
330
17
100
AcDbEntity
  8
NumMarks_T28
100
AcDbPolyline
 90
2
 70
0
 10
5.009618189468463
 20
1.0338817189089946
 10
5.159961338090594
 20
0.8341395409335255
  0
LWPOLYLINE
  5
1F1
330
17
100
AcDbEntity
  8
NumMarks_T28
100
AcDbPolyline
 90
2
 70
0
 10
5.933369613565103
 20
0.4078747448220729
 10
5.815149025238532
 20
0.18759335092844517
  0
LWPOLYLINE
  5
1F2
330
17
100
AcDbEntity
  8
NumMarks_T28
100
AcDbPolyline
 90
2
 70
0
 10
5.905834439328399
 20
0.42265231836289424
 10
5.7876138510018285
 20
0.20237092446926644
  0
LWPOLYLINE
  5
1F3
330
17
100
AcDbEntity
  8
NumMarks_T28
100
AcDbPolyline
 90
2
 70
0
 10
6.982741440540603
 20
0.5159020762739293
 10
7.105045961034199
 20
0.29786170325362993
  0
LWPOLYLINE
  5
1F4
330
17
100
AcDbEntity
  8
NumMarks_T28
100
AcDbPolyline
 90
2
 70
0
 10
7.374647903562871
 20
1.5267234301293275
 10
7.596962535871142
 20
1.4123721981218054
  0
LWPOLYLINE
  5
1F5
330
17
100
AcDbEntity
  8
NumMarks_T28
100
AcDbPolyline
 90
2
 70
0
 10
7.360353999561931
 20
1.4989341010907935
 10
7.5826686318702015
 20
1.3845828690832713
  0
LWPOLYLINE
  5
1F6
330
17
100
AcDbEntity
  8
NumMarks_T28
100
AcDbPolyline
 90
2
 70
0
 10
8.240175664693897
 20
1.205764235323416
 10
7.990380240817916
 20
1.215875922156899
  0
LWPOLYLINE
  5
1F7
330
17
100
AcDbEntity
  8
NumMarks_T28
100
AcDbPolyline
 90
2
 70
0
 10
8.288859318284365
 20
1.113938529276362
 10
8.524362796595563
 20
1.0300450748038759
  0
LWPOLYLINE
  5
1F8
330
17
100
AcDbEntity
  8
NumMarks_T28
100
AcDbPolyline
 90
2
 70
0
 10
8.278372636475305
 20
1.0845005944874622
 10
8.513876114786504
 20
1.000607140014976
  0
LWPOLYLINE
  5
1F9
330
17
100
AcDbEntity
  8
NumMarks_T28
100
AcDbPolyline
 90
2
 70
0
 10
8.54125900772753
 20
2.267947094132589
 10
8.759014220618928
 20
2.145135583032765
  0
LWPOLYLINE
  5
1FA
330
17
100
AcDbEntity
  8
NumMarks_T28
100
AcDbPolyline
 90
2
 70
0
 10
9.713276691979175
 20
2.729589204196403
 10
9.700754554863927
 20
2.4799030089791523
  0
LWPOLYLINE
  5
1FB
330
17
100
AcDbEntity
  8
NumMarks_T28
100
AcDbPolyline
 90
2
 70
0
 10
9.68206591757702
 20
2.731154471335809
 10
9.669543780461773
 20
2.4814682761185582
  0
LWPOLYLINE
  5
1FC
330
17
100
AcDbEntity
  8
NumMarks_T28
100
AcDbPolyline
 90
2
 70
0
 10
10.78647778494745
 20
2.1164538805214463
 10
10.540371821351766
 20
2.160406749399814
  0
LWPOLYLINE
  5
1FD
330
17
100
AcDbEntity
  8
NumMarks_T28
100
AcDbPolyline
 90
2
 70
0
 10
9.571401553663204
 20
1.7595058290274965
 10
9.558912660657128
 20
2.009193689268003
  0
LWPOLYLINE
  5
1FE
330
17
100
AcDbEntity
  8
NumMarks_T28
100
AcDbPolyline
 90
2
 70
0
 10
9.602612536193266
 20
1.761066940653256
 10
9.59012364318719
 20
2.010754800893763
  0
LWPOLYLINE
  5
1FF
330
17
100
AcDbEntity
  8
NumMarks_T28
100
AcDbPolyline
 90
2
 70
0
 10
9.48825788206379
 20
1.404096884563976
 10
9.419242905337784
 20
1.1638117768533462
  0
LWPOLYLINE
  5
200
330
17
100
AcDbEntity
  8
NumMarks_T28
100
AcDbPolyline
 90
2
 70
0
 10
10.187108544472416
 20
0.9098450550881223
 10
10.061297939141767
 20
1.1258813751510584
  0
LWPOLYLINE
  5
201
330
17
100
AcDbEntity
  8
NumMarks_T28
100
AcDbPolyline
 90
2
 70
0
 10
10.214113084480282
 20
0.9255713807544537
 10
10.088302479149633
 20
1.1416077008173895
  0
LWPOLYLINE
  5
202
330
17
100
AcDbEntity
  8
NumMarks_T28
100
AcDbPolyline
 90
2
 70
0
 10
9.214147464123183
 20
0.5259940497463873
 10
8.96454781146737
 20
0.5401366589150305
  0
LWPOLYLINE
  5
203
330
17
100
AcDbEntity
  8
NumMarks_T28
100
AcDbPolyline
 90
2
 70
0
 10
10.12329505110109
 20
0.698714722457652
 10
10.224213762831509
 20
0.4699890928866039
  0
LWPOLYLINE
  5
204
330
17
100
AcDbEntity
  8
NumMarks_T28
100
AcDbPolyline
 90
2
 70
0
 10
10.09470434740471
 20
0.6860998834913494
 10
10.195623059135128
 20
0.45737425392030134
  0
LWPOLYLINE
  5
206
330
17
100
AcDbEntity
  8
Events_T26
100
AcDbPolyline
 90
3
 70
0
 10
1.2544693307086614
 20
2.749657480314961
 10
1.099139105915057
 20
3.0150215502133246
 10
1.3321507480314962
 20
3.2156484251968505
  0
LWPOLYLINE
  5
207
330
17
100
AcDbEntity
  8
Events_T26
100
AcDbPolyline
 90
2
 70
0
 10
1.3935430708661418
 20
4.1562127559055115
 10
0.9866675196850394
 20
4.32275188976378
  0
LWPOLYLINE
  5
208
330
17
100
AcDbEntity
  8
Events_T26
100
AcDbPolyline
 90
2
 70
0
 10
1.3893770472440945
 20
3.6845338582677165
 10
1.1456567716535435
 20
3.8946479921259844
  0
LWPOLYLINE
  5
209
330
17
100
AcDbEntity
  8
Events_T26
100
AcDbPolyline
 90
2
 70
0
 10
1.4025828740157482
 20
3.9203432283464568
 10
1.5856114173228346
 20
3.767840551181102
  0
LWPOLYLINE
  5
20A
330
17
100
AcDbEntity
  8
Events_T26
100
AcDbPolyline
 90
3
 70
0
 10
1.8118069291338585
 20
3.8312617322834646
 10
2.1136497032664674
 20
3.806960026491054
 10
2.1843979527559054
 20
4.101399015748032
  0
LWPOLYLINE
  5
20B
330
17
100
AcDbEntity
  8
Events_T26
100
AcDbPolyline
 90
2
 70
0
 10
1.3643805118110237
 20
3.4496540157480315
 10
2.5258800000000003
 20
3.7996509842519686
  0
LWPOLYLINE
  5
20C
330
17
100
AcDbEntity
  8
Events_T26
100
AcDbPolyline
 90
2
 70
0
 10
2.587822952755906
 20
2.870925590551181
 10
2.306240472440945
 20
2.7892562992125987
  0
LWPOLYLINE
  5
20D
330
17
100
AcDbEntity
  8
Events_T26
100
AcDbPolyline
 90
2
 70
0
 10
2.617708228346457
 20
3.1051574803149604
 10
2.3086059055118113
 20
3.0245740157480316
  0
LWPOLYLINE
  5
20E
330
17
100
AcDbEntity
  8
Events_T26
100
AcDbPolyline
 90
3
 70
0
 10
2.736728267716536
 20
3.6641134645669293
 10
2.6231088627500263
 20
4.091006953981918
 10
3.0351070472440944
 20
3.931617755905512
  0
LWPOLYLINE
  5
20F
330
17
100
AcDbEntity
  8
Events_T26
100
AcDbPolyline
 90
2
 70
0
 10
2.864029842519685
 20
3.769001102362205
 10
3.39054594488189
 20
3.776803779527559
  0
LWPOLYLINE
  5
210
330
17
100
AcDbEntity
  8
Events_T26
100
AcDbPolyline
 90
2
 70
0
 10
2.62393625984252
 20
3.3411762992125986
 10
3.481347755905512
 20
2.6303653543307086
  0
LWPOLYLINE
  5
211
330
17
100
AcDbEntity
  8
Events_T26
100
AcDbPolyline
 90
2
 70
0
 10
4.554837007874016
 20
1.9889866141732289
 10
5.314032283464567
 20
2.2785433070866143
  0
LWPOLYLINE
  5
212
330
17
100
AcDbEntity
  8
Events_T26
100
AcDbPolyline
 90
2
 70
0
 10
5.86769409448819
 20
2.581547244094488
 10
6.003826771653543
 20
1.698997244094488
  0
LWPOLYLINE
  5
213
330
17
100
AcDbEntity
  8
Events_T26
100
AcDbPolyline
 90
3
 70
0
 10
8.09325472440945
 20
2.517956692913386
 10
8.68680697213754
 20
2.401023873016545
 10
8.893148818897638
 20
2.9697070866141733
  0
CIRCLE
  5
215
330
17
100
AcDbEntity
  8
RampingMarks_T26
100
AcDbCircle
 10
1.1896105073847965
 20
2.8604614230048604
 30
0.0
 40
0.03125
  0
CIRCLE
  5
216
330
17
100
AcDbEntity
  8
RampingMarks_T26
100
AcDbCircle
 10
1.9395896693226236
 20
3.820973798221306
 30
0.0
 40
0.03125
  0
CIRCLE
  5
217
330
17
100
AcDbEntity
  8
RampingMarks_T26
100
AcDbCircle
 10
2.7021913304719924
 20
3.7938764540701326
 30
0.0
 40
0.03125
  0
CIRCLE
  5
218
330
17
100
AcDbEntity
  8
RampingMarks_T26
100
AcDbCircle
 10
8.844692756343132
 20
2.8361609843355517
 30
0.0
 40
0.03125
  0
LWPOLYLINE
  5
21A
330
17
100
AcDbEntity
  8
Events_T27
100
AcDbPolyline
 90
3
 70
0
 10
0.6523129527559056
 20
4.9796424409448825
 10
0.949664801963775
 20
5.0320388278302195
 10
0.9424265748031496
 20
5.333885
  0
LWPOLYLINE
  5
21B
330
17
100
AcDbEntity
  8
Events_T27
100
AcDbPolyline
 90
2
 70
0
 10
1.118891377952756
 20
5.216377086614174
 10
1.5852652755905512
 20
5.022321181102362
  0
LWPOLYLINE
  5
21C
330
17
100
AcDbEntity
  8
Events_T27
100
AcDbPolyline
 90
2
 70
0
 10
1.3952775984251968
 20
4.890710078740158
 10
2.211984921259843
 20
4.579112244094488
  0
LWPOLYLINE
  5
21D
330
17
100
AcDbEntity
  8
Events_T27
100
AcDbPolyline
 90
2
 70
0
 10
2.153376850393701
 20
4.807014330708662
 10
2.6214515748031495
 20
4.603854212598426
  0
LWPOLYLINE
  5
21E
330
17
100
AcDbEntity
  8
Events_T27
100
AcDbPolyline
 90
2
 70
0
 10
2.0695645275590553
 20
5.02641374015748
 10
2.686906102362205
 20
4.826468070866142
  0
LWPOLYLINE
  5
21F
330
17
100
AcDbEntity
  8
Events_T27
100
AcDbPolyline
 90
2
 70
0
 10
1.9139117716535434
 20
5.202567007874015
 10
2.7435965354330714
 20
5.283538385826772
  0
LWPOLYLINE
  5
220
330
17
100
AcDbEntity
  8
Events_T27
100
AcDbPolyline
 90
3
 70
0
 10
1.706141220472441
 20
5.224870354330709
 10
2.2987265648216644
 20
6.0407584551345455
 10
2.964662007874016
 20
5.283552559055119
  0
LWPOLYLINE
  5
221
330
17
100
AcDbEntity
  8
Events_T27
100
AcDbPolyline
 90
2
 70
0
 10
3.1305158661417325
 20
4.858707322834646
 10
3.6103965748031497
 20
4.967224488188976
  0
LWPOLYLINE
  5
222
330
17
100
AcDbEntity
  8
Events_T27
100
AcDbPolyline
 90
3
 70
0
 10
3.720172755905512
 20
5.162428346456693
 10
3.9204324282593714
 20
4.725116077997622
 10
4.380208267716536
 20
4.583864055118111
  0
LWPOLYLINE
  5
223
330
17
100
AcDbEntity
  8
Events_T27
100
AcDbPolyline
 90
2
 70
0
 10
4.291263779527559
 20
4.122676496062992
 10
4.686305118110236
 20
3.7658738976377957
  0
LWPOLYLINE
  5
224
330
17
100
AcDbEntity
  8
Events_T27
100
AcDbPolyline
 90
2
 70
0
 10
4.4515015748031495
 20
3.7484689370078743
 10
4.747743700787402
 20
3.372745275590552
  0
LWPOLYLINE
  5
225
330
17
100
AcDbEntity
  8
Events_T27
100
AcDbPolyline
 90
3
 70
0
 10
5.151274409448819
 20
3.4982168897637798
 10
5.014848658007121
 20
3.7737833536832524
 10
5.26129842519685
 20
3.9576620472440944
  0
LWPOLYLINE
  5
226
330
17
100
AcDbEntity
  8
Events_T27
100
AcDbPolyline
 90
2
 70
0
 10
4.300724015748032
 20
4.803397401574803
 10
5.509844881889764
 20
4.61626125984252
  0
LWPOLYLINE
  5
227
330
17
100
AcDbEntity
  8
Events_T27
100
AcDbPolyline
 90
2
 70
0
 10
6.374802755905512
 20
4.079767874015748
 10
6.857077952755906
 20
4.14105220472441
  0
LWPOLYLINE
  5
228
330
17
100
AcDbEntity
  8
Events_T27
100
AcDbPolyline
 90
2
 70
0
 10
7.985456299212599
 20
3.5659844488188974
 10
8.399005118110237
 20
3.8259882283464566
  0
LWPOLYLINE
  5
229
330
17
100
AcDbEntity
  8
Events_T27
100
AcDbPolyline
 90
2
 70
0
 10
7.863436220472441
 20
3.364478385826772
 10
8.911720472440946
 20
3.381693070866142
  0
CIRCLE
  5
22B
330
17
100
AcDbEntity
  8
RampingMarks_T27
100
AcDbCircle
 10
0.778527769536485
 20
5.001882761253347
 30
0.0
 40
0.03125
  0
CIRCLE
  5
22C
330
17
100
AcDbEntity
  8
RampingMarks_T27
100
AcDbCircle
 10
1.2455915777880406
 20
5.163657751050804
 30
0.0
 40
0.03125
  0
CIRCLE
  5
22D
330
17
100
AcDbEntity
  8
RampingMarks_T27
100
AcDbCircle
 10
2.2794842840207163
 20
4.752279477972131
 30
0.0
 40
0.03125
  0
CIRCLE
  5
22E
330
17
100
AcDbEntity
  8
RampingMarks_T27
100
AcDbCircle
 10
3.263762559852675
 20
4.888838881018517
 30
0.0
 40
0.03125
  0
CIRCLE
  5
22F
330
17
100
AcDbEntity
  8
RampingMarks_T27
100
AcDbCircle
 10
4.25011434372105
 20
4.623831422586552
 30
0.0
 40
0.03125
  0
CIRCLE
  5
230
330
17
100
AcDbEntity
  8
RampingMarks_T27
100
AcDbCircle
 10
4.583503803636765
 20
3.8587243731279295
 30
0.0
 40
0.03125
  0
CIRCLE
  5
231
330
17
100
AcDbEntity
  8
RampingMarks_T27
100
AcDbCircle
 10
8.745999305264842
 20
3.3789716356333446
 30
0.0
 40
0.03125
  0
LWPOLYLINE
  5
233
330
17
100
AcDbEntity
  8
Events_T28
100
AcDbPolyline
 90
3
 70
0
 10
1.4926302755905514
 20
2.338719291338583
 10
1.7312892761941723
 20
2.5325938694104955
 10
1.5836186220472444
 20
2.8022952755905512
  0
LWPOLYLINE
  5
234
330
17
100
AcDbEntity
  8
Events_T28
100
AcDbPolyline
 90
2
 70
0
 10
1.6403740944881888
 20
3.0315559055118113
 10
1.876911968503937
 20
3.146193307086614
  0
LWPOLYLINE
  5
235
330
17
100
AcDbEntity
  8
Events_T28
100
AcDbPolyline
 90
2
 70
0
 10
1.4207717322834645
 20
1.8723586614173227
 10
2.0682761811023624
 20
2.222633070866142
  0
LWPOLYLINE
  5
236
330
17
100
AcDbEntity
  8
Events_T28
100
AcDbPolyline
 90
2
 70
0
 10
2.1836191732283465
 20
0.8105775590551184
 10
2.540442952755906
 20
0.6708196850393696
  0
LWPOLYLINE
  5
237
330
17
100
AcDbEntity
  8
Events_T28
100
AcDbPolyline
 90
2
 70
0
 10
2.14142531496063
 20
1.280868897637796
 10
2.5904757480314964
 20
0.9014917322834642
  0
LWPOLYLINE
  5
238
330
17
100
AcDbEntity
  8
Events_T28
100
AcDbPolyline
 90
2
 70
0
 10
2.1292542519685043
 20
1.5167759842519681
 10
2.6211835826771654
 20
1.135686220472441
  0
LWPOLYLINE
  5
239
330
17
100
AcDbEntity
  8
Events_T28
100
AcDbPolyline
 90
2
 70
0
 10
2.114703503937008
 20
1.7525440944881894
 10
2.664092952755906
 20
1.6061555118110233
  0
LWPOLYLINE
  5
23A
330
17
100
AcDbEntity
  8
Events_T28
100
AcDbPolyline
 90
3
 70
0
 10
2.6831520866141734
 20
1.8416078740157478
 10
2.3179839479554425
 20
2.1198438023226784
 10
2.735386653543307
 20
2.3109929133858267
  0
LWPOLYLINE
  5
23B
330
17
100
AcDbEntity
  8
Events_T28
100
AcDbPolyline
 90
3
 70
0
 10
2.8480275590551183
 20
2.3860377952755907
 10
3.2962144026530558
 20
2.2870982416152215
 10
2.9976171259842523
 20
1.9385295275590555
  0
LWPOLYLINE
  5
23C
330
17
100
AcDbEntity
  8
Events_T28
100
AcDbPolyline
 90
2
 70
0
 10
2.644318425196851
 20
1.3707665354330705
 10
3.1251312598425196
 20
1.4836295275590552
  0
LWPOLYLINE
  5
23D
330
17
100
AcDbEntity
  8
Events_T28
100
AcDbPolyline
 90
2
 70
0
 10
3.8842363779527562
 20
0.5763078740157477
 10
4.751447244094488
 20
0.6130582677165349
  0
LWPOLYLINE
  5
23E
330
17
100
AcDbEntity
  8
Events_T28
100
AcDbPolyline
 90
2
 70
0
 10
4.93230905511811
 20
0.7537212598425197
 10
5.582729133858268
 20
0.6742917322834651
  0
LWPOLYLINE
  5
23F
330
17
100
AcDbEntity
  8
Events_T28
100
AcDbPolyline
 90
3
 70
0
 10
6.11122125984252
 20
0.24125826771653552
 10
6.369347552291234
 20
0.06850249559479327
 10
6.589495275590552
 20
0.2876114173228346
  0
LWPOLYLINE
  5
240
330
17
100
AcDbEntity
  8
Events_T28
100
AcDbPolyline
 90
2
 70
0
 10
5.8604917322834655
 20
0.3051228346456697
 10
7.3606803149606295
 20
1.0008125984251965
  0
LWPOLYLINE
  5
241
330
17
100
AcDbEntity
  8
Events_T28
100
AcDbPolyline
 90
2
 70
0
 10
8.081920472440945
 20
0.9771212598425201
 10
8.30083779527559
 20
0.8440559055118111
  0
LWPOLYLINE
  5
242
330
17
100
AcDbEntity
  8
Events_T28
100
AcDbPolyline
 90
2
 70
0
 10
8.100894488188978
 20
1.4458484251968502
 10
8.492924803149608
 20
1.5199381889763777
  0
CIRCLE
  5
244
330
17
100
AcDbEntity
  8
RampingMarks_T28
100
AcDbCircle
 10
1.6452791864038256
 20
2.68968020654454
 30
0.0
 40
0.03125
  0
CIRCLE
  5
245
330
17
100
AcDbEntity
  8
RampingMarks_T28
100
AcDbCircle
 10
1.5515852048615544
 20
1.9431235989228801
 30
0.0
 40
0.03125
  0
CIRCLE
  5
246
330
17
100
AcDbEntity
  8
RampingMarks_T28
100
AcDbCircle
 10
2.48259940379138
 20
0.9926303186705858
 30
0.0
 40
0.03125
  0
CIRCLE
  5
247
330
17
100
AcDbEntity
  8
RampingMarks_T28
100
AcDbCircle
 10
2.508196016032222
 20
1.223215876451108
 30
0.0
 40
0.03125
  0
CIRCLE
  5
248
330
17
100
AcDbEntity
  8
RampingMarks_T28
100
AcDbCircle
 10
3.0854911459426813
 20
2.0411096129421837
 30
0.0
 40
0.03125
  0
CIRCLE
  5
249
330
17
100
AcDbEntity
  8
RampingMarks_T28
100
AcDbCircle
 10
2.9920488115600774
 20
1.4523905875177043
 30
0.0
 40
0.03125
  0
CIRCLE
  5
24A
330
17
100
AcDbEntity
  8
RampingMarks_T28
100
AcDbCircle
 10
4.039823725286205
 20
0.5829013064698457
 30
0.0
 40
0.03125
  0
CIRCLE
  5
24B
330
17
100
AcDbEntity
  8
RampingMarks_T28
100
AcDbCircle
 10
5.0758228105607115
 20
0.7361953098209407
 30
0.0
 40
0.03125
  0
CIRCLE
  5
24C
330
17
100
AcDbEntity
  8
RampingMarks_T28
100
AcDbCircle
 10
6.218028997618563
 20
0.16977522337790824
 30
0.0
 40
0.03125
  0
ENDSEC
  0
SECTION
  2
OBJECTS
  0
DICTIONARY
  5
A
330
0
100
AcDbDictionary
280
0
281
1
  3
ACAD_COLOR
350
B
  3
ACAD_GROUP
350
C
  3
ACAD_LAYOUT
350
D
  3
ACAD_MATERIAL
350
E
  3
ACAD_MLEADERSTYLE
350
F
  3
ACAD_MLINESTYLE
350
10
  3
ACAD_PLOTSETTINGS
350
11
  3
ACAD_PLOTSTYLENAME
350
12
  3
ACAD_SCALELIST
350
14
  3
ACAD_TABLESTYLE
350
15
  3
ACAD_VISUALSTYLE
350
16
  3
EZDXF_META
350
2D
  0
DICTIONARY
  5
B
330
A
100
AcDbDictionary
280
0
281
1
  0
DICTIONARY
  5
C
330
A
100
AcDbDictionary
280
0
281
1
  0
DICTIONARY
  5
D
330
A
100
AcDbDictionary
280
0
281
1
  3
Model
350
1A
  3
Layout1
350
1E
  0
DICTIONARY
  5
E
330
A
100
AcDbDictionary
280
0
281
1
  3
ByBlock
350
1F
  3
ByLayer
350
20
  3
Global
350
21
  0
DICTIONARY
  5
F
330
A
100
AcDbDictionary
280
0
281
1
  3
Standard
350
2C
  0
DICTIONARY
  5
10
330
A
100
AcDbDictionary
280
0
281
1
  3
Standard
350
22
  0
DICTIONARY
  5
11
330
A
100
AcDbDictionary
280
0
281
1
  0
ACDBDICTIONARYWDFLT
  5
12
330
A
100
AcDbDictionary
280
0
281
1
  3
Normal
350
13
100
AcDbDictionaryWithDefault
340
13
  0
ACDBPLACEHOLDER
  5
13
330
12
  0
DICTIONARY
  5
14
330
A
100
AcDbDictionary
280
0
281
1
  0
DICTIONARY
  5
15
330
A
100
AcDbDictionary
280
0
281
1
  0
DICTIONARY
  5
16
330
A
100
AcDbDictionary
280
0
281
1
  0
LAYOUT
  5
1A
330
D
100
AcDbPlotSettings
  1

  4
A3
  6

 40
7.5
 41
20.0
 42
7.5
 43
20.0
 44
420.0
 45
297.0
 46
0.0
 47
0.0
 48
0.0
 49
0.0
140
0.0
141
0.0
142
1.0
143
1.0
 70
1024
 72
1
 73
0
 74
5
  7

 75
16
 76
0
 77
2
 78
300
147
1.0
148
0.0
149
0.0
100
AcDbLayout
  1
Model
 70
1
 71
0
 10
0.0
 20
0.0
 11
420.0
 21
297.0
 12
0.0
 22
0.0
 32
0.0
 14
1e+20
 24
1e+20
 34
1e+20
 15
-1e+20
 25
-1e+20
 35
-1e+20
146
0.0
 13
0.0
 23
0.0
 33
0.0
 16
1.0
 26
0.0
 36
0.0
 17
0.0
 27
1.0
 37
0.0
 76
1
330
17
  0
LAYOUT
  5
1E
330
D
100
AcDbPlotSettings
  1

  4
A3
  6

 40
7.5
 41
20.0
 42
7.5
 43
20.0
 44
420.0
 45
297.0
 46
0.0
 47
0.0
 48
0.0
 49
0.0
140
0.0
141
0.0
142
1.0
143
1.0
 70
0
 72
1
 73
0
 74
5
  7

 75
16
 76
0
 77
2
 78
300
147
1.0
148
0.0
149
0.0
100
AcDbLayout
  1
Layout1
 70
1
 71
1
 10
0.0
 20
0.0
 11
420.0
 21
297.0
 12
0.0
 22
0.0
 32
0.0
 14
1e+20
 24
1e+20
 34
1e+20
 15
-1e+20
 25
-1e+20
 35
-1e+20
146
0.0
 13
0.0
 23
0.0
 33
0.0
 16
1.0
 26
0.0
 36
0.0
 17
0.0
 27
1.0
 37
0.0
 76
1
330
1B
  0
MATERIAL
  5
1F
102
{ACAD_REACTORS
330
E
102
}
330
E
100
AcDbMaterial
  1
ByBlock
  2

 70
0
 40
1.0
 71
1
 41
1.0
 91
-1023410177
 42
1.0
 72
1
  3

 73
1
 74
1
 75
1
 44
0.5
 73
0
 45
1.0
 46
1.0
 77
1
  4

 78
1
 79
1
170
1
 48
1.0
171
1
  6

172
1
173
1
174
1
140
1.0
141
1.0
175
1
  7

176
1
177
1
178
1
143
1.0
179
1
  8

270
1
271
1
272
1
145
1.0
146
1.0
273
1
  9

274
1
275
1
276
1
 42
1.0
 72
1
  3

 73
1
 74
1
 75
1
 94
63
  0
MATERIAL
  5
20
102
{ACAD_REACTORS
330
E
102
}
330
E
100
AcDbMaterial
  1
ByLayer
  2

 70
0
 40
1.0
 71
1
 41
1.0
 91
-1023410177
 42
1.0
 72
1
  3

 73
1
 74
1
 75
1
 44
0.5
 73
0
 45
1.0
 46
1.0
 77
1
  4

 78
1
 79
1
170
1
 48
1.0
171
1
  6

172
1
173
1
174
1
140
1.0
141
1.0
175
1
  7

176
1
177
1
178
1
143
1.0
179
1
  8

270
1
271
1
272
1
145
1.0
146
1.0
273
1
  9

274
1
275
1
276
1
 42
1.0
 72
1
  3

 73
1
 74
1
 75
1
 94
63
  0
MATERIAL
  5
21
102
{ACAD_REACTORS
330
E
102
}
330
E
100
AcDbMaterial
  1
Global
  2

 70
0
 40
1.0
 71
1
 41
1.0
 91
-1023410177
 42
1.0
 72
1
  3

 73
1
 74
1
 75
1
 44
0.5
 73
0
 45
1.0
 46
1.0
 77
1
  4

 78
1
 79
1
170
1
 48
1.0
171
1
  6

172
1
173
1
174
1
140
1.0
141
1.0
175
1
  7

176
1
177
1
178
1
143
1.0
179
1
  8

270
1
271
1
272
1
145
1.0
146
1.0
273
1
  9

274
1
275
1
276
1
 42
1.0
 72
1
  3

 73
1
 74
1
 75
1
 94
63
  0
MLINESTYLE
  5
22
102
{ACAD_REACTORS
330
10
102
}
330
10
100
AcDbMlineStyle
  2
Standard
 70
0
  3

 62
256
 51
90.0
 52
90.0
 71
2
 49
0.5
 62
256
  6
BYLAYER
 49
-0.5
 62
256
  6
BYLAYER
  0
MLEADERSTYLE
  5
2C
102
{ACAD_REACTORS
330
F
102
}
330
F
100
AcDbMLeaderStyle
179
2
170
2
171
1
172
0
 90
2
 40
0.0
 41
0.0
173
1
 91
-1056964608
 92
-2
290
1
 42
2.0
291
1
 43
8.0
  3
Standard
 44
4.0
300

342
29
174
1
175
1
176
0
178
1
 93
-1056964608
 45
4.0
292
0
297
0
 46
4.0
 94
-1056964608
 47
1.0
 49
1.0
140
1.0
294
1
141
0.0
177
0
142
1.0
295
0
296
0
143
3.75
271
0
272
9
273
9
  0
DICTIONARY
  5
2D
330
A
100
AcDbDictionary
281
1
  3
CREATED_BY_EZDXF
350
2E
  3
WRITTEN_BY_EZDXF
350
24F
  0
DICTIONARYVAR
  5
2E
330
2D
100
DictionaryVariables
280
0
  1
1.3.3 @ 2024-09-04T22:31:14.128772+00:00
  0
DICTIONARYVAR
  5
24F
330
2D
100
DictionaryVariables
280
0
  1
1.3.3 @ 2024-09-04T22:31:14.151816+00:00
  0
ENDSEC
  0
EOF
